<?xml version="1.0" encoding="utf-8"?>
<!-- Generator: Adobe Illustrator 25.4.1, SVG Export Plug-In . SVG Version: 6.00 Build 0)  -->
<!DOCTYPE svg PUBLIC "-//W3C//DTD SVG 1.1//EN" "http://www.w3.org/Graphics/SVG/1.1/DTD/svg11.dtd" [
	<!ENTITY ns_extend "http://ns.adobe.com/Extensibility/1.0/">
	<!ENTITY ns_ai "http://ns.adobe.com/AdobeIllustrator/10.0/">
	<!ENTITY ns_graphs "http://ns.adobe.com/Graphs/1.0/">
	<!ENTITY ns_vars "http://ns.adobe.com/Variables/1.0/">
	<!ENTITY ns_imrep "http://ns.adobe.com/ImageReplacement/1.0/">
	<!ENTITY ns_sfw "http://ns.adobe.com/SaveForWeb/1.0/">
	<!ENTITY ns_custom "http://ns.adobe.com/GenericCustomNamespace/1.0/">
	<!ENTITY ns_adobe_xpath "http://ns.adobe.com/XPath/1.0/">
]>
<svg version="1.1" id="Capa_1" xmlns:x="&ns_extend;" xmlns:i="&ns_ai;" xmlns:graph="&ns_graphs;"
	 xmlns="http://www.w3.org/2000/svg" xmlns:xlink="http://www.w3.org/1999/xlink" x="0px" y="0px" viewBox="0 0 1242 2208"
	 style="enable-background:new 0 0 1242 2208;" xml:space="preserve">
<style type="text/css">
	.st0{display:none;}
	.st1{display:inline;opacity:0.3;fill:#FCF8F0;enable-background:new    ;}
	.st2{fill:#4D4D4D;}
	.st3{fill:none;}
	.st4{fill:none;stroke:#4D4D4D;stroke-width:2;stroke-miterlimit:10;}
</style>
<metadata>
	<sfw  xmlns="&ns_sfw;">
		<slices></slices>
		<sliceSourceBounds  bottomLeftOrigin="true" height="2267.5" width="1896.2" x="-16.9" y="-29.9"></sliceSourceBounds>
	</sfw>
</metadata>
<g id="fondo" class="st0">
	<rect x="-16.9" y="-29.6" class="st1" width="1275.5" height="2267.5"/>
</g>
<g id="Capa_2_00000086679546629099905610000014225892356357704576_" class="st0">
</g>
<g id="Capa_4" class="st0">
</g>
<g>
	<g>
		<path class="st2" d="M377.4,1373.3c3.2-18.3,22.6-27.2,38.4-29.1c1.4-0.2,3-0.4,4.6-0.4c9-10.9,20.9-14.6,26.4-15.5
			c13.9-2.1,21.3,5.8,13.7,11.3c-5.5,3.8-22.5,4.3-35.5,5c-7.1,8.9-10.1,18.2-8.9,24.3c1.7,8.2,7.1,10.5,20.8,5
			c10.5-4.2,20.5-19,23.9-25c0.5-1.1,0.8-1.7,0.8-1.7c1.5-1,2.9,0.4,2.4,5.4c0,0-8.2,22.2-16.9,40.6c4.5,0.7,9,1.5,16.2,2.1
			c14.3,1.2,21.7-1.1,30.1-4.3c-8.3,3.8-17.2,7.9-45.1,3.1c-0.5-0.1-1.1-0.2-1.7-0.4c-3.7,7.9-7.6,14.9-10.9,19.2
			c-7.7,9.6-17.2,12-24.4,11.4c-12.3-1-12.6-11.9-9-17.8c5.2-9,18.9-14,31.4-14.4c3.4-0.1,6.4,0,9,0.4c1.3-3,2.4-6.1,3.7-9.3
			c4.4-11.4,8.3-20.3,10.9-26.3c-5,7.7-13.2,16.1-23.2,19.4c-23.3,7.7-25.5-13.2-17.8-26.5c1-1.7,2-3.2,3.2-4.8
			C397.1,1346.8,382.7,1356.9,377.4,1373.3z M410.3,1400.2c-12,7.7-11.2,22,0.5,23.2c15.1,1.4,23.6-11.5,31.4-30
			C427.8,1392.1,417.9,1395.4,410.3,1400.2z M429.6,1339.6c-1.3,1.2-2.4,2.5-3.6,3.8c11.1-0.7,24.5-1.2,29.6-2.9
			c11.8-3.7,5.4-10.9-1.7-11.2C444.1,1328.9,435.8,1333.6,429.6,1339.6z"/>
		<path class="st2" d="M472.8,1361.6c3.8-0.1,7,2.3,7,8.4c0,1.8-0.4,4.4-1.1,6.8c1.2-0.5,2.5-1.3,3.8-2.4c5.1-4.2,6.4-8.4,9-8.1
			c-2.9,2.1-5.2,7.3-10.2,10.2c-1,0.6-2,1-3.1,1.4c-1.9,5.7-5.6,11.7-9.9,11.4c-6.1-0.2-6.5-8.2-3.7-13.8c0.4-0.7,0.7-1.4,1-2
			C462.3,1367,468,1361.8,472.8,1361.6z M468.7,1376.9c-1,1.5-1.5,3.1-2,4.6c-1.1,4.3,1,8.9,4.8,5.6c1.8-1.7,3.8-5,5.4-8.9
			C474.1,1378.9,471.1,1378.5,468.7,1376.9z M471.5,1366.5c2.4-0.4,2.6,1.9,2.4,3.2c0,0.1-2.5,2.7-4.5,6.3c2,1.5,4.9,2.1,8,1.4
			c1.8-5.1,2.4-10.9-0.7-13.3c-4-3.5-9,0.5-9.8,3.4c-0.4,1.7-0.4,3.2,0,4.6C469,1368.5,470.8,1366.5,471.5,1366.5z"/>
		<path class="st2" d="M491.7,1361.6c3.8-0.1,7,2.3,7,8.4c0,1.8-0.4,4.4-1.1,6.8c1.2-0.5,2.5-1.3,3.8-2.4c5.1-4.2,6.4-8.4,9-8.1
			c-2.9,2.1-5.2,7.3-10.2,10.2c-1,0.6-2,1-3.1,1.4c-1.9,5.7-5.6,11.7-9.9,11.4c-6.1-0.2-6.5-8.2-3.7-13.8c0.4-0.7,0.7-1.4,1-2
			C481.2,1367,486.9,1361.8,491.7,1361.6z M487.6,1376.9c-1,1.5-1.5,3.1-2,4.6c-1.1,4.3,1,8.9,4.8,5.6c1.8-1.7,3.8-5,5.4-8.9
			C492.9,1378.9,489.9,1378.5,487.6,1376.9z M490.4,1366.5c2.4-0.4,2.6,1.9,2.4,3.2c0,0.1-2.5,2.7-4.5,6.3c2,1.5,4.9,2.1,8,1.4
			c1.8-5.1,2.4-10.9-0.7-13.3c-4-3.5-9,0.5-9.8,3.4c-0.4,1.7-0.4,3.2,0,4.6C487.9,1368.5,489.7,1366.5,490.4,1366.5z"/>
		<path class="st2" d="M511.8,1382c3.3-1,6.1-0.8,8.1,0.2c8.3-5.2,13.1-8.9,16.9-15.8c-0.8,5.6-7.5,11.1-15.8,16.4
			c3.7,2.5,4.5,8.1,3.7,12.5c-1.7,8.2-6.5,15.1-15.5,20.8c-6.8,4.3-15.8,5.2-19.4,2.9c-9-6.3,3.8-20.2,13.6-26.4
			c5.9-3.8,10.9-7,15-9.5c-1.5-0.6-3.3-0.8-5.8-0.4c-4,1-6.9,2.1-6.9,2.1S508.1,1382.9,511.8,1382z M504.1,1393.5
			c-20.8,13.8-20.5,30.7-3.4,23c19.3-9,21.9-22.5,21.1-28.3c-0.4-1.5-1-3.2-2.4-4.3C514.5,1387,509.2,1390.1,504.1,1393.5z
			 M520.1,1365.2c0.4,0.4,1,0.7,1.2,1.4c1.5,4.4-3.7,11.2-9.9,14.5c-5.6,3.1-9.4,1.8-10.2-3c-1.4-7.7,7.7-13.8,11.8-14.9
			c1.8-0.5,3.2-0.6,4.4-0.6C520.1,1363.1,520.8,1364.5,520.1,1365.2z M508.2,1370.8c-4.4,4.8-5.5,10.6-1.9,10.3
			c3.7-0.4,7.6-3,11.1-7.3c2.7-3.5,2.6-7,1.8-8.4C517.6,1365.4,512.7,1366.4,508.2,1370.8z"/>
		<path class="st2" d="M531.7,1390.7c-0.4,2.5,0.1,4.4,2.4,1.3c6.8-9.5,15-22.5,22-25.5c-4.8,4.4-10.9,11.4-15.8,18.7
			c-6.8,10-7.7,10.6-9.6,9.6c-3.6-1.8-1.8-12.1,0.4-19.2c2.6-8.4,9.5-25.2,17.1-36.4c3.7-5.4,7-9.6,10.3-11.8
			c2.6-1.8,5.8-2.5,7.7,0.1c3.8,5.7-17.6,30.2-24,36c-1.2,1.1-2,1.9-2.7,2.4C533.6,1378.8,532.1,1386,531.7,1390.7z M542.8,1357.7
			c-1,2.1-2,4.3-2.9,6.2c3.3-3.4,9.6-10.1,13.2-14.8c8.4-10.7,10.9-16.1,11.5-18.4c1.5-6.1-4.6,0.4-6.4,2.1
			C555.6,1336.1,550,1343.1,542.8,1357.7z"/>
		<path class="st2" d="M551.8,1375.2c-1.4,6.8,2.3,9.3,6.1,7.7c6.4-2.5,12.5-16.5,17-16.4c-4.4,4-4.8,5.4-7.9,9.3
			c-3.9,5-8.2,9.6-13.1,9c-6.5-0.7-7.3-8.9-5.6-12.6c1.7-3.9,5.1-8.4,10.7-8.9c4.4-0.4,6.3,3.9,1.9,7.7c-2.6,2.1-6.4,3.2-9,3.7
			C551.9,1374.6,551.8,1375,551.8,1375.2z M555.5,1372.6c7-2.4,8.3-7.7,4.5-6.8c0,0-5.7,0.7-7.9,7.7
			C553.1,1373.3,554.3,1373.1,555.5,1372.6z"/>
		<path class="st2" d="M608.4,1370.2c0.1,1.8-2,5.9-2.4,6.8c0.4,0,1-1.2,2.9-3.6c2.4-3,5-5,6.9-4.8c2.7,1,3,3.2,1.8,5.8
			c-1.1,2.6-2.4,7.7,0.4,4.4c2-2.5,10.9-14.2,14.5-15.8c3-1.4,6.4,0.8,4.4,6.4c-0.6,2.1-2.6,5.7-5.9,10.9c-5,7.5-5,15,0.4,10.6
			c8.4-6.8,11.9-24.9,19.9-24.5c-6.5,3-9,11.4-11.9,16.2c-5.4,9.3-9.9,12.3-13.1,10c-3.2-2.3-4-6.2-0.2-12.5
			c5.4-8.7,9.8-19.2,5.7-15.8c-5.6,4.8-12,14-13.8,15.8c-1.5,1.5-3.1,1.5-4.3,0.4c-1-1-1.5-3.2,0.6-8.4c1.9-4.6-0.6-2.4-2.6-0.6
			c-3.7,3.3-8.6,13-9.8,14.8c-1.9,3-4.5-0.8-3.5-3.8c0.2-0.5,6.4-14.2,5.6-15.7C605.2,1366,608.3,1365.9,608.4,1370.2z"/>
		<path class="st2" d="M661.3,1387c5-7.3,11.1-19.7,15.2-20.7c-4.4,5-5.5,7.3-8,11.2c-4.8,7.7-7.4,13-10.2,12.5
			c-3.1-0.5-5.9-4.5-2.7-13.3c0.1-0.4,0.4-0.7,0.4-1c-3.6,4.4-7,8.4-10.3,4.8c-3.3-3.8-0.1-10.7,3-13.6c2.3-2.1,6.5-3.8,11.1-2.7
			c5,1.3,1.2,1.3,1.2,1.3s-6.4-1.4-11.1,5.9c-3.3,5.5-1.5,10.5,1.2,7.9c1.5-1.4,4.6-5.5,7.3-8.7c1.3-2.1,2.6-4.5,3.9-4.5
			c1.3-0.1,4.4,0.4,1.7,3.9C656.1,1380.2,656,1394.7,661.3,1387z"/>
		<path class="st2" d="M640.7,1421.1c-0.8-11.4,20.2-30.2,23.7-33.3c1.3-1.2,2.4-2.1,3.2-2.6c1.5-5,2.5-8.7,3-9.8
			c2.7-8.1,4.4-9.2,5.6-8.8c1.5,0.7,1.4,2.4,0.5,5c2.7-3.3,6.4-6.8,11.3-6.8c5.9-0.2,7.7,5.6,5.7,12.4c4.5-1.5,9-4.2,13.1-10.5
			c-2.1,6.9-7.6,9.5-13.4,11.4c-0.7,2-1.8,4.3-3.2,6.3c-6.4,9-14.5,7.9-15.5,5c-0.8-2.5,0.8-4.8,3.5-6.5c3.7-2.4,7.6-3.2,11.4-4.4
			c2-5.4,2.5-11.8-1.3-12.1c-5-0.5-9.4,3.9-12.5,8.1c-1.4,3.6-3.4,8.3-5,13.8c-3,10.2-7.3,22.5-12.5,30.6
			C651.2,1429.3,641.3,1429.1,640.7,1421.1z M661.9,1392c-7.3,6.8-12.1,12.4-16.4,19.6c-4.6,7.9-3.8,14.4,0.4,13.9
			c9-0.8,17-24.1,21.4-38.8C666.1,1387.8,664.4,1389.5,661.9,1392z M678.8,1383.3c-3.1,2-3.8,4.5-3.1,5.7c1.8,3,7.4-0.6,11.1-5.9
			c0.8-1,1.5-2.3,2-3.7C685.5,1380.6,681.9,1381.5,678.8,1383.3z"/>
		<path class="st2" d="M708.6,1367.2c-0.4,1.2-0.4,3,0.8,5c1.5,2.6,3.2,5,3.8,7c8.7-4.3,10.8-6.8,15.1-12.5c-1.9,5.8-8,10.2-15,13.4
			c1.3,4,1.1,7.4-1.5,11.4c-4.4,7-13.8,9.3-16.9,5.6c-4.2-5.1,2.4-10.9,12-15.1c1.4-0.6,2.5-1.2,3.7-1.7c-0.4-1.7-1-3.2-2-5
			c-4.2-6.5-3.4-7.3-3.3-8.8c0.2-2.7,3.5-5.6,3.5-5.6c1.9-1.4,2.4,1.4,2,3C709.9,1364.6,708.9,1365.9,708.6,1367.2z M709.7,1381.4
			c-8.1,3.4-15.1,8.1-14.5,12.5c0.4,3,3,3.9,6.3,2.1c3.2-1.8,10.3-7.6,9.6-15.1C710.6,1381.3,710.1,1381.3,709.7,1381.4z"/>
		<path class="st2" d="M754.1,1390.7c-0.4,2.5,0.1,4.4,2.4,1.3c6.8-9.5,15-22.5,22-25.5c-4.8,4.4-10.9,11.4-15.8,18.7
			c-6.8,10-7.7,10.6-9.6,9.6c-3.6-1.8-1.8-12.1,0.4-19.2c2.6-8.4,9.5-25.2,17.1-36.4c3.7-5.4,7-9.6,10.3-11.8
			c2.6-1.8,5.8-2.5,7.7,0.1c3.8,5.7-17.6,30.2-24,36c-1.2,1.1-2,1.9-2.7,2.4C756.3,1378.8,754.7,1386,754.1,1390.7z M765.5,1357.7
			c-1,2.1-2,4.3-2.9,6.2c3.3-3.4,9.6-10.1,13.2-14.8c8.4-10.7,10.9-16.1,11.5-18.4c1.5-6.1-4.6,0.4-6.4,2.1
			C778.2,1336.1,772.7,1343.1,765.5,1357.7z"/>
		<path class="st2" d="M784.3,1376.6c-3.9,5.2-7.1,8.6-10.5,7.6c-5.4-1.7-0.8-15.1,3-17.7c1.7-0.8,2.6,0.1,2.4,1.4
			c-0.4,2.1-2.6,5.4-3.7,9.2c-0.7,2.9-1.5,6.2,0.6,5.8c2.6-0.4,7.7-7.9,11.1-12.1c2.9-3.6,3.7-4.5,5.6-4.5
			C790,1367.8,787.9,1371.9,784.3,1376.6z M780.1,1362.9c-1-0.4-1.1-1-0.4-2.4c0.8-1.7,0.4-2,1.7-2.7c1-0.5,4-0.2,3,2
			C783.4,1362,781.2,1363.2,780.1,1362.9z"/>
		<path class="st2" d="M795.6,1369.2c0.1,2.9-0.8,4.3-2.4,7.6c3.7-5.1,12-13.6,17.8-15.1c3.2-0.8,4.8,2.1,4.4,4.4
			c-0.4,3.3-10.1,16.5-11.3,21.4c-1.7,7.3,2.7,4.9,4.2,3.8c4.2-3.1,12-17.1,15.5-21.3c4.4-5,5.9-3.3,5.9-3.3
			c-6.9,1.7-15.1,23.8-22.8,26.8c-2.3,1-5.7,0.4-6.8-3.2c-2-7.3,11.2-24.1,11.7-26.6c0.4-2.9-8,2.3-13.8,9
			c-3.9,4.5-6.1,8.1-7.9,10.8c-0.4,0.6-2.4,0.6-3.2-0.8c-0.4-0.6-1.4-2,1.8-8.6c3.6-7.3,2-7,2-7
			C791.7,1365.8,795.6,1366.5,795.6,1369.2z"/>
		<path class="st2" d="M861.4,1329.8c-0.8,10.3-23.2,31.5-30.6,37.4c-1.8,3.2-2,5-3.3,8.6c1.3-2.4,9.3-12.1,15.7-10.9
			c5.9,1.2,3.7,7.9-1,10.5c-3.2,1.8-9.2,3.9-9.4,4.6c6.5,2.9,1.5,10.7,4.4,13.8c5,3.2,13.1-21.8,23.2-27.2c-1.1,1-2,2.6-3.6,4.4
			c-7.3,8.1-10.9,18.2-15.1,22.5c-2,2-4.4,1.8-5.5,1.1c-6.8-3.8-0.5-12.8-5-13.8c-1-0.2-1.8-1.8-0.7-3c1.7-1.8,7.5-3.4,11.4-6.4
			c6.5-4.6,1.4-7.9-5-3.3c-8.2,5.7-9.6,10.9-12.4,19.2c-3.7,0-3.6-3.1-3-6.4c0.2-0.8,8.4-25.9,16.4-37.8
			c7.7-12.5,14.6-16.1,16.2-16.7C858.5,1324.8,861.7,1326.8,861.4,1329.8z M855.7,1329.3c-10.5,6.8-19.9,24.7-24.4,35.8
			c11.2-9.3,27.6-28,28.6-34.1C860.5,1328.2,858.3,1327.6,855.7,1329.3z"/>
	</g>
</g>
<g>
	<g>
		<g>
			<path class="st2" d="M590.3,1642.1v0.7c-1.8-0.9-3.3-1.9-4.4-3.2c-1.7-1.7-3-3.7-3.9-6.1s-1.4-4.7-1.4-7.2c0-3.6,0.9-7,2.7-10
				s4.2-5.2,7-6.4v0.8c-1.5,0.8-2.6,1.9-3.5,3.3s-1.7,3.2-2,5.3c-0.5,2.1-0.7,4.3-0.7,6.6c0,2.6,0.2,4.8,0.6,6.9
				c0.3,1.7,0.7,2.9,1.1,3.9c0.3,1,1,1.9,1.8,2.8C588.2,1640.4,589.2,1641.3,590.3,1642.1z"/>
			<path class="st2" d="M606.4,1628.9c-0.3,2.1-1.2,3.8-2.6,4.8c-1.2,1.1-2.6,1.8-4.2,1.8c-1.9,0-3.4-0.8-4.8-2.4
				c-1.4-1.6-2-3.6-2-6.3c0-2.6,0.8-4.6,2.3-6.2s3.4-2.4,5.5-2.4c1.6,0,2.9,0.3,3.9,1.2c1,0.9,1.6,1.8,1.6,2.6
				c0,0.5-0.1,0.8-0.3,1.1c-0.3,0.3-0.7,0.3-1.1,0.3c-0.7,0-1.1-0.2-1.6-0.7c-0.2-0.3-0.3-0.7-0.3-1.4c-0.1-0.7-0.3-1.2-0.7-1.6
				c-0.3-0.3-1-0.5-1.7-0.5c-1.1,0-2.1,0.3-2.8,1.2c-1,1.1-1.5,2.6-1.5,4.6c0,1.9,0.5,3.6,1.4,5.1c1,1.5,2.3,2.3,3.8,2.3
				c1.1,0,2.1-0.3,3.2-1.1c0.7-0.6,1.2-1.6,1.9-2.9L606.4,1628.9z"/>
			<path class="st2" d="M614.7,1610v21.4c0,1,0.1,1.7,0.2,2c0.1,0.3,0.3,0.6,0.7,0.8s0.9,0.3,1.7,0.3v0.6h-7.9v-0.6
				c0.8,0,1.2-0.1,1.6-0.2c0.3-0.2,0.5-0.3,0.6-0.8s0.2-1.1,0.2-2v-14.6c0-1.9,0-2.9-0.1-3.3c-0.1-0.3-0.2-0.7-0.3-0.9
				c-0.2-0.2-0.3-0.2-0.7-0.2s-0.7,0.1-1.1,0.3l-0.3-0.6l4.8-1.9h0.9L614.7,1610L614.7,1610z"/>
			<path class="st2" d="M625.2,1618.4v13.1c0,1,0.1,1.7,0.2,2c0.1,0.3,0.3,0.6,0.7,0.8s0.8,0.3,1.6,0.3v0.6h-7.9v-0.6
				c0.8,0,1.2-0.1,1.6-0.2c0.3-0.2,0.5-0.3,0.6-0.8c0.2-0.3,0.2-1.1,0.2-2v-6.3c0-1.8-0.1-2.8-0.2-3.4c-0.1-0.3-0.2-0.7-0.3-0.8
				c-0.2-0.1-0.3-0.2-0.7-0.2s-0.7,0.1-1.1,0.3l-0.3-0.6l4.8-1.9h0.9L625.2,1618.4L625.2,1618.4z M623.7,1610c0.5,0,0.9,0.2,1.2,0.5
				s0.5,0.8,0.5,1.2s-0.2,0.9-0.5,1.2c-0.3,0.3-0.8,0.5-1.2,0.5s-0.9-0.2-1.2-0.5s-0.5-0.8-0.5-1.2s0.2-0.9,0.5-1.2
				C622.7,1610.2,623.3,1610,623.7,1610z"/>
			<path class="st2" d="M643.8,1628.9c-0.3,2.1-1.2,3.8-2.6,4.8c-1.2,1.1-2.6,1.8-4.2,1.8c-1.9,0-3.4-0.8-4.8-2.4
				c-1.4-1.6-2-3.6-2-6.3c0-2.6,0.8-4.6,2.3-6.2s3.4-2.4,5.5-2.4c1.6,0,2.9,0.3,3.9,1.2c1,0.9,1.6,1.8,1.6,2.6
				c0,0.5-0.1,0.8-0.3,1.1c-0.3,0.3-0.7,0.3-1.1,0.3c-0.7,0-1.1-0.2-1.6-0.7c-0.2-0.3-0.3-0.7-0.3-1.4c-0.1-0.7-0.3-1.2-0.7-1.6
				c-0.3-0.3-1-0.5-1.7-0.5c-1.1,0-2.1,0.3-2.8,1.2c-1,1.1-1.5,2.6-1.5,4.6c0,1.9,0.5,3.6,1.4,5.1c1,1.5,2.3,2.3,3.8,2.3
				c1.1,0,2.1-0.3,3.2-1.1c0.7-0.6,1.2-1.6,1.9-2.9L643.8,1628.9z"/>
			<path class="st2" d="M646.7,1610.7v-0.8c1.8,0.9,3.3,1.9,4.5,3.2c1.7,1.7,2.9,3.7,3.9,6.1c0.9,2.4,1.4,4.7,1.4,7.2
				c0,3.6-0.9,7-2.6,10c-1.8,3-4.2,5.2-7,6.4v-0.7c1.5-0.8,2.6-1.9,3.5-3.3c1-1.4,1.7-3.2,2-5.3c0.5-2.1,0.7-4.4,0.7-6.6
				c0-2.6-0.2-4.8-0.6-6.9c-0.3-1.7-0.7-2.9-1.1-3.9c-0.3-1-1-1.9-1.8-2.8C648.8,1612.5,647.9,1611.6,646.7,1610.7z"/>
		</g>
	</g>
	<a xlink:href="https://goo.gl/maps/ZxN53wf8pRp4oxba7"  pointer-events="all" target='_blank'>
		<rect x="538" y="1449.8" class="st3" width="163" height="202.5"/>
		<path class="st2" d="M687.9,1483.5c-10.2-23.2-41.2-29-59.2-11.3c-0.8,0.7-1.5,1-2.5,1c-18,0-36,0-54,0c-9.8,0-17.3,7.5-17.3,17.3
			c0,30.2,0,60.1,0,90.2c0,1.1,0.1,2.5,0.3,3.6c1.9,8.4,8.6,13.7,17.2,13.7c15,0,29.8,0,44.8,0s29.8,0,44.8,0c1.9,0,4.1-0.3,5.9-0.9
			c7.3-2.5,11.8-8.8,11.8-16.5c0-17.3,0-34.7,0-51.9c0-0.8,0.3-1.6,0.7-2.3c1.8-2.8,3.6-5.5,5.3-8.6
			C692.1,1506.9,693.1,1495.3,687.9,1483.5z M631.3,1527.6c8.4,11.5,15.6,23.9,19,38.3c-9.7-9.7-19.2-19.2-28.7-28.6
			C624.7,1534.2,628,1530.9,631.3,1527.6z M564,1585.6c-0.3,0.3-0.6,0.7-1.1,1c-0.1-0.7-0.1-0.9-0.1-1.4c0-32.5,0-65,0-97.8
			c0-4.1,2.6-6.6,6.5-6.6c17.7,0,35.6,0,53.2,0c0.3,0,0.6,0,0.7,0c-0.8,3.2-1.8,6.2-2.3,9.3c-1.7,9.7,0.5,18.9,5.1,27.3
			c0.5,0.8,0.7,1.7,1.4,2.3c1,1.2,0.6,2-0.5,3.2C605.7,1543.8,584.9,1564.8,564,1585.6z M568.5,1591.3
			c16.1-16.1,32.3-32.3,48.5-48.4c15.9,15.9,32.1,32.1,48.4,48.4C632.8,1591.3,600.4,1591.3,568.5,1591.3z M672.3,1582.7
			c0,1.4-0.5,2.7-0.8,3.9c-6.6-6.6-13.1-13.1-19.5-19.5c0.7-0.1,1.4-0.1,2.1-0.2c5-0.9,7.4-4.2,8.4-8.8c1.8-7.9,4.6-15.4,8.3-22.6
			c0.2-0.6,0.6-1.1,1-1.8c0.1,0.7,0.2,1,0.2,1.4C672.4,1550.8,672.4,1566.8,672.3,1582.7z M678.5,1510.1c-2.5,4.5-5.3,8.7-8.1,12.9
			c-6.2,9-11.5,18.5-15.5,28.6c-0.1,0.3-0.3,0.6-0.5,1c-1.4-3-2.6-5.9-3.8-8.7c-4.2-9.1-9.7-17.3-15.3-25.5c-3-4.4-5.7-9-7.3-14.2
			c-4.6-15.3,5.6-32.1,21.5-34.8c14.6-2.6,28,6,31.8,20.4C683,1496.9,682,1503.7,678.5,1510.1z"/>
		<path class="st2" d="M601,1495.1c-1.4,1.4-2.6,2.6-4.1,3.9c-6-3.9-10.6-4.2-14.9-0.8c-3.9,3-5.4,8.1-3.7,12.8
			c1.6,4.5,6.1,7.5,10.8,7.4c3.9-0.1,8.4-2.6,9.2-5.6c-3.2,0-6.2,0-9.3,0c0-1.9,0-3.7,0-5.6c5.6,0,11.1,0,16.8,0
			c1.5,4.7-3.8,12.9-10,15.5c-8,3.5-17.4,0.3-21.7-7.3c-4.3-7.7-2-17.2,5.2-22.3C586.7,1488.3,596.2,1490.1,601,1495.1z"/>
		<path class="st2" d="M645.9,1498.7c0-4.7,3.8-8.6,8.6-8.4c4.7,0,8.4,3.8,8.4,8.6s-3.8,8.6-8.6,8.6
			C649.6,1507.3,645.8,1503.4,645.9,1498.7z"/>
	</a>
</g>
<g>
	<g>
		<path class="st4" d="M571.3,796.3l-12.9,43.8c-5.5,18.8,0.2,30.9,10.7,34s21.9-3.9,27.5-22.8l12.9-43.8L571.3,796.3z"/>
		<path class="st4" d="M567.1,873.5c0,0-5.6,18.4-10.3,34.4c-4.7,16.1-10.2,29.2-32.3,22.7l-0.8,2.7l51.3,15.1l0.8-2.7
			c-22.2-6.5-19.6-20.5-14.9-36.6c4.7-16.1,10.3-34.4,10.3-34.4"/>
		<line class="st4" x1="560.5" y1="833" x2="602" y2="833"/>
		<path class="st4" d="M584.4,764.7c0,6.9-5.6,12.4-12.4,12.4c6.9,0,12.4,5.6,12.4,12.4c0-6.9,5.6-12.4,12.4-12.4
			C590,777.1,584.4,771.5,584.4,764.7z"/>
		<circle class="st4" cx="536.8" cy="808.7" r="12.4"/>
		<path class="st4" d="M558.2,789.6c0,1-0.8,1.9-1.9,1.9s-1.9-0.8-1.9-1.9c0-1,0.8-1.9,1.9-1.9S558.2,788.5,558.2,789.6z"/>
		<path class="st4" d="M542.2,775.2c0,1-0.8,1.9-1.9,1.9s-1.9-0.8-1.9-1.9s0.8-1.9,1.9-1.9S542.2,774.2,542.2,775.2z"/>
		<path class="st4" d="M530.1,837.5c0,1-0.8,1.9-1.9,1.9s-1.9-0.8-1.9-1.9s0.8-1.9,1.9-1.9S530.1,836.4,530.1,837.5z"/>
		<path class="st4" d="M627.3,820.2c0,1-0.8,1.9-1.9,1.9c-1,0-1.9-0.8-1.9-1.9s0.8-1.9,1.9-1.9C626.4,818.3,627.3,819.1,627.3,820.2
			z"/>
		<path class="st4" d="M635.9,835.6c0,1-0.8,1.9-1.9,1.9c-1,0-1.9-0.8-1.9-1.9s0.8-1.9,1.9-1.9C635.1,833.7,635.9,834.5,635.9,835.6
			z"/>
		<path class="st4" d="M570.6,861.7c0,1-0.8,1.9-1.9,1.9c-1,0-1.9-0.8-1.9-1.9s0.8-1.9,1.9-1.9S570.6,860.7,570.6,861.7z"/>
		<path class="st4" d="M583.1,863.6c0,1-0.8,1.9-1.9,1.9s-1.9-0.8-1.9-1.9s0.8-1.9,1.9-1.9S583.1,862.6,583.1,863.6z"/>
		<path class="st4" d="M637.8,826.6c0,1-0.8,1.9-1.9,1.9s-1.9-0.8-1.9-1.9s0.8-1.9,1.9-1.9S637.8,825.5,637.8,826.6z"/>
		<path class="st4" d="M581.2,850.7c0,1-0.8,1.9-1.9,1.9s-1.9-0.8-1.9-1.9s0.8-1.9,1.9-1.9S581.2,849.7,581.2,850.7z"/>
		<g>
			<path class="st4" d="M601.4,784.3l17,42.3c7.3,18.2,19.3,24.1,29.5,20s14.8-16.7,7.4-34.9l-17-42.3L601.4,784.3z"/>
			<path class="st4" d="M646,847.5c0,0,7,17.9,13.3,33.4c6.2,15.5,10.2,29.2-11.3,37.9l1,2.6l49.6-20l-1-2.6
				c-21.4,8.6-28.1-4-34.4-19.5c-6.2-15.5-13.3-33.4-13.3-33.4"/>
			<line class="st4" x1="612.7" y1="812.2" x2="655.4" y2="812.2"/>
		</g>
	</g>
</g>
<g>
	<g>
		<g>
			<g>
				<g>
					<g>
						<path class="st2" d="M491.5,682.7c10.8,15,31.8,11.6,48,8.5c13-2.6,26.1-4.2,39.4-3.8c6.5,0.2,13.5,0.4,19.8,2
							c3.1,0.8,6.2,1.7,8.4,4.1c3.4,4.1,3.4,8.2-0.1,12.1c-5.4,4.5-7.6,4-6.3-1.6c0.2,0.7,1.4,0.6,1.4-0.2
							c-0.4-8.6-14.7-0.6-5.5,5.3c10.1,6.5,19.3-8.7,12.8-16.4c-4.6-5.4-13-6-19.7-6.7c-11.5-1.1-23.3-0.8-34.8,0.6
							c-20.3,2.6-46.3,13.1-62.4-4.6C491.9,681.6,491.1,682.2,491.5,682.7L491.5,682.7z"/>
					</g>
					<g>
						<path class="st2" d="M580.3,695.4c1-5.2-6.7-3.8-5.4,1c2.4,8.7,14.8,1.4,16.2-4c2.8-9.9-8.8-16.3-17.6-16.4
							c-7.8-0.1-14.8,3-21.9,5.2c-4.3,1.3-8.7,2.6-13.3,2.6c-3,0-6.1-0.4-8.9-1.7c-0.9-0.6-1.8-1.1-2.8-1.7c-3.5-2.4-3.5-4.5,0-6.2
							c-0.7-0.9-2-0.2-1.6,0.9c2.4,5.4,10.7,1.5,8-3.9c-3.3-6.3-11.9-1.4-11.6,4.3c0.4,10.1,14.9,11.6,22.8,10.2
							c8.2-1.4,15.4-5.5,23.6-6.9c5.7-1,11.7-0.8,16.5,2.4c2.1,1.4,4.8,4,5.1,6.7c-0.4,2.1-0.7,4.2-1.1,6.3c-3,4.8-5.8,5.2-8.4,1.1
							C579.7,695.6,580.2,695.7,580.3,695.4L580.3,695.4z"/>
					</g>
				</g>
			</g>
		</g>
		<g>
			<g>
				<g>
					<g>
						<path class="st2" d="M739.3,682.3c-10.8,15-31.8,11.6-47.9,8.5c-13-2.6-26.1-4.2-39.4-3.8c-6.5,0.2-13.5,0.4-19.8,2
							c-3.1,0.8-6.2,1.7-8.4,4.1c-3.4,4.1-3.4,8.2,0.1,12.1c5.4,4.5,7.6,4,6.3-1.6c-0.2,0.7-1.4,0.6-1.3-0.2
							c0.4-8.6,14.7-0.6,5.5,5.3c-10.1,6.5-19.3-8.7-12.8-16.4c4.6-5.4,13-6,19.7-6.7c11.5-1.1,23.3-0.8,34.8,0.6
							c20.3,2.6,46.3,13.1,62.4-4.6C738.8,681.2,739.7,681.8,739.3,682.3L739.3,682.3z"/>
					</g>
					<g>
						<path class="st2" d="M650.5,695c-1-5.2,6.7-3.8,5.4,1c-2.4,8.7-14.8,1.4-16.2-4c-2.8-9.9,8.8-16.3,17.6-16.4
							c7.8-0.1,14.8,3,21.9,5.2c4.3,1.3,8.7,2.6,13.3,2.6c3,0,6.1-0.4,8.9-1.7c0.9-0.6,1.8-1.1,2.9-1.7c3.5-2.4,3.5-4.5,0-6.2
							c0.7-0.9,2-0.2,1.6,0.9c-2.4,5.4-10.7,1.5-8-3.9c3.3-6.3,11.9-1.4,11.7,4.3c-0.4,10.1-14.9,11.6-22.8,10.2
							c-8.1-1.4-15.4-5.5-23.6-6.9c-5.7-1-11.7-0.8-16.5,2.4c-2.1,1.5-4.8,4-5.1,6.7c0.4,2.1,0.7,4.2,1.1,6.3c3,4.8,5.8,5.2,8.4,1.1
							C651.1,695.2,650.6,695.3,650.5,695L650.5,695z"/>
					</g>
				</g>
			</g>
		</g>
	</g>
</g>
<g>
	<path class="st2" d="M458.9,1033.3l4.9,42.9l31-42.9h13v1.5c-2.8,0.2-4.5,0.4-5,0.5c-0.9,0.4-1.7,1-2.4,2.1c-0.7,1-1.5,3-2.3,5.9
		l-9.9,33.8c-0.6,2-0.9,3.5-0.9,4.6c0,1,0.4,1.8,1.1,2.3c1,0.7,2.6,1.1,4.7,1.1h0.9l-0.3,1.5h-22.5l0.4-1.5h1.1c2,0,3.5-0.3,4.5-0.8
		c0.8-0.4,1.5-1.2,2.2-2.4c0.7-1.2,1.5-3.8,2.7-7.8l8.8-30.9l-31.1,43.4h-1.6l-5-43.4l-9.5,33c-0.8,2.8-1.2,4.7-1.2,5.7
		s0.3,1.7,1,2.2s2.4,0.9,5.2,1l-0.4,1.5h-17.6l0.4-1.5h1.1c2.6,0,4.4-0.7,5.6-2c0.8-0.9,1.7-3,2.6-6.2l11.6-39.7
		c-0.8-0.9-1.7-1.5-2.5-1.8s-2.3-0.6-4.4-0.8l0.4-1.5h13.4V1033.3z"/>
	<path class="st2" d="M538.2,1051.1l-7.7,26.7l-0.9,3.6c-0.1,0.3-0.1,0.6-0.1,0.8c0,0.4,0.1,0.8,0.4,1.1c0.2,0.2,0.5,0.3,0.8,0.3
		s0.8-0.2,1.3-0.6c1-0.7,2.4-2.3,4.1-4.7l1.3,0.9c-1.8,2.7-3.6,4.8-5.6,6.2c-1.9,1.4-3.7,2.1-5.3,2.1c-1.1,0-1.9-0.3-2.5-0.8
		c-0.6-0.6-0.9-1.4-0.9-2.4c0-1.3,0.3-3,0.9-5.1l0.8-3c-3.5,4.5-6.6,7.6-9.5,9.4c-2.1,1.3-4.1,1.9-6.1,1.9c-1.9,0-3.6-0.8-5-2.4
		s-2.1-3.8-2.1-6.5c0-4.2,1.2-8.6,3.7-13.2s5.7-8.3,9.5-11.1c3-2.2,5.8-3.3,8.5-3.3c1.6,0,3,0.4,4,1.3c1.1,0.8,1.9,2.2,2.4,4.2
		l1.4-4.5L538.2,1051.1z M524.2,1053.1c-1.7,0-3.4,0.8-5.3,2.4c-2.7,2.2-5.1,5.5-7.2,9.9c-2.1,4.4-3.1,8.3-3.1,11.9
		c0,1.8,0.4,3.2,1.3,4.2s1.9,1.6,3.1,1.6c2.8,0,5.9-2.1,9.3-6.3c4.5-5.6,6.7-11.3,6.7-17.2c0-2.2-0.4-3.8-1.3-4.8
		C526.9,1053.6,525.7,1053.1,524.2,1053.1z"/>
	<path class="st2" d="M569.9,1051.1l-2.4,12.1H566c-0.1-3.5-0.9-6.1-2.2-7.7c-1.4-1.6-3.1-2.4-5.1-2.4c-1.6,0-2.9,0.4-3.8,1.3
		c-1,0.9-1.4,2-1.4,3.2c0,0.8,0.2,1.7,0.6,2.5c0.4,0.8,1.2,1.9,2.5,3.3c3.4,3.7,5.6,6.6,6.6,8.4c1,1.9,1.5,3.7,1.5,5.3
		c0,2.7-1.1,5.2-3.4,7.3c-2.3,2.1-5.1,3.1-8.6,3.1c-1.9,0-4.1-0.4-6.5-1.3c-0.8-0.3-1.5-0.5-2-0.5c-1.2,0-2.1,0.6-2.7,1.8h-1.4
		l2.4-12.7h1.5c0.1,4,0.9,6.8,2.4,8.5c1.5,1.6,3.5,2.5,6.2,2.5c2,0,3.6-0.6,4.7-1.7c1.2-1.1,1.8-2.5,1.8-4.1c0-1-0.2-2-0.6-2.9
		c-0.7-1.6-2.3-3.7-4.6-6.5s-3.8-4.9-4.5-6.2c-0.7-1.4-1-2.8-1-4.2c0-2.5,0.9-4.7,2.8-6.4s4.2-2.6,7.1-2.6c0.8,0,1.6,0.1,2.3,0.2
		c0.4,0.1,1.2,0.4,2.6,0.9c1.4,0.5,2.3,0.8,2.7,0.8c1.1,0,2.1-0.6,2.8-1.9h1.2V1051.1z"/>
	<path class="st2" d="M604.3,1087.9l4.4-44.4c0.2-2.2,0.3-3.8,0.3-4.5c0-1.2-0.4-2.2-1.3-3c-0.9-0.8-2.3-1.2-4.2-1.2h-1.4l0.4-1.5
		h21l-0.4,1.5c-2.3,0-3.8,0.3-4.7,0.7c-0.8,0.4-1.5,1.2-2.1,2.3c-0.3,0.6-0.5,2.2-0.8,4.9l-3.1,31.8l20.8-28.4
		c2.2-3.1,3.7-5.2,4.2-6.4c0.4-0.8,0.6-1.5,0.6-2.1c0-0.7-0.3-1.3-0.9-1.8c-0.6-0.5-1.7-0.9-3.4-1l0.5-1.5h16l-0.4,1.5
		c-1.3,0.1-2.3,0.3-3.1,0.7c-1.4,0.7-2.9,1.7-4.3,3.1c-1.4,1.4-3.7,4.2-6.8,8.4l-30,40.8L604.3,1087.9L604.3,1087.9z"/>
	<path class="st2" d="M650.9,1071.9c-0.2,1.3-0.2,2.4-0.2,3.2c0,2.3,0.8,4.3,2.5,6c1.6,1.6,3.7,2.5,6,2.5c1.9,0,3.7-0.4,5.4-1.2
		c1.7-0.8,4.3-2.5,7.7-5.1l0.8,1.1c-6.2,6.2-12.1,9.2-17.8,9.2c-3.8,0-6.7-1.2-8.6-3.6c-1.9-2.4-2.9-5.1-2.9-8c0-3.9,1.2-7.9,3.6-12
		c2.4-4.1,5.4-7.3,9.1-9.5c3.6-2.3,7.4-3.4,11.3-3.4c2.8,0,4.8,0.6,6.2,1.7c1.3,1.1,2,2.5,2,4c0,2.2-0.9,4.3-2.6,6.2
		c-2.3,2.6-5.6,4.7-10.1,6.3C660.4,1070.4,656.2,1071.2,650.9,1071.9z M651.2,1069.9c3.9-0.5,7-1.2,9.5-2.3c3.2-1.4,5.6-3.1,7.3-5.2
		s2.4-3.9,2.4-5.7c0-1.1-0.4-2-1-2.6c-0.7-0.7-1.7-1-3-1c-2.7,0-5.5,1.4-8.5,4.2C654.8,1060.1,652.6,1064.3,651.2,1069.9z"/>
	<path class="st2" d="M694.8,1051.1l-5.2,17.9c4.9-7.3,8.6-12.1,11.3-14.5c2.6-2.3,5.1-3.5,7.5-3.5c1.3,0,2.4,0.4,3.2,1.3
		s1.3,2,1.3,3.4c0,1.6-0.4,3.7-1.1,6.3l-4.8,16.6c-0.6,1.9-0.8,3.1-0.8,3.5s0.1,0.7,0.3,0.9c0.2,0.2,0.4,0.4,0.7,0.4
		s0.7-0.2,1.1-0.5c1.4-1.1,2.9-2.8,4.6-5l1.2,0.7c-2.4,3.5-4.8,6-6.9,7.5c-1.5,1-2.9,1.5-4.1,1.5c-1,0-1.8-0.3-2.3-0.9
		c-0.6-0.6-0.9-1.4-0.9-2.3c0-1.3,0.4-3.4,1.3-6.5l4.6-15.8c0.6-2,0.8-3.5,0.8-4.6c0-0.5-0.2-0.9-0.5-1.3c-0.3-0.3-0.8-0.5-1.2-0.5
		c-0.7,0-1.6,0.3-2.6,0.9c-1.9,1.2-3.9,3.1-6,5.8c-2.1,2.7-4.3,6.2-6.7,10.4c-1.2,2.2-2.3,4.7-3.1,7.3l-2,6.5h-5.9l7.2-24.6
		c0.8-3,1.3-4.7,1.3-5.3s-0.2-1.1-0.7-1.5s-1-0.7-1.7-0.7c-0.3,0-0.9,0.1-1.7,0.2l-1.5,0.2l-0.2-1.4L694.8,1051.1z"/>
	<path class="st2" d="M738.2,1041.3l-3.1,10.7h6.2l-0.7,2.5h-6.1l-6.8,23.1c-0.7,2.5-1.1,4.1-1.1,4.8c0,0.5,0.1,0.8,0.3,1
		s0.4,0.4,0.7,0.4c0.7,0,1.5-0.5,2.6-1.4c0.7-0.5,2.1-2.1,4.2-4.8l1.3,1c-2.4,3.5-4.7,6-6.8,7.4c-1.5,1-2.9,1.5-4.4,1.5
		c-1.1,0-2.1-0.4-2.8-1.1s-1.1-1.6-1.1-2.8c0-1.4,0.4-3.5,1.2-6.4l6.6-22.8h-6l0.4-1.6c2.9-0.8,5.3-2,7.2-3.5s4-4.3,6.4-8.1h1.8
		V1041.3z"/>
	<path class="st2" d="M776.9,1063.4c0,3.9-1,7.8-3.1,11.7c-2.1,3.9-5,6.9-8.7,9.2s-7.3,3.4-10.8,3.4c-3.6,0-6.5-1.1-8.8-3.4
		s-3.4-5.2-3.4-8.9c0-3.9,1.1-7.7,3.3-11.6s5.2-6.9,8.9-9.2c3.7-2.3,7.3-3.4,10.7-3.4c3.5,0,6.3,1.1,8.6,3.4
		C775.7,1056.8,776.9,1059.7,776.9,1063.4z M770.4,1060.7c0-2.4-0.6-4.3-1.8-5.6c-1.2-1.3-2.8-2-4.6-2c-3.8,0-7.4,2.8-10.6,8.3
		c-3.2,5.5-4.9,11-4.9,16.5c0,2.5,0.6,4.4,1.9,5.7c1.3,1.4,2.8,2,4.7,2c3.7,0,7.2-2.7,10.4-8.2
		C768.7,1071.9,770.4,1066.3,770.4,1060.7z M775.3,1031.5l-11.5,13.5h-1.4l4.1-13.5H775.3z"/>
	<path class="st2" d="M809.1,1051.1l-2.4,12.1h-1.5c-0.1-3.5-0.9-6.1-2.2-7.7c-1.4-1.6-3.1-2.4-5.1-2.4c-1.6,0-2.9,0.4-3.8,1.3
		c-1,0.9-1.4,2-1.4,3.2c0,0.8,0.2,1.7,0.6,2.5c0.4,0.8,1.2,1.9,2.5,3.3c3.4,3.7,5.6,6.6,6.6,8.4c1,1.9,1.5,3.7,1.5,5.3
		c0,2.7-1.1,5.2-3.4,7.3c-2.3,2.1-5.1,3.1-8.6,3.1c-1.9,0-4.1-0.4-6.5-1.3c-0.8-0.3-1.5-0.5-2-0.5c-1.2,0-2.1,0.6-2.7,1.8h-1.4
		l2.4-12.7h1.5c0.1,4,0.9,6.8,2.4,8.5c1.5,1.6,3.5,2.5,6.2,2.5c2,0,3.6-0.6,4.7-1.7c1.2-1.1,1.8-2.5,1.8-4.1c0-1-0.2-2-0.6-2.9
		c-0.7-1.6-2.3-3.7-4.6-6.5s-3.8-4.9-4.5-6.2c-0.7-1.4-1-2.8-1-4.2c0-2.5,0.9-4.7,2.8-6.4s4.2-2.6,7.1-2.6c0.8,0,1.6,0.1,2.3,0.2
		c0.4,0.1,1.2,0.4,2.6,0.9c1.4,0.5,2.3,0.8,2.7,0.8c1.1,0,2.1-0.6,2.8-1.9h1.2V1051.1z"/>
</g>
<g>
	<path class="st2" d="M386.6,1152.9l0.7,10.9h-0.7c-1-3.3-2.4-5.6-4.2-7s-4-2.2-6.5-2.2c-2.1,0-4,0.5-5.8,1.6s-3.1,2.8-4,5.2
		s-1.5,5.3-1.5,8.8c0,2.9,0.5,5.4,1.4,7.5s2.3,3.7,4.2,4.9s4,1.7,6.4,1.7c2.1,0,3.9-0.4,5.5-1.3s3.3-2.7,5.2-5.3l0.7,0.5
		c-1.6,2.9-3.5,4.9-5.6,6.3s-4.7,2-7.6,2c-5.3,0-9.4-2-12.3-5.9c-2.2-2.9-3.3-6.4-3.3-10.3c0-3.2,0.7-6.1,2.1-8.8s3.4-4.8,5.9-6.2
		c2.5-1.5,5.2-2.2,8.2-2.2c2.3,0,4.6,0.6,6.8,1.7c0.7,0.4,1.1,0.5,1.4,0.5c0.4,0,0.8-0.1,1.1-0.4c0.4-0.4,0.7-1,0.8-1.8h1.1V1152.9z
		"/>
	<path class="st2" d="M403.4,1182.6c-2.2,1.7-3.6,2.7-4.2,3c-0.9,0.4-1.8,0.6-2.7,0.6c-1.5,0-2.7-0.5-3.7-1.5s-1.5-2.4-1.5-4
		c0-1.1,0.2-2,0.7-2.7c0.6-1.1,1.8-2.1,3.4-3s4.2-2.1,8-3.5v-0.8c0-2.1-0.3-3.6-1-4.4s-1.7-1.2-3-1.2c-1,0-1.8,0.3-2.3,0.8
		c-0.6,0.5-0.9,1.2-0.9,1.8l0.1,1.4c0,0.7-0.2,1.3-0.6,1.7s-0.8,0.6-1.4,0.6s-1.1-0.2-1.4-0.6s-0.6-1-0.6-1.7c0-1.3,0.7-2.6,2.1-3.7
		s3.3-1.7,5.8-1.7c1.9,0,3.5,0.3,4.7,1c0.9,0.5,1.6,1.2,2.1,2.3c0.3,0.7,0.4,2.1,0.4,4.2v7.3c0,2.1,0,3.3,0.1,3.8s0.2,0.8,0.4,0.9
		s0.4,0.2,0.6,0.2c0.3,0,0.5-0.1,0.6-0.2c0.3-0.2,1-0.8,1.9-1.7v1.3c-1.8,2.3-3.5,3.5-5.1,3.5c-0.8,0-1.4-0.3-1.8-0.8
		S403.5,1183.9,403.4,1182.6z M403.4,1181v-8.2c-2.4,1-3.9,1.6-4.6,2c-1.2,0.7-2.1,1.4-2.7,2.2s-0.8,1.6-0.8,2.5
		c0,1.1,0.3,2.1,1,2.8s1.5,1.1,2.3,1.1C399.9,1183.4,401.5,1182.6,403.4,1181z"/>
	<path class="st2" d="M419,1163.4v4.9c1.8-3.2,3.7-4.9,5.6-4.9c0.9,0,1.6,0.3,2.2,0.8s0.8,1.1,0.8,1.8c0,0.6-0.2,1.1-0.6,1.6
		s-0.9,0.6-1.5,0.6s-1.2-0.3-1.9-0.8s-1.2-0.8-1.5-0.8s-0.6,0.2-0.9,0.5c-0.7,0.6-1.4,1.7-2.2,3.2v10.4c0,1.2,0.2,2.1,0.5,2.7
		c0.2,0.4,0.6,0.8,1.1,1.1s1.3,0.4,2.2,0.4v0.8h-11v-0.8c1.1,0,1.9-0.2,2.4-0.5c0.4-0.3,0.7-0.7,0.8-1.2c0.1-0.3,0.1-1,0.1-2.3v-8.4
		c0-2.5,0-4-0.1-4.5s-0.3-0.8-0.6-1.1s-0.6-0.3-1-0.3c-0.5,0-1,0.1-1.6,0.4l-0.3-0.8l6.5-2.6h1V1163.4z"/>
	<path class="st2" d="M435.1,1163.4v4.9c1.8-3.2,3.7-4.9,5.6-4.9c0.9,0,1.6,0.3,2.2,0.8s0.8,1.1,0.8,1.8c0,0.6-0.2,1.1-0.6,1.6
		s-0.9,0.6-1.5,0.6s-1.2-0.3-1.9-0.8s-1.2-0.8-1.5-0.8s-0.6,0.2-0.9,0.5c-0.7,0.6-1.4,1.7-2.2,3.2v10.4c0,1.2,0.2,2.1,0.5,2.7
		c0.2,0.4,0.6,0.8,1.1,1.1s1.3,0.4,2.2,0.4v0.8h-11v-0.8c1.1,0,1.9-0.2,2.4-0.5c0.4-0.3,0.7-0.7,0.8-1.2c0.1-0.3,0.1-1,0.1-2.3v-8.4
		c0-2.5,0-4-0.1-4.5s-0.3-0.8-0.6-1.1s-0.6-0.3-1-0.3c-0.5,0-1,0.1-1.6,0.4l-0.3-0.8l6.5-2.6h1V1163.4z"/>
	<path class="st2" d="M448.4,1172.2c0,3.2,0.8,5.7,2.3,7.6c1.6,1.8,3.4,2.7,5.5,2.7c1.4,0,2.7-0.4,3.7-1.2s1.9-2.1,2.6-4l0.7,0.5
		c-0.3,2.1-1.3,4.1-2.9,5.9s-3.6,2.7-6,2.7c-2.6,0-4.8-1-6.7-3s-2.8-4.7-2.8-8.2c0-3.7,0.9-6.6,2.8-8.6s4.3-3.1,7.1-3.1
		c2.4,0,4.4,0.8,6,2.4s2.3,3.7,2.3,6.4h-14.6V1172.2z M448.4,1170.8h10c-0.1-1.4-0.2-2.4-0.5-2.9c-0.4-0.9-1-1.6-1.8-2.1
		s-1.6-0.8-2.4-0.8c-1.3,0-2.5,0.5-3.5,1.5S448.6,1169,448.4,1170.8z"/>
	<path class="st2" d="M472.6,1163.4v4.9c1.8-3.2,3.7-4.9,5.6-4.9c0.9,0,1.6,0.3,2.2,0.8s0.8,1.1,0.8,1.8c0,0.6-0.2,1.1-0.6,1.6
		s-0.9,0.6-1.5,0.6s-1.2-0.3-1.9-0.8s-1.2-0.8-1.5-0.8s-0.6,0.2-0.9,0.5c-0.7,0.6-1.4,1.7-2.2,3.2v10.4c0,1.2,0.2,2.1,0.5,2.7
		c0.2,0.4,0.6,0.8,1.1,1.1s1.3,0.4,2.2,0.4v0.8h-11v-0.8c1.1,0,1.9-0.2,2.4-0.5c0.4-0.3,0.7-0.7,0.8-1.2c0.1-0.3,0.1-1,0.1-2.3v-8.4
		c0-2.5,0-4-0.1-4.5s-0.3-0.8-0.6-1.1s-0.6-0.3-1-0.3c-0.5,0-1,0.1-1.6,0.4l-0.3-0.8l6.5-2.6h1V1163.4z"/>
	<path class="st2" d="M507.8,1184.8v0.9h-13.7v-0.9h1.1c1.3,0,2.3-0.4,2.9-1.1c0.4-0.5,0.6-1.7,0.6-3.6v-20.7c0-1.6-0.1-2.7-0.3-3.2
		c-0.2-0.4-0.5-0.7-1-1c-0.7-0.4-1.4-0.6-2.2-0.6h-1.1v-0.9h13.7v0.9h-1.2c-1.3,0-2.2,0.4-2.8,1.2c-0.4,0.5-0.6,1.7-0.6,3.6v20.7
		c0,1.6,0.1,2.7,0.3,3.2c0.2,0.4,0.5,0.7,1,1c0.7,0.4,1.4,0.6,2.1,0.6L507.8,1184.8L507.8,1184.8z"/>
	<path class="st2" d="M524.5,1163.4v7.4h-0.8c-0.6-2.3-1.4-3.9-2.3-4.7s-2.1-1.3-3.6-1.3c-1.1,0-2,0.3-2.7,0.9s-1,1.2-1,1.9
		c0,0.9,0.3,1.6,0.8,2.3c0.5,0.6,1.5,1.3,3,2.1l3.4,1.7c3.2,1.5,4.8,3.6,4.8,6.2c0,2-0.7,3.5-2.2,4.7s-3.2,1.8-5,1.8
		c-1.3,0-2.8-0.2-4.5-0.7c-0.5-0.2-1-0.2-1.3-0.2c-0.4,0-0.6,0.2-0.8,0.6h-0.8v-7.7h0.8c0.4,2.2,1.3,3.9,2.5,5s2.6,1.7,4.2,1.7
		c1.1,0,2-0.3,2.6-1s1-1.4,1-2.3c0-1.1-0.4-2-1.1-2.7s-2.3-1.7-4.6-2.8s-3.8-2.2-4.5-3.1s-1.1-2-1.1-3.4c0-1.8,0.6-3.3,1.8-4.5
		s2.8-1.8,4.7-1.8c0.9,0,1.9,0.2,3.1,0.5c0.8,0.2,1.3,0.4,1.6,0.4s0.5-0.1,0.6-0.2s0.3-0.3,0.5-0.7h0.9V1163.4z"/>
	<path class="st2" d="M536.8,1163.4v17.3c0,1.4,0.1,2.3,0.3,2.7s0.5,0.8,0.9,1s1.1,0.3,2.1,0.3v0.8h-10.5v-0.8
		c1.1,0,1.8-0.1,2.1-0.3s0.6-0.5,0.8-1s0.3-1.4,0.3-2.7v-8.3c0-2.3-0.1-3.9-0.2-4.5c-0.1-0.5-0.3-0.9-0.5-1.1s-0.6-0.3-1-0.3
		s-1,0.1-1.6,0.4l-0.4-0.8l6.5-2.6L536.8,1163.4L536.8,1163.4z M534.8,1152.1c0.7,0,1.2,0.2,1.7,0.7s0.7,1,0.7,1.7
		c0,0.6-0.2,1.2-0.7,1.7s-1,0.7-1.7,0.7s-1.2-0.2-1.7-0.7s-0.7-1-0.7-1.7s0.2-1.2,0.7-1.7S534.1,1152.1,534.8,1152.1z"/>
	<path class="st2" d="M558,1183.2c-1.1,1.1-2.1,1.9-3.1,2.4s-2.1,0.7-3.2,0.7c-2.4,0-4.4-1-6.2-3s-2.6-4.5-2.6-7.6s1-5.9,2.9-8.5
		s4.4-3.9,7.5-3.9c1.9,0,3.5,0.6,4.7,1.8v-4c0-2.5-0.1-4-0.2-4.5s-0.3-1-0.5-1.2s-0.6-0.3-1-0.3s-0.9,0.1-1.6,0.4l-0.3-0.8l6.4-2.6
		h1.1v25c0,2.5,0.1,4.1,0.2,4.6s0.3,1,0.6,1.2s0.6,0.3,0.9,0.3c0.4,0,1-0.1,1.7-0.4l0.3,0.8l-6.4,2.7H558V1183.2z M558,1181.6v-11.1
		c-0.1-1.1-0.4-2.1-0.8-2.9s-1.1-1.5-1.9-2s-1.5-0.7-2.3-0.7c-1.4,0-2.6,0.6-3.7,1.9c-1.4,1.6-2.1,4-2.1,7.1c0,3.2,0.7,5.6,2.1,7.3
		s2.9,2.5,4.6,2.5C555.3,1183.7,556.7,1183,558,1181.6z"/>
	<path class="st2" d="M573.2,1163.4v4.9c1.8-3.2,3.7-4.9,5.6-4.9c0.9,0,1.6,0.3,2.2,0.8s0.8,1.1,0.8,1.8c0,0.6-0.2,1.1-0.6,1.6
		s-0.9,0.6-1.5,0.6s-1.2-0.3-1.9-0.8s-1.2-0.8-1.5-0.8s-0.6,0.2-0.9,0.5c-0.7,0.6-1.4,1.7-2.2,3.2v10.4c0,1.2,0.2,2.1,0.5,2.7
		c0.2,0.4,0.6,0.8,1.1,1.1s1.3,0.4,2.2,0.4v0.8h-11v-0.8c1.1,0,1.9-0.2,2.4-0.5c0.4-0.3,0.7-0.7,0.8-1.2c0.1-0.3,0.1-1,0.1-2.3v-8.4
		c0-2.5,0-4-0.1-4.5s-0.3-0.8-0.6-1.1s-0.6-0.3-1-0.3c-0.5,0-1,0.1-1.6,0.4l-0.3-0.8l6.5-2.6h1V1163.4z"/>
	<path class="st2" d="M586.6,1172.2c0,3.2,0.8,5.7,2.3,7.6c1.6,1.8,3.4,2.7,5.5,2.7c1.4,0,2.7-0.4,3.7-1.2s1.9-2.1,2.6-4l0.7,0.5
		c-0.3,2.1-1.3,4.1-2.9,5.9s-3.6,2.7-6,2.7c-2.6,0-4.8-1-6.7-3s-2.8-4.7-2.8-8.2c0-3.7,0.9-6.6,2.8-8.6s4.3-3.1,7.1-3.1
		c2.4,0,4.4,0.8,6,2.4s2.3,3.7,2.3,6.4h-14.6V1172.2z M586.6,1170.8h10c-0.1-1.4-0.2-2.4-0.5-2.9c-0.4-0.9-1-1.6-1.8-2.1
		s-1.6-0.8-2.4-0.8c-1.3,0-2.5,0.5-3.5,1.5S586.8,1169,586.6,1170.8z"/>
	<path class="st2" d="M634.7,1185.7l-12.4-26.9v21.4c0,2,0.2,3.2,0.6,3.7c0.6,0.7,1.5,1,2.8,1h1.1v0.9h-11.1v-0.9h1.1
		c1.3,0,2.3-0.4,2.9-1.2c0.4-0.5,0.5-1.6,0.5-3.4v-20.9c0-1.4-0.2-2.5-0.5-3.1c-0.2-0.4-0.6-0.8-1.2-1.1s-1.5-0.5-2.9-0.5v-0.9h9.1
		l11.6,25l11.4-25h9.1v0.9h-1.1c-1.4,0-2.3,0.4-2.9,1.2c-0.3,0.5-0.5,1.7-0.5,3.5v20.9c0,2,0.2,3.2,0.6,3.7c0.6,0.7,1.5,1,2.8,1h1.1
		v0.9h-13.6v-0.9h1.1c1.4,0,2.3-0.4,2.9-1.2c0.4-0.5,0.5-1.6,0.5-3.4V1159l-12.3,26.9h-0.7V1185.7z"/>
	<path class="st2" d="M671.7,1182.6c-2.2,1.7-3.6,2.7-4.2,3c-0.9,0.4-1.8,0.6-2.7,0.6c-1.5,0-2.7-0.5-3.7-1.5s-1.5-2.4-1.5-4
		c0-1.1,0.2-2,0.7-2.7c0.6-1.1,1.8-2.1,3.4-3s4.2-2.1,8-3.5v-0.8c0-2.1-0.3-3.6-1-4.4s-1.7-1.2-3-1.2c-1,0-1.8,0.3-2.3,0.8
		c-0.6,0.5-0.9,1.2-0.9,1.8l0.1,1.4c0,0.7-0.2,1.3-0.6,1.7s-0.8,0.6-1.4,0.6s-1.1-0.2-1.4-0.6s-0.6-1-0.6-1.7c0-1.3,0.7-2.6,2.1-3.7
		s3.3-1.7,5.8-1.7c1.9,0,3.5,0.3,4.7,1c0.9,0.5,1.6,1.2,2.1,2.3c0.3,0.7,0.4,2.1,0.4,4.2v7.3c0,2.1,0,3.3,0.1,3.8s0.2,0.8,0.4,0.9
		s0.4,0.2,0.6,0.2c0.3,0,0.5-0.1,0.6-0.2c0.3-0.2,1-0.8,1.9-1.7v1.3c-1.8,2.3-3.5,3.5-5.1,3.5c-0.8,0-1.4-0.3-1.8-0.8
		S671.7,1183.9,671.7,1182.6z M671.7,1181v-8.2c-2.4,1-3.9,1.6-4.6,2c-1.2,0.7-2.1,1.4-2.7,2.2s-0.8,1.6-0.8,2.5
		c0,1.1,0.3,2.1,1,2.8s1.5,1.1,2.3,1.1C668.1,1183.4,669.7,1182.6,671.7,1181z"/>
	<path class="st2" d="M687.2,1163.4v4.9c1.8-3.2,3.7-4.9,5.6-4.9c0.9,0,1.6,0.3,2.2,0.8s0.8,1.1,0.8,1.8c0,0.6-0.2,1.1-0.6,1.6
		s-0.9,0.6-1.5,0.6s-1.2-0.3-1.9-0.8s-1.2-0.8-1.5-0.8s-0.6,0.2-0.9,0.5c-0.7,0.6-1.4,1.7-2.2,3.2v10.4c0,1.2,0.2,2.1,0.5,2.7
		c0.2,0.4,0.6,0.8,1.1,1.1s1.3,0.4,2.2,0.4v0.8h-11v-0.8c1.1,0,1.9-0.2,2.4-0.5c0.4-0.3,0.7-0.7,0.8-1.2c0.1-0.3,0.1-1,0.1-2.3v-8.4
		c0-2.5,0-4-0.1-4.5s-0.3-0.8-0.6-1.1s-0.6-0.3-1-0.3c-0.5,0-1,0.1-1.6,0.4l-0.3-0.8l6.5-2.6h1V1163.4z"/>
	<path class="st2" d="M702.7,1177.8c-1.3-0.6-2.3-1.5-3-2.7s-1.1-2.4-1.1-3.8c0-2.1,0.8-4,2.4-5.5s3.7-2.3,6.2-2.3
		c2.1,0,3.8,0.5,5.3,1.5h4.6c0.7,0,1.1,0,1.2,0.1s0.2,0.1,0.2,0.2c0.1,0.2,0.1,0.4,0.1,0.8s0,0.7-0.1,0.8c-0.1,0.1-0.1,0.1-0.3,0.2
		s-0.5,0.1-1.2,0.1h-2.8c0.9,1.1,1.3,2.6,1.3,4.3c0,2-0.8,3.7-2.3,5.2s-3.6,2.2-6.2,2.2c-1.1,0-2.2-0.2-3.3-0.5
		c-0.7,0.6-1.1,1.1-1.4,1.6s-0.4,0.8-0.4,1.1c0,0.3,0.1,0.5,0.4,0.8s0.8,0.4,1.5,0.5c0.4,0.1,1.6,0.1,3.3,0.2
		c3.2,0.1,5.3,0.2,6.3,0.3c1.5,0.2,2.6,0.7,3.5,1.6s1.3,2,1.3,3.3c0,1.8-0.8,3.4-2.5,5c-2.5,2.3-5.7,3.5-9.6,3.5
		c-3,0-5.6-0.7-7.7-2.1c-1.2-0.8-1.8-1.6-1.8-2.5c0-0.4,0.1-0.8,0.3-1.1c0.3-0.6,0.8-1.4,1.6-2.4c0.1-0.2,0.9-1,2.4-2.5
		c-0.8-0.5-1.4-0.9-1.7-1.3s-0.5-0.8-0.5-1.3s0.2-1.2,0.7-1.9S701.1,1179.1,702.7,1177.8z M702.5,1185.7c-0.7,0.8-1.3,1.5-1.7,2.2
		s-0.6,1.3-0.6,1.9c0,0.7,0.5,1.4,1.4,2c1.6,1,3.8,1.5,6.8,1.5c2.8,0,4.9-0.5,6.2-1.5s2-2.1,2-3.2c0-0.8-0.4-1.4-1.2-1.8
		c-0.8-0.3-2.4-0.5-4.9-0.6C707.1,1186.1,704.4,1185.9,702.5,1185.7z M706.8,1164.6c-1.2,0-2.1,0.5-2.9,1.4s-1.2,2.3-1.2,4.3
		c0,2.5,0.5,4.4,1.6,5.8c0.8,1,1.9,1.6,3.1,1.6c1.2,0,2.2-0.4,2.9-1.3s1.2-2.3,1.2-4.2c0-2.5-0.5-4.5-1.6-5.9
		C709.1,1165.1,708.1,1164.6,706.8,1164.6z"/>
	<path class="st2" d="M724.7,1172.2c0,3.2,0.8,5.7,2.3,7.6c1.6,1.8,3.4,2.7,5.5,2.7c1.4,0,2.7-0.4,3.7-1.2s1.9-2.1,2.6-4l0.7,0.5
		c-0.3,2.1-1.3,4.1-2.9,5.9s-3.6,2.7-6,2.7c-2.6,0-4.8-1-6.7-3s-2.8-4.7-2.8-8.2c0-3.7,0.9-6.6,2.8-8.6s4.3-3.1,7.1-3.1
		c2.4,0,4.4,0.8,6,2.4s2.3,3.7,2.3,6.4h-14.6V1172.2z M724.7,1170.8h10c-0.1-1.4-0.2-2.4-0.5-2.9c-0.4-0.9-1-1.6-1.8-2.1
		s-1.6-0.8-2.4-0.8c-1.3,0-2.5,0.5-3.5,1.5S724.9,1169,724.7,1170.8z"/>
	<path class="st2" d="M748.8,1168c2.5-3,5-4.6,7.3-4.6c1.2,0,2.2,0.3,3,0.9s1.5,1.6,2,2.9c0.3,1,0.5,2.4,0.5,4.4v9.2
		c0,1.4,0.1,2.3,0.4,2.8c0.2,0.4,0.5,0.7,0.8,0.9s1.1,0.3,2.1,0.3v0.8h-10.7v-0.8h0.5c1,0,1.7-0.2,2.1-0.5s0.7-0.8,0.8-1.4
		c0.1-0.2,0.1-1,0.1-2.2v-8.8c0-2-0.3-3.4-0.8-4.3s-1.4-1.3-2.6-1.3c-1.9,0-3.7,1-5.6,3.1v11.4c0,1.5,0.1,2.4,0.3,2.7
		c0.2,0.4,0.5,0.8,0.9,1s1.2,0.3,2.3,0.3v0.8h-10.7v-0.8h0.5c1.1,0,1.8-0.3,2.2-0.8s0.6-1.6,0.6-3.2v-8c0-2.6-0.1-4.2-0.2-4.7
		s-0.3-1-0.5-1.2s-0.6-0.3-1-0.3s-1,0.1-1.6,0.4l-0.4-0.8l6.5-2.6h1v4.4H748.8z"/>
	<path class="st2" d="M778.9,1182.6c-2.2,1.7-3.6,2.7-4.2,3c-0.9,0.4-1.8,0.6-2.7,0.6c-1.5,0-2.7-0.5-3.7-1.5s-1.5-2.4-1.5-4
		c0-1.1,0.2-2,0.7-2.7c0.6-1.1,1.8-2.1,3.4-3s4.2-2.1,8-3.5v-0.8c0-2.1-0.3-3.6-1-4.4s-1.7-1.2-3-1.2c-1,0-1.8,0.3-2.3,0.8
		c-0.6,0.5-0.9,1.2-0.9,1.8l0.1,1.4c0,0.7-0.2,1.3-0.6,1.7s-0.8,0.6-1.4,0.6s-1.1-0.2-1.4-0.6s-0.6-1-0.6-1.7c0-1.3,0.7-2.6,2.1-3.7
		s3.3-1.7,5.8-1.7c1.9,0,3.5,0.3,4.7,1c0.9,0.5,1.6,1.2,2.1,2.3c0.3,0.7,0.4,2.1,0.4,4.2v7.3c0,2.1,0,3.3,0.1,3.8s0.2,0.8,0.4,0.9
		s0.4,0.2,0.6,0.2c0.3,0,0.5-0.1,0.6-0.2c0.3-0.2,1-0.8,1.9-1.7v1.3c-1.8,2.3-3.5,3.5-5.1,3.5c-0.8,0-1.4-0.3-1.8-0.8
		S778.9,1183.9,778.9,1182.6z M778.9,1181v-8.2c-2.4,1-3.9,1.6-4.6,2c-1.2,0.7-2.1,1.4-2.7,2.2s-0.8,1.6-0.8,2.5
		c0,1.1,0.3,2.1,1,2.8s1.5,1.1,2.3,1.1C775.4,1183.4,777,1182.6,778.9,1181z"/>
	<path class="st2" d="M794.4,1157v7.1h5v1.6h-5v14c0,1.4,0.2,2.4,0.6,2.8s0.9,0.7,1.5,0.7c0.5,0,1-0.2,1.5-0.5s0.9-0.8,1.1-1.5h0.9
		c-0.5,1.5-1.3,2.7-2.3,3.5s-2,1.2-3.1,1.2c-0.7,0-1.5-0.2-2.1-0.6s-1.2-1-1.5-1.7s-0.5-1.9-0.5-3.5v-14.5h-3.4v-0.8
		c0.9-0.3,1.7-0.9,2.7-1.7s1.7-1.8,2.4-2.9c0.4-0.6,0.9-1.7,1.5-3.3h0.7V1157z"/>
	<path class="st2" d="M802.6,1193.7v-1.1c1.6-0.5,2.8-1.4,3.7-2.5s1.3-2.3,1.3-3.6c0-0.3-0.1-0.5-0.2-0.8c-0.1-0.1-0.2-0.2-0.3-0.2
		c-0.2,0-0.6,0.2-1.1,0.5c-0.3,0.2-0.6,0.2-0.9,0.2c-0.8,0-1.4-0.2-1.8-0.7s-0.7-1.1-0.7-1.9s0.3-1.4,0.9-2s1.3-0.8,2.1-0.8
		c1.1,0,2,0.5,2.8,1.4s1.2,2.1,1.2,3.6c0,1.6-0.6,3.1-1.7,4.5S805.1,1192.9,802.6,1193.7z"/>
	<path class="st2" d="M829.8,1156.8l7.8-3.8h0.8v27c0,1.8,0.1,2.9,0.2,3.3s0.5,0.8,0.9,1s1.4,0.4,2.9,0.4v0.9h-12v-0.9
		c1.5,0,2.5-0.1,2.9-0.4s0.7-0.5,0.9-0.9s0.3-1.5,0.3-3.4v-17.3c0-2.3-0.1-3.8-0.2-4.5c-0.1-0.5-0.3-0.9-0.6-1.1s-0.6-0.4-1.1-0.4
		c-0.6,0-1.4,0.2-2.4,0.7L829.8,1156.8z"/>
	<path class="st2" d="M850.8,1159.8c0.9-2.1,2-3.8,3.4-5s3.1-1.8,5.2-1.8c2.6,0,4.5,0.8,5.9,2.5c1.1,1.2,1.6,2.6,1.6,4
		c0,2.3-1.5,4.7-4.4,7.2c2,0.8,3.4,1.9,4.4,3.3s1.5,3.1,1.5,5.1c0,2.8-0.9,5.1-2.6,7.2c-2.3,2.6-5.6,4-10,4c-2.1,0-3.6-0.3-4.4-0.8
		s-1.2-1.1-1.2-1.7c0-0.4,0.2-0.8,0.6-1.2s0.8-0.5,1.3-0.5c0.4,0,0.8,0.1,1.2,0.2c0.3,0.1,0.9,0.4,1.8,0.9s1.6,0.8,1.9,0.9
		c0.6,0.2,1.2,0.3,1.9,0.3c1.6,0,3-0.6,4.2-1.9s1.8-2.7,1.8-4.4c0-1.2-0.3-2.4-0.8-3.6c-0.4-0.9-0.9-1.5-1.3-2
		c-0.7-0.6-1.6-1.2-2.8-1.7s-2.4-0.8-3.6-0.8h-0.8v-0.7c1.2-0.2,2.5-0.6,3.8-1.3s2.2-1.6,2.7-2.7s0.8-2.2,0.8-3.4
		c0-1.6-0.5-2.9-1.5-3.9s-2.3-1.5-3.8-1.5c-2.4,0-4.5,1.3-6.1,3.9L850.8,1159.8z"/>
	<path class="st2" d="M875.1,1193.7v-1.1c1.6-0.5,2.8-1.4,3.7-2.5s1.3-2.3,1.3-3.6c0-0.3-0.1-0.5-0.2-0.8c-0.1-0.1-0.2-0.2-0.3-0.2
		c-0.2,0-0.6,0.2-1.1,0.5c-0.3,0.2-0.6,0.2-0.9,0.2c-0.8,0-1.4-0.2-1.8-0.7s-0.7-1.1-0.7-1.9s0.3-1.4,0.9-2s1.3-0.8,2.1-0.8
		c1.1,0,2,0.5,2.8,1.4s1.2,2.1,1.2,3.6c0,1.6-0.6,3.1-1.7,4.5S877.5,1192.9,875.1,1193.7z"/>
	<path class="st2" d="M344.5,1241.9c0-3.7,0.5-6.8,1.6-9.4s2.6-4.6,4.4-5.9c1.4-1,2.9-1.5,4.4-1.5c2.5,0,4.7,1.2,6.6,3.8
		c2.4,3.1,3.7,7.3,3.7,12.6c0,3.7-0.5,6.9-1.6,9.4s-2.4,4.5-4.1,5.6s-3.3,1.8-4.8,1.8c-3,0-5.6-1.8-7.6-5.4
		C345.3,1249.8,344.5,1246.2,344.5,1241.9z M349.1,1242.5c0,4.4,0.5,8,1.6,10.8c0.9,2.3,2.2,3.5,4,3.5c0.8,0,1.7-0.4,2.6-1.1
		s1.6-2,2.1-3.8c0.7-2.7,1.1-6.5,1.1-11.5c0-3.6-0.4-6.7-1.1-9.1c-0.6-1.8-1.3-3.1-2.2-3.8c-0.6-0.5-1.4-0.8-2.3-0.8
		c-1.1,0-2,0.5-2.9,1.4c-1.1,1.3-1.9,3.4-2.3,6.2S349.1,1239.7,349.1,1242.5z"/>
	<path class="st2" d="M376.1,1241.6c-2.5-2.1-4.1-3.7-4.9-5s-1.1-2.6-1.1-3.9c0-2.1,0.8-3.9,2.4-5.4s3.7-2.3,6.4-2.3
		c2.6,0,4.7,0.7,6.2,2.1s2.4,3,2.4,4.8c0,1.2-0.4,2.4-1.3,3.6s-2.6,2.7-5.3,4.4c2.8,2.1,4.6,3.8,5.5,5.1c1.2,1.6,1.8,3.3,1.8,5.1
		c0,2.2-0.9,4.2-2.6,5.8s-4,2.4-6.8,2.4c-3,0-5.4-0.9-7.1-2.8c-1.3-1.5-2-3.2-2-5c0-1.4,0.5-2.8,1.4-4.2S373.8,1243.2,376.1,1241.6z
		 M377.2,1242.5c-1.3,1.1-2.3,2.3-2.9,3.6s-0.9,2.7-0.9,4.2c0,2,0.6,3.7,1.7,4.9s2.5,1.8,4.2,1.8s3.1-0.5,4.1-1.4s1.5-2.1,1.5-3.5
		c0-1.1-0.3-2.1-0.9-3C382.9,1247.3,380.6,1245.1,377.2,1242.5z M379.8,1239c1.9-1.7,3.1-3,3.6-4s0.8-2.1,0.8-3.3
		c0-1.7-0.5-3-1.4-3.9s-2.2-1.4-3.8-1.4s-2.9,0.5-3.9,1.4s-1.5,2-1.5,3.2c0,0.8,0.2,1.6,0.6,2.5s1,1.6,1.8,2.3L379.8,1239z"/>
	<path class="st2" d="M396.6,1228.8l7.8-3.8h0.8v27c0,1.8,0.1,2.9,0.2,3.3s0.5,0.8,0.9,1s1.4,0.4,2.9,0.4v0.9h-12v-0.9
		c1.5,0,2.5-0.1,2.9-0.4s0.7-0.5,0.9-0.9s0.3-1.5,0.3-3.4v-17.3c0-2.3-0.1-3.8-0.2-4.5c-0.1-0.5-0.3-0.9-0.6-1.1s-0.6-0.4-1.1-0.4
		c-0.6,0-1.4,0.2-2.4,0.7L396.6,1228.8z"/>
	<path class="st2" d="M424.4,1241.6c-2.5-2.1-4.1-3.7-4.9-5s-1.1-2.6-1.1-3.9c0-2.1,0.8-3.9,2.4-5.4s3.7-2.3,6.4-2.3
		c2.6,0,4.7,0.7,6.2,2.1s2.4,3,2.4,4.8c0,1.2-0.4,2.4-1.3,3.6s-2.6,2.7-5.3,4.4c2.8,2.1,4.6,3.8,5.5,5.1c1.2,1.6,1.8,3.3,1.8,5.1
		c0,2.2-0.9,4.2-2.6,5.8s-4,2.4-6.8,2.4c-3,0-5.4-0.9-7.1-2.8c-1.3-1.5-2-3.2-2-5c0-1.4,0.5-2.8,1.4-4.2S422.1,1243.2,424.4,1241.6z
		 M425.5,1242.5c-1.3,1.1-2.3,2.3-2.9,3.6s-0.9,2.7-0.9,4.2c0,2,0.6,3.7,1.7,4.9s2.5,1.8,4.2,1.8s3.1-0.5,4.1-1.4s1.5-2.1,1.5-3.5
		c0-1.1-0.3-2.1-0.9-3C431.2,1247.3,428.9,1245.1,425.5,1242.5z M428.1,1239c1.9-1.7,3.1-3,3.6-4s0.8-2.1,0.8-3.3
		c0-1.7-0.5-3-1.4-3.9s-2.2-1.4-3.8-1.4s-2.9,0.5-3.9,1.4s-1.5,2-1.5,3.2c0,0.8,0.2,1.6,0.6,2.5s1,1.6,1.8,2.3L428.1,1239z"/>
	<path class="st2" d="M444.9,1228.8l7.8-3.8h0.8v27c0,1.8,0.1,2.9,0.2,3.3s0.5,0.8,0.9,1s1.4,0.4,2.9,0.4v0.9h-12v-0.9
		c1.5,0,2.5-0.1,2.9-0.4s0.7-0.5,0.9-0.9s0.3-1.5,0.3-3.4v-17.3c0-2.3-0.1-3.8-0.2-4.5c-0.1-0.5-0.3-0.9-0.6-1.1s-0.6-0.4-1.1-0.4
		c-0.6,0-1.4,0.2-2.4,0.7L444.9,1228.8z"/>
	<path class="st2" d="M497.6,1224.9v11.1h-0.9c-0.3-2.1-0.8-3.8-1.5-5.1s-1.8-2.2-3.1-3s-2.8-1.1-4.2-1.1c-1.6,0-3,0.5-4,1.5
		s-1.6,2.1-1.6,3.4c0,1,0.3,1.9,1,2.7c1,1.2,3.3,2.8,6.9,4.7c3,1.6,5,2.8,6.1,3.7s1.9,1.9,2.5,3s0.9,2.4,0.9,3.6
		c0,2.4-0.9,4.5-2.8,6.3s-4.3,2.6-7.2,2.6c-0.9,0-1.8-0.1-2.6-0.2c-0.5-0.1-1.5-0.4-3-0.9s-2.5-0.7-2.9-0.7s-0.7,0.1-0.9,0.4
		s-0.4,0.7-0.5,1.5H479v-11h0.8c0.4,2.3,1,4,1.7,5.1s1.8,2.1,3.2,2.8s3,1.1,4.7,1.1c2,0,3.5-0.5,4.6-1.6s1.7-2.3,1.7-3.7
		c0-0.8-0.2-1.6-0.6-2.4s-1.1-1.5-2-2.2c-0.6-0.5-2.3-1.5-5-3s-4.7-2.8-5.8-3.7s-2-1.9-2.6-3s-0.9-2.3-0.9-3.6
		c0-2.3,0.9-4.3,2.6-5.9s4-2.5,6.7-2.5c1.7,0,3.5,0.4,5.4,1.3c0.9,0.4,1.5,0.6,1.9,0.6s0.7-0.1,1-0.4s0.5-0.7,0.6-1.5L497.6,1224.9
		L497.6,1224.9z"/>
	<path class="st2" d="M507.5,1244.2c0,3.2,0.8,5.7,2.3,7.6c1.6,1.8,3.4,2.7,5.5,2.7c1.4,0,2.7-0.4,3.7-1.2s1.9-2.1,2.6-4l0.7,0.5
		c-0.3,2.1-1.3,4.1-2.9,5.9s-3.6,2.7-6,2.7c-2.6,0-4.8-1-6.7-3s-2.8-4.7-2.8-8.2c0-3.7,0.9-6.6,2.8-8.6s4.3-3.1,7.1-3.1
		c2.4,0,4.4,0.8,6,2.4s2.3,3.7,2.3,6.4h-14.6V1244.2z M507.5,1242.8h10c-0.1-1.4-0.2-2.4-0.5-2.9c-0.4-0.9-1-1.6-1.8-2.1
		s-1.6-0.8-2.4-0.8c-1.3,0-2.5,0.5-3.5,1.5S507.7,1241,507.5,1242.8z"/>
	<path class="st2" d="M531.6,1240c2.5-3,5-4.6,7.3-4.6c1.2,0,2.2,0.3,3,0.9s1.5,1.6,2,2.9c0.3,1,0.5,2.4,0.5,4.4v9.2
		c0,1.4,0.1,2.3,0.4,2.8c0.2,0.4,0.5,0.7,0.8,0.9s1.1,0.3,2.1,0.3v0.8H537v-0.8h0.5c1,0,1.7-0.2,2.1-0.5s0.7-0.8,0.8-1.4
		c0.1-0.2,0.1-1,0.1-2.2v-8.8c0-2-0.3-3.4-0.8-4.3s-1.4-1.3-2.6-1.3c-1.9,0-3.7,1-5.6,3.1v11.4c0,1.5,0.1,2.4,0.3,2.7
		c0.2,0.4,0.5,0.8,0.9,1s1.2,0.3,2.3,0.3v0.8h-10.7v-0.8h0.5c1.1,0,1.8-0.3,2.2-0.8s0.6-1.6,0.6-3.2v-8c0-2.6-0.1-4.2-0.2-4.7
		s-0.3-1-0.5-1.2s-0.6-0.3-1-0.3s-1,0.1-1.6,0.4l-0.4-0.8l6.5-2.6h1v4.4H531.6z"/>
	<path class="st2" d="M555.7,1229v7.1h5v1.6h-5v14c0,1.4,0.2,2.4,0.6,2.8s0.9,0.7,1.5,0.7c0.5,0,1-0.2,1.5-0.5s0.9-0.8,1.1-1.5h0.9
		c-0.5,1.5-1.3,2.7-2.3,3.5s-2,1.2-3.1,1.2c-0.7,0-1.5-0.2-2.1-0.6s-1.2-1-1.5-1.7s-0.5-1.9-0.5-3.5v-14.5h-3.4v-0.8
		c0.9-0.3,1.7-0.9,2.7-1.7s1.7-1.8,2.4-2.9c0.4-0.6,0.9-1.7,1.5-3.3h0.7V1229z"/>
	<path class="st2" d="M569.3,1240c1.6-1.6,2.5-2.5,2.8-2.7c0.7-0.6,1.5-1,2.3-1.4s1.6-0.5,2.4-0.5c1.4,0,2.5,0.4,3.5,1.2
		s1.6,1.9,1.9,3.4c1.6-1.9,3-3.1,4.1-3.7s2.3-0.9,3.4-0.9c1.2,0,2.2,0.3,3.1,0.9s1.6,1.6,2.1,2.9c0.4,0.9,0.5,2.3,0.5,4.3v9.3
		c0,1.4,0.1,2.3,0.3,2.8c0.2,0.4,0.5,0.6,0.9,0.9s1.1,0.4,2.1,0.4v0.8H588v-0.8h0.5c0.9,0,1.6-0.2,2.2-0.5c0.4-0.3,0.6-0.7,0.8-1.2
		c0.1-0.3,0.1-1,0.1-2.3v-9.3c0-1.8-0.2-3-0.6-3.7c-0.6-1-1.6-1.5-3-1.5c-0.8,0-1.7,0.2-2.5,0.6s-1.9,1.2-3,2.3l-0.1,0.3l0.1,1v10.3
		c0,1.5,0.1,2.4,0.2,2.8s0.5,0.7,0.9,0.9s1.2,0.4,2.3,0.4v0.8H575v-0.8c1.2,0,2-0.1,2.5-0.4s0.8-0.7,0.9-1.3
		c0.1-0.3,0.1-1.1,0.1-2.3v-9.3c0-1.8-0.3-3-0.8-3.8c-0.7-1-1.7-1.5-2.9-1.5c-0.9,0-1.7,0.2-2.5,0.7c-1.3,0.7-2.3,1.5-3,2.3v11.6
		c0,1.4,0.1,2.3,0.3,2.8s0.5,0.7,0.9,1s1.2,0.3,2.3,0.3v0.8h-10.7v-0.8c1,0,1.7-0.1,2.1-0.3s0.7-0.6,0.9-1s0.3-1.4,0.3-2.7v-8.2
		c0-2.4-0.1-3.9-0.2-4.6c-0.1-0.5-0.3-0.9-0.5-1.1s-0.6-0.3-1-0.3s-1,0.1-1.6,0.4l-0.4-0.8l6.5-2.6h1v4.1H569.3z"/>
	<path class="st2" d="M604,1244.2c0,3.2,0.8,5.7,2.3,7.6c1.6,1.8,3.4,2.7,5.5,2.7c1.4,0,2.7-0.4,3.7-1.2s1.9-2.1,2.6-4l0.7,0.5
		c-0.3,2.1-1.3,4.1-2.9,5.9s-3.6,2.7-6,2.7c-2.6,0-4.8-1-6.7-3s-2.8-4.7-2.8-8.2c0-3.7,0.9-6.6,2.8-8.6s4.3-3.1,7.1-3.1
		c2.4,0,4.4,0.8,6,2.4s2.3,3.7,2.3,6.4H604V1244.2z M604,1242.8h10c-0.1-1.4-0.2-2.4-0.5-2.9c-0.4-0.9-1-1.6-1.8-2.1
		s-1.6-0.8-2.4-0.8c-1.3,0-2.5,0.5-3.5,1.5S604.2,1241,604,1242.8z"/>
	<path class="st2" d="M628.1,1240c2.5-3,5-4.6,7.3-4.6c1.2,0,2.2,0.3,3,0.9s1.5,1.6,2,2.9c0.3,1,0.5,2.4,0.5,4.4v9.2
		c0,1.4,0.1,2.3,0.4,2.8c0.2,0.4,0.5,0.7,0.8,0.9s1.1,0.3,2.1,0.3v0.8h-10.7v-0.8h0.5c1,0,1.7-0.2,2.1-0.5s0.7-0.8,0.8-1.4
		c0.1-0.2,0.1-1,0.1-2.2v-8.8c0-2-0.3-3.4-0.8-4.3s-1.4-1.3-2.6-1.3c-1.9,0-3.7,1-5.6,3.1v11.4c0,1.5,0.1,2.4,0.3,2.7
		c0.2,0.4,0.5,0.8,0.9,1s1.2,0.3,2.3,0.3v0.8H621v-0.8h0.5c1.1,0,1.8-0.3,2.2-0.8s0.6-1.6,0.6-3.2v-8c0-2.6-0.1-4.2-0.2-4.7
		s-0.3-1-0.5-1.2s-0.6-0.3-1-0.3s-1,0.1-1.6,0.4l-0.4-0.8l6.5-2.6h1V1240z"/>
	<path class="st2" d="M658.2,1254.6c-2.2,1.7-3.6,2.7-4.2,3c-0.9,0.4-1.8,0.6-2.7,0.6c-1.5,0-2.7-0.5-3.7-1.5s-1.5-2.4-1.5-4
		c0-1.1,0.2-2,0.7-2.7c0.6-1.1,1.8-2.1,3.4-3s4.2-2.1,8-3.5v-0.8c0-2.1-0.3-3.6-1-4.4s-1.7-1.2-3-1.2c-1,0-1.8,0.3-2.3,0.8
		c-0.6,0.5-0.9,1.2-0.9,1.8l0.1,1.4c0,0.7-0.2,1.3-0.6,1.7s-0.8,0.6-1.4,0.6s-1.1-0.2-1.4-0.6s-0.6-1-0.6-1.7c0-1.3,0.7-2.6,2.1-3.7
		s3.3-1.7,5.8-1.7c1.9,0,3.5,0.3,4.7,1c0.9,0.5,1.6,1.2,2.1,2.3c0.3,0.7,0.4,2.1,0.4,4.2v7.3c0,2.1,0,3.3,0.1,3.8s0.2,0.8,0.4,0.9
		s0.4,0.2,0.6,0.2c0.3,0,0.5-0.1,0.6-0.2c0.3-0.2,1-0.8,1.9-1.7v1.3c-1.8,2.3-3.5,3.5-5.1,3.5c-0.8,0-1.4-0.3-1.8-0.8
		S658.3,1255.9,658.2,1254.6z M658.2,1253v-8.2c-2.4,1-3.9,1.6-4.6,2c-1.2,0.7-2.1,1.4-2.7,2.2s-0.8,1.6-0.8,2.5
		c0,1.1,0.3,2.1,1,2.8s1.5,1.1,2.3,1.1C654.7,1255.4,656.3,1254.6,658.2,1253z"/>
	<path class="st2" d="M673.7,1229v7.1h5v1.6h-5v14c0,1.4,0.2,2.4,0.6,2.8s0.9,0.7,1.5,0.7c0.5,0,1-0.2,1.5-0.5s0.9-0.8,1.1-1.5h0.9
		c-0.5,1.5-1.3,2.7-2.3,3.5s-2,1.2-3.1,1.2c-0.7,0-1.5-0.2-2.1-0.6s-1.2-1-1.5-1.7s-0.5-1.9-0.5-3.5v-14.5h-3.4v-0.8
		c0.9-0.3,1.7-0.9,2.7-1.7s1.7-1.8,2.4-2.9c0.4-0.6,0.9-1.7,1.5-3.3h0.7V1229z"/>
	<path class="st2" d="M682,1265.7v-1.1c1.6-0.5,2.8-1.4,3.7-2.5s1.3-2.3,1.3-3.6c0-0.3-0.1-0.5-0.2-0.8c-0.1-0.1-0.2-0.2-0.3-0.2
		c-0.2,0-0.6,0.2-1.1,0.5c-0.3,0.2-0.6,0.2-0.9,0.2c-0.8,0-1.4-0.2-1.8-0.7s-0.7-1.1-0.7-1.9s0.3-1.4,0.9-2s1.3-0.8,2.1-0.8
		c1.1,0,2,0.5,2.8,1.4s1.2,2.1,1.2,3.6c0,1.6-0.6,3.1-1.7,4.5S684.4,1264.9,682,1265.7z"/>
	<path class="st2" d="M725.8,1241.3c2.2,0.5,3.9,1.2,5,2.3c1.5,1.4,2.3,3.2,2.3,5.3c0,1.6-0.5,3.1-1.5,4.6s-2.4,2.5-4.1,3.2
		s-4.4,1-8,1h-15.1v-0.9h1.2c1.3,0,2.3-0.4,2.9-1.3c0.4-0.5,0.5-1.7,0.5-3.5v-20.7c0-2-0.2-3.2-0.7-3.8c-0.6-0.7-1.5-1.1-2.8-1.1
		h-1.2v-0.9h13.8c2.6,0,4.6,0.2,6.2,0.6c2.4,0.6,4.2,1.6,5.4,3s1.9,3.1,1.9,5c0,1.6-0.5,3-1.5,4.3S727.7,1240.7,725.8,1241.3z
		 M713.5,1240.1c0.6,0.1,1.2,0.2,2,0.3s1.6,0.1,2.5,0.1c2.3,0,4-0.2,5.2-0.7s2.1-1.3,2.7-2.3s0.9-2.1,0.9-3.4c0-1.9-0.8-3.4-2.3-4.8
		s-3.8-2-6.7-2c-1.6,0-3,0.2-4.2,0.5v12.3H713.5z M713.5,1255.4c1.8,0.4,3.6,0.6,5.4,0.6c2.9,0,5-0.6,6.5-1.9s2.2-2.9,2.2-4.8
		c0-1.2-0.3-2.4-1-3.6s-1.8-2-3.3-2.7s-3.4-1-5.7-1c-1,0-1.8,0-2.5,0.1s-1.2,0.1-1.7,0.2L713.5,1255.4L713.5,1255.4z"/>
	<path class="st2" d="M749.5,1254.6c-2.2,1.7-3.6,2.7-4.2,3c-0.9,0.4-1.8,0.6-2.7,0.6c-1.5,0-2.7-0.5-3.7-1.5s-1.5-2.4-1.5-4
		c0-1.1,0.2-2,0.7-2.7c0.6-1.1,1.8-2.1,3.4-3s4.2-2.1,8-3.5v-0.8c0-2.1-0.3-3.6-1-4.4s-1.7-1.2-3-1.2c-1,0-1.8,0.3-2.3,0.8
		c-0.6,0.5-0.9,1.2-0.9,1.8l0.1,1.4c0,0.7-0.2,1.3-0.6,1.7s-0.8,0.6-1.4,0.6s-1.1-0.2-1.4-0.6s-0.6-1-0.6-1.7c0-1.3,0.7-2.6,2.1-3.7
		s3.3-1.7,5.8-1.7c1.9,0,3.5,0.3,4.7,1c0.9,0.5,1.6,1.2,2.1,2.3c0.3,0.7,0.4,2.1,0.4,4.2v7.3c0,2.1,0,3.3,0.1,3.8s0.2,0.8,0.4,0.9
		s0.4,0.2,0.6,0.2c0.3,0,0.5-0.1,0.6-0.2c0.3-0.2,1-0.8,1.9-1.7v1.3c-1.8,2.3-3.5,3.5-5.1,3.5c-0.8,0-1.4-0.3-1.8-0.8
		S749.5,1255.9,749.5,1254.6z M749.5,1253v-8.2c-2.4,1-3.9,1.6-4.6,2c-1.2,0.7-2.1,1.4-2.7,2.2s-0.8,1.6-0.8,2.5
		c0,1.1,0.3,2.1,1,2.8s1.5,1.1,2.3,1.1C745.9,1255.4,747.5,1254.6,749.5,1253z"/>
	<path class="st2" d="M765,1235.4v4.9c1.8-3.2,3.7-4.9,5.6-4.9c0.9,0,1.6,0.3,2.2,0.8s0.8,1.1,0.8,1.8c0,0.6-0.2,1.1-0.6,1.6
		s-0.9,0.6-1.5,0.6s-1.2-0.3-1.9-0.8s-1.2-0.8-1.5-0.8s-0.6,0.2-0.9,0.5c-0.7,0.6-1.4,1.7-2.2,3.2v10.4c0,1.2,0.2,2.1,0.5,2.7
		c0.2,0.4,0.6,0.8,1.1,1.1s1.3,0.4,2.2,0.4v0.8h-11v-0.8c1.1,0,1.9-0.2,2.4-0.5c0.4-0.3,0.7-0.7,0.8-1.2c0.1-0.3,0.1-1,0.1-2.3v-8.4
		c0-2.5,0-4-0.1-4.5s-0.3-0.8-0.6-1.1s-0.6-0.3-1-0.3c-0.5,0-1,0.1-1.6,0.4l-0.3-0.8l6.5-2.6h1V1235.4z"/>
	<path class="st2" d="M793.1,1249.5c-0.6,2.9-1.7,5-3.4,6.6s-3.6,2.3-5.6,2.3c-2.5,0-4.6-1-6.4-3.1s-2.7-4.8-2.7-8.4
		c0-3.4,1-6.2,3-8.3s4.4-3.2,7.3-3.2c2.1,0,3.9,0.6,5.2,1.7s2.1,2.3,2.1,3.5c0,0.6-0.2,1.1-0.6,1.5s-0.9,0.5-1.6,0.5
		c-0.9,0-1.6-0.3-2.1-0.9c-0.3-0.3-0.4-1-0.5-1.9s-0.4-1.6-1-2.1s-1.3-0.7-2.3-0.7c-1.6,0-2.9,0.6-3.8,1.7c-1.3,1.5-1.9,3.6-1.9,6.1
		c0,2.6,0.6,4.9,1.9,6.8s3,3,5.1,3c1.5,0,2.9-0.5,4.1-1.6c0.9-0.7,1.7-2,2.5-3.9L793.1,1249.5z"/>
	<path class="st2" d="M799.8,1244.2c0,3.2,0.8,5.7,2.3,7.6c1.6,1.8,3.4,2.7,5.5,2.7c1.4,0,2.7-0.4,3.7-1.2s1.9-2.1,2.6-4l0.7,0.5
		c-0.3,2.1-1.3,4.1-2.9,5.9s-3.6,2.7-6,2.7c-2.6,0-4.8-1-6.7-3s-2.8-4.7-2.8-8.2c0-3.7,0.9-6.6,2.8-8.6s4.3-3.1,7.1-3.1
		c2.4,0,4.4,0.8,6,2.4s2.3,3.7,2.3,6.4h-14.6V1244.2z M799.8,1242.8h10c-0.1-1.4-0.2-2.4-0.5-2.9c-0.4-0.9-1-1.6-1.8-2.1
		s-1.6-0.8-2.4-0.8c-1.3,0-2.5,0.5-3.5,1.5S800,1241,799.8,1242.8z"/>
	<path class="st2" d="M825.1,1224.1v28.7c0,1.4,0.1,2.3,0.3,2.7s0.5,0.8,0.9,1s1.2,0.3,2.3,0.3v0.8H818v-0.8c1,0,1.7-0.1,2-0.3
		s0.6-0.5,0.8-1s0.3-1.4,0.3-2.7v-19.6c0-2.4-0.1-3.9-0.2-4.5s-0.3-0.9-0.5-1.1s-0.6-0.3-0.9-0.3c-0.4,0-0.9,0.1-1.6,0.4l-0.4-0.8
		l6.4-2.6h1.2V1224.1z"/>
	<path class="st2" d="M841.6,1235.4c3.3,0,5.9,1.2,7.9,3.7c1.7,2.1,2.5,4.6,2.5,7.3c0,1.9-0.5,3.9-1.4,5.9s-2.2,3.5-3.8,4.5
		s-3.4,1.5-5.4,1.5c-3.2,0-5.8-1.3-7.8-3.9c-1.6-2.2-2.4-4.6-2.4-7.4c0-2,0.5-4,1.5-5.9s2.3-3.4,3.9-4.3S839.8,1235.4,841.6,1235.4z
		 M840.9,1237c-0.8,0-1.7,0.2-2.5,0.7s-1.5,1.4-2.1,2.6s-0.8,2.8-0.8,4.8c0,3.1,0.6,5.9,1.9,8.1s2.9,3.4,5,3.4
		c1.5,0,2.8-0.6,3.8-1.9s1.5-3.4,1.5-6.5c0-3.8-0.8-6.9-2.5-9.1C844.1,1237.7,842.6,1237,840.9,1237z"/>
	<path class="st2" d="M861.5,1240c2.5-3,5-4.6,7.3-4.6c1.2,0,2.2,0.3,3,0.9s1.5,1.6,2,2.9c0.3,1,0.5,2.4,0.5,4.4v9.2
		c0,1.4,0.1,2.3,0.4,2.8c0.2,0.4,0.5,0.7,0.8,0.9s1.1,0.3,2.1,0.3v0.8h-10.7v-0.8h0.5c1,0,1.7-0.2,2.1-0.5s0.7-0.8,0.8-1.4
		c0.1-0.2,0.1-1,0.1-2.2v-8.8c0-2-0.3-3.4-0.8-4.3s-1.4-1.3-2.6-1.3c-1.9,0-3.7,1-5.6,3.1v11.4c0,1.5,0.1,2.4,0.3,2.7
		c0.2,0.4,0.5,0.8,0.9,1s1.2,0.3,2.3,0.3v0.8h-10.7v-0.8h0.5c1.1,0,1.8-0.3,2.2-0.8s0.6-1.6,0.6-3.2v-8c0-2.6-0.1-4.2-0.2-4.7
		s-0.3-1-0.5-1.2s-0.6-0.3-1-0.3s-1,0.1-1.6,0.4l-0.4-0.8l6.5-2.6h1v4.4H861.5z"/>
	<path class="st2" d="M891.6,1254.6c-2.2,1.7-3.6,2.7-4.2,3c-0.9,0.4-1.8,0.6-2.7,0.6c-1.5,0-2.7-0.5-3.7-1.5s-1.5-2.4-1.5-4
		c0-1.1,0.2-2,0.7-2.7c0.6-1.1,1.8-2.1,3.4-3s4.2-2.1,8-3.5v-0.8c0-2.1-0.3-3.6-1-4.4s-1.7-1.2-3-1.2c-1,0-1.8,0.3-2.3,0.8
		c-0.6,0.5-0.9,1.2-0.9,1.8l0.1,1.4c0,0.7-0.2,1.3-0.6,1.7s-0.8,0.6-1.4,0.6s-1.1-0.2-1.4-0.6s-0.6-1-0.6-1.7c0-1.3,0.7-2.6,2.1-3.7
		s3.3-1.7,5.8-1.7c1.9,0,3.5,0.3,4.7,1c0.9,0.5,1.6,1.2,2.1,2.3c0.3,0.7,0.4,2.1,0.4,4.2v7.3c0,2.1,0,3.3,0.1,3.8s0.2,0.8,0.4,0.9
		s0.4,0.2,0.6,0.2c0.3,0,0.5-0.1,0.6-0.2c0.3-0.2,1-0.8,1.9-1.7v1.3c-1.8,2.3-3.5,3.5-5.1,3.5c-0.8,0-1.4-0.3-1.8-0.8
		S891.6,1255.9,891.6,1254.6z M891.6,1253v-8.2c-2.4,1-3.9,1.6-4.6,2c-1.2,0.7-2.1,1.4-2.7,2.2s-0.8,1.6-0.8,2.5
		c0,1.1,0.3,2.1,1,2.8s1.5,1.1,2.3,1.1C888.1,1255.4,889.6,1254.6,891.6,1253z"/>
</g>
<text transform="matrix(1 0 0 1 1413.4014 1086.6472)" style="font-family:'Vijaya'; font-size:100px;">Mas Vents</text>
<g>
	<path class="st2" d="M803.3,533.5L791.8,547h-1.4l4.1-13.5H803.3z"/>
</g>
<text transform="matrix(1 0 0 1 1337.4749 1185.6667)" style="font-family:'Aparajita'; font-size:60px;">Carrer Isidre Margenat, 13,</text>
<text transform="matrix(1 0 0 1 1322.6748 1257.6667)" style="font-family:'Aparajita'; font-size:60px;">08181 Sentmenat, Barcelona</text>
<g>
	<path class="st2" d="M484.3,505.6c-10.8,17.7-45,13.3-66.6,13.3c-2.8,3.1-5.5,6.5-8.1,10.3c-21.7,31.7-24.8,69.7-8.7,82.4
		c14.2,11.2,36.9,5.9,57.1-21.4c15.9-21.5,26.4-29,31.4-30.2c-11.2,8.1-19.6,17.8-30.8,33.2c-17.8,24.6-43.8,32.7-61.2,20.2
		c-26.4-24-9.1-70.3,10.9-94.5c-38.9,1.8-58.1,20.2-68.6,34.2c10.9-20.6,36.6-34.1,70.3-36.3c15.3-16.7,35.4-26.8,55.4-27.1
		C477.1,489.5,491.1,494.8,484.3,505.6z M465.6,492.9c-11.8,0.4-29.2,6.6-46.1,24c14.9,0.3,35.5,2.1,48.7-2.2
		C487.1,508.5,490,491.9,465.6,492.9z"/>
	<path class="st2" d="M481.2,574.9c-2.4,11.4,3.8,15.8,10.3,13.1c10.9-4.3,21.2-28.2,28.9-28c-7.5,6.9-8.1,9.1-13.3,15.8
		c-6.8,8.7-13.9,16.2-22.3,15.3c-11.1-1.2-12.4-15-9.6-21.5c2.9-6.8,8.8-14.4,18.1-15c7.7-0.4,10.6,6.8,3.2,13
		c-4.4,3.7-10.9,5.5-15.2,6.2C481.5,574,481.2,574.6,481.2,574.9z M487.5,570.6c11.9-4,14-13,7.8-11.5c0,0-9.7,1.2-13.4,13
		C483.4,571.8,485.5,571.3,487.5,570.6z"/>
	<path class="st2" d="M511.1,601.3c-0.4,4.3,0.1,7.7,4,2.2c11.5-16.1,25.5-38.2,37.3-43.3c-8.1,7.5-18.4,19.3-26.8,31.7
		c-11.5,17-13.1,18-16.4,16.2c-6-3.1-3.1-20.6,0.6-32.6c4.4-14.3,16.1-42.9,29.2-61.8c6.3-9.1,11.8-16.2,17.4-19.9
		c4.4-3.1,10-4.3,13,0.1c6.5,9.7-29.9,51.5-40.8,61.3c-2.1,1.9-3.5,3.2-4.7,4.1C514.6,580.9,512,593.5,511.1,601.3z M530.3,545.3
		c-1.8,3.7-3.4,7.2-4.9,10.5c5.8-5.9,16.4-17.1,22.6-25.1c14.2-18.1,18.6-27.3,19.6-31.4c2.5-10.3-8,0.4-10.9,3.7
		C551.8,508.4,542.4,520.3,530.3,545.3z"/>
	<path class="st2" d="M545.3,574.9c-2.4,11.4,3.8,15.8,10.3,13.1c10.9-4.3,21.2-28.2,28.9-28c-7.5,6.9-8.1,9.1-13.3,15.8
		c-6.8,8.7-13.9,16.2-22.3,15.3c-11.1-1.2-12.4-15-9.6-21.5c2.9-6.8,8.8-14.4,18.1-15c7.7-0.4,10.6,6.8,3.2,13
		c-4.4,3.7-10.9,5.5-15.2,6.2C545.6,574,545.3,574.6,545.3,574.9z M551.7,570.6c11.9-4,14-13,7.8-11.5c0,0-9.7,1.2-13.4,13
		C547.5,571.8,549.6,571.3,551.7,570.6z"/>
	<path class="st2" d="M608.1,568.1c-0.3-6.5-6.2-11.2-14.3-5.8c-7.7,5.2-10.2,11.9-12.4,18c0,0-9,2.8-5.2-9
		c5.5-16.4,13.6-33.6,24.3-48.9c12.1-17.1,28.6-34.1,38.8-27.9c7.1,4.3-6.9,29.9-32,50.3c-10.9,8.8-16.2,12.2-18.7,13.4
		c-1.2,2.8-2.5,6.2-3.8,10c1.2-1.8,2.5-3.5,4.3-5.2c12.1-11.2,24.2-4,24.3,6.9c0,2.9-0.4,6-1.6,9.3c16.2-6.6,21.1-17,21.1-16.5
		c0.1,3.5-7.7,13.1-21.8,18.6c-6,15-22,30.5-32.3,29.2c-8-1-10.9-9.7-4.4-16.7c3.2-3.5,8.7-7.8,23.7-10.6c2.4-0.4,4.6-0.9,6.6-1.5
		C607.1,577,608.3,572.2,608.1,568.1z M595.7,585.5c-27.9,5.5-25.8,23.6-17.4,22c8.3-1.5,19.3-12.4,25.4-23.7
		C601.2,584.3,598.7,584.9,595.7,585.5z M593.8,552.8c15-10.3,32.3-26.8,41.4-42.9c6.2-11.1,4.9-15.8-3.5-10.6
		c-9.1,5.7-23.9,22.4-32.6,38.6c-4.9,9.1-7.2,13.7-9.1,17.7C591,554.8,592.2,554,593.8,552.8z"/>
	<path class="st2" d="M638.5,561.3c9.6,6,12.8,12.7,4.6,24.8c-8.7,12.7-10,33,2.1,23.3c7.1-5.7,12.4-15.6,21.2-30.5
		c8.6-14.4,10.6-16.8,14.4-18.9c-1.2,2.2-7.8,11.2-12.2,19.2c-9.9,18-20.2,35.2-29.2,34.5s-12.7-13.3-6.8-25.1
		c6.3-13,13.6-18.1,2.1-25.5c-14.6-9.4-6.9-17-3.4-19c4.3-2.5,10.6-1.5,10.6,4.9c0,4.7-3.2,8.7-5.8,10.9
		C636.9,560.3,637.6,560.7,638.5,561.3z M634.2,545.5c-4.1,1.8-6.3,7.5,1,13.6c2.5-2.9,4.3-6,4.7-7.8
		C641,547.3,637.6,544.1,634.2,545.5z"/>
	<path class="st2" d="M699.8,594.9c8.4-12.4,18.7-33.5,25.9-35.1c-7.4,8.4-9.3,12.2-13.6,19c-8.1,13.1-12.5,22-17.2,21.2
		c-5.3-0.9-10.2-7.8-4.7-22.7c0.1-0.6,0.4-1.2,0.6-1.8c-6,7.4-11.8,14.4-17.4,8.1c-5.8-6.5-0.1-18.1,5.2-23
		c3.8-3.5,11.1-6.6,18.7-4.7c8.6,2.2,2.1,2.2,2.1,2.2s-10.9-2.4-18.7,10.2c-5.8,9.3-2.5,17.7,2.1,13.4c2.5-2.4,8-9.3,12.2-14.7
		c2.2-3.5,4.6-7.8,6.8-7.8c2.2-0.1,7.7,0.6,2.8,6.8C691.1,583.4,690.8,608.1,699.8,594.9z"/>
	<path class="st2" d="M721.6,571.5c-3.8,5.2-6.6,11.5-4.9,18.9c0.7,3.5,6.2,6,12.5,1.9c12.2-8,23.3-27.6,32.7-32.3
		c-6.8,5.6-14,17.4-24.6,27.7c-9.7,9.4-17,11.8-23,6.8c-7.1-5.9-4.7-20.3,1.2-27.6c6.8-8.4,15-12.8,22.7-10.6
		c8.1,2.2,5.2,9,2.8,12.4s-5.8,6.5-9,3.8s1.2-5.5,2.1-5.2s3.8,0,5.9-2.4c2.8-3.1,0.4-5.6-3.1-5C734.8,560.3,728.6,562.2,721.6,571.5
		z"/>
	<path class="st2" d="M771.6,577.5c-6.8,9-12.1,14.6-17.8,12.8c-9.1-2.9-1.5-25.8,5-30.1c2.9-1.5,4.4,0.1,4,2.5
		c-0.6,3.7-4.6,9.1-6.2,15.6c-1.2,4.9-2.7,10.5,1,10c4.6-0.4,13-13.4,18.9-20.6c4.9-6,6.3-7.8,9.4-7.8
		C781.5,562.2,777.8,569.4,771.6,577.5z M764.5,554.1c-1.8-0.6-1.9-1.6-0.6-4.1c1.5-2.8,0.6-3.4,2.9-4.7c1.6-0.9,6.9-0.3,5.2,3.4
		C770.1,552.6,766.6,554.7,764.5,554.1z"/>
	<path class="st2" d="M785.8,551.9c6.6-0.1,11.9,3.8,11.9,14.3c0,3.1-0.7,7.4-1.9,11.5c2.1-0.9,4.3-2.2,6.5-4
		c8.8-7.1,10.9-14.2,15.5-13.7c-4.9,3.7-9,12.2-17.2,17.2c-1.6,1-3.4,1.8-5.3,2.4c-3.2,9.9-9.6,19.8-16.8,19.5
		c-10.3-0.3-11.1-13.9-6.2-23.4c0.6-1.2,1.2-2.4,1.8-3.4C767.9,560.9,777.6,552,785.8,551.9z M778.8,577.8c-1.5,2.7-2.7,5.3-3.4,8
		c-1.9,7.2,1.8,15,8.1,9.4c3.1-2.8,6.6-8.6,9.1-15C787.8,581.1,782.8,580.6,778.8,577.8z M783.5,560c4-0.6,4.4,3.2,4.1,5.5
		c0,0.1-4.3,4.7-7.8,10.6c3.4,2.7,8.3,3.7,13.6,2.4c3.1-8.8,4-18.4-1.2-22.7c-6.9-5.9-15.2,0.9-16.7,5.9c-0.7,2.8-0.7,5.6,0,8
		C779.3,563.5,782.4,560.1,783.5,560z"/>
	<path class="st2" d="M822.9,564.7c0.1,4.9-1.5,7.2-4.1,12.8c6.2-8.8,20.5-23,30.2-25.7c5.6-1.5,8.1,3.7,7.7,7.5
		c-0.7,5.8-17.1,28.2-19.2,36.4c-2.9,12.2,4.7,8.3,7.1,6.5c7.1-5.3,20.3-29.2,26.4-36.1c7.4-8.6,10.2-5.8,10.2-5.8
		c-11.6,2.8-25.8,40.4-38.8,45.6c-3.8,1.6-9.7,0.6-11.5-5.6c-3.4-12.4,19-41,19.8-45.3c0.7-4.9-13.6,3.8-23.6,15.3
		c-6.8,7.8-10.3,13.7-13.3,18.3c-0.6,1-4,1-5.5-1.5c-0.6-1-2.4-3.4,3.1-14.6c6-12.2,3.5-11.8,3.5-11.8
		C816.3,559,822.8,560,822.9,564.7z"/>
</g>
<g>
	<path class="st2" d="M905.5,1253c0.8,0,1.5,0.3,2,0.8c0.6,0.5,0.8,1.2,0.8,2c0,0.8-0.3,1.5-0.8,2c-0.6,0.6-1.2,0.8-2,0.8
		c-0.8,0-1.5-0.3-2-0.8c-0.5-0.6-0.8-1.2-0.8-2c0-0.8,0.3-1.5,0.8-2C904,1253.3,904.7,1253,905.5,1253z"/>
</g>
</svg>
