<?xml version="1.0" encoding="utf-8"?>
<!-- Generator: Adobe Illustrator 25.4.1, SVG Export Plug-In . SVG Version: 6.00 Build 0)  -->
<!DOCTYPE svg PUBLIC "-//W3C//DTD SVG 1.1//EN" "http://www.w3.org/Graphics/SVG/1.1/DTD/svg11.dtd" [
	<!ENTITY ns_extend "http://ns.adobe.com/Extensibility/1.0/">
	<!ENTITY ns_ai "http://ns.adobe.com/AdobeIllustrator/10.0/">
	<!ENTITY ns_graphs "http://ns.adobe.com/Graphs/1.0/">
	<!ENTITY ns_vars "http://ns.adobe.com/Variables/1.0/">
	<!ENTITY ns_imrep "http://ns.adobe.com/ImageReplacement/1.0/">
	<!ENTITY ns_sfw "http://ns.adobe.com/SaveForWeb/1.0/">
	<!ENTITY ns_custom "http://ns.adobe.com/GenericCustomNamespace/1.0/">
	<!ENTITY ns_adobe_xpath "http://ns.adobe.com/XPath/1.0/">
]>
<svg version="1.1" id="regalo" xmlns:x="&ns_extend;" xmlns:i="&ns_ai;" xmlns:graph="&ns_graphs;"
	 xmlns="http://www.w3.org/2000/svg" xmlns:xlink="http://www.w3.org/1999/xlink" x="0px" y="0px" viewBox="0 0 1242 2208"
	 style="enable-background:new 0 0 1242 2208;" xml:space="preserve">
<style type="text/css">
	.st0{enable-background:new    ;}
	.st1{fill:#4D4D4D;}
	.st2{fill:#A53333;stroke:#A53333;stroke-miterlimit:10;}
	.st3{fill:none;}
</style>
<metadata>
	<sfw  xmlns="&ns_sfw;">
		<slices></slices>
		<sliceSourceBounds  bottomLeftOrigin="true" height="1523.6" width="678.7" x="282" y="241"></sliceSourceBounds>
	</sfw>
</metadata>
<script  type="text/ecmascript">
	<![CDATA[
      function changerect(evt) {
        console.log("aaaaa")
		navigator.clipboard.writeText("ES111111111111111111").then(function() {
          /* Alert the copied text */
          alert("IBAN copiado: ES11 1111 1111 1111 1111");
        });
      }
    
		
		
		
		
		
		]]>
</script>
<g class="st0">
	<path class="st1" d="M400.3,922.2l-5.2,17.9h4.2c3,0,5.2-0.5,6.6-1.4s2.5-2.6,3.5-5.1h1.2L406,950h-1.3c0.4-1.4,0.6-2.6,0.6-3.6
		c0-0.9-0.2-1.7-0.6-2.3s-0.9-1-1.6-1.3s-2.1-0.4-4.3-0.4h-4.3l-4.4,15c-0.4,1.5-0.6,2.6-0.6,3.3c0,0.6,0.3,1.1,0.8,1.5
		c0.4,0.3,1.3,0.5,2.8,0.5h4c4.3,0,7.8-0.8,10.4-2.3s5-4.2,7-8h1.2l-4.3,12.6h-35l0.4-1.2c1.7,0,2.9-0.2,3.5-0.5
		c0.9-0.4,1.5-0.9,1.9-1.5c0.6-0.9,1.3-2.8,2.1-5.8l8-27.3c0.6-2.2,0.9-3.9,0.9-5.1c0-0.8-0.3-1.5-0.9-2s-1.7-0.7-3.4-0.7h-0.7
		l0.4-1.2h32.5l-2.8,10.9h-1.2c0.2-1,0.2-1.9,0.2-2.6c0-1.2-0.3-2.2-0.9-3c-0.8-1-1.9-1.8-3.3-2.3c-1.1-0.4-3.5-0.6-7.4-0.6
		L400.3,922.2L400.3,922.2z"/>
	<path class="st1" d="M440.2,917.5l-11.4,39.7c-0.6,2-0.8,3.2-0.8,3.6c0,0.3,0.1,0.6,0.3,0.8c0.2,0.2,0.5,0.3,0.8,0.3
		c0.4,0,0.9-0.2,1.4-0.6c1.2-0.9,2.4-2.3,3.6-4.2l1,1c-2.1,3-4,5.1-5.8,6.3c-1.3,0.8-2.5,1.2-3.7,1.2c-0.8,0-1.5-0.3-2.1-0.9
		c-0.6-0.6-0.8-1.2-0.8-2s0.3-2.4,1-4.9l9.1-31.3c0.7-2.6,1.1-4,1.1-4.4c0-0.6-0.2-1-0.6-1.3s-1.1-0.5-2-0.5c-0.5,0-1.3,0.1-2.3,0.2
		v-1.2L440.2,917.5z"/>
	<path class="st1" d="M492.9,917.5l-11.5,39.4c-0.6,2.1-1,3.5-1,4.2c0,0.2,0.1,0.4,0.3,0.6s0.4,0.3,0.6,0.3c0.3,0,0.6-0.1,1-0.4
		c0.8-0.6,2-1.9,3.8-4l1.2,0.7c-1.6,2.2-3.2,4-4.9,5.4c-1.6,1.4-3.2,2.1-4.6,2.1c-0.8,0-1.4-0.3-1.9-0.8s-0.7-1.3-0.7-2.3
		c0-1.3,0.3-3,1-5.1l1.3-4.1c-3.2,5-6.1,8.5-8.8,10.4c-1.8,1.3-3.6,1.9-5.2,1.9c-1.7,0-3.2-0.7-4.5-2.2s-1.9-3.5-1.9-6.1
		c0-3.3,1.1-6.9,3.2-10.6s4.9-6.8,8.4-9.2c2.7-1.9,5.2-2.9,7.5-2.9c1.2,0,2.2,0.2,3.1,0.7s1.7,1.3,2.6,2.4l3.3-11.6
		c0.2-0.8,0.4-1.5,0.6-2c0.3-0.9,0.4-1.6,0.4-2.2c0-0.5-0.2-0.9-0.5-1.2c-0.5-0.4-1.1-0.6-1.8-0.6c-0.5,0-1.3,0.1-2.5,0.2v-1.2
		L492.9,917.5z M480.5,941.2c0-1.4-0.4-2.6-1.2-3.4c-0.8-0.9-1.9-1.3-3.1-1.3c-2.8,0-5.7,2.3-8.8,6.9c-3,4.6-4.5,9-4.5,13.3
		c0,1.7,0.4,3,1.1,3.8c0.7,0.9,1.6,1.3,2.6,1.3c2.3,0,5.2-2.5,8.7-7.5C478.8,949.3,480.5,945,480.5,941.2z"/>
	<path class="st1" d="M505.8,934.8l-6.6,23.4c-0.4,1.6-0.7,2.5-0.7,2.8c0,0.4,0.1,0.6,0.3,0.9c0.2,0.2,0.4,0.3,0.7,0.3
		c0.4,0,0.8-0.2,1.2-0.5c1.3-1,2.6-2.4,3.9-4.3l1.2,0.8c-1.5,2.3-3.3,4.2-5.3,5.8c-1.5,1.2-2.9,1.7-4.3,1.7c-0.9,0-1.7-0.3-2.2-0.8
		c-0.6-0.5-0.9-1.2-0.9-2.1c0-0.8,0.3-2.2,0.8-4.1l4.4-15c0.7-2.4,1-4,1-4.6c0-0.5-0.2-0.9-0.5-1.2s-0.8-0.5-1.4-0.5
		c-0.5,0-1.5,0.1-3.1,0.4v-1.3L505.8,934.8z M512.9,918.2l-9.8,11.5H502l3.4-11.5H512.9z"/>
	<path class="st1" d="M541.1,934.8l-6.5,22.6l-0.7,3.1c-0.1,0.3-0.1,0.5-0.1,0.7c0,0.4,0.1,0.7,0.3,1c0.2,0.2,0.4,0.3,0.7,0.3
		s0.6-0.2,1.1-0.5c0.9-0.6,2-2,3.5-4l1.1,0.8c-1.5,2.3-3.1,4.1-4.7,5.3c-1.6,1.2-3.1,1.8-4.5,1.8c-0.9,0-1.7-0.2-2.1-0.7
		c-0.5-0.5-0.7-1.2-0.7-2.1c0-1.1,0.2-2.5,0.7-4.3l0.7-2.5c-2.9,3.8-5.6,6.5-8,8c-1.8,1.1-3.5,1.6-5.2,1.6c-1.6,0-3-0.7-4.2-2
		s-1.8-3.2-1.8-5.5c0-3.5,1.1-7.3,3.2-11.2c2.1-3.9,4.8-7.1,8.1-9.4c2.5-1.9,4.9-2.8,7.2-2.8c1.4,0,2.5,0.4,3.4,1.1
		c0.9,0.7,1.6,1.9,2.1,3.6l1.2-3.8L541.1,934.8z M529.3,936.5c-1.4,0-2.9,0.7-4.5,2c-2.3,1.9-4.3,4.7-6.1,8.4S516,954,516,957
		c0,1.5,0.4,2.7,1.1,3.6c0.8,0.9,1.6,1.3,2.6,1.3c2.4,0,5-1.8,7.9-5.4c3.8-4.8,5.7-9.6,5.7-14.6c0-1.9-0.4-3.2-1.1-4.1
		C531.5,936.9,530.5,936.5,529.3,936.5z"/>
	<path class="st1" d="M597.3,917.5l-11.5,39.4c-0.6,2.1-1,3.5-1,4.2c0,0.2,0.1,0.4,0.3,0.6s0.4,0.3,0.6,0.3c0.3,0,0.6-0.1,1-0.4
		c0.8-0.6,2-1.9,3.8-4l1.2,0.7c-1.6,2.2-3.2,4-4.9,5.4c-1.6,1.4-3.2,2.1-4.6,2.1c-0.8,0-1.4-0.3-1.9-0.8s-0.7-1.3-0.7-2.3
		c0-1.3,0.3-3,1-5.1l1.3-4.1c-3.2,5-6.1,8.5-8.8,10.4c-1.8,1.3-3.6,1.9-5.2,1.9c-1.7,0-3.2-0.7-4.5-2.2s-1.9-3.5-1.9-6.1
		c0-3.3,1.1-6.9,3.2-10.6s4.9-6.8,8.4-9.2c2.7-1.9,5.2-2.9,7.5-2.9c1.2,0,2.2,0.2,3.1,0.7s1.7,1.3,2.6,2.4l3.3-11.6
		c0.2-0.8,0.4-1.5,0.6-2c0.3-0.9,0.4-1.6,0.4-2.2c0-0.5-0.2-0.9-0.5-1.2c-0.5-0.4-1.1-0.6-1.8-0.6c-0.5,0-1.3,0.1-2.5,0.2v-1.2
		L597.3,917.5z M584.9,941.2c0-1.4-0.4-2.6-1.2-3.4c-0.8-0.9-1.9-1.3-3.1-1.3c-2.8,0-5.7,2.3-8.8,6.9c-3,4.6-4.5,9-4.5,13.3
		c0,1.7,0.4,3,1.1,3.8c0.7,0.9,1.6,1.3,2.6,1.3c2.3,0,5.2-2.5,8.7-7.5C583.1,949.3,584.9,945,584.9,941.2z"/>
	<path class="st1" d="M602.6,952.4c-0.1,1.1-0.2,2-0.2,2.7c0,2,0.7,3.7,2.1,5.1c1.4,1.4,3.1,2.1,5.1,2.1c1.6,0,3.1-0.3,4.6-1
		s3.7-2.1,6.6-4.4l0.7,1c-5.3,5.2-10.3,7.8-15.1,7.8c-3.2,0-5.7-1-7.3-3.1c-1.6-2-2.5-4.3-2.5-6.8c0-3.3,1-6.7,3.1-10.2
		c2-3.5,4.6-6.2,7.7-8.1c3.1-1.9,6.3-2.9,9.6-2.9c2.3,0,4.1,0.5,5.2,1.5c1.1,1,1.7,2.1,1.7,3.4c0,1.9-0.7,3.6-2.2,5.3
		c-1.9,2.2-4.8,4-8.5,5.3C610.6,951.2,607.1,951.9,602.6,952.4z M602.8,950.8c3.3-0.4,6-1,8-1.9c2.7-1.2,4.8-2.7,6.2-4.4
		s2.1-3.3,2.1-4.9c0-0.9-0.3-1.7-0.9-2.2c-0.6-0.6-1.4-0.9-2.5-0.9c-2.3,0-4.7,1.2-7.2,3.6C605.9,942.5,604,946,602.8,950.8z"/>
	<path class="st1" d="M662.1,917.5l-11.4,39.7c-0.6,2-0.8,3.2-0.8,3.6c0,0.3,0.1,0.6,0.3,0.8s0.5,0.3,0.8,0.3c0.4,0,0.9-0.2,1.4-0.6
		c1.2-0.9,2.4-2.3,3.6-4.2l1,1c-2.1,3-4,5.1-5.8,6.3c-1.3,0.8-2.5,1.2-3.7,1.2c-0.8,0-1.5-0.3-2.1-0.9s-0.8-1.2-0.8-2s0.3-2.4,1-4.9
		l9.1-31.3c0.7-2.6,1.1-4,1.1-4.4c0-0.6-0.2-1-0.6-1.3s-1.1-0.5-2-0.5c-0.5,0-1.3,0.1-2.3,0.2v-1.2L662.1,917.5z"/>
	<path class="st1" d="M692.9,934.8l-6.5,22.6l-0.7,3.1c-0.1,0.3-0.1,0.5-0.1,0.7c0,0.4,0.1,0.7,0.3,1c0.2,0.2,0.4,0.3,0.7,0.3
		s0.6-0.2,1.1-0.5c0.9-0.6,2-2,3.5-4l1.1,0.8c-1.5,2.3-3.1,4.1-4.7,5.3c-1.6,1.2-3.1,1.8-4.5,1.8c-0.9,0-1.7-0.2-2.1-0.7
		c-0.5-0.5-0.7-1.2-0.7-2.1c0-1.1,0.2-2.5,0.7-4.3l0.7-2.5c-2.9,3.8-5.6,6.5-8,8c-1.8,1.1-3.5,1.6-5.2,1.6c-1.6,0-3-0.7-4.2-2
		s-1.8-3.2-1.8-5.5c0-3.5,1.1-7.3,3.2-11.2c2.1-3.9,4.8-7.1,8.1-9.4c2.5-1.9,4.9-2.8,7.2-2.8c1.4,0,2.5,0.4,3.4,1.1
		c0.9,0.7,1.6,1.9,2.1,3.6l1.2-3.8L692.9,934.8z M681,936.5c-1.4,0-2.9,0.7-4.5,2c-2.3,1.9-4.3,4.7-6.1,8.4s-2.7,7.1-2.7,10.1
		c0,1.5,0.4,2.7,1.1,3.6c0.8,0.9,1.6,1.3,2.6,1.3c2.4,0,5-1.8,7.9-5.4c3.8-4.8,5.7-9.6,5.7-14.6c0-1.9-0.4-3.2-1.1-4.1
		C683.3,936.9,682.3,936.5,681,936.5z"/>
	<path class="st1" d="M731.7,917.5l-6.6,23.1c2.1-2.2,4-3.8,5.6-4.6s3.3-1.2,5-1.2c2.5,0,4.5,0.8,6,2.4c1.6,1.6,2.3,3.8,2.3,6.6
		c0,3.6-1,7.1-3.1,10.7c-2.1,3.5-4.6,6.3-7.7,8.3s-6.1,3-9.1,3c-3.4,0-6.8-1.3-10.4-3.8l10.2-34.9c0.8-2.7,1.2-4.3,1.2-4.8
		c0-0.6-0.2-1-0.5-1.3c-0.5-0.4-1.2-0.6-2.2-0.6c-0.5,0-1.2,0.1-2.2,0.2v-1.3L731.7,917.5z M718.8,962.4c2.2,1.2,4.2,1.8,5.9,1.8
		c2,0,4-0.7,6.1-2.1c2.1-1.4,3.9-3.8,5.5-7.3c1.5-3.4,2.3-6.8,2.3-10.3c0-2-0.5-3.6-1.5-4.8s-2.2-1.7-3.6-1.7
		c-2.1,0-4.1,0.8-6.1,2.5s-3.4,4-4.2,6.9L718.8,962.4z"/>
	<path class="st1" d="M777.7,945.2c0,3.3-0.9,6.6-2.7,9.9c-1.8,3.3-4.2,5.9-7.4,7.8c-3.1,1.9-6.2,2.9-9.2,2.9s-5.5-1-7.5-2.9
		s-2.9-4.5-2.9-7.5c0-3.3,0.9-6.6,2.8-9.9c1.9-3.3,4.4-5.9,7.5-7.8c3.1-1.9,6.2-2.9,9.1-2.9c3,0,5.4,1,7.3,2.9
		S777.7,942.1,777.7,945.2z M772.2,942.9c0-2.1-0.5-3.7-1.5-4.8s-2.3-1.7-3.9-1.7c-3.3,0-6.3,2.3-9,7s-4.1,9.3-4.1,14
		c0,2.1,0.5,3.7,1.6,4.9c1.1,1.1,2.4,1.7,4,1.7c3.1,0,6.1-2.3,8.8-7C770.9,952.5,772.2,947.7,772.2,942.9z"/>
	<path class="st1" d="M817.3,917.5l-11.5,39.4c-0.6,2.1-1,3.5-1,4.2c0,0.2,0.1,0.4,0.3,0.6s0.4,0.3,0.6,0.3c0.3,0,0.6-0.1,1-0.4
		c0.8-0.6,2-1.9,3.8-4l1.2,0.7c-1.6,2.2-3.2,4-4.9,5.4c-1.6,1.4-3.2,2.1-4.6,2.1c-0.8,0-1.4-0.3-1.9-0.8s-0.7-1.3-0.7-2.3
		c0-1.3,0.3-3,1-5.1l1.3-4.1c-3.2,5-6.1,8.5-8.8,10.4c-1.8,1.3-3.6,1.9-5.2,1.9c-1.7,0-3.2-0.7-4.5-2.2s-1.9-3.5-1.9-6.1
		c0-3.3,1.1-6.9,3.2-10.6s4.9-6.8,8.4-9.2c2.7-1.9,5.2-2.9,7.5-2.9c1.2,0,2.2,0.2,3.1,0.7s1.7,1.3,2.6,2.4l3.3-11.6
		c0.2-0.8,0.4-1.5,0.6-2c0.3-0.9,0.4-1.6,0.4-2.2c0-0.5-0.2-0.9-0.5-1.2c-0.5-0.4-1.1-0.6-1.8-0.6c-0.5,0-1.3,0.1-2.5,0.2v-1.2
		L817.3,917.5z M804.9,941.2c0-1.4-0.4-2.6-1.2-3.4c-0.8-0.9-1.9-1.3-3.1-1.3c-2.8,0-5.7,2.3-8.8,6.9c-3,4.6-4.5,9-4.5,13.3
		c0,1.7,0.4,3,1.1,3.8c0.7,0.9,1.6,1.3,2.6,1.3c2.3,0,5.2-2.5,8.7-7.5C803.1,949.3,804.9,945,804.9,941.2z"/>
	<path class="st1" d="M846.5,934.8l-6.5,22.6l-0.7,3.1c-0.1,0.3-0.1,0.5-0.1,0.7c0,0.4,0.1,0.7,0.3,1c0.2,0.2,0.4,0.3,0.7,0.3
		s0.6-0.2,1.1-0.5c0.9-0.6,2-2,3.5-4l1.1,0.8c-1.5,2.3-3.1,4.1-4.7,5.3c-1.6,1.2-3.1,1.8-4.5,1.8c-0.9,0-1.7-0.2-2.1-0.7
		c-0.5-0.5-0.7-1.2-0.7-2.1c0-1.1,0.2-2.5,0.7-4.3l0.7-2.5c-2.9,3.8-5.6,6.5-8,8c-1.8,1.1-3.5,1.6-5.2,1.6c-1.6,0-3-0.7-4.2-2
		s-1.8-3.2-1.8-5.5c0-3.5,1.1-7.3,3.2-11.2c2.1-3.9,4.8-7.1,8.1-9.4c2.5-1.9,4.9-2.8,7.2-2.8c1.4,0,2.5,0.4,3.4,1.1
		c0.9,0.7,1.6,1.9,2.1,3.6l1.2-3.8L846.5,934.8z M834.6,936.5c-1.4,0-2.9,0.7-4.5,2c-2.3,1.9-4.3,4.7-6.1,8.4s-2.7,7.1-2.7,10.1
		c0,1.5,0.4,2.7,1.1,3.6s1.6,1.3,2.6,1.3c2.4,0,5-1.8,7.9-5.4c3.8-4.8,5.7-9.6,5.7-14.6c0-1.9-0.4-3.2-1.1-4.1
		C836.9,936.9,835.9,936.5,834.6,936.5z"/>
	<path class="st1" d="M847.9,972.5c1.7-0.7,3-1.7,4.1-2.9c0.8-0.9,1.2-1.7,1.2-2.6c0-0.4-0.1-0.8-0.2-1.1c-0.1-0.2-0.4-0.5-0.9-1.1
		c-0.5-0.5-0.8-0.9-0.9-1.1c-0.1-0.4-0.2-0.8-0.2-1.3c0-1,0.3-1.8,1-2.5c0.6-0.7,1.4-1,2.3-1c0.9,0,1.7,0.4,2.4,1.1
		c0.7,0.7,1.1,1.7,1.1,2.8c0,2-0.8,4-2.3,6s-3.8,3.6-6.8,4.7L847.9,972.5z"/>
	<path class="st1" d="M383.5,1028.3l-2.6,9.1h5.3l-0.6,2.1h-5.2l-5.8,19.6c-0.6,2.1-0.9,3.5-0.9,4.1c0,0.4,0.1,0.7,0.2,0.9
		c0.2,0.2,0.4,0.3,0.6,0.3c0.6,0,1.3-0.4,2.2-1.2c0.6-0.4,1.8-1.8,3.6-4.1l1.1,0.9c-2,3-4,5.1-5.8,6.3c-1.2,0.8-2.5,1.2-3.8,1.2
		c-1,0-1.8-0.3-2.4-0.9s-0.9-1.4-0.9-2.4c0-1.2,0.3-3,1-5.5l5.6-19.3H370l0.3-1.3c2.5-0.7,4.5-1.7,6.1-3s3.4-3.6,5.4-6.9h1.7V1028.3
		z"/>
	<path class="st1" d="M416.3,1047c0,3.3-0.9,6.6-2.7,9.9c-1.8,3.3-4.2,5.9-7.4,7.8c-3.1,1.9-6.2,2.9-9.2,2.9s-5.5-1-7.5-2.9
		c-1.9-1.9-2.9-4.5-2.9-7.5c0-3.3,0.9-6.6,2.8-9.9s4.4-5.9,7.5-7.8s6.2-2.9,9.1-2.9c3,0,5.4,1,7.3,2.9S416.3,1044,416.3,1047z
		 M410.8,1044.8c0-2.1-0.5-3.7-1.5-4.8s-2.3-1.7-3.9-1.7c-3.3,0-6.3,2.3-9,7s-4.1,9.3-4.1,14c0,2.1,0.5,3.7,1.6,4.9
		c1.1,1.1,2.4,1.7,4,1.7c3.1,0,6.1-2.3,8.8-7C409.4,1054.3,410.8,1049.6,410.8,1044.8z"/>
	<path class="st1" d="M433.7,1036.6l-4.3,15.1c1.9-3.5,3.6-6.2,4.9-8c2.1-2.8,4.2-4.8,6.2-6c1.2-0.7,2.4-1.1,3.7-1.1
		c1.1,0,2,0.4,2.8,1.1c0.7,0.7,1.1,1.6,1.1,2.7s-0.3,2.5-0.8,4.3l-2.4,8.5c3.6-6.8,7.1-11.6,10.3-14.3c1.8-1.5,3.6-2.3,5.3-2.3
		c1,0,1.9,0.4,2.5,1.1c0.7,0.7,1,1.8,1,3.3c0,1.3-0.2,2.7-0.6,4.1l-3.6,13c-0.8,2.8-1.2,4.4-1.2,4.7s0.1,0.6,0.3,0.8
		c0.1,0.2,0.3,0.2,0.5,0.2s0.6-0.2,1.2-0.6c1.3-1,2.5-2.3,3.6-3.9l1.1,0.7c-0.6,0.9-1.5,2.1-2.9,3.7s-2.6,2.6-3.6,3.2
		s-1.9,0.8-2.8,0.8c-0.8,0-1.5-0.3-2-0.8s-0.8-1.2-0.8-1.9c0-1.1,0.5-3.2,1.4-6.5l3-10.7c0.7-2.5,1-3.9,1.1-4.1
		c0.1-0.4,0.1-0.9,0.1-1.2c0-0.6-0.1-1-0.4-1.3s-0.6-0.5-0.9-0.5c-0.9,0-1.9,0.5-2.9,1.5c-3.1,2.8-6,6.8-8.6,11.8
		c-1.8,3.4-3.4,7.7-4.9,12.9H436l5.7-20.2c0.6-2.2,0.9-3.6,0.9-4.4c0-0.6-0.1-1.1-0.4-1.3c-0.2-0.3-0.5-0.4-0.9-0.4
		c-0.7,0-1.5,0.3-2.4,0.8c-1.3,0.9-3,2.7-5.1,5.6c-2.1,2.8-3.7,5.6-4.9,8.2c-0.6,1.2-1.9,5.1-4,11.8H420l6.2-21.6l0.8-2.8
		c0.2-0.4,0.2-0.8,0.2-1c0-0.5-0.2-0.9-0.7-1.3s-1-0.6-1.7-0.6c-0.3,0-1.1,0.1-2.4,0.4l-0.3-1.2L433.7,1036.6z"/>
	<path class="st1" d="M500.3,1036.6l-6.5,22.6l-0.7,3.1c-0.1,0.3-0.1,0.5-0.1,0.7c0,0.4,0.1,0.7,0.3,1c0.2,0.2,0.4,0.3,0.7,0.3
		c0.3,0,0.6-0.2,1.1-0.5c0.9-0.6,2-2,3.5-4l1.1,0.8c-1.5,2.3-3.1,4.1-4.7,5.3c-1.6,1.2-3.1,1.8-4.5,1.8c-0.9,0-1.7-0.2-2.1-0.7
		c-0.5-0.5-0.7-1.2-0.7-2.1c0-1.1,0.2-2.5,0.7-4.3l0.7-2.5c-2.9,3.8-5.6,6.5-8,8c-1.8,1.1-3.5,1.6-5.2,1.6c-1.6,0-3-0.7-4.2-2
		s-1.8-3.2-1.8-5.5c0-3.5,1.1-7.3,3.2-11.2c2.1-3.9,4.8-7.1,8.1-9.4c2.5-1.9,4.9-2.8,7.2-2.8c1.4,0,2.5,0.4,3.4,1.1s1.6,1.9,2.1,3.6
		l1.2-3.8L500.3,1036.6z M488.4,1038.3c-1.4,0-2.9,0.7-4.5,2c-2.3,1.9-4.3,4.7-6.1,8.4c-1.8,3.7-2.7,7.1-2.7,10.1
		c0,1.5,0.4,2.7,1.1,3.6c0.8,0.9,1.6,1.3,2.6,1.3c2.4,0,5-1.8,7.9-5.4c3.8-4.8,5.7-9.6,5.7-14.6c0-1.9-0.4-3.2-1.1-4.1
		C490.7,1038.8,489.7,1038.3,488.4,1038.3z"/>
	<path class="st1" d="M534.3,1036.6l-4.3,15.1c1.9-3.5,3.6-6.2,4.9-8c2.1-2.8,4.2-4.8,6.2-6c1.2-0.7,2.4-1.1,3.7-1.1
		c1.1,0,2,0.4,2.8,1.1c0.7,0.7,1.1,1.6,1.1,2.7s-0.3,2.5-0.8,4.3l-2.4,8.5c3.6-6.8,7.1-11.6,10.3-14.3c1.8-1.5,3.6-2.3,5.3-2.3
		c1,0,1.9,0.4,2.5,1.1c0.7,0.7,1,1.8,1,3.3c0,1.3-0.2,2.7-0.6,4.1l-3.6,13c-0.8,2.8-1.2,4.4-1.2,4.7s0.1,0.6,0.3,0.8
		c0.1,0.2,0.3,0.2,0.5,0.2s0.6-0.2,1.2-0.6c1.3-1,2.5-2.3,3.6-3.9l1.1,0.7c-0.6,0.9-1.5,2.1-2.9,3.7s-2.6,2.6-3.6,3.2
		s-1.9,0.8-2.8,0.8c-0.8,0-1.5-0.3-2-0.8s-0.8-1.2-0.8-1.9c0-1.1,0.5-3.2,1.4-6.5l3-10.7c0.7-2.5,1-3.9,1.1-4.1
		c0.1-0.4,0.1-0.9,0.1-1.2c0-0.6-0.1-1-0.4-1.3c-0.3-0.3-0.6-0.5-0.9-0.5c-0.9,0-1.9,0.5-2.9,1.5c-3.1,2.8-6,6.8-8.6,11.8
		c-1.8,3.4-3.4,7.7-4.9,12.9h-5.1l5.7-20.2c0.6-2.2,0.9-3.6,0.9-4.4c0-0.6-0.1-1.1-0.4-1.3c-0.2-0.3-0.5-0.4-0.9-0.4
		c-0.7,0-1.5,0.3-2.4,0.8c-1.3,0.9-3,2.7-5.1,5.6c-2.1,2.8-3.7,5.6-4.9,8.2c-0.6,1.2-1.9,5.1-4,11.8h-4.9l6.2-21.6l0.8-2.8
		c0.2-0.4,0.2-0.8,0.2-1c0-0.5-0.2-0.9-0.7-1.3s-1-0.6-1.7-0.6c-0.3,0-1.1,0.1-2.4,0.4l-0.3-1.2L534.3,1036.6z"/>
	<path class="st1" d="M601,1037.4l-5.8,19.9c-0.9,3-1.3,4.8-1.3,5.6c0,0.4,0.1,0.7,0.2,0.9c0.1,0.2,0.3,0.3,0.6,0.3
		c0.4,0,0.8-0.2,1.3-0.5s1.6-1.7,3.4-4.1l1,0.8c-1.8,2.8-3.6,4.8-5.4,6.1c-1.2,0.8-2.4,1.2-3.5,1.2c-0.9,0-1.6-0.2-2.1-0.7
		s-0.7-1.1-0.7-1.9s0.1-1.8,0.4-3c0.4-1.6,1.4-5.2,3.1-10.7c-3.8,6.2-6.9,10.5-9.5,12.8c-2.5,2.3-4.9,3.5-7.1,3.5
		c-1,0-1.9-0.4-2.6-1.1c-0.7-0.7-1.1-1.6-1.1-2.7c0-1.7,0.5-4.2,1.5-7.7l2.9-10.3c0.7-2.5,1-4,1-4.6c0-0.2-0.1-0.5-0.3-0.7
		s-0.4-0.3-0.6-0.3c-0.5,0-0.9,0.2-1.4,0.5s-1.5,1.6-3.2,3.7l-1-0.7c1.7-2.6,3.5-4.5,5.3-5.7c1.4-1,2.7-1.5,3.9-1.5
		c0.8,0,1.5,0.3,2,0.8s0.8,1.2,0.8,2c0,1.2-0.4,3.4-1.3,6.4l-3.1,10.8c-0.9,3-1.3,4.8-1.3,5.6c0,0.4,0.1,0.8,0.4,1
		c0.3,0.3,0.6,0.4,1.1,0.4c0.7,0,1.7-0.4,2.9-1.1s2.8-2.4,4.7-4.9c2-2.5,3.6-4.9,4.9-7.1c1.3-2.2,2.6-5.7,4.1-10.6l0.7-2.5
		L601,1037.4L601,1037.4z"/>
	<path class="st1" d="M629.3,1059.5c-2.3,2.8-4.7,4.8-7,6.1c-2.4,1.3-4.9,1.9-7.5,1.9c-3.1,0-5.6-0.9-7.4-2.7
		c-1.8-1.8-2.7-4.2-2.7-7.2c0-3.4,1-6.7,2.9-10s4.5-6,7.7-8c3.2-2.1,6.4-3.1,9.4-3.1c2.4,0,4.2,0.5,5.4,1.5s1.8,2.3,1.8,3.7
		c0,1.4-0.4,2.6-1.3,3.5c-0.6,0.8-1.4,1.2-2.3,1.2c-0.7,0-1.3-0.2-1.7-0.7c-0.5-0.5-0.7-1-0.7-1.7c0-0.4,0.1-0.8,0.2-1.2
		c0.2-0.4,0.5-0.8,1-1.3s0.8-0.9,1-1.1s0.2-0.5,0.2-0.7c0-0.5-0.2-0.9-0.6-1.2c-0.7-0.4-1.6-0.7-2.7-0.7c-2.2,0-4.3,0.8-6.5,2.3
		s-4,3.7-5.5,6.5c-1.8,3.4-2.7,6.9-2.7,10.3c0,2.3,0.6,4.1,1.9,5.4c1.3,1.3,3.1,2,5.3,2c1.7,0,3.4-0.4,5.1-1.3
		c1.7-0.9,3.6-2.4,5.6-4.6L629.3,1059.5z"/>
	<path class="st1" d="M653.3,1019.4l-9.4,32.4c4-6.1,7.2-10.2,9.4-12.2c2.3-2,4.4-3,6.5-3c1.1,0,2,0.4,2.7,1.1s1.1,1.7,1.1,2.9
		c0,1.5-0.3,3.2-0.9,5.3l-4.1,14c-0.5,1.7-0.8,2.6-0.8,2.8c0,0.3,0.1,0.6,0.3,0.7c0.2,0.2,0.4,0.3,0.7,0.3s0.6-0.1,1-0.4
		c1.3-1,2.5-2.3,3.8-4.1l1,0.6c-0.8,1.2-1.8,2.5-3.2,3.9c-1.3,1.4-2.5,2.4-3.5,2.9s-1.8,0.8-2.6,0.8s-1.5-0.3-2-0.8s-0.8-1.2-0.8-2
		c0-1,0.4-2.8,1.2-5.5l3.9-13.3c0.5-1.7,0.7-3,0.7-3.9c0-0.4-0.1-0.8-0.4-1.1c-0.3-0.3-0.6-0.4-1.1-0.4c-0.6,0-1.4,0.2-2.2,0.7
		c-1.5,0.9-3.3,2.7-5.2,5.2c-0.6,0.7-2.3,3.5-5.3,8.3c-0.9,1.5-1.7,3.2-2.3,5.1l-2.1,6.8h-5l11-38.2l1.2-4.1c0-0.6-0.2-1.1-0.7-1.5
		s-1.1-0.7-1.8-0.7c-0.4,0-1,0.1-1.8,0.2l-0.7,0.1v-1.3L653.3,1019.4z"/>
	<path class="st1" d="M699.5,1036.6l-6.5,22.6l-0.7,3.1c-0.1,0.3-0.1,0.5-0.1,0.7c0,0.4,0.1,0.7,0.3,1c0.2,0.2,0.4,0.3,0.7,0.3
		s0.6-0.2,1.1-0.5c0.9-0.6,2-2,3.5-4l1.1,0.8c-1.5,2.3-3.1,4.1-4.7,5.3c-1.6,1.2-3.1,1.8-4.5,1.8c-0.9,0-1.7-0.2-2.1-0.7
		c-0.5-0.5-0.7-1.2-0.7-2.1c0-1.1,0.2-2.5,0.7-4.3l0.7-2.5c-2.9,3.8-5.6,6.5-8,8c-1.8,1.1-3.5,1.6-5.2,1.6c-1.6,0-3-0.7-4.2-2
		s-1.8-3.2-1.8-5.5c0-3.5,1.1-7.3,3.2-11.2c2.1-3.9,4.8-7.1,8.1-9.4c2.5-1.9,4.9-2.8,7.2-2.8c1.4,0,2.5,0.4,3.4,1.1s1.6,1.9,2.1,3.6
		l1.2-3.8L699.5,1036.6z M687.6,1038.3c-1.4,0-2.9,0.7-4.5,2c-2.3,1.9-4.3,4.7-6.1,8.4c-1.8,3.7-2.7,7.1-2.7,10.1
		c0,1.5,0.4,2.7,1.1,3.6c0.8,0.9,1.6,1.3,2.6,1.3c2.4,0,5-1.8,7.9-5.4c3.8-4.8,5.7-9.6,5.7-14.6c0-1.9-0.4-3.2-1.1-4.1
		C689.9,1038.8,688.9,1038.3,687.6,1038.3z"/>
	<path class="st1" d="M726.3,1036.6l-2,10.3h-1.2c-0.1-3-0.7-5.2-1.9-6.5s-2.6-2-4.3-2c-1.4,0-2.4,0.4-3.3,1.1
		c-0.8,0.7-1.2,1.7-1.2,2.7c0,0.7,0.2,1.4,0.5,2.1s1,1.6,2.1,2.8c2.9,3.2,4.7,5.6,5.6,7.1c0.8,1.6,1.3,3.1,1.3,4.5
		c0,2.3-1,4.4-2.9,6.2c-1.9,1.8-4.3,2.7-7.3,2.7c-1.6,0-3.5-0.4-5.6-1.1c-0.7-0.3-1.3-0.4-1.7-0.4c-1,0-1.8,0.5-2.3,1.5h-1.2l2-10.8
		h1.2c0.1,3.4,0.8,5.8,2.1,7.2s3,2.1,5.2,2.1c1.7,0,3-0.5,4-1.4s1.5-2.1,1.5-3.5c0-0.9-0.2-1.7-0.5-2.5c-0.6-1.3-1.9-3.2-3.9-5.5
		c-2-2.4-3.3-4.1-3.8-5.3c-0.6-1.2-0.8-2.4-0.8-3.5c0-2.2,0.8-4,2.4-5.5c1.6-1.5,3.6-2.2,6-2.2c0.7,0,1.4,0.1,1.9,0.2
		c0.3,0.1,1,0.3,2.2,0.8c1.1,0.4,1.9,0.6,2.3,0.6c0.9,0,1.7-0.5,2.4-1.6L726.3,1036.6L726.3,1036.6z"/>
	<path class="st1" d="M765.5,1037.4l-0.6,2.2H760l-3.7,14.6c-1.6,6.4-3.3,11.4-4.9,14.9c-2.3,4.9-4.9,8.4-7.5,10.2
		c-2,1.5-4.1,2.2-6.1,2.2c-1.4,0-2.5-0.4-3.4-1.2c-0.7-0.6-1-1.3-1-2.2c0-0.7,0.3-1.3,0.8-1.9c0.6-0.5,1.2-0.8,2.1-0.8
		c0.6,0,1.1,0.2,1.5,0.6s0.6,0.8,0.6,1.3s-0.2,1-0.7,1.4c-0.4,0.3-0.5,0.5-0.5,0.7s0.1,0.3,0.2,0.5c0.2,0.2,0.5,0.2,0.9,0.2
		c1,0,2-0.3,3-0.9s2-1.5,2.8-2.7s1.6-2.9,2.4-5.1c0.3-0.9,1.1-4,2.5-9.2l5.8-22.6H749l0.5-2.2c1.9,0,3.1-0.1,3.9-0.4
		c0.7-0.3,1.4-0.8,2-1.5s1.4-2.1,2.4-4.1c1.3-2.7,2.6-4.7,3.8-6.2c1.6-2,3.4-3.5,5.2-4.5s3.5-1.5,5.1-1.5c1.7,0,3,0.4,4.1,1.3
		c1,0.9,1.5,1.8,1.5,2.8c0,0.8-0.3,1.5-0.8,2s-1.2,0.8-2,0.8c-0.7,0-1.3-0.2-1.7-0.6s-0.7-0.9-0.7-1.4c0-0.4,0.1-0.8,0.4-1.3
		c0.3-0.5,0.4-0.9,0.4-1c0-0.3-0.1-0.5-0.3-0.7c-0.3-0.2-0.7-0.3-1.2-0.3c-1.4,0-2.7,0.4-3.8,1.3c-1.5,1.2-2.8,3-4,5.6
		c-0.6,1.3-1.7,4.6-3.3,9.8h5V1037.4z"/>
	<path class="st1" d="M795.8,1047c0,3.3-0.9,6.6-2.7,9.9s-4.2,5.9-7.4,7.8c-3.1,1.9-6.2,2.9-9.2,2.9s-5.5-1-7.5-2.9
		s-2.9-4.5-2.9-7.5c0-3.3,0.9-6.6,2.8-9.9c1.9-3.3,4.4-5.9,7.5-7.8s6.2-2.9,9.1-2.9c3,0,5.4,1,7.3,2.9S795.8,1044,795.8,1047z
		 M790.3,1044.8c0-2.1-0.5-3.7-1.5-4.8c-1-1.1-2.3-1.7-3.9-1.7c-3.3,0-6.3,2.3-9,7s-4.1,9.3-4.1,14c0,2.1,0.5,3.7,1.6,4.9
		c1.1,1.1,2.4,1.7,4,1.7c3.1,0,6.1-2.3,8.8-7C788.9,1054.3,790.3,1049.6,790.3,1044.8z"/>
	<path class="st1" d="M816.1,1028.3l-2.6,9.1h5.3l-0.6,2.1H813l-5.8,19.6c-0.6,2.1-0.9,3.5-0.9,4.1c0,0.4,0.1,0.7,0.2,0.9
		s0.4,0.3,0.6,0.3c0.6,0,1.3-0.4,2.2-1.2c0.6-0.4,1.8-1.8,3.6-4.1l1.1,0.9c-2,3-4,5.1-5.8,6.3c-1.2,0.8-2.5,1.2-3.8,1.2
		c-1,0-1.8-0.3-2.4-0.9c-0.6-0.6-0.9-1.4-0.9-2.4c0-1.2,0.3-3,1-5.5l5.6-19.3h-5.1l0.3-1.3c2.5-0.7,4.5-1.7,6.1-3s3.4-3.6,5.4-6.9
		h1.7V1028.3z"/>
	<path class="st1" d="M848.9,1047c0,3.3-0.9,6.6-2.7,9.9s-4.2,5.9-7.4,7.8c-3.1,1.9-6.2,2.9-9.2,2.9s-5.5-1-7.5-2.9
		c-1.9-1.9-2.9-4.5-2.9-7.5c0-3.3,0.9-6.6,2.8-9.9c1.9-3.3,4.4-5.9,7.5-7.8c3.2-1.9,6.2-2.9,9.1-2.9c3,0,5.4,1,7.3,2.9
		S848.9,1044,848.9,1047z M843.4,1044.8c0-2.1-0.5-3.7-1.5-4.8c-1-1.1-2.3-1.7-3.9-1.7c-3.3,0-6.3,2.3-9,7s-4.1,9.3-4.1,14
		c0,2.1,0.5,3.7,1.6,4.9c1.1,1.1,2.4,1.7,4,1.7c3.1,0,6.1-2.3,8.8-7C842,1054.3,843.4,1049.6,843.4,1044.8z"/>
	<path class="st1" d="M876.2,1036.6l-2,10.3H873c-0.1-3-0.7-5.2-1.9-6.5s-2.6-2-4.3-2c-1.4,0-2.4,0.4-3.3,1.1s-1.2,1.7-1.2,2.7
		c0,0.7,0.2,1.4,0.5,2.1s1,1.6,2.1,2.8c2.9,3.2,4.7,5.6,5.6,7.1c0.8,1.6,1.3,3.1,1.3,4.5c0,2.3-1,4.4-2.9,6.2
		c-1.9,1.8-4.3,2.7-7.3,2.7c-1.6,0-3.5-0.4-5.6-1.1c-0.7-0.3-1.3-0.4-1.7-0.4c-1,0-1.8,0.5-2.3,1.5h-1.2l2-10.8h1.2
		c0.1,3.4,0.8,5.8,2.1,7.2c1.3,1.4,3,2.1,5.2,2.1c1.7,0,3-0.5,4-1.4s1.5-2.1,1.5-3.5c0-0.9-0.2-1.7-0.5-2.5
		c-0.6-1.3-1.9-3.2-3.9-5.5c-2-2.4-3.3-4.1-3.8-5.3c-0.6-1.2-0.8-2.4-0.8-3.5c0-2.2,0.8-4,2.4-5.5c1.6-1.5,3.6-2.2,6-2.2
		c0.7,0,1.4,0.1,1.9,0.2c0.3,0.1,1,0.3,2.2,0.8c1.1,0.4,1.9,0.6,2.3,0.6c0.9,0,1.7-0.5,2.4-1.6L876.2,1036.6L876.2,1036.6z"/>
	<path class="st1" d="M364.4,1138.4c0.8,1.3,1.3,2.5,1.6,3.6c0.3,1.1,0.6,3.3,0.8,6.7l1.5,16.4c1.4-1.6,3.3-4.1,5.8-7.6
		c1.2-1.7,2.8-4,4.6-6.9c1.1-1.8,1.7-3,2-3.7c0.1-0.4,0.2-0.7,0.2-1.1c0-0.2-0.1-0.4-0.2-0.6c-0.2-0.2-0.6-0.3-1.2-0.6
		c-0.7-0.2-1.2-0.6-1.6-1.2s-0.6-1.2-0.6-1.9c0-0.9,0.3-1.7,0.8-2.2c0.5-0.6,1.2-0.8,2-0.8c1,0,1.8,0.4,2.5,1.2c0.7,0.8,1,1.9,1,3.4
		c0,1.7-0.6,3.7-1.8,6c-1.2,2.3-3.5,5.7-6.9,10.4c-3.4,4.7-7.6,9.8-12.4,15.3c-3.4,3.8-5.9,6.2-7.5,7.2s-3,1.5-4.2,1.5
		c-0.7,0-1.3-0.3-1.8-0.8s-0.8-1.1-0.8-1.8c0-0.9,0.4-1.6,1.1-2.4c0.7-0.7,1.5-1.1,2.4-1.1c0.4,0,0.8,0.1,1.1,0.3
		c0.2,0.1,0.4,0.4,0.6,1c0.2,0.5,0.4,0.9,0.6,1.1c0.1,0.1,0.2,0.2,0.4,0.2c0.1,0,0.4-0.1,0.7-0.3c1.2-0.8,2.6-2,4.3-3.6
		c2.2-2.2,3.7-4,4.8-5.3l-1.9-21.1c-0.3-3.5-0.8-5.6-1.4-6.4s-1.7-1.1-3.1-1.1c-0.5,0-1.3,0.1-2.5,0.2l-0.3-1.2L364.4,1138.4z"/>
	<path class="st1" d="M437.9,1121.2l-11.5,39.4c-0.6,2.1-1,3.5-1,4.2c0,0.2,0.1,0.4,0.3,0.6s0.4,0.3,0.6,0.3c0.3,0,0.6-0.1,1-0.4
		c0.8-0.6,2-1.9,3.8-4l1.2,0.7c-1.6,2.2-3.2,4-4.9,5.4c-1.6,1.4-3.2,2.1-4.6,2.1c-0.8,0-1.4-0.3-1.9-0.8s-0.7-1.3-0.7-2.3
		c0-1.3,0.3-3,1-5.1l1.3-4.1c-3.2,5-6.1,8.5-8.8,10.4c-1.8,1.3-3.6,1.9-5.2,1.9c-1.7,0-3.2-0.7-4.5-2.2s-1.9-3.5-1.9-6.1
		c0-3.3,1.1-6.9,3.2-10.6s4.9-6.8,8.4-9.2c2.7-1.9,5.2-2.9,7.5-2.9c1.2,0,2.2,0.2,3.1,0.7s1.7,1.3,2.6,2.4l3.3-11.6
		c0.2-0.8,0.4-1.5,0.6-2c0.3-0.9,0.4-1.6,0.4-2.2c0-0.5-0.2-0.9-0.5-1.2c-0.5-0.4-1.1-0.6-1.8-0.6c-0.5,0-1.3,0.1-2.5,0.2v-1.2
		L437.9,1121.2z M425.5,1144.9c0-1.4-0.4-2.6-1.2-3.4c-0.8-0.9-1.9-1.3-3.1-1.3c-2.8,0-5.7,2.3-8.8,6.9c-3,4.6-4.5,9-4.5,13.3
		c0,1.7,0.4,3,1.1,3.8c0.7,0.9,1.6,1.3,2.6,1.3c2.3,0,5.2-2.5,8.7-7.5C423.7,1153,425.5,1148.6,425.5,1144.9z"/>
	<path class="st1" d="M443.2,1156.1c-0.1,1.1-0.2,2-0.2,2.7c0,2,0.7,3.7,2.1,5.1s3.1,2.1,5.1,2.1c1.6,0,3.1-0.3,4.6-1
		s3.7-2.1,6.6-4.4l0.7,1c-5.3,5.2-10.3,7.8-15.1,7.8c-3.2,0-5.7-1-7.3-3.1c-1.6-2-2.5-4.3-2.5-6.8c0-3.3,1-6.7,3.1-10.2
		c2-3.5,4.6-6.2,7.7-8.1s6.3-2.9,9.6-2.9c2.3,0,4.1,0.5,5.2,1.5s1.7,2.1,1.7,3.4c0,1.9-0.7,3.6-2.2,5.3c-1.9,2.2-4.8,4-8.5,5.3
		C451.2,1154.8,447.7,1155.5,443.2,1156.1z M443.4,1154.4c3.3-0.4,6-1,8-1.9c2.7-1.2,4.8-2.7,6.2-4.4c1.4-1.7,2.1-3.3,2.1-4.9
		c0-0.9-0.3-1.7-0.9-2.2c-0.6-0.6-1.4-0.9-2.5-0.9c-2.3,0-4.7,1.2-7.2,3.6C446.5,1146.1,444.6,1149.7,443.4,1154.4z M463.5,1121.8
		l-9.8,11.5h-1.2l3.4-11.5H463.5z"/>
	<path class="st1" d="M481.5,1138.4l-8.6,29.9c-1.5,5.3-3.7,9.2-6.3,11.5c-2.7,2.4-5.6,3.5-8.7,3.5c-1.4,0-2.5-0.3-3.2-1
		c-0.7-0.6-1.1-1.4-1.1-2.3c0-0.7,0.3-1.3,0.8-1.8s1.2-0.8,1.9-0.8c0.6,0,1.2,0.2,1.7,0.6c0.4,0.4,0.6,0.7,0.6,1.2
		c0,0.6-0.3,1.1-0.8,1.5c-0.3,0.2-0.5,0.5-0.5,0.6l0.1,0.2c0.1,0.1,0.2,0.1,0.3,0.2c0.1,0,0.3,0.1,0.6,0.1c1.8,0,3.4-0.6,4.6-1.7
		c1.3-1.1,2.4-3.4,3.4-6.9l7.5-25.6c0.7-2.5,1.1-3.9,1.1-4.2c0-0.5-0.2-1-0.7-1.4s-1.1-0.6-1.8-0.6c-0.3,0-0.6,0-1,0.1
		c-0.3,0-0.7,0.1-1.3,0.2v-1.2L481.5,1138.4z M481,1125.2c0.9,0,1.7,0.3,2.4,1c0.7,0.6,1,1.4,1,2.4c0,0.9-0.3,1.7-1,2.4
		s-1.5,1-2.4,1s-1.7-0.3-2.4-1c-0.7-0.6-1-1.4-1-2.4c0-0.9,0.3-1.7,1-2.4C479.3,1125.6,480.1,1125.2,481,1125.2z"/>
	<path class="st1" d="M516.4,1138.4l-6.5,22.6l-0.7,3.1c-0.1,0.3-0.1,0.5-0.1,0.7c0,0.4,0.1,0.7,0.3,1c0.2,0.2,0.4,0.3,0.7,0.3
		c0.3,0,0.6-0.2,1.1-0.5c0.9-0.6,2-2,3.5-4l1.1,0.8c-1.5,2.3-3.1,4.1-4.7,5.3c-1.6,1.2-3.1,1.8-4.5,1.8c-0.9,0-1.7-0.2-2.1-0.7
		c-0.5-0.5-0.7-1.2-0.7-2.1c0-1.1,0.2-2.5,0.7-4.3l0.7-2.5c-2.9,3.8-5.6,6.5-8,8c-1.8,1.1-3.5,1.6-5.2,1.6c-1.6,0-3-0.7-4.2-2
		s-1.8-3.2-1.8-5.5c0-3.5,1.1-7.3,3.2-11.2c2.1-3.9,4.8-7.1,8.1-9.4c2.5-1.9,4.9-2.8,7.2-2.8c1.4,0,2.5,0.4,3.4,1.1s1.6,1.9,2.1,3.6
		l1.2-3.8L516.4,1138.4z M504.5,1140.2c-1.4,0-2.9,0.7-4.5,2c-2.3,1.9-4.3,4.7-6.1,8.4c-1.8,3.7-2.7,7.1-2.7,10.1
		c0,1.5,0.4,2.7,1.1,3.6c0.8,0.9,1.6,1.3,2.6,1.3c2.4,0,5-1.8,7.9-5.4c3.8-4.8,5.7-9.6,5.7-14.6c0-1.9-0.4-3.2-1.1-4.1
		C506.8,1140.6,505.8,1140.2,504.5,1140.2z"/>
	<path class="st1" d="M533.6,1138.4l-4.4,15.2c4.1-6.2,7.3-10.3,9.6-12.3c2.2-2,4.4-2.9,6.4-2.9c1.1,0,2,0.4,2.7,1.1
		s1.1,1.7,1.1,2.9c0,1.4-0.3,3.1-1,5.3l-4.1,14c-0.5,1.6-0.7,2.6-0.7,3c0,0.3,0.1,0.6,0.3,0.8s0.4,0.3,0.6,0.3c0.2,0,0.6-0.1,1-0.4
		c1.2-0.9,2.5-2.4,3.9-4.3l1,0.6c-2.1,3-4,5.1-5.9,6.3c-1.3,0.9-2.5,1.3-3.5,1.3c-0.8,0-1.5-0.2-2-0.7s-0.7-1.2-0.7-2
		c0-1.1,0.4-2.9,1.1-5.5l3.9-13.4c0.5-1.7,0.7-3,0.7-3.9c0-0.4-0.1-0.8-0.4-1.1s-0.6-0.4-1.1-0.4c-0.6,0-1.4,0.3-2.2,0.8
		c-1.6,1-3.3,2.6-5.1,5c-1.8,2.3-3.7,5.2-5.7,8.8c-1.1,1.9-1.9,4-2.6,6.2l-1.7,5.5h-5l6.1-20.9c0.7-2.5,1.1-4,1.1-4.5
		s-0.2-0.9-0.6-1.3s-0.9-0.6-1.4-0.6c-0.3,0-0.7,0.1-1.4,0.2l-1.3,0.2l-0.2-1.2L533.6,1138.4z"/>
	<path class="st1" d="M584.2,1148.9c0,3.3-0.9,6.6-2.7,9.9s-4.2,5.9-7.4,7.8c-3.1,1.9-6.2,2.9-9.2,2.9s-5.5-1-7.5-2.9
		c-1.9-1.9-2.9-4.5-2.9-7.5c0-3.3,0.9-6.6,2.8-9.9c1.9-3.3,4.4-5.9,7.5-7.8s6.2-2.9,9.1-2.9c3,0,5.4,1,7.3,2.9
		S584.2,1145.8,584.2,1148.9z M578.7,1146.6c0-2.1-0.5-3.7-1.5-4.8s-2.3-1.7-3.9-1.7c-3.3,0-6.3,2.3-9,7s-4.1,9.3-4.1,14
		c0,2.1,0.5,3.7,1.6,4.9c1.1,1.1,2.4,1.7,4,1.7c3.1,0,6.1-2.3,8.8-7C577.3,1156.1,578.7,1151.4,578.7,1146.6z"/>
	<path class="st1" d="M611.6,1138.4l-2,10.3h-1.2c-0.1-3-0.7-5.2-1.9-6.5s-2.6-2-4.3-2c-1.4,0-2.4,0.4-3.3,1.1
		c-0.8,0.7-1.2,1.7-1.2,2.7c0,0.7,0.2,1.4,0.5,2.1s1,1.6,2.1,2.8c2.9,3.2,4.7,5.6,5.6,7.1c0.8,1.6,1.3,3.1,1.3,4.5
		c0,2.3-1,4.4-2.9,6.2c-1.9,1.8-4.3,2.7-7.3,2.7c-1.6,0-3.5-0.4-5.6-1.1c-0.7-0.3-1.3-0.4-1.7-0.4c-1,0-1.8,0.5-2.3,1.5h-1.2l2-10.8
		h1.2c0.1,3.4,0.8,5.8,2.1,7.2c1.3,1.4,3,2.1,5.2,2.1c1.7,0,3-0.5,4-1.4s1.5-2.1,1.5-3.5c0-0.9-0.2-1.7-0.5-2.5
		c-0.6-1.3-1.9-3.2-3.9-5.5c-2-2.4-3.3-4.1-3.8-5.3c-0.6-1.2-0.8-2.4-0.8-3.5c0-2.2,0.8-4,2.4-5.5c1.6-1.5,3.6-2.2,6-2.2
		c0.7,0,1.4,0.1,1.9,0.2c0.3,0.1,1,0.3,2.2,0.8c1.1,0.4,1.9,0.6,2.3,0.6c0.9,0,1.7-0.5,2.4-1.6L611.6,1138.4L611.6,1138.4z"/>
	<path class="st1" d="M662.6,1139.2l-5.8,19.9c-0.9,3-1.3,4.8-1.3,5.6c0,0.4,0.1,0.7,0.2,0.9c0.1,0.2,0.3,0.3,0.6,0.3
		c0.4,0,0.8-0.2,1.3-0.5s1.6-1.7,3.4-4.1l1,0.8c-1.8,2.8-3.6,4.8-5.4,6.1c-1.2,0.8-2.4,1.2-3.5,1.2c-0.9,0-1.6-0.2-2.1-0.7
		s-0.7-1.1-0.7-1.9s0.1-1.8,0.4-3c0.4-1.6,1.4-5.2,3.1-10.7c-3.8,6.2-6.9,10.5-9.5,12.8c-2.5,2.3-4.9,3.5-7.1,3.5
		c-1,0-1.9-0.4-2.6-1.1c-0.7-0.7-1.1-1.6-1.1-2.7c0-1.7,0.5-4.2,1.5-7.7l2.9-10.3c0.7-2.5,1-4,1-4.6c0-0.2-0.1-0.5-0.3-0.7
		s-0.4-0.3-0.6-0.3c-0.5,0-0.9,0.2-1.4,0.5s-1.5,1.6-3.2,3.7l-1-0.7c1.7-2.6,3.5-4.5,5.3-5.7c1.4-1,2.7-1.5,3.9-1.5
		c0.8,0,1.5,0.3,2,0.8s0.8,1.2,0.8,2c0,1.2-0.4,3.4-1.3,6.4l-3.1,10.8c-0.9,3-1.3,4.8-1.3,5.6c0,0.4,0.1,0.8,0.4,1
		c0.3,0.3,0.6,0.4,1.1,0.4c0.7,0,1.7-0.4,2.9-1.1s2.8-2.4,4.7-4.9s3.6-4.9,4.9-7.1c1.3-2.2,2.6-5.7,4.1-10.6l0.7-2.5L662.6,1139.2
		L662.6,1139.2z"/>
	<path class="st1" d="M679.7,1138.4l-4.4,15.2c4.1-6.2,7.3-10.3,9.6-12.3c2.2-2,4.4-2.9,6.4-2.9c1.1,0,2,0.4,2.7,1.1
		s1.1,1.7,1.1,2.9c0,1.4-0.3,3.1-1,5.3l-4.1,14c-0.5,1.6-0.7,2.6-0.7,3c0,0.3,0.1,0.6,0.3,0.8s0.4,0.3,0.6,0.3c0.2,0,0.6-0.1,1-0.4
		c1.2-0.9,2.5-2.4,3.9-4.3l1,0.6c-2.1,3-4,5.1-5.9,6.3c-1.3,0.9-2.5,1.3-3.5,1.3c-0.8,0-1.5-0.2-2-0.7s-0.7-1.2-0.7-2
		c0-1.1,0.4-2.9,1.1-5.5l3.9-13.4c0.5-1.7,0.7-3,0.7-3.9c0-0.4-0.1-0.8-0.4-1.1c-0.3-0.3-0.6-0.4-1.1-0.4c-0.6,0-1.4,0.3-2.2,0.8
		c-1.6,1-3.3,2.6-5.1,5s-3.7,5.2-5.7,8.8c-1,1.9-1.9,4-2.6,6.2l-1.7,5.5h-5l6.1-20.9c0.7-2.5,1.1-4,1.1-4.5s-0.2-0.9-0.6-1.3
		s-0.9-0.6-1.4-0.6c-0.3,0-0.7,0.1-1.4,0.2l-1.3,0.2l-0.2-1.2L679.7,1138.4z"/>
	<path class="st1" d="M735.5,1121.2l-6.6,23.1c2.1-2.2,4-3.8,5.6-4.6c1.6-0.8,3.3-1.2,5-1.2c2.5,0,4.5,0.8,6,2.4
		c1.6,1.6,2.3,3.8,2.3,6.6c0,3.6-1,7.1-3.1,10.7c-2.1,3.5-4.6,6.3-7.7,8.3s-6.1,3-9.1,3c-3.4,0-6.8-1.3-10.4-3.8l10.2-34.9
		c0.8-2.7,1.2-4.3,1.2-4.8c0-0.6-0.2-1-0.5-1.3c-0.5-0.4-1.2-0.6-2.2-0.6c-0.5,0-1.2,0.1-2.2,0.2v-1.3L735.5,1121.2z M722.6,1166
		c2.2,1.2,4.2,1.8,5.9,1.8c2,0,4-0.7,6.1-2.1s3.9-3.8,5.5-7.3c1.5-3.4,2.3-6.8,2.3-10.3c0-2-0.5-3.6-1.5-4.8s-2.2-1.7-3.6-1.7
		c-2.1,0-4.1,0.8-6.1,2.5s-3.4,4-4.2,6.9L722.6,1166z"/>
	<path class="st1" d="M781.5,1148.9c0,3.3-0.9,6.6-2.7,9.9s-4.2,5.9-7.4,7.8c-3.1,1.9-6.2,2.9-9.2,2.9s-5.5-1-7.5-2.9
		c-1.9-1.9-2.9-4.5-2.9-7.5c0-3.3,0.9-6.6,2.8-9.9c1.9-3.3,4.4-5.9,7.5-7.8s6.2-2.9,9.1-2.9c3,0,5.4,1,7.3,2.9
		C780.6,1143.3,781.5,1145.8,781.5,1148.9z M776,1146.6c0-2.1-0.5-3.7-1.5-4.8s-2.3-1.7-3.9-1.7c-3.3,0-6.3,2.3-9,7
		c-2.8,4.7-4.1,9.3-4.1,14c0,2.1,0.5,3.7,1.6,4.9c1.1,1.1,2.4,1.7,4,1.7c3.1,0,6.1-2.3,8.8-7S776,1151.4,776,1146.6z"/>
	<path class="st1" d="M799.2,1138.4l-4.4,15.2c4.1-6.2,7.3-10.3,9.6-12.3c2.2-2,4.4-2.9,6.4-2.9c1.1,0,2,0.4,2.7,1.1
		s1.1,1.7,1.1,2.9c0,1.4-0.3,3.1-1,5.3l-4.1,14c-0.5,1.6-0.7,2.6-0.7,3c0,0.3,0.1,0.6,0.3,0.8s0.4,0.3,0.6,0.3c0.2,0,0.6-0.1,1-0.4
		c1.2-0.9,2.5-2.4,3.9-4.3l1,0.6c-2.1,3-4,5.1-5.9,6.3c-1.3,0.9-2.5,1.3-3.5,1.3c-0.8,0-1.5-0.2-2-0.7s-0.7-1.2-0.7-2
		c0-1.1,0.4-2.9,1.1-5.5l3.9-13.4c0.5-1.7,0.7-3,0.7-3.9c0-0.4-0.1-0.8-0.4-1.1c-0.3-0.3-0.6-0.4-1.1-0.4c-0.6,0-1.4,0.3-2.2,0.8
		c-1.6,1-3.3,2.6-5.1,5s-3.7,5.2-5.7,8.8c-1,1.9-1.9,4-2.6,6.2l-1.7,5.5h-5l6.1-20.9c0.7-2.5,1.1-4,1.1-4.5s-0.2-0.9-0.6-1.3
		s-0.9-0.6-1.4-0.6c-0.3,0-0.7,0.1-1.4,0.2l-1.3,0.2l-0.2-1.2L799.2,1138.4z"/>
	<path class="st1" d="M833.9,1138.4l-6.6,23.4c-0.4,1.6-0.7,2.5-0.7,2.8c0,0.4,0.1,0.6,0.3,0.9c0.2,0.2,0.4,0.3,0.7,0.3
		c0.4,0,0.8-0.2,1.2-0.5c1.3-1,2.6-2.4,3.9-4.3l1.2,0.8c-1.5,2.3-3.3,4.2-5.3,5.8c-1.5,1.2-2.9,1.7-4.3,1.7c-0.9,0-1.7-0.3-2.2-0.8
		c-0.6-0.5-0.9-1.2-0.9-2.1c0-0.8,0.3-2.2,0.8-4.1l4.3-15c0.7-2.4,1-4,1-4.6c0-0.5-0.2-0.9-0.5-1.2c-0.3-0.3-0.8-0.5-1.4-0.5
		c-0.5,0-1.5,0.1-3.1,0.4v-1.3L833.9,1138.4z M833.5,1125.2c0.9,0,1.7,0.3,2.4,1c0.6,0.6,1,1.4,1,2.3s-0.3,1.7-1,2.4
		c-0.6,0.7-1.4,1-2.3,1c-0.9,0-1.7-0.3-2.4-1s-1-1.5-1-2.4s0.3-1.7,1-2.3C831.8,1125.5,832.6,1125.2,833.5,1125.2z"/>
	<path class="st1" d="M855,1130.2l-2.6,9.1h5.3l-0.6,2.1h-5.2l-5.8,19.6c-0.6,2.1-0.9,3.5-0.9,4.1c0,0.4,0.1,0.7,0.2,0.9
		s0.4,0.3,0.6,0.3c0.6,0,1.3-0.4,2.2-1.2c0.6-0.4,1.8-1.8,3.6-4.1l1.1,0.9c-2,3-4,5.1-5.8,6.3c-1.2,0.8-2.5,1.2-3.8,1.2
		c-1,0-1.8-0.3-2.4-0.9c-0.6-0.6-0.9-1.4-0.9-2.4c0-1.2,0.3-3,1-5.5l5.6-19.3h-5.1l0.3-1.3c2.5-0.7,4.5-1.7,6.1-3s3.4-3.6,5.4-6.9
		h1.7V1130.2z"/>
	<path class="st1" d="M887.8,1148.9c0,3.3-0.9,6.6-2.7,9.9s-4.2,5.9-7.4,7.8c-3.1,1.9-6.2,2.9-9.2,2.9s-5.5-1-7.5-2.9
		c-1.9-1.9-2.9-4.5-2.9-7.5c0-3.3,0.9-6.6,2.8-9.9c1.9-3.3,4.4-5.9,7.5-7.8c3.2-1.9,6.2-2.9,9.1-2.9c3,0,5.4,1,7.3,2.9
		S887.8,1145.8,887.8,1148.9z M882.3,1146.6c0-2.1-0.5-3.7-1.5-4.8c-1-1.1-2.3-1.7-3.9-1.7c-3.3,0-6.3,2.3-9,7s-4.1,9.3-4.1,14
		c0,2.1,0.5,3.7,1.6,4.9c1.1,1.1,2.4,1.7,4,1.7c3.1,0,6.1-2.3,8.8-7C880.9,1156.1,882.3,1151.4,882.3,1146.6z"/>
	<path class="st1" d="M354,1240.2c0.8,1.3,1.3,2.5,1.6,3.6c0.3,1.1,0.6,3.3,0.8,6.7l1.5,16.4c1.4-1.6,3.3-4.1,5.8-7.6
		c1.2-1.7,2.8-4,4.6-6.9c1.1-1.8,1.7-3,2-3.7c0.1-0.4,0.2-0.7,0.2-1.1c0-0.2-0.1-0.4-0.2-0.6c-0.2-0.2-0.6-0.3-1.2-0.6
		c-0.7-0.2-1.2-0.6-1.6-1.2s-0.6-1.2-0.6-1.9c0-0.9,0.3-1.7,0.8-2.2c0.5-0.6,1.2-0.8,2-0.8c1,0,1.8,0.4,2.5,1.2c0.7,0.8,1,1.9,1,3.4
		c0,1.7-0.6,3.7-1.8,6c-1.2,2.3-3.5,5.7-6.9,10.4c-3.4,4.7-7.6,9.8-12.4,15.3c-3.4,3.8-5.9,6.2-7.5,7.2s-3,1.5-4.2,1.5
		c-0.7,0-1.3-0.3-1.8-0.8s-0.8-1.1-0.8-1.8c0-0.9,0.4-1.6,1.1-2.4c0.7-0.7,1.5-1.1,2.4-1.1c0.4,0,0.8,0.1,1.1,0.3
		c0.2,0.1,0.4,0.4,0.6,1c0.2,0.5,0.4,0.9,0.6,1.1c0.1,0.1,0.2,0.2,0.4,0.2c0.1,0,0.4-0.1,0.7-0.3c1.2-0.8,2.6-2,4.3-3.6
		c2.2-2.2,3.7-4,4.8-5.3l-1.9-21.1c-0.3-3.5-0.8-5.6-1.4-6.4s-1.7-1.1-3.1-1.1c-0.5,0-1.3,0.1-2.5,0.2l-0.3-1.2L354,1240.2z"/>
	<path class="st1" d="M427.4,1223l-11.5,39.4c-0.6,2.1-1,3.5-1,4.2c0,0.2,0.1,0.4,0.3,0.6s0.4,0.3,0.6,0.3c0.3,0,0.6-0.1,1-0.4
		c0.8-0.6,2-1.9,3.8-4l1.2,0.7c-1.6,2.2-3.2,4-4.9,5.4c-1.6,1.4-3.2,2.1-4.6,2.1c-0.8,0-1.4-0.3-1.9-0.8s-0.7-1.3-0.7-2.3
		c0-1.3,0.3-3,1-5.1l1.3-4.1c-3.2,5-6.1,8.5-8.8,10.4c-1.8,1.3-3.6,1.9-5.2,1.9c-1.7,0-3.2-0.7-4.5-2.2s-1.9-3.5-1.9-6.1
		c0-3.3,1.1-6.9,3.2-10.6s4.9-6.8,8.4-9.2c2.7-1.9,5.2-2.9,7.5-2.9c1.2,0,2.2,0.2,3.1,0.7s1.7,1.3,2.6,2.4l3.3-11.6
		c0.2-0.8,0.4-1.5,0.6-2c0.3-0.9,0.4-1.6,0.4-2.2c0-0.5-0.2-0.9-0.5-1.2c-0.5-0.4-1.1-0.6-1.8-0.6c-0.5,0-1.3,0.1-2.5,0.2v-1.2
		L427.4,1223z M415,1246.7c0-1.4-0.4-2.6-1.2-3.4c-0.8-0.9-1.9-1.3-3.1-1.3c-2.8,0-5.7,2.3-8.8,6.9c-3,4.6-4.5,9-4.5,13.3
		c0,1.7,0.4,3,1.1,3.8c0.7,0.9,1.6,1.3,2.6,1.3c2.3,0,5.2-2.5,8.7-7.5C413.3,1254.8,415,1250.4,415,1246.7z"/>
	<path class="st1" d="M440.3,1240.2l-6.6,23.4c-0.4,1.6-0.7,2.5-0.7,2.8c0,0.4,0.1,0.6,0.3,0.9c0.2,0.2,0.4,0.3,0.7,0.3
		c0.4,0,0.8-0.2,1.2-0.5c1.3-1,2.6-2.4,3.9-4.3l1.2,0.8c-1.5,2.3-3.3,4.2-5.3,5.8c-1.5,1.2-2.9,1.7-4.3,1.7c-0.9,0-1.7-0.3-2.2-0.8
		c-0.6-0.5-0.9-1.2-0.9-2.1c0-0.8,0.3-2.2,0.8-4.1l4.4-15c0.7-2.4,1-4,1-4.6c0-0.5-0.2-0.9-0.5-1.2c-0.3-0.3-0.8-0.5-1.4-0.5
		c-0.5,0-1.5,0.1-3.1,0.4v-1.3L440.3,1240.2z M439.9,1227c0.9,0,1.7,0.3,2.4,1c0.6,0.6,1,1.4,1,2.3s-0.3,1.7-1,2.4
		c-0.6,0.7-1.4,1-2.3,1s-1.7-0.3-2.4-1c-0.7-0.7-1-1.5-1-2.4s0.3-1.7,1-2.3C438.2,1227.4,439,1227,439.9,1227z"/>
	<path class="st1" d="M445,1242.3l9.7-2.1c0.7,1.7,1.2,3.3,1.7,5.1c0.6,2.5,1.1,5.5,1.5,8.9c0.2,1.7,0.4,5.4,0.7,11
		c2.8-3.1,4.4-5,5-5.7c3-4,4.7-6.3,5.1-7c0.7-1.2,1.2-2.2,1.5-3.1c0.2-0.7,0.4-1.3,0.4-1.9s-0.5-1.2-1.6-2c-1-0.8-1.6-1.6-1.6-2.5
		c0-0.7,0.3-1.3,0.8-1.9c0.6-0.6,1.2-0.8,2-0.8c0.9,0,1.8,0.4,2.5,1.2s1.1,1.7,1.1,2.9c0,1.1-0.2,2.2-0.5,3.3
		c-0.6,1.7-1.6,3.7-3.2,6.2s-4.1,5.7-7.6,9.8c-0.4,0.5-2.9,3.1-7.4,7.7h-1.2c-0.6-14.1-1.7-22.8-3.4-26.4c-0.6-1.1-1.5-1.7-2.8-1.7
		c-0.6,0-1.3,0.1-2.4,0.3L445,1242.3z"/>
	<path class="st1" d="M482,1257.9c-0.1,1.1-0.2,2-0.2,2.7c0,2,0.7,3.7,2.1,5.1s3.1,2.1,5.1,2.1c1.6,0,3.1-0.3,4.6-1s3.7-2.1,6.6-4.4
		l0.7,1c-5.3,5.2-10.3,7.8-15.1,7.8c-3.2,0-5.7-1-7.3-3.1c-1.6-2-2.5-4.3-2.5-6.8c0-3.3,1-6.7,3.1-10.2c2-3.5,4.6-6.2,7.7-8.1
		s6.3-2.9,9.6-2.9c2.3,0,4.1,0.5,5.2,1.5s1.7,2.1,1.7,3.4c0,1.9-0.7,3.6-2.2,5.3c-1.9,2.2-4.8,4-8.5,5.3
		C490.1,1256.7,486.6,1257.4,482,1257.9z M482.3,1256.2c3.3-0.4,6-1,8-1.9c2.7-1.2,4.8-2.7,6.2-4.4c1.4-1.7,2.1-3.3,2.1-4.9
		c0-0.9-0.3-1.7-0.9-2.2c-0.6-0.6-1.4-0.9-2.5-0.9c-2.3,0-4.7,1.2-7.2,3.6C485.4,1248,483.5,1251.5,482.3,1256.2z"/>
	<path class="st1" d="M507.8,1242.2l11.5-1.9l-4.8,16.2c3.9-6.7,7.4-11.3,10.6-14c1.8-1.5,3.3-2.3,4.4-2.3c0.7,0,1.3,0.2,1.7,0.7
		c0.4,0.4,0.6,1.1,0.6,1.9c0,1.5-0.4,2.9-1.1,4.2c-0.5,1-1.3,1.5-2.3,1.5c-0.5,0-0.9-0.2-1.3-0.5c-0.4-0.3-0.6-0.8-0.7-1.5
		c0-0.4-0.1-0.7-0.3-0.8c-0.2-0.2-0.4-0.2-0.6-0.2c-0.4,0-0.7,0.1-1.1,0.2c-0.6,0.3-1.5,1.2-2.7,2.6c-1.9,2.2-3.9,5-6,8.5
		c-0.9,1.5-1.7,3.1-2.4,5c-0.9,2.5-1.4,4.1-1.6,4.6l-1.1,4.2h-5.1l6.2-20.7c0.7-2.4,1-4.1,1-5.1c0-0.4-0.2-0.7-0.5-1
		c-0.4-0.4-1-0.5-1.7-0.5c-0.5,0-1.3,0.1-2.6,0.3L507.8,1242.2z"/>
	<path class="st1" d="M548.6,1232l-2.6,9.1h5.3l-0.6,2.1h-5.2l-5.8,19.6c-0.6,2.1-0.9,3.5-0.9,4.1c0,0.4,0.1,0.7,0.2,0.9
		c0.2,0.2,0.4,0.3,0.6,0.3c0.6,0,1.3-0.4,2.2-1.2c0.6-0.4,1.8-1.8,3.6-4.1l1.1,0.9c-2,3-4,5.1-5.8,6.3c-1.2,0.8-2.5,1.2-3.8,1.2
		c-1,0-1.8-0.3-2.4-0.9c-0.6-0.6-0.9-1.4-0.9-2.4c0-1.2,0.3-3,1-5.5l5.6-19.3h-5.1l0.3-1.3c2.5-0.7,4.5-1.7,6.1-3s3.4-3.6,5.4-6.9
		h1.7V1232z"/>
	<path class="st1" d="M565.5,1240.2l-6.6,23.4c-0.4,1.6-0.7,2.5-0.7,2.8c0,0.4,0.1,0.6,0.3,0.9c0.2,0.2,0.4,0.3,0.7,0.3
		c0.4,0,0.8-0.2,1.2-0.5c1.3-1,2.6-2.4,3.9-4.3l1.2,0.8c-1.5,2.3-3.3,4.2-5.3,5.8c-1.5,1.2-2.9,1.7-4.3,1.7c-0.9,0-1.7-0.3-2.2-0.8
		c-0.6-0.5-0.9-1.2-0.9-2.1c0-0.8,0.3-2.2,0.8-4.1l4.4-15c0.7-2.4,1-4,1-4.6c0-0.5-0.2-0.9-0.5-1.2c-0.3-0.3-0.8-0.5-1.4-0.5
		c-0.5,0-1.5,0.1-3.1,0.4v-1.3L565.5,1240.2z M565.1,1227c0.9,0,1.7,0.3,2.4,1c0.6,0.6,1,1.4,1,2.3s-0.3,1.7-1,2.4
		c-0.6,0.7-1.4,1-2.3,1s-1.7-0.3-2.4-1s-1-1.5-1-2.4s0.3-1.7,1-2.3C563.4,1227.4,564.2,1227,565.1,1227z"/>
	<path class="st1" d="M605.8,1223l-11.5,39.4c-0.6,2.1-1,3.5-1,4.2c0,0.2,0.1,0.4,0.3,0.6s0.4,0.3,0.6,0.3c0.3,0,0.6-0.1,1-0.4
		c0.8-0.6,2-1.9,3.8-4l1.2,0.7c-1.6,2.2-3.2,4-4.9,5.4c-1.6,1.4-3.2,2.1-4.6,2.1c-0.8,0-1.4-0.3-1.9-0.8s-0.7-1.3-0.7-2.3
		c0-1.3,0.3-3,1-5.1l1.3-4.1c-3.2,5-6.1,8.5-8.8,10.4c-1.8,1.3-3.6,1.9-5.2,1.9c-1.7,0-3.2-0.7-4.5-2.2s-1.9-3.5-1.9-6.1
		c0-3.3,1.1-6.9,3.2-10.6s4.9-6.8,8.4-9.2c2.7-1.9,5.2-2.9,7.5-2.9c1.2,0,2.2,0.2,3.1,0.7s1.7,1.3,2.6,2.4l3.3-11.6
		c0.2-0.8,0.4-1.5,0.6-2c0.3-0.9,0.4-1.6,0.4-2.2c0-0.5-0.2-0.9-0.5-1.2c-0.5-0.4-1.1-0.6-1.8-0.6c-0.5,0-1.3,0.1-2.5,0.2v-1.2
		L605.8,1223z M593.4,1246.7c0-1.4-0.4-2.6-1.2-3.4c-0.8-0.9-1.9-1.3-3.1-1.3c-2.8,0-5.7,2.3-8.8,6.9c-3,4.6-4.5,9-4.5,13.3
		c0,1.7,0.4,3,1.1,3.8c0.7,0.9,1.6,1.3,2.6,1.3c2.3,0,5.2-2.5,8.7-7.5C591.6,1254.8,593.4,1250.4,593.4,1246.7z"/>
	<path class="st1" d="M634.5,1250.7c0,3.3-0.9,6.6-2.7,9.9s-4.2,5.9-7.4,7.8c-3.1,1.9-6.2,2.9-9.2,2.9s-5.5-1-7.5-2.9
		c-1.9-1.9-2.9-4.5-2.9-7.5c0-3.3,0.9-6.6,2.8-9.9c1.9-3.3,4.4-5.9,7.5-7.8s6.2-2.9,9.1-2.9c3,0,5.4,1,7.3,2.9
		S634.5,1247.6,634.5,1250.7z M629,1248.4c0-2.1-0.5-3.7-1.5-4.8c-1-1.1-2.3-1.7-3.9-1.7c-3.3,0-6.3,2.3-9,7s-4.1,9.3-4.1,14
		c0,2.1,0.5,3.7,1.6,4.9c1.1,1.1,2.4,1.7,4,1.7c3.1,0,6.1-2.3,8.8-7C627.6,1257.9,629,1253.2,629,1248.4z"/>
	<path class="st1" d="M657.7,1242.2l11.5-1.9l-4.8,16.2c3.9-6.7,7.4-11.3,10.6-14c1.8-1.5,3.3-2.3,4.4-2.3c0.7,0,1.3,0.2,1.7,0.7
		c0.4,0.4,0.6,1.1,0.6,1.9c0,1.5-0.4,2.9-1.1,4.2c-0.5,1-1.3,1.5-2.3,1.5c-0.5,0-0.9-0.2-1.3-0.5c-0.4-0.3-0.6-0.8-0.7-1.5
		c0-0.4-0.1-0.7-0.3-0.8c-0.2-0.2-0.4-0.2-0.6-0.2c-0.4,0-0.7,0.1-1.1,0.2c-0.6,0.3-1.5,1.2-2.7,2.6c-1.9,2.2-3.9,5-6,8.5
		c-0.9,1.5-1.7,3.1-2.4,5c-0.9,2.5-1.4,4.1-1.6,4.6l-1.1,4.2h-5.1l6.2-20.7c0.7-2.4,1-4.1,1-5.1c0-0.4-0.2-0.7-0.5-1
		c-0.4-0.4-1-0.5-1.7-0.5c-0.5,0-1.3,0.1-2.6,0.3L657.7,1242.2z"/>
	<path class="st1" d="M688.9,1257.9c-0.1,1.1-0.2,2-0.2,2.7c0,2,0.7,3.7,2.1,5.1c1.4,1.4,3.1,2.1,5.1,2.1c1.6,0,3.1-0.3,4.6-1
		s3.7-2.1,6.6-4.4l0.7,1c-5.3,5.2-10.3,7.8-15.1,7.8c-3.2,0-5.7-1-7.3-3.1c-1.6-2-2.5-4.3-2.5-6.8c0-3.3,1-6.7,3.1-10.2
		c2-3.5,4.6-6.2,7.7-8.1c3.1-1.9,6.3-2.9,9.6-2.9c2.3,0,4.1,0.5,5.2,1.5c1.1,1,1.7,2.1,1.7,3.4c0,1.9-0.7,3.6-2.2,5.3
		c-1.9,2.2-4.8,4-8.5,5.3C696.9,1256.7,693.4,1257.4,688.9,1257.9z M689.1,1256.2c3.3-0.4,6-1,8-1.9c2.7-1.2,4.8-2.7,6.2-4.4
		c1.4-1.7,2.1-3.3,2.1-4.9c0-0.9-0.3-1.7-0.9-2.2c-0.6-0.6-1.4-0.9-2.5-0.9c-2.3,0-4.7,1.2-7.2,3.6
		C692.2,1248,690.3,1251.5,689.1,1256.2z"/>
	<path class="st1" d="M737.5,1263.2c-2.3,2.8-4.7,4.8-7,6.1s-4.9,1.9-7.5,1.9c-3.1,0-5.6-0.9-7.4-2.7c-1.8-1.8-2.7-4.2-2.7-7.2
		c0-3.4,1-6.7,2.9-10s4.5-6,7.7-8c3.2-2.1,6.4-3.1,9.4-3.1c2.4,0,4.2,0.5,5.4,1.5s1.8,2.3,1.8,3.7c0,1.4-0.4,2.6-1.3,3.5
		c-0.6,0.8-1.4,1.2-2.3,1.2c-0.7,0-1.3-0.2-1.7-0.7c-0.5-0.5-0.7-1-0.7-1.7c0-0.4,0.1-0.8,0.2-1.2c0.2-0.4,0.5-0.8,1-1.3
		s0.8-0.9,1-1.1s0.2-0.5,0.2-0.7c0-0.5-0.2-0.9-0.6-1.2c-0.7-0.4-1.6-0.7-2.7-0.7c-2.2,0-4.3,0.8-6.5,2.3s-4,3.7-5.5,6.5
		c-1.8,3.4-2.7,6.9-2.7,10.3c0,2.3,0.6,4.1,1.9,5.4c1.3,1.3,3.1,2,5.3,2c1.7,0,3.4-0.4,5.1-1.3c1.7-0.9,3.6-2.4,5.6-4.6
		L737.5,1263.2z"/>
	<path class="st1" d="M773.6,1241.1l-5.8,19.9c-0.9,3-1.3,4.8-1.3,5.6c0,0.4,0.1,0.7,0.2,0.9c0.1,0.2,0.3,0.3,0.6,0.3
		c0.4,0,0.8-0.2,1.3-0.5s1.6-1.7,3.4-4.1l1,0.8c-1.8,2.8-3.6,4.8-5.4,6.1c-1.2,0.8-2.4,1.2-3.5,1.2c-0.9,0-1.6-0.2-2.1-0.7
		s-0.7-1.1-0.7-1.9s0.1-1.8,0.4-3c0.4-1.6,1.4-5.2,3.1-10.7c-3.8,6.2-6.9,10.5-9.5,12.8c-2.5,2.3-4.9,3.5-7.1,3.5
		c-1,0-1.9-0.4-2.6-1.1c-0.7-0.7-1.1-1.6-1.1-2.7c0-1.7,0.5-4.2,1.4-7.7l2.9-10.3c0.7-2.5,1-4,1-4.6c0-0.2-0.1-0.5-0.3-0.7
		s-0.4-0.3-0.6-0.3c-0.5,0-0.9,0.2-1.4,0.5s-1.5,1.6-3.2,3.7l-1-0.7c1.7-2.6,3.5-4.5,5.3-5.7c1.4-1,2.7-1.5,3.9-1.5
		c0.8,0,1.5,0.3,2,0.8s0.8,1.2,0.8,2c0,1.2-0.4,3.4-1.3,6.4l-3.1,10.8c-0.9,3-1.3,4.8-1.3,5.6c0,0.4,0.1,0.8,0.4,1
		c0.3,0.3,0.6,0.4,1.1,0.4c0.7,0,1.7-0.4,2.9-1.1s2.8-2.4,4.7-4.9s3.6-4.9,4.9-7.1c1.3-2.2,2.6-5.7,4.1-10.6l0.7-2.5L773.6,1241.1
		L773.6,1241.1z"/>
	<path class="st1" d="M783.7,1257.9c-0.1,1.1-0.2,2-0.2,2.7c0,2,0.7,3.7,2.1,5.1c1.4,1.4,3.1,2.1,5.1,2.1c1.6,0,3.1-0.3,4.6-1
		s3.7-2.1,6.6-4.4l0.7,1c-5.3,5.2-10.3,7.8-15.1,7.8c-3.2,0-5.7-1-7.3-3.1c-1.6-2-2.5-4.3-2.5-6.8c0-3.3,1-6.7,3.1-10.2
		c2-3.5,4.6-6.2,7.7-8.1c3.1-1.9,6.3-2.9,9.6-2.9c2.3,0,4.1,0.5,5.2,1.5c1.1,1,1.7,2.1,1.7,3.4c0,1.9-0.7,3.6-2.2,5.3
		c-1.9,2.2-4.8,4-8.5,5.3C791.7,1256.7,788.2,1257.4,783.7,1257.9z M783.9,1256.2c3.3-0.4,6-1,8-1.9c2.7-1.2,4.8-2.7,6.2-4.4
		c1.4-1.7,2.1-3.3,2.1-4.9c0-0.9-0.3-1.7-0.9-2.2c-0.6-0.6-1.4-0.9-2.5-0.9c-2.3,0-4.7,1.2-7.2,3.6
		C787,1248,785.1,1251.5,783.9,1256.2z"/>
	<path class="st1" d="M809.5,1242.2l11.5-1.9l-4.8,16.2c3.9-6.7,7.4-11.3,10.6-14c1.8-1.5,3.3-2.3,4.4-2.3c0.7,0,1.3,0.2,1.7,0.7
		c0.4,0.4,0.6,1.1,0.6,1.9c0,1.5-0.4,2.9-1.1,4.2c-0.5,1-1.3,1.5-2.3,1.5c-0.5,0-0.9-0.2-1.3-0.5c-0.4-0.3-0.6-0.8-0.7-1.5
		c0-0.4-0.1-0.7-0.3-0.8c-0.2-0.2-0.4-0.2-0.6-0.2c-0.4,0-0.7,0.1-1.1,0.2c-0.6,0.3-1.5,1.2-2.7,2.6c-1.8,2.2-3.9,5-6,8.5
		c-0.9,1.5-1.7,3.1-2.4,5c-0.9,2.5-1.4,4.1-1.6,4.6l-1.1,4.2h-5.1l6.2-20.7c0.7-2.4,1-4.1,1-5.1c0-0.4-0.2-0.7-0.5-1
		c-0.4-0.4-1-0.5-1.7-0.5c-0.5,0-1.3,0.1-2.6,0.3L809.5,1242.2z"/>
	<path class="st1" d="M869.5,1223l-11.5,39.4c-0.6,2.1-1,3.5-1,4.2c0,0.2,0.1,0.4,0.3,0.6s0.4,0.3,0.6,0.3c0.3,0,0.6-0.1,1-0.4
		c0.8-0.6,2-1.9,3.8-4l1.2,0.7c-1.6,2.2-3.2,4-4.9,5.4c-1.6,1.4-3.2,2.1-4.6,2.1c-0.8,0-1.4-0.3-1.9-0.8s-0.7-1.3-0.7-2.3
		c0-1.3,0.3-3,1-5.1l1.3-4.1c-3.2,5-6.1,8.5-8.8,10.4c-1.8,1.3-3.6,1.9-5.2,1.9c-1.7,0-3.2-0.7-4.5-2.2s-1.9-3.5-1.9-6.1
		c0-3.3,1.1-6.9,3.2-10.6s4.9-6.8,8.4-9.2c2.7-1.9,5.2-2.9,7.5-2.9c1.2,0,2.2,0.2,3.1,0.7s1.7,1.3,2.6,2.4l3.3-11.6
		c0.2-0.8,0.4-1.5,0.6-2c0.3-0.9,0.4-1.6,0.4-2.2c0-0.5-0.2-0.9-0.5-1.2c-0.5-0.4-1.1-0.6-1.8-0.6c-0.5,0-1.3,0.1-2.5,0.2v-1.2
		L869.5,1223z M857.1,1246.7c0-1.4-0.4-2.6-1.2-3.4s-1.9-1.3-3.1-1.3c-2.8,0-5.7,2.3-8.8,6.9c-3,4.6-4.5,9-4.5,13.3
		c0,1.7,0.4,3,1.1,3.8c0.7,0.9,1.6,1.3,2.6,1.3c2.3,0,5.2-2.5,8.7-7.5C855.3,1254.8,857.1,1250.4,857.1,1246.7z"/>
	<path class="st1" d="M898.2,1250.7c0,3.3-0.9,6.6-2.7,9.9s-4.2,5.9-7.4,7.8c-3.1,1.9-6.2,2.9-9.2,2.9s-5.5-1-7.5-2.9
		c-1.9-1.9-2.9-4.5-2.9-7.5c0-3.3,0.9-6.6,2.8-9.9c1.9-3.3,4.4-5.9,7.5-7.8c3.2-1.9,6.2-2.9,9.1-2.9c3,0,5.4,1,7.3,2.9
		S898.2,1247.6,898.2,1250.7z M892.7,1248.4c0-2.1-0.5-3.7-1.5-4.8c-1-1.1-2.3-1.7-3.9-1.7c-3.3,0-6.3,2.3-9,7s-4.1,9.3-4.1,14
		c0,2.1,0.5,3.7,1.6,4.9c1.1,1.1,2.4,1.7,4,1.7c3.1,0,6.1-2.3,8.8-7C891.3,1257.9,892.7,1253.2,892.7,1248.4z"/>
	<path class="st1" d="M300.6,1324.8l-9.4,32.4c4-6.1,7.2-10.2,9.4-12.2c2.3-2,4.4-3,6.5-3c1.1,0,2,0.4,2.7,1.1s1.1,1.7,1.1,2.9
		c0,1.5-0.3,3.2-0.9,5.3l-4.1,14c-0.5,1.7-0.8,2.6-0.8,2.8c0,0.3,0.1,0.6,0.3,0.7c0.2,0.2,0.4,0.3,0.7,0.3c0.3,0,0.6-0.1,1-0.4
		c1.3-1,2.5-2.3,3.8-4.1l1,0.6c-0.8,1.2-1.8,2.5-3.2,3.9c-1.3,1.4-2.5,2.4-3.5,2.9s-1.8,0.8-2.6,0.8c-0.8,0-1.5-0.3-2-0.8
		s-0.8-1.2-0.8-2c0-1,0.4-2.8,1.2-5.5l3.9-13.3c0.5-1.7,0.7-3,0.7-3.9c0-0.4-0.1-0.8-0.4-1.1c-0.3-0.3-0.6-0.4-1.1-0.4
		c-0.6,0-1.4,0.2-2.2,0.7c-1.5,0.9-3.3,2.7-5.2,5.2c-0.6,0.7-2.3,3.5-5.3,8.3c-0.9,1.5-1.7,3.2-2.3,5.1l-2.1,6.8h-5l11-38.2l1.2-4.1
		c0-0.6-0.2-1.1-0.7-1.5s-1.1-0.7-1.8-0.7c-0.4,0-1,0.1-1.8,0.2l-0.7,0.1v-1.3L300.6,1324.8z"/>
	<path class="st1" d="M346.8,1342.1l-6.5,22.6l-0.7,3.1c-0.1,0.3-0.1,0.5-0.1,0.7c0,0.4,0.1,0.7,0.3,1c0.2,0.2,0.4,0.3,0.7,0.3
		c0.3,0,0.6-0.2,1.1-0.5c0.9-0.6,2-2,3.5-4l1.1,0.8c-1.5,2.3-3.1,4.1-4.7,5.3c-1.6,1.2-3.1,1.8-4.5,1.8c-0.9,0-1.7-0.2-2.1-0.7
		c-0.5-0.5-0.7-1.2-0.7-2.1c0-1.1,0.2-2.5,0.7-4.3l0.7-2.5c-2.9,3.8-5.6,6.5-8,8c-1.8,1.1-3.5,1.6-5.2,1.6c-1.6,0-3-0.7-4.2-2
		s-1.8-3.2-1.8-5.5c0-3.5,1.1-7.3,3.2-11.2c2.1-3.9,4.8-7.1,8.1-9.4c2.5-1.9,4.9-2.8,7.2-2.8c1.4,0,2.5,0.4,3.4,1.1s1.6,1.9,2.1,3.6
		l1.2-3.8L346.8,1342.1z M334.9,1343.8c-1.4,0-2.9,0.7-4.5,2c-2.3,1.9-4.3,4.7-6.1,8.4c-1.8,3.7-2.7,7.1-2.7,10.1
		c0,1.5,0.4,2.7,1.1,3.6c0.8,0.9,1.6,1.3,2.6,1.3c2.4,0,5-1.8,7.9-5.4c3.8-4.8,5.7-9.6,5.7-14.6c0-1.9-0.4-3.2-1.1-4.1
		C337.1,1344.2,336.1,1343.8,334.9,1343.8z"/>
	<path class="st1" d="M375.2,1365c-2.3,2.8-4.7,4.8-7,6.1s-4.9,1.9-7.5,1.9c-3.1,0-5.6-0.9-7.4-2.7c-1.8-1.8-2.7-4.2-2.7-7.2
		c0-3.4,1-6.7,2.9-10s4.5-6,7.7-8c3.2-2.1,6.4-3.1,9.4-3.1c2.4,0,4.2,0.5,5.4,1.5c1.2,1,1.8,2.3,1.8,3.7c0,1.4-0.4,2.6-1.3,3.5
		c-0.6,0.8-1.4,1.2-2.3,1.2c-0.7,0-1.3-0.2-1.7-0.7c-0.5-0.5-0.7-1-0.7-1.7c0-0.4,0.1-0.8,0.2-1.2c0.2-0.4,0.5-0.8,1-1.3
		s0.8-0.9,1-1.1c0.1-0.2,0.2-0.5,0.2-0.7c0-0.5-0.2-0.9-0.6-1.2c-0.7-0.4-1.6-0.7-2.7-0.7c-2.2,0-4.3,0.8-6.5,2.3s-4,3.7-5.5,6.5
		c-1.8,3.4-2.7,6.9-2.7,10.3c0,2.3,0.6,4.1,1.9,5.4s3.1,2,5.3,2c1.7,0,3.4-0.4,5.1-1.3s3.6-2.4,5.6-4.6L375.2,1365z"/>
	<path class="st1" d="M394.9,1342.1l-6.6,23.4c-0.4,1.6-0.7,2.5-0.7,2.8c0,0.4,0.1,0.6,0.3,0.9c0.2,0.2,0.4,0.3,0.7,0.3
		c0.4,0,0.8-0.2,1.2-0.5c1.3-1,2.6-2.4,3.9-4.3l1.2,0.8c-1.5,2.3-3.3,4.2-5.3,5.8c-1.5,1.2-2.9,1.7-4.3,1.7c-0.9,0-1.7-0.3-2.2-0.8
		c-0.6-0.5-0.9-1.2-0.9-2.1c0-0.8,0.3-2.2,0.8-4.1l4.4-15c0.7-2.4,1-4,1-4.6c0-0.5-0.2-0.9-0.5-1.2c-0.3-0.3-0.8-0.5-1.4-0.5
		c-0.5,0-1.5,0.1-3.1,0.4v-1.3L394.9,1342.1z M394.5,1328.9c0.9,0,1.7,0.3,2.4,1c0.6,0.6,1,1.4,1,2.3s-0.3,1.7-1,2.4
		c-0.6,0.7-1.4,1-2.3,1s-1.7-0.3-2.4-1c-0.7-0.7-1-1.5-1-2.4s0.3-1.7,1-2.3C392.7,1329.2,393.5,1328.9,394.5,1328.9z"/>
	<path class="st1" d="M406.3,1359.7c-0.1,1.1-0.2,2-0.2,2.7c0,2,0.7,3.7,2.1,5.1s3.1,2.1,5.1,2.1c1.6,0,3.1-0.3,4.6-1
		s3.7-2.1,6.6-4.4l0.7,1c-5.3,5.2-10.3,7.8-15.1,7.8c-3.2,0-5.7-1-7.3-3.1c-1.6-2-2.5-4.3-2.5-6.8c0-3.3,1-6.7,3.1-10.2
		c2-3.5,4.6-6.2,7.7-8.1s6.3-2.9,9.6-2.9c2.3,0,4.1,0.5,5.2,1.5s1.7,2.1,1.7,3.4c0,1.9-0.7,3.6-2.2,5.3c-1.9,2.2-4.8,4-8.5,5.3
		C414.3,1358.5,410.8,1359.2,406.3,1359.7z M406.5,1358.1c3.3-0.4,6-1,8-1.9c2.7-1.2,4.8-2.7,6.2-4.4c1.4-1.7,2.1-3.3,2.1-4.9
		c0-0.9-0.3-1.7-0.9-2.2c-0.6-0.6-1.4-0.9-2.5-0.9c-2.3,0-4.7,1.2-7.2,3.6C409.6,1349.8,407.7,1353.3,406.5,1358.1z"/>
	<path class="st1" d="M443.6,1342.1l-4.4,15.2c4.1-6.2,7.3-10.3,9.6-12.3c2.2-2,4.4-2.9,6.4-2.9c1.1,0,2,0.4,2.7,1.1
		s1.1,1.7,1.1,2.9c0,1.4-0.3,3.1-1,5.3l-4.1,14c-0.5,1.6-0.7,2.6-0.7,3c0,0.3,0.1,0.6,0.3,0.8s0.4,0.3,0.6,0.3s0.6-0.1,1-0.4
		c1.2-0.9,2.5-2.4,3.9-4.3l1,0.6c-2.1,3-4,5.1-5.9,6.3c-1.3,0.9-2.5,1.3-3.5,1.3c-0.8,0-1.5-0.2-2-0.7s-0.7-1.2-0.7-2
		c0-1.1,0.4-2.9,1.1-5.5l3.9-13.4c0.5-1.7,0.7-3,0.7-3.9c0-0.4-0.1-0.8-0.4-1.1s-0.6-0.4-1.1-0.4c-0.6,0-1.4,0.3-2.2,0.8
		c-1.6,1-3.3,2.6-5.1,5c-1.8,2.3-3.7,5.2-5.7,8.8c-1.1,1.9-1.9,4-2.6,6.2l-1.7,5.5h-5l6.1-20.9c0.7-2.5,1.1-4,1.1-4.5
		s-0.2-0.9-0.6-1.3s-0.9-0.6-1.4-0.6c-0.3,0-0.7,0.1-1.4,0.2l-1.3,0.2l-0.2-1.2L443.6,1342.1z"/>
	<path class="st1" d="M499.6,1324.8l-11.5,39.4c-0.6,2.1-1,3.5-1,4.2c0,0.2,0.1,0.4,0.3,0.6s0.4,0.3,0.6,0.3c0.3,0,0.6-0.1,1-0.4
		c0.8-0.6,2-1.9,3.8-4l1.2,0.7c-1.6,2.2-3.2,4-4.9,5.4c-1.6,1.4-3.2,2.1-4.6,2.1c-0.8,0-1.4-0.3-1.9-0.8s-0.7-1.3-0.7-2.3
		c0-1.3,0.3-3,1-5.1l1.3-4.1c-3.2,5-6.1,8.5-8.8,10.4c-1.8,1.3-3.6,1.9-5.2,1.9c-1.7,0-3.2-0.7-4.5-2.2s-1.9-3.5-1.9-6.1
		c0-3.3,1.1-6.9,3.2-10.6s4.9-6.8,8.4-9.2c2.7-1.9,5.2-2.9,7.5-2.9c1.2,0,2.2,0.2,3.1,0.7s1.7,1.3,2.6,2.4l3.3-11.6
		c0.2-0.8,0.4-1.5,0.6-2c0.3-0.9,0.4-1.6,0.4-2.2c0-0.5-0.2-0.9-0.5-1.2c-0.5-0.4-1.1-0.6-1.8-0.6c-0.5,0-1.3,0.1-2.5,0.2v-1.2
		L499.6,1324.8z M487.2,1348.5c0-1.4-0.4-2.6-1.2-3.4c-0.8-0.9-1.9-1.3-3.1-1.3c-2.8,0-5.7,2.3-8.8,6.9c-3,4.6-4.5,9-4.5,13.3
		c0,1.7,0.4,3,1.1,3.8c0.7,0.9,1.6,1.3,2.6,1.3c2.3,0,5.2-2.5,8.7-7.5C485.4,1356.6,487.2,1352.3,487.2,1348.5z"/>
	<path class="st1" d="M528.3,1352.5c0,3.3-0.9,6.6-2.7,9.9s-4.2,5.9-7.4,7.8c-3.1,1.9-6.2,2.9-9.2,2.9s-5.5-1-7.5-2.9
		c-1.9-1.9-2.9-4.5-2.9-7.5c0-3.3,0.9-6.6,2.8-9.9s4.4-5.9,7.5-7.8s6.2-2.9,9.1-2.9c3,0,5.4,1,7.3,2.9S528.3,1349.5,528.3,1352.5z
		 M522.8,1350.2c0-2.1-0.5-3.7-1.5-4.8s-2.3-1.7-3.9-1.7c-3.3,0-6.3,2.3-9,7s-4.1,9.3-4.1,14c0,2.1,0.5,3.7,1.6,4.9
		c1.1,1.1,2.4,1.7,4,1.7c3.1,0,6.1-2.3,8.8-7C521.4,1359.8,522.8,1355,522.8,1350.2z"/>
	<path class="st1" d="M574.4,1365c-2.3,2.8-4.7,4.8-7,6.1s-4.9,1.9-7.5,1.9c-3.1,0-5.6-0.9-7.4-2.7c-1.8-1.8-2.7-4.2-2.7-7.2
		c0-3.4,1-6.7,2.9-10s4.5-6,7.7-8c3.2-2.1,6.4-3.1,9.4-3.1c2.4,0,4.2,0.5,5.4,1.5s1.8,2.3,1.8,3.7c0,1.4-0.4,2.6-1.3,3.5
		c-0.6,0.8-1.4,1.2-2.3,1.2c-0.7,0-1.3-0.2-1.7-0.7c-0.5-0.5-0.7-1-0.7-1.7c0-0.4,0.1-0.8,0.2-1.2c0.2-0.4,0.5-0.8,1-1.3
		s0.8-0.9,1-1.1c0.1-0.2,0.2-0.5,0.2-0.7c0-0.5-0.2-0.9-0.6-1.2c-0.7-0.4-1.6-0.7-2.7-0.7c-2.2,0-4.3,0.8-6.5,2.3s-4,3.7-5.5,6.5
		c-1.8,3.4-2.7,6.9-2.7,10.3c0,2.3,0.6,4.1,1.9,5.4c1.3,1.3,3.1,2,5.3,2c1.7,0,3.4-0.4,5.1-1.3c1.7-0.9,3.6-2.4,5.6-4.6L574.4,1365z
		"/>
	<path class="st1" d="M598.6,1324.8l-11.4,39.7c-0.6,2-0.8,3.2-0.8,3.6c0,0.3,0.1,0.6,0.3,0.8c0.2,0.2,0.5,0.3,0.8,0.3
		c0.4,0,0.9-0.2,1.4-0.6c1.2-0.9,2.4-2.3,3.6-4.2l1,1c-2.1,3-4,5.1-5.8,6.3c-1.3,0.8-2.5,1.2-3.7,1.2c-0.8,0-1.5-0.3-2.1-0.9
		s-0.8-1.2-0.8-2s0.3-2.4,1-4.9l9.1-31.3c0.7-2.6,1.1-4,1.1-4.4c0-0.6-0.2-1-0.6-1.3c-0.4-0.3-1.1-0.5-2-0.5c-0.5,0-1.3,0.1-2.3,0.2
		v-1.2L598.6,1324.8z"/>
	<path class="st1" d="M613,1342.1l-6.6,23.4c-0.4,1.6-0.7,2.5-0.7,2.8c0,0.4,0.1,0.6,0.3,0.9c0.2,0.2,0.4,0.3,0.7,0.3
		c0.4,0,0.8-0.2,1.2-0.5c1.3-1,2.6-2.4,3.9-4.3l1.2,0.8c-1.5,2.3-3.3,4.2-5.3,5.8c-1.5,1.2-2.9,1.7-4.3,1.7c-0.9,0-1.7-0.3-2.2-0.8
		c-0.6-0.5-0.9-1.2-0.9-2.1c0-0.8,0.3-2.2,0.8-4.1l4.4-15c0.7-2.4,1-4,1-4.6c0-0.5-0.2-0.9-0.5-1.2c-0.3-0.3-0.8-0.5-1.4-0.5
		c-0.5,0-1.5,0.1-3.1,0.4v-1.3L613,1342.1z M612.6,1328.9c0.9,0,1.7,0.3,2.4,1c0.6,0.6,1,1.4,1,2.3s-0.3,1.7-1,2.4
		c-0.6,0.7-1.4,1-2.3,1s-1.7-0.3-2.4-1s-1-1.5-1-2.4s0.3-1.7,1-2.3C610.8,1329.2,611.6,1328.9,612.6,1328.9z"/>
	<path class="st1" d="M642.6,1365c-2.3,2.8-4.7,4.8-7,6.1s-4.9,1.9-7.5,1.9c-3.1,0-5.6-0.9-7.4-2.7c-1.8-1.8-2.7-4.2-2.7-7.2
		c0-3.4,1-6.7,2.9-10s4.5-6,7.7-8c3.2-2.1,6.4-3.1,9.4-3.1c2.4,0,4.2,0.5,5.4,1.5s1.8,2.3,1.8,3.7c0,1.4-0.4,2.6-1.3,3.5
		c-0.6,0.8-1.4,1.2-2.3,1.2c-0.7,0-1.3-0.2-1.7-0.7c-0.5-0.5-0.7-1-0.7-1.7c0-0.4,0.1-0.8,0.2-1.2c0.2-0.4,0.5-0.8,1-1.3
		s0.8-0.9,1-1.1c0.1-0.2,0.2-0.5,0.2-0.7c0-0.5-0.2-0.9-0.6-1.2c-0.7-0.4-1.6-0.7-2.7-0.7c-2.2,0-4.3,0.8-6.5,2.3s-4,3.7-5.5,6.5
		c-1.8,3.4-2.7,6.9-2.7,10.3c0,2.3,0.6,4.1,1.9,5.4c1.3,1.3,3.1,2,5.3,2c1.7,0,3.4-0.4,5.1-1.3c1.7-0.9,3.6-2.4,5.6-4.6L642.6,1365z
		"/>
	<path class="st1" d="M671.8,1359.7c-0.1,1.1-0.2,2-0.2,2.7c0,2,0.7,3.7,2.1,5.1c1.4,1.4,3.1,2.1,5.1,2.1c1.6,0,3.1-0.3,4.6-1
		s3.7-2.1,6.6-4.4l0.7,1c-5.3,5.2-10.3,7.8-15.1,7.8c-3.2,0-5.7-1-7.3-3.1c-1.6-2-2.5-4.3-2.5-6.8c0-3.3,1-6.7,3.1-10.2
		c2-3.5,4.6-6.2,7.7-8.1s6.3-2.9,9.6-2.9c2.3,0,4.1,0.5,5.2,1.5s1.7,2.1,1.7,3.4c0,1.9-0.7,3.6-2.2,5.3c-1.9,2.2-4.8,4-8.5,5.3
		C679.8,1358.5,676.3,1359.2,671.8,1359.7z M672,1358.1c3.3-0.4,6-1,8-1.9c2.7-1.2,4.8-2.7,6.2-4.4c1.4-1.7,2.1-3.3,2.1-4.9
		c0-0.9-0.3-1.7-0.9-2.2s-1.4-0.9-2.5-0.9c-2.3,0-4.7,1.2-7.2,3.6C675.1,1349.8,673.2,1353.3,672,1358.1z"/>
	<path class="st1" d="M709.1,1342.1l-4.4,15.2c4.1-6.2,7.3-10.3,9.6-12.3c2.2-2,4.4-2.9,6.4-2.9c1.1,0,2,0.4,2.7,1.1
		s1.1,1.7,1.1,2.9c0,1.4-0.3,3.1-1,5.3l-4.1,14c-0.5,1.6-0.7,2.6-0.7,3c0,0.3,0.1,0.6,0.3,0.8s0.4,0.3,0.6,0.3c0.2,0,0.6-0.1,1-0.4
		c1.2-0.9,2.5-2.4,3.9-4.3l1,0.6c-2.1,3-4,5.1-5.9,6.3c-1.3,0.9-2.5,1.3-3.5,1.3c-0.8,0-1.5-0.2-2-0.7s-0.7-1.2-0.7-2
		c0-1.1,0.4-2.9,1.1-5.5l3.9-13.4c0.5-1.7,0.7-3,0.7-3.9c0-0.4-0.1-0.8-0.4-1.1c-0.3-0.3-0.6-0.4-1.1-0.4c-0.6,0-1.4,0.3-2.2,0.8
		c-1.6,1-3.3,2.6-5.1,5s-3.7,5.2-5.7,8.8c-1,1.9-1.9,4-2.6,6.2l-1.7,5.5h-5l6.1-20.9c0.7-2.5,1.1-4,1.1-4.5s-0.2-0.9-0.6-1.3
		s-0.9-0.6-1.4-0.6c-0.3,0-0.7,0.1-1.4,0.2l-1.3,0.2l-0.2-1.2L709.1,1342.1z"/>
	<path class="st1" d="M753.3,1359.7c-0.1,1.1-0.2,2-0.2,2.7c0,2,0.7,3.7,2.1,5.1c1.4,1.4,3.1,2.1,5.1,2.1c1.6,0,3.1-0.3,4.6-1
		s3.7-2.1,6.6-4.4l0.7,1c-5.3,5.2-10.3,7.8-15.1,7.8c-3.2,0-5.7-1-7.3-3.1c-1.6-2-2.5-4.3-2.5-6.8c0-3.3,1-6.7,3.1-10.2
		c2-3.5,4.6-6.2,7.7-8.1c3.1-1.9,6.3-2.9,9.6-2.9c2.3,0,4.1,0.5,5.2,1.5c1.1,1,1.7,2.1,1.7,3.4c0,1.9-0.7,3.6-2.2,5.3
		c-1.9,2.2-4.8,4-8.5,5.3C761.4,1358.5,757.8,1359.2,753.3,1359.7z M753.6,1358.1c3.3-0.4,6-1,8-1.9c2.7-1.2,4.8-2.7,6.2-4.4
		c1.4-1.7,2.1-3.3,2.1-4.9c0-0.9-0.3-1.7-0.9-2.2c-0.6-0.6-1.4-0.9-2.5-0.9c-2.3,0-4.7,1.2-7.2,3.6
		C756.7,1349.8,754.8,1353.3,753.6,1358.1z"/>
	<path class="st1" d="M795.8,1324.8l-11.4,39.7c-0.6,2-0.8,3.2-0.8,3.6c0,0.3,0.1,0.6,0.3,0.8c0.2,0.2,0.5,0.3,0.8,0.3
		c0.4,0,0.9-0.2,1.4-0.6c1.2-0.9,2.4-2.3,3.6-4.2l1,1c-2.1,3-4,5.1-5.8,6.3c-1.3,0.8-2.5,1.2-3.7,1.2c-0.8,0-1.5-0.3-2.1-0.9
		s-0.8-1.2-0.8-2s0.3-2.4,1-4.9l9.1-31.3c0.7-2.6,1.1-4,1.1-4.4c0-0.6-0.2-1-0.6-1.3s-1.1-0.5-2-0.5c-0.5,0-1.3,0.1-2.3,0.2v-1.2
		L795.8,1324.8z"/>
	<path class="st1" d="M827.3,1342.1l-6.6,23.4c-0.4,1.6-0.7,2.5-0.7,2.8c0,0.4,0.1,0.6,0.3,0.9c0.2,0.2,0.4,0.3,0.7,0.3
		c0.4,0,0.8-0.2,1.2-0.5c1.3-1,2.6-2.4,3.9-4.3l1.2,0.8c-1.5,2.3-3.3,4.2-5.3,5.8c-1.5,1.2-2.9,1.7-4.3,1.7c-0.9,0-1.7-0.3-2.2-0.8
		c-0.6-0.5-0.9-1.2-0.9-2.1c0-0.8,0.3-2.2,0.8-4.1l4.4-15c0.7-2.4,1-4,1-4.6c0-0.5-0.2-0.9-0.5-1.2c-0.3-0.3-0.8-0.5-1.4-0.5
		c-0.5,0-1.5,0.1-3.1,0.4v-1.3L827.3,1342.1z M826.9,1328.9c0.9,0,1.7,0.3,2.4,1c0.6,0.6,1,1.4,1,2.3s-0.3,1.7-1,2.4
		c-0.6,0.7-1.4,1-2.3,1c-0.9,0-1.7-0.3-2.4-1s-1-1.5-1-2.4s0.3-1.7,1-2.3C825.1,1329.2,825.9,1328.9,826.9,1328.9z"/>
	<path class="st1" d="M856.9,1365c-2.3,2.8-4.7,4.8-7,6.1c-2.4,1.3-4.9,1.9-7.5,1.9c-3.1,0-5.6-0.9-7.4-2.7s-2.7-4.2-2.7-7.2
		c0-3.4,1-6.7,2.9-10s4.5-6,7.7-8c3.2-2.1,6.4-3.1,9.4-3.1c2.4,0,4.2,0.5,5.4,1.5s1.8,2.3,1.8,3.7c0,1.4-0.4,2.6-1.3,3.5
		c-0.6,0.8-1.4,1.2-2.3,1.2c-0.7,0-1.3-0.2-1.7-0.7c-0.5-0.5-0.7-1-0.7-1.7c0-0.4,0.1-0.8,0.2-1.2c0.2-0.4,0.5-0.8,1-1.3
		s0.8-0.9,1-1.1s0.2-0.5,0.2-0.7c0-0.5-0.2-0.9-0.6-1.2c-0.7-0.4-1.6-0.7-2.7-0.7c-2.2,0-4.3,0.8-6.5,2.3s-4,3.7-5.5,6.5
		c-1.8,3.4-2.7,6.9-2.7,10.3c0,2.3,0.6,4.1,1.9,5.4c1.3,1.3,3.1,2,5.3,2c1.7,0,3.4-0.4,5.1-1.3c1.7-0.9,3.6-2.4,5.6-4.6L856.9,1365z
		"/>
	<path class="st1" d="M892.4,1352.5c0,3.3-0.9,6.6-2.7,9.9s-4.2,5.9-7.4,7.8c-3.1,1.9-6.2,2.9-9.2,2.9s-5.5-1-7.5-2.9
		s-2.9-4.5-2.9-7.5c0-3.3,0.9-6.6,2.8-9.9c1.9-3.3,4.4-5.9,7.5-7.8s6.2-2.9,9.1-2.9c3,0,5.4,1,7.3,2.9
		C891.5,1346.9,892.4,1349.5,892.4,1352.5z M886.9,1350.2c0-2.1-0.5-3.7-1.5-4.8s-2.3-1.7-3.9-1.7c-3.3,0-6.3,2.3-9,7
		s-4.1,9.3-4.1,14c0,2.1,0.5,3.7,1.6,4.9c1.1,1.1,2.4,1.7,4,1.7c3.1,0,6.1-2.3,8.8-7C885.6,1359.8,886.9,1355,886.9,1350.2z"/>
	<path class="st1" d="M910.1,1342.1l-4.4,15.2c4.1-6.2,7.3-10.3,9.6-12.3c2.2-2,4.4-2.9,6.4-2.9c1.1,0,2,0.4,2.7,1.1
		s1.1,1.7,1.1,2.9c0,1.4-0.3,3.1-1,5.3l-4.1,14c-0.5,1.6-0.7,2.6-0.7,3c0,0.3,0.1,0.6,0.3,0.8s0.4,0.3,0.6,0.3c0.2,0,0.6-0.1,1-0.4
		c1.2-0.9,2.5-2.4,3.9-4.3l1,0.6c-2.1,3-4,5.1-5.9,6.3c-1.3,0.9-2.5,1.3-3.5,1.3c-0.8,0-1.5-0.2-2-0.7s-0.7-1.2-0.7-2
		c0-1.1,0.4-2.9,1.1-5.5l3.9-13.4c0.5-1.7,0.7-3,0.7-3.9c0-0.4-0.1-0.8-0.4-1.1c-0.3-0.3-0.6-0.4-1.1-0.4c-0.6,0-1.4,0.3-2.2,0.8
		c-1.6,1-3.3,2.6-5.1,5c-1.8,2.3-3.7,5.2-5.7,8.8c-1.1,1.9-1.9,4-2.6,6.2l-1.7,5.5h-5l6.1-20.9c0.7-2.5,1.1-4,1.1-4.5
		s-0.2-0.9-0.6-1.3s-0.9-0.6-1.4-0.6c-0.3,0-0.7,0.1-1.4,0.2l-1.3,0.2l-0.2-1.2L910.1,1342.1z"/>
	<path class="st1" d="M960.7,1352.5c0,3.3-0.9,6.6-2.7,9.9s-4.2,5.9-7.4,7.8c-3.1,1.9-6.2,2.9-9.2,2.9s-5.5-1-7.5-2.9
		s-2.9-4.5-2.9-7.5c0-3.3,0.9-6.6,2.8-9.9c1.9-3.3,4.4-5.9,7.5-7.8s6.2-2.9,9.1-2.9c3,0,5.4,1,7.3,2.9S960.7,1349.5,960.7,1352.5z
		 M955.2,1350.2c0-2.1-0.5-3.7-1.5-4.8c-1-1.1-2.3-1.7-3.9-1.7c-3.3,0-6.3,2.3-9,7s-4.1,9.3-4.1,14c0,2.1,0.5,3.7,1.6,4.9
		c1.1,1.1,2.4,1.7,4,1.7c3.1,0,6.1-2.3,8.8-7C953.8,1359.8,955.2,1355,955.2,1350.2z"/>
	<path class="st1" d="M403.7,1426.7l-11.5,39.4c-0.6,2.1-1,3.5-1,4.2c0,0.2,0.1,0.4,0.3,0.6s0.4,0.3,0.6,0.3c0.3,0,0.6-0.1,1-0.4
		c0.8-0.6,2-1.9,3.8-4l1.2,0.7c-1.6,2.2-3.2,4-4.9,5.4c-1.6,1.4-3.2,2.1-4.6,2.1c-0.8,0-1.4-0.3-1.9-0.8s-0.7-1.3-0.7-2.3
		c0-1.3,0.3-3,1-5.1l1.3-4.1c-3.2,5-6.1,8.5-8.8,10.4c-1.8,1.3-3.6,1.9-5.2,1.9c-1.7,0-3.2-0.7-4.5-2.2s-1.9-3.5-1.9-6.1
		c0-3.3,1.1-6.9,3.2-10.6s4.9-6.8,8.4-9.2c2.7-1.9,5.2-2.9,7.5-2.9c1.2,0,2.2,0.2,3.1,0.7s1.7,1.3,2.6,2.4l3.3-11.6
		c0.2-0.8,0.4-1.5,0.6-2c0.3-0.9,0.4-1.6,0.4-2.2c0-0.5-0.2-0.9-0.5-1.2c-0.5-0.4-1.1-0.6-1.8-0.6c-0.5,0-1.3,0.1-2.5,0.2v-1.2
		L403.7,1426.7z M391.3,1450.4c0-1.4-0.4-2.6-1.2-3.4c-0.8-0.9-1.9-1.3-3.1-1.3c-2.8,0-5.7,2.3-8.8,6.9c-3,4.6-4.5,9-4.5,13.3
		c0,1.7,0.4,3,1.1,3.8c0.7,0.9,1.6,1.3,2.6,1.3c2.3,0,5.2-2.5,8.7-7.5C389.6,1458.5,391.3,1454.1,391.3,1450.4z"/>
	<path class="st1" d="M409,1461.6c-0.1,1.1-0.2,2-0.2,2.7c0,2,0.7,3.7,2.1,5.1s3.1,2.1,5.1,2.1c1.6,0,3.1-0.3,4.6-1s3.7-2.1,6.6-4.4
		l0.7,1c-5.3,5.2-10.3,7.8-15.1,7.8c-3.2,0-5.7-1-7.3-3.1c-1.6-2-2.5-4.3-2.5-6.8c0-3.3,1-6.7,3.1-10.2c2-3.5,4.6-6.2,7.7-8.1
		s6.3-2.9,9.6-2.9c2.3,0,4.1,0.5,5.2,1.5s1.7,2.1,1.7,3.4c0,1.9-0.7,3.6-2.2,5.3c-1.9,2.2-4.8,4-8.5,5.3
		C417.1,1460.3,413.5,1461,409,1461.6z M409.3,1459.9c3.3-0.4,6-1,8-1.9c2.7-1.2,4.8-2.7,6.2-4.4c1.4-1.7,2.1-3.3,2.1-4.9
		c0-0.9-0.3-1.7-0.9-2.2c-0.6-0.6-1.4-0.9-2.5-0.9c-2.3,0-4.7,1.2-7.2,3.6C412.4,1451.6,410.5,1455.2,409.3,1459.9z"/>
	<path class="st1" d="M468.6,1426.7l-11.4,39.7c-0.6,2-0.8,3.2-0.8,3.6c0,0.3,0.1,0.6,0.3,0.8c0.2,0.2,0.5,0.3,0.8,0.3
		c0.4,0,0.9-0.2,1.4-0.6c1.2-0.9,2.4-2.3,3.6-4.2l1,1c-2.1,3-4,5.1-5.8,6.3c-1.3,0.8-2.5,1.2-3.7,1.2c-0.8,0-1.5-0.3-2.1-0.9
		s-0.8-1.2-0.8-2s0.3-2.4,1-4.9l9.1-31.3c0.7-2.6,1.1-4,1.1-4.4c0-0.6-0.2-1-0.6-1.3s-1.1-0.5-2-0.5c-0.5,0-1.3,0.1-2.3,0.2v-1.2
		L468.6,1426.7z"/>
	<path class="st1" d="M499.3,1443.9l-6.5,22.6l-0.7,3.1c-0.1,0.3-0.1,0.5-0.1,0.7c0,0.4,0.1,0.7,0.3,1c0.2,0.2,0.4,0.3,0.7,0.3
		c0.3,0,0.6-0.2,1.1-0.5c0.9-0.6,2-2,3.5-4l1.1,0.8c-1.5,2.3-3.1,4.1-4.7,5.3c-1.6,1.2-3.1,1.8-4.5,1.8c-0.9,0-1.7-0.2-2.1-0.7
		c-0.5-0.5-0.7-1.2-0.7-2.1c0-1.1,0.2-2.5,0.7-4.3l0.7-2.5c-2.9,3.8-5.6,6.5-8,8c-1.8,1.1-3.5,1.6-5.2,1.6c-1.6,0-3-0.7-4.2-2
		s-1.8-3.2-1.8-5.5c0-3.5,1.1-7.3,3.2-11.2c2.1-3.9,4.8-7.1,8.1-9.4c2.5-1.9,4.9-2.8,7.2-2.8c1.4,0,2.5,0.4,3.4,1.1s1.6,1.9,2.1,3.6
		l1.2-3.8L499.3,1443.9z M487.5,1445.6c-1.4,0-2.9,0.7-4.5,2c-2.3,1.9-4.3,4.7-6.1,8.4c-1.8,3.7-2.7,7.1-2.7,10.1
		c0,1.5,0.4,2.7,1.1,3.6c0.8,0.9,1.6,1.3,2.6,1.3c2.4,0,5-1.8,7.9-5.4c3.8-4.8,5.7-9.6,5.7-14.6c0-1.9-0.4-3.2-1.1-4.1
		C489.7,1446.1,488.7,1445.6,487.5,1445.6z"/>
	<path class="st1" d="M544.9,1466.9c-2.3,2.8-4.7,4.8-7,6.1s-4.9,1.9-7.5,1.9c-3.1,0-5.6-0.9-7.4-2.7c-1.8-1.8-2.7-4.2-2.7-7.2
		c0-3.4,1-6.7,2.9-10s4.5-6,7.7-8c3.2-2.1,6.4-3.1,9.4-3.1c2.4,0,4.2,0.5,5.4,1.5s1.8,2.3,1.8,3.7c0,1.4-0.4,2.6-1.3,3.5
		c-0.6,0.8-1.4,1.2-2.3,1.2c-0.7,0-1.3-0.2-1.7-0.7c-0.5-0.5-0.7-1-0.7-1.7c0-0.4,0.1-0.8,0.2-1.2c0.2-0.4,0.5-0.8,1-1.3
		s0.8-0.9,1-1.1c0.1-0.2,0.2-0.5,0.2-0.7c0-0.5-0.2-0.9-0.6-1.2c-0.7-0.4-1.6-0.7-2.7-0.7c-2.2,0-4.3,0.8-6.5,2.3s-4,3.7-5.5,6.5
		c-1.8,3.4-2.7,6.9-2.7,10.3c0,2.3,0.6,4.1,1.9,5.4c1.3,1.3,3.1,2,5.3,2c1.7,0,3.4-0.4,5.1-1.3c1.7-0.9,3.6-2.4,5.6-4.6
		L544.9,1466.9z"/>
	<path class="st1" d="M580.9,1443.9l-6.5,22.6l-0.7,3.1c-0.1,0.3-0.1,0.5-0.1,0.7c0,0.4,0.1,0.7,0.3,1c0.2,0.2,0.4,0.3,0.7,0.3
		s0.6-0.2,1.1-0.5c0.9-0.6,2-2,3.5-4l1.1,0.8c-1.5,2.3-3.1,4.1-4.7,5.3c-1.6,1.2-3.1,1.8-4.5,1.8c-0.9,0-1.7-0.2-2.1-0.7
		c-0.5-0.5-0.7-1.2-0.7-2.1c0-1.1,0.2-2.5,0.7-4.3l0.7-2.5c-2.9,3.8-5.6,6.5-8,8c-1.8,1.1-3.5,1.6-5.2,1.6c-1.6,0-3-0.7-4.2-2
		s-1.8-3.2-1.8-5.5c0-3.5,1.1-7.3,3.2-11.2c2.1-3.9,4.8-7.1,8.1-9.4c2.5-1.9,4.9-2.8,7.2-2.8c1.4,0,2.5,0.4,3.4,1.1s1.6,1.9,2.1,3.6
		l1.2-3.8L580.9,1443.9z M569,1445.6c-1.4,0-2.9,0.7-4.5,2c-2.3,1.9-4.3,4.7-6.1,8.4c-1.8,3.7-2.7,7.1-2.7,10.1
		c0,1.5,0.4,2.7,1.1,3.6c0.8,0.9,1.6,1.3,2.6,1.3c2.4,0,5-1.8,7.9-5.4c3.8-4.8,5.7-9.6,5.7-14.6c0-1.9-0.4-3.2-1.1-4.1
		C571.3,1446.1,570.3,1445.6,569,1445.6z"/>
	<path class="st1" d="M597.7,1443.9l-4.3,15.1c1.9-3.5,3.6-6.2,4.9-8c2.1-2.8,4.2-4.8,6.2-6c1.2-0.7,2.4-1.1,3.7-1.1
		c1.1,0,2,0.4,2.8,1.1c0.7,0.7,1.1,1.6,1.1,2.7s-0.3,2.5-0.8,4.3l-2.4,8.5c3.6-6.8,7.1-11.6,10.3-14.3c1.8-1.5,3.6-2.3,5.3-2.3
		c1,0,1.9,0.4,2.5,1.1c0.7,0.7,1,1.8,1,3.3c0,1.3-0.2,2.7-0.6,4.1l-3.6,13c-0.8,2.8-1.2,4.4-1.2,4.7s0.1,0.6,0.3,0.8
		c0.1,0.2,0.3,0.2,0.5,0.2s0.6-0.2,1.2-0.6c1.3-1,2.5-2.3,3.6-3.9l1.1,0.7c-0.6,0.9-1.5,2.1-2.9,3.7s-2.6,2.6-3.6,3.2
		s-1.9,0.8-2.8,0.8c-0.8,0-1.5-0.3-2-0.8s-0.8-1.2-0.8-1.9c0-1.1,0.5-3.2,1.4-6.5l3-10.7c0.7-2.5,1-3.9,1.1-4.1
		c0.1-0.4,0.1-0.9,0.1-1.2c0-0.6-0.1-1-0.4-1.3c-0.3-0.3-0.6-0.5-0.9-0.5c-0.9,0-1.9,0.5-2.9,1.5c-3.1,2.8-6,6.8-8.6,11.8
		c-1.8,3.4-3.4,7.7-4.9,12.9H600l5.7-20.2c0.6-2.2,0.9-3.6,0.9-4.4c0-0.6-0.1-1.1-0.4-1.3c-0.2-0.3-0.5-0.4-0.9-0.4
		c-0.7,0-1.5,0.3-2.4,0.8c-1.3,0.9-3,2.7-5.1,5.6c-2.1,2.8-3.7,5.6-4.9,8.2c-0.6,1.2-1.9,5.1-4,11.8H584l6.2-21.6l0.8-2.8
		c0.2-0.4,0.2-0.8,0.2-1c0-0.5-0.2-0.9-0.7-1.3s-1-0.6-1.7-0.6c-0.3,0-1.1,0.1-2.4,0.4l-0.3-1.2L597.7,1443.9z"/>
	<path class="st1" d="M664.4,1443.9l-6.5,22.6l-0.7,3.1c-0.1,0.3-0.1,0.5-0.1,0.7c0,0.4,0.1,0.7,0.3,1c0.2,0.2,0.4,0.3,0.7,0.3
		s0.6-0.2,1.1-0.5c0.9-0.6,2-2,3.5-4l1.1,0.8c-1.5,2.3-3.1,4.1-4.7,5.3c-1.6,1.2-3.1,1.8-4.5,1.8c-0.9,0-1.7-0.2-2.1-0.7
		c-0.5-0.5-0.7-1.2-0.7-2.1c0-1.1,0.2-2.5,0.7-4.3l0.7-2.5c-2.9,3.8-5.6,6.5-8,8c-1.8,1.1-3.5,1.6-5.2,1.6c-1.6,0-3-0.7-4.2-2
		s-1.8-3.2-1.8-5.5c0-3.5,1.1-7.3,3.2-11.2c2.1-3.9,4.8-7.1,8.1-9.4c2.5-1.9,4.9-2.8,7.2-2.8c1.4,0,2.5,0.4,3.4,1.1s1.6,1.9,2.1,3.6
		l1.2-3.8L664.4,1443.9z M652.5,1445.6c-1.4,0-2.9,0.7-4.5,2c-2.3,1.9-4.3,4.7-6.1,8.4c-1.8,3.7-2.7,7.1-2.7,10.1
		c0,1.5,0.4,2.7,1.1,3.6c0.8,0.9,1.6,1.3,2.6,1.3c2.4,0,5-1.8,7.9-5.4c3.8-4.8,5.7-9.6,5.7-14.6c0-1.9-0.4-3.2-1.1-4.1
		C654.8,1446.1,653.8,1445.6,652.5,1445.6z"/>
	<path class="st1" d="M670,1445.8l11.5-1.9l-4.8,16.2c3.9-6.7,7.4-11.3,10.6-14c1.8-1.5,3.3-2.3,4.4-2.3c0.7,0,1.3,0.2,1.7,0.7
		c0.4,0.4,0.6,1.1,0.6,1.9c0,1.5-0.4,2.9-1.1,4.2c-0.5,1-1.3,1.5-2.3,1.5c-0.5,0-0.9-0.2-1.3-0.5c-0.4-0.3-0.6-0.8-0.7-1.5
		c0-0.4-0.1-0.7-0.3-0.8c-0.2-0.2-0.4-0.2-0.6-0.2c-0.4,0-0.7,0.1-1.1,0.2c-0.6,0.3-1.5,1.2-2.7,2.6c-1.9,2.2-3.9,5-6,8.5
		c-0.9,1.5-1.7,3.1-2.4,5c-0.9,2.5-1.4,4.1-1.6,4.6l-1.1,4.2h-5.1l6.2-20.7c0.7-2.4,1-4.1,1-5.1c0-0.4-0.2-0.7-0.5-1
		c-0.4-0.4-1-0.5-1.7-0.5c-0.5,0-1.3,0.1-2.6,0.3L670,1445.8z"/>
	<path class="st1" d="M725.1,1443.9l-6.5,22.6l-0.7,3.1c-0.1,0.3-0.1,0.5-0.1,0.7c0,0.4,0.1,0.7,0.3,1c0.2,0.2,0.4,0.3,0.7,0.3
		s0.6-0.2,1.1-0.5c0.9-0.6,2-2,3.5-4l1.1,0.8c-1.5,2.3-3.1,4.1-4.7,5.3c-1.6,1.2-3.1,1.8-4.5,1.8c-0.9,0-1.7-0.2-2.1-0.7
		c-0.5-0.5-0.7-1.2-0.7-2.1c0-1.1,0.2-2.5,0.7-4.3l0.7-2.5c-2.9,3.8-5.6,6.5-8,8c-1.8,1.1-3.5,1.6-5.2,1.6c-1.6,0-3-0.7-4.2-2
		s-1.8-3.2-1.8-5.5c0-3.5,1.1-7.3,3.2-11.2c2.1-3.9,4.8-7.1,8.1-9.4c2.5-1.9,4.9-2.8,7.2-2.8c1.4,0,2.5,0.4,3.4,1.1s1.6,1.9,2.1,3.6
		l1.2-3.8L725.1,1443.9z M713.2,1445.6c-1.4,0-2.9,0.7-4.5,2c-2.3,1.9-4.3,4.7-6.1,8.4c-1.8,3.7-2.7,7.1-2.7,10.1
		c0,1.5,0.4,2.7,1.1,3.6c0.8,0.9,1.6,1.3,2.6,1.3c2.4,0,5-1.8,7.9-5.4c3.8-4.8,5.7-9.6,5.7-14.6c0-1.9-0.4-3.2-1.1-4.1
		C715.5,1446.1,714.5,1445.6,713.2,1445.6z"/>
	<path class="st1" d="M764.5,1444.7l-0.6,2.2h-4.8l-3.7,14.6c-1.6,6.4-3.3,11.4-4.9,14.9c-2.3,4.9-4.9,8.4-7.5,10.2
		c-2,1.5-4.1,2.2-6.1,2.2c-1.4,0-2.5-0.4-3.4-1.2c-0.7-0.6-1-1.3-1-2.2c0-0.7,0.3-1.3,0.8-1.9c0.6-0.5,1.2-0.8,2.1-0.8
		c0.6,0,1.1,0.2,1.5,0.6s0.6,0.8,0.6,1.3s-0.2,1-0.7,1.4c-0.4,0.3-0.5,0.5-0.5,0.7s0.1,0.3,0.2,0.5c0.2,0.2,0.5,0.2,0.9,0.2
		c1,0,2-0.3,3-0.9c1.1-0.6,2-1.5,2.8-2.7s1.6-2.9,2.4-5.1c0.3-0.9,1.1-4,2.5-9.2l5.8-22.6H748l0.5-2.2c1.9,0,3.1-0.1,3.9-0.4
		c0.7-0.3,1.4-0.8,2-1.5s1.4-2.1,2.4-4.1c1.3-2.7,2.6-4.7,3.8-6.2c1.6-2,3.4-3.5,5.2-4.5s3.5-1.5,5.1-1.5c1.7,0,3,0.4,4.1,1.3
		c1,0.9,1.5,1.8,1.5,2.8c0,0.8-0.3,1.5-0.8,2s-1.2,0.8-2,0.8c-0.7,0-1.3-0.2-1.7-0.6s-0.7-0.9-0.7-1.4c0-0.4,0.1-0.8,0.4-1.3
		c0.3-0.5,0.4-0.9,0.4-1c0-0.3-0.1-0.5-0.3-0.7c-0.3-0.2-0.7-0.3-1.2-0.3c-1.4,0-2.7,0.4-3.8,1.3c-1.5,1.2-2.8,3-4,5.6
		c-0.6,1.3-1.7,4.6-3.3,9.8h5V1444.7z"/>
	<path class="st1" d="M794.8,1454.3c0,3.3-0.9,6.6-2.7,9.9s-4.2,5.9-7.4,7.8c-3.1,1.9-6.2,2.9-9.2,2.9s-5.5-1-7.5-2.9
		c-1.9-1.9-2.9-4.5-2.9-7.5c0-3.3,0.9-6.6,2.8-9.9c1.9-3.3,4.4-5.9,7.5-7.8c3.2-1.9,6.2-2.9,9.1-2.9c3,0,5.4,1,7.3,2.9
		S794.8,1451.3,794.8,1454.3z M789.3,1452.1c0-2.1-0.5-3.7-1.5-4.8c-1-1.1-2.3-1.7-3.9-1.7c-3.3,0-6.3,2.3-9,7s-4.1,9.3-4.1,14
		c0,2.1,0.5,3.7,1.6,4.9c1.1,1.1,2.4,1.7,4,1.7c3.1,0,6.1-2.3,8.8-7C787.9,1461.6,789.3,1456.9,789.3,1452.1z"/>
	<path class="st1" d="M815.1,1435.7l-2.6,9.1h5.3l-0.6,2.1H812l-5.8,19.6c-0.6,2.1-0.9,3.5-0.9,4.1c0,0.4,0.1,0.7,0.2,0.9
		c0.2,0.2,0.4,0.3,0.6,0.3c0.6,0,1.3-0.4,2.2-1.2c0.6-0.4,1.8-1.8,3.6-4.1l1.1,0.9c-2,3-4,5.1-5.8,6.3c-1.2,0.8-2.5,1.2-3.8,1.2
		c-1,0-1.8-0.3-2.4-0.9s-0.9-1.4-0.9-2.4c0-1.2,0.3-3,1-5.5l5.6-19.3h-5.1l0.3-1.3c2.5-0.7,4.5-1.7,6.1-3s3.4-3.6,5.4-6.9h1.7
		V1435.7z"/>
	<path class="st1" d="M847.9,1454.3c0,3.3-0.9,6.6-2.7,9.9s-4.2,5.9-7.4,7.8c-3.1,1.9-6.2,2.9-9.2,2.9s-5.5-1-7.5-2.9
		s-2.9-4.5-2.9-7.5c0-3.3,0.9-6.6,2.8-9.9c1.9-3.3,4.4-5.9,7.5-7.8s6.2-2.9,9.1-2.9c3,0,5.4,1,7.3,2.9S847.9,1451.3,847.9,1454.3z
		 M842.4,1452.1c0-2.1-0.5-3.7-1.5-4.8c-1-1.1-2.3-1.7-3.9-1.7c-3.3,0-6.3,2.3-9,7s-4.1,9.3-4.1,14c0,2.1,0.5,3.7,1.6,4.9
		c1.1,1.1,2.4,1.7,4,1.7c3.1,0,6.1-2.3,8.8-7C841,1461.6,842.4,1456.9,842.4,1452.1z"/>
	<path class="st1" d="M875.3,1443.9l-2,10.3H872c-0.1-3-0.7-5.2-1.9-6.5s-2.6-2-4.3-2c-1.4,0-2.4,0.4-3.3,1.1s-1.2,1.7-1.2,2.7
		c0,0.7,0.2,1.4,0.5,2.1s1,1.6,2.1,2.8c2.9,3.2,4.7,5.6,5.6,7.1c0.8,1.6,1.3,3.1,1.3,4.5c0,2.3-1,4.4-2.9,6.2
		c-1.9,1.8-4.3,2.7-7.3,2.7c-1.6,0-3.5-0.4-5.6-1.1c-0.7-0.3-1.3-0.4-1.7-0.4c-1,0-1.8,0.5-2.3,1.5h-1.2l2-10.8h1.2
		c0.1,3.4,0.8,5.8,2.1,7.2c1.3,1.4,3,2.1,5.2,2.1c1.7,0,3-0.5,4-1.4s1.5-2.1,1.5-3.5c0-0.9-0.2-1.7-0.5-2.5
		c-0.6-1.3-1.9-3.2-3.9-5.5c-2-2.4-3.3-4.1-3.8-5.3c-0.6-1.2-0.8-2.4-0.8-3.5c0-2.2,0.8-4,2.4-5.5c1.6-1.5,3.6-2.2,6-2.2
		c0.7,0,1.4,0.1,1.9,0.2c0.3,0.1,1,0.3,2.2,0.8c1.1,0.4,1.9,0.6,2.3,0.6c0.9,0,1.7-0.5,2.4-1.6L875.3,1443.9L875.3,1443.9z"/>
</g>
<g>
	<g>
		<g>
			<g>
				<path class="st2" d="M628.6,1781.6c-3.6-0.8-7.6,0.7-10,4.1c-2.5-3.4-6.4-4.9-10-4.1c-4,0.9-6.7,4.4-6.7,8.8
					c-0.2,12.5,16.4,22.8,16.5,22.8s0.1,0,0.1,0c0.1,0,0.1,0,0.1,0c0.1-0.1,16.8-10.3,16.5-22.8
					C635.3,1786,632.6,1782.5,628.6,1781.6z"/>
			</g>
		</g>
	</g>
	<g>
		<g>
			<path class="st1" d="M576.9,1952.7v0.9c-2.5-1.2-4.6-2.7-6.2-4.4c-2.4-2.4-4.3-5.2-5.5-8.5c-1.2-3.4-1.9-6.6-1.9-10.1
				c0-5.1,1.2-9.8,3.8-14.1c2.5-4.3,5.8-7.2,9.8-9v1.1c-2,1.1-3.6,2.7-4.8,4.6s-2.4,4.4-2.8,7.4c-0.7,3-0.9,6-0.9,9.3
				c0,3.6,0.3,6.7,0.8,9.6c0.4,2.4,0.9,4,1.6,5.5c0.4,1.5,1.5,2.7,2.5,3.9C573.9,1950.3,575.3,1951.5,576.9,1952.7z"/>
			<path class="st1" d="M599.4,1934.2c-0.4,3-1.7,5.4-3.6,6.7c-1.7,1.6-3.6,2.5-5.8,2.5c-2.7,0-4.7-1.1-6.7-3.3
				c-1.9-2.2-2.8-5.1-2.8-8.8c0-3.6,1.1-6.4,3.1-8.7c2-2.2,4.7-3.3,7.8-3.3c2.2,0,4,0.4,5.5,1.7c1.5,1.2,2.2,2.5,2.2,3.6
				c0,0.7-0.1,1.1-0.4,1.6c-0.4,0.4-0.9,0.4-1.6,0.4c-0.9,0-1.6-0.3-2.2-0.9c-0.3-0.4-0.4-0.9-0.4-1.9c-0.1-0.9-0.4-1.7-0.9-2.2
				c-0.4-0.6-1.5-0.7-2.4-0.7c-1.6,0-3,0.4-3.9,1.7c-1.5,1.6-2,3.6-2,6.4c0,2.7,0.7,5.1,1.9,7.1c1.5,2,3.1,3.1,5.4,3.1
				c1.6,0,3-0.4,4.4-1.6c0.9-0.8,1.7-2.2,2.7-4L599.4,1934.2z"/>
			<path class="st1" d="M611.1,1907.8v29.9c0,1.5,0.1,2.4,0.3,2.8c0.1,0.4,0.4,0.8,0.9,1.1s1.2,0.4,2.4,0.4v0.8h-11v-0.8
				c1.1,0,1.7-0.1,2.2-0.3c0.4-0.3,0.7-0.4,0.8-1.1s0.3-1.6,0.3-2.8v-20.5c0-2.7,0-4-0.1-4.6c-0.1-0.4-0.3-0.9-0.4-1.2
				c-0.3-0.3-0.4-0.3-0.9-0.3s-0.9,0.1-1.6,0.4l-0.4-0.8l6.7-2.7h1.2L611.1,1907.8L611.1,1907.8z"/>
			<path class="st1" d="M625.7,1919.6v18.2c0,1.5,0.1,2.4,0.3,2.8c0.1,0.4,0.4,0.8,0.9,1.1s1.1,0.4,2.2,0.4v0.8h-11v-0.8
				c1.1,0,1.7-0.1,2.2-0.3c0.4-0.3,0.7-0.4,0.8-1.1c0.3-0.4,0.3-1.6,0.3-2.8v-8.8c0-2.5-0.1-3.9-0.3-4.7c-0.1-0.4-0.3-0.9-0.4-1.1
				c-0.3-0.1-0.4-0.3-0.9-0.3s-0.9,0.1-1.6,0.4l-0.4-0.8l6.7-2.7h1.2V1919.6L625.7,1919.6z M623.7,1907.8c0.7,0,1.2,0.3,1.7,0.7
				c0.4,0.4,0.7,1.1,0.7,1.7c0,0.7-0.3,1.2-0.7,1.7c-0.4,0.4-1.1,0.7-1.7,0.7c-0.7,0-1.2-0.3-1.7-0.7c-0.4-0.4-0.7-1.1-0.7-1.7
				c0-0.7,0.3-1.2,0.7-1.7C622.2,1908,623,1907.8,623.7,1907.8z"/>
			<path class="st1" d="M651.7,1934.2c-0.4,3-1.7,5.4-3.6,6.7c-1.7,1.6-3.6,2.5-5.8,2.5c-2.7,0-4.7-1.1-6.7-3.3
				c-1.9-2.2-2.8-5.1-2.8-8.8c0-3.6,1.1-6.4,3.1-8.7c2-2.2,4.7-3.3,7.8-3.3c2.2,0,4,0.4,5.5,1.7c1.5,1.2,2.2,2.5,2.2,3.6
				c0,0.7-0.1,1.1-0.4,1.6c-0.4,0.4-0.9,0.4-1.6,0.4c-0.9,0-1.6-0.3-2.2-0.9c-0.3-0.4-0.4-0.9-0.4-1.9c-0.1-0.9-0.4-1.7-0.9-2.2
				c-0.4-0.6-1.5-0.7-2.4-0.7c-1.6,0-3,0.4-3.9,1.7c-1.5,1.6-2,3.6-2,6.4c0,2.7,0.7,5.1,1.9,7.1c1.5,2,3.1,3.1,5.4,3.1
				c1.6,0,3-0.4,4.4-1.6c0.9-0.8,1.7-2.2,2.7-4L651.7,1934.2z"/>
			<path class="st1" d="M654,1908.7v-1.1c2.5,1.2,4.6,2.7,6.3,4.4c2.4,2.4,4,5.2,5.5,8.5c1.2,3.3,1.9,6.6,1.9,10.1
				c0,5.1-1.2,9.8-3.6,14.1c-2.5,4.3-5.8,7.2-9.8,9v-0.9c2-1.1,3.6-2.7,4.8-4.6c1.5-1.9,2.4-4.4,2.8-7.4c0.7-3,0.9-6.2,0.9-9.3
				c0-3.6-0.3-6.7-0.8-9.6c-0.4-2.4-0.9-4-1.6-5.5c-0.4-1.5-1.5-2.7-2.5-3.9C656.9,1911.2,655.7,1909.9,654,1908.7z"/>
		</g>
	</g>
	<a xlink:href="https://photos.app.goo.gl/WxYQXgEzB88k46Lq9"  pointer-events="all" target='_blank'>
		<rect x="504.5" y="1683.5" class="st3" width="228.3" height="283.5"/>
		<path class="st1" d="M582.2,1749.9c0-2-1-3.1-3.1-3c-1.4,0.1-2.7,0.1-4.1,0c-4.7-0.3-5.8,1.1-4.3,5.9c0.4,0.1,0.8,0.2,1.2,0.2
			c2.4,0,4.9,0,7.3,0.1C581.2,1753.1,582.2,1751.9,582.2,1749.9z"/>
		<path class="st1" d="M646.1,1748.7c2.5,6.1,6.9,8.1,13.4,7.7c5.6-0.4,11.2-0.5,16.8,0.1c6.2,0.7,9.5,4.6,9.6,10.7
			c0.1,21.2,0.1,42.3-0.1,63.5c0,6.1-3.5,9.8-9.5,10.3c-6.2,0.6-12.5,0.6-18.7,0.6c-12.6,0.1-25.2,0-37.8,0v-0.1
			c-16.8,0-33.7,0.1-50.5-0.1c-3.9-0.1-8-0.9-11.8-2c-4.1-1.1-5.8-4.4-5.8-8.5c-0.1-7.6-0.1-15.2-0.1-22.9c0-13.1,0-26.2,0.1-39.4
			c0-8.2,4.3-12.5,12.5-12.7c6.3-0.1,12.7-0.1,19,0c2.9,0.1,4.8-0.9,5.9-3.7c2.4-6.1,7-8.7,13.4-8.6c12,0.1,23.9,0.1,35.9,0.1
			C642,1743.9,644.6,1745.1,646.1,1748.7z M646.4,1795.3c-0.2-14.8-12.7-27-27.3-26.8c-15.9,0.2-27.9,12.2-27.7,27.6
			c0.2,15.2,12.8,27.3,28.1,27.1C634.5,1823,646.6,1810.4,646.4,1795.3z M649.6,1774.5c0,3.2,3,6.2,6,6.2s6.1-3.2,6.1-6.2
			c0-3.2-2.8-5.9-6.2-5.9C652.1,1768.5,649.6,1771,649.6,1774.5z"/>
		<g>
			<path class="st1" d="M618.8,1819.5c-0.1,0-0.1,0-0.2,0c-13.1-0.1-23.8-10.8-23.7-23.9s10.8-23.7,24-23.7l0,0
				c6.4,0,12.4,2.5,16.9,7c4.5,4.6,7,10.6,6.9,17.1l0,0C642.6,1809.3,632.1,1819.5,618.8,1819.5z M618.9,1774.3
				c-11.8,0-21.5,9.6-21.6,21.3c-0.1,11.8,9.5,21.4,21.3,21.5c0.1,0,0.1,0,0.2,0c12,0,21.4-9.2,21.5-21.1c0.1-5.8-2.1-11.3-6.2-15.4
				C630.1,1776.6,624.7,1774.3,618.9,1774.3L618.9,1774.3z"/>
		</g>
		<g>
			<g>
				<path class="st1" d="M618.8,1894.2c-54.5,0-98.8-44.3-98.8-98.8s44.3-98.8,98.8-98.8s98.8,44.3,98.8,98.8
					S673.3,1894.2,618.8,1894.2z M618.8,1706.7c-48.9,0-88.7,39.8-88.7,88.7s39.8,88.7,88.7,88.7s88.7-39.8,88.7-88.7
					S667.7,1706.7,618.8,1706.7z"/>
			</g>
		</g>
	</a>
</g>
<g>
	<g>
		<path class="st1" d="M648.4,446.8c0.4,0.3,0.8,0.5,1,0.7c-0.9,0.9-1.5,1.4-1.9,1.5c-4.4,1.1-9.4,1.8-15.1,2.1l-8.5,0.2l-8.5-0.2
			l-18.1-0.8c-9.2-0.6-17.5-0.9-25.1-0.9c-3.9,0-8,0.3-12.4,0.9c-14.8,2-25.6,9.4-32.3,22.1c-4.7,8.6-8.1,16.5-10.4,23.8l-10.8,34.3
			c-2.4,8.6-5.3,20.1-8.9,34.7l-11.5,44.5l-4.3,16.4l-3.4,12.8c-0.1,0.5-0.4,1.8-0.8,4c0.5,0.5,1,0.8,1.5,0.8s0.9-0.1,1.2-0.2
			c0.3-0.1,0.6-0.3,0.8-0.4l13.8-2.8c2.5-0.5,5.7-1.2,9.4-2c3.8-0.8,8.2-1.7,13.2-2.5c4.5-1,9.1-1.6,13.8-1.7
			c2.3-0.1,4.2,0.4,5.8,1.6c1.6,1.2,2.7,3,3.3,5.4v0.6c0,0.5-0.2,0.9-0.6,1.3c-0.3,0.3-0.6,0.3-1,0.3c-0.4-0.1-0.7-0.1-0.8-0.1
			l-1.3-0.9c-0.9-1-2.3-1.4-4.3-1.1c-3.4,0.5-5.8,0.8-7.2,0.9c-1.1,0.1-2.6,0.3-4.4,0.6c-1.8,0.3-3.9,0.6-6.3,1.1
			c-7.8,1.5-13.6,2.7-17.5,3.6l-17.7,3.6l-2.1,0.6c-1.5,0.4-2.6,1.4-3.2,3.2l-5.7,19.2l-1.7,6c-2.3,7.9-3.6,12.6-4,14
			c-0.3,0.8-1.1,3.7-2.5,8.8s-2.4,10.1-3,15c-0.1,0.5-0.3,1.8-0.4,4c-0.1,2.1-0.5,4-1.2,5.6s-1.8,2.4-3.3,2.4
			c-0.3,0-0.9-0.1-1.9-0.4c-1.9-1.6-2.8-3.6-2.8-6V720c0-1.5,0.1-2.6,0.2-3.4c0.6-4.9,1.5-9.7,2.7-14.4s2.8-10.6,4.8-17.6
			c1.6-5.8,4.2-14.5,7.7-26c0.1-0.4,0.2-1,0.2-1.9c-0.5-0.9-1.4-1.1-2.8-0.6l-11.7,3.6l-1.5,0.4c-0.6,0-1.1-0.3-1.5-0.8
			s-0.8-1.4-1.3-2.8c1.9-1.4,4-2.6,6.3-3.6s4.7-1.9,7.1-2.6c2.6-0.8,5.3-1.7,7.9-2.8c1-1.5,1.8-3.4,2.3-5.8c0.5-2.3,0.9-4.1,1.3-5.2
			c4.8-16.2,10.2-36.7,16.4-61.5c2-8.5,6.2-24.1,12.6-46.7c6.4-22.6,11.4-38.3,15.1-47.2c2.4-6.2,5.2-11.7,8.3-16.6
			c7-11.1,17.2-17.7,30.6-20c3.8-0.8,8.5-1.1,14.1-1.1c4,0,7,0.1,9.1,0.2l44.5,2.8c4,0.4,8,0.6,12.1,0.6c3.5,0,7.1-0.2,10.8-0.6
			c1.1,0,2.7,0.1,4.7,0.4C647.6,446.3,648,446.5,648.4,446.8z"/>
		<path class="st1" d="M629.4,642c-0.1,0.3-0.2,0.5-0.3,0.7c-0.3,0.3-0.8,0.4-1.7,0.4c-0.4,0-0.7-0.1-0.9-0.4l-1.3-1.1
			c-3.3-3.3-7.2-5.1-11.7-5.5c-1.3-0.1-3.6-0.3-7-0.6s-6.5-0.4-9.4-0.4c0.1,0.4,0.2,0.9,0.2,1.5s0.1,1.1,0.2,1.5
			c1.6,4.1,2.5,8.4,2.5,12.6c0,6.5-2.1,13.6-6.2,21.3c-4.7,8.4-9.7,14.6-15.1,18.7c-3.3,2.4-6.2,4.2-8.9,5.5c-3,1.4-5.8,2.1-8.5,2.1
			c-4.5,0-8.5-1.5-12-4.5s-5.6-7-6.5-11.9c-0.2-1.1-0.4-3-0.4-5.5c0-8,2.1-17.2,6.4-27.3c2.6-6.3,5.1-11.5,7.4-15.6
			c2.3-4.1,5-7.8,8.1-11.2c2.8-3,5.2-5.2,7.4-6.4c1-0.6,1.8-0.9,2.5-0.9c0.9,0,1.6,0.4,2.1,1.3c0.8,1.1,1.8,2,3.1,2.7
			s2.2,1.2,2.7,1.6c1,0.6,4.2,2.9,9.4,6.8l14.5,1.3c3.4,0.3,6.2,0.7,8.5,1.3c7.2,2.1,12.1,5.8,14.9,11.1
			C629.4,641.4,629.4,641.7,629.4,642z M591.9,646.4c0-1.9-0.2-3.8-0.6-5.7c0-0.3-0.1-1-0.4-2.4c-0.3-1.3-0.9-2.5-1.9-3.7
			c-3.3,0-5.7-0.1-7.4-0.2c-3.3-0.3-6.1-0.8-8.4-1.5c-2.3-0.8-4.4-2.1-6.3-4.1c-1.4,1.6-2.1,2.6-2.3,2.8c-3,5-5.7,10.3-7.9,15.8
			c-3.3,7.8-5.5,16.1-6.6,24.9c-0.3,2.5-0.4,4.5-0.4,5.8c0,2.9,0.4,5.7,1.3,8.3c1.3,3.9,3.3,5.8,6,5.8c1,0,2.3-0.3,4-0.9
			c1.3-0.5,2.1-0.9,2.6-1.3c0.9-0.6,2.2-1.6,4.1-2.8c1.8-1.3,3.4-2.5,4.6-3.6c6-5.7,11-12.4,14.9-20.2
			C590.4,657.8,591.9,652.1,591.9,646.4z M580.4,627l-0.2-0.2L580,627H580.4z"/>
		<path class="st1" d="M762.5,537.8c0.6,0.8,1.2,2.3,1.7,4.5c-1.5,0-2.6-0.1-3.2-0.2c-13.1-2.6-25.7-4-37.7-4.1
			c-19.4-0.3-33.9-0.4-43.6-0.4l-7.2,0.2c-0.3,0.6-0.6,1.2-0.9,1.8s-0.7,1.2-0.9,1.8c-3.3,7.8-7.9,19.6-14,35.5l-1.3,3.6
			c-8.6,22.3-15.2,41.8-20,58.7c-5.3,18.4-9.1,32.2-11.5,41.5c-2.1,8-4.2,16.8-6.2,26.2c-0.3,1.1-0.5,2.8-0.8,5.1
			c-0.1,0.6-0.2,1.6-0.2,3c0,2,0.4,3.6,1.3,4.7c-0.9,1.4-2,2.1-3.4,2.1c-0.6,0-1.7-0.3-3.2-0.8c-1.9-0.6-3-2.1-3.2-4.3l-0.2-2.1
			c0-0.8,0.1-1.8,0.4-3c0.4-1.8,1-5.1,1.9-10c1-5.4,1.9-9.6,2.6-12.6l1.7-7.2c4-15.7,7.4-28.3,10-37.7c6.7-23,13.6-43.3,20.7-60.9
			l6-15.1c3.1-8.4,6.5-16.9,10.2-25.5c0.3-0.6,0.7-2,1.3-4.1c-0.9-0.5-2.2-0.8-4-0.8c-4.9,0-12.3,0.1-22.1,0.4
			c-10.1,0.3-17.5,0.4-22.4,0.4c-0.9,0-2.2-0.1-4-0.4c-1.4-0.1-2.3-1.1-2.8-3c2.3-0.9,5.3-1.5,9.2-2c3.9-0.4,10.5-0.8,19.8-1.2
			l29.2-1.1c1.1-0.9,2-2.1,2.6-3.6s1-2.5,1.1-2.8c3.8-9.3,8.9-19.1,15.3-29.4c1.3-2,2.3-3.4,3-4.1c0.4-0.4,0.9-0.6,1.7-0.6
			c1.4,0,1.8,0.8,1.3,2.5l-0.9,2.6l-7.4,17.4l-4.5,10.2l-2.5,6.4c0.4,1,1.1,1.5,2.1,1.5c4.4,0,7.7-0.1,10-0.2c1.6,0,3.7,0,6.1-0.1
			c2.5-0.1,5.3,0,8.6,0.1l9.2,0.2c13.6,0.3,23.7,0.8,30.4,1.7c4.9,0.6,10.5,1.8,16.8,3.6C760.6,536.4,761.8,537,762.5,537.8z"/>
		<path class="st1" d="M731.4,642c-0.1,0.3-0.2,0.5-0.3,0.7c-0.3,0.3-0.8,0.4-1.7,0.4c-0.4,0-0.7-0.1-0.9-0.4l-1.3-1.1
			c-3.3-3.3-7.2-5.1-11.7-5.5c-1.3-0.1-3.6-0.3-7-0.6s-6.5-0.4-9.4-0.4c0.1,0.4,0.2,0.9,0.2,1.5s0.1,1.1,0.2,1.5
			c1.6,4.1,2.5,8.4,2.5,12.6c0,6.5-2.1,13.6-6.2,21.3c-4.7,8.4-9.7,14.6-15.1,18.7c-3.3,2.4-6.2,4.2-8.9,5.5c-3,1.4-5.8,2.1-8.5,2.1
			c-4.5,0-8.5-1.5-12-4.5s-5.6-7-6.5-11.9c-0.2-1.1-0.4-3-0.4-5.5c0-8,2.1-17.2,6.4-27.3c2.6-6.3,5.1-11.5,7.4-15.6
			c2.3-4.1,5-7.8,8.1-11.2c2.8-3,5.2-5.2,7.4-6.4c1-0.6,1.8-0.9,2.5-0.9c0.9,0,1.6,0.4,2.1,1.3c0.8,1.1,1.8,2,3.1,2.7
			s2.2,1.2,2.7,1.6c1,0.6,4.2,2.9,9.4,6.8l14.5,1.3c3.4,0.3,6.2,0.7,8.5,1.3c7.2,2.1,12.1,5.8,14.9,11.1
			C731.5,641.4,731.5,641.7,731.4,642z M694,646.4c0-1.9-0.2-3.8-0.6-5.7c0-0.3-0.1-1-0.4-2.4c-0.3-1.3-0.9-2.5-1.9-3.7
			c-3.3,0-5.7-0.1-7.4-0.2c-3.3-0.3-6.1-0.8-8.4-1.5c-2.3-0.8-4.4-2.1-6.3-4.1c-1.4,1.6-2.1,2.6-2.3,2.8c-3,5-5.7,10.3-7.9,15.8
			c-3.3,7.8-5.5,16.1-6.6,24.9c-0.3,2.5-0.4,4.5-0.4,5.8c0,2.9,0.4,5.7,1.3,8.3c1.3,3.9,3.3,5.8,6,5.8c1,0,2.3-0.3,4-0.9
			c1.3-0.5,2.1-0.9,2.6-1.3c0.9-0.6,2.2-1.6,4.1-2.8c1.8-1.3,3.4-2.5,4.6-3.6c6-5.7,11-12.4,14.9-20.2
			C692.5,657.8,694,652.1,694,646.4z M682.5,627l-0.2-0.2l-0.2,0.2H682.5z"/>
		<path class="st1" d="M802.3,643.8c-1.1,0.3-1.8,0.3-1.9,0.2c-1.5-0.8-3-1.1-4.5-1.1c-1.4,0-2.7,0.2-4,0.6c-7.8,2-13.5,3.9-17,5.6
			c-3.5,1.7-5.8,3.5-6.9,5.5c-1.1,2-2,4.8-2.7,8.6c-0.9,4.1-1.9,7.9-2.9,11.2c-1.1,3.3-3,7.3-5.8,11.8
			c-9.3,15.1-19.2,27.9-29.8,38.5c-4.9,4.9-9.5,8.6-13.8,11.1c-1.8,1-4.5,2.3-8.3,3.8c-0.9,0.4-1.8,0.6-2.6,0.6
			c-0.9,0-2.1-0.3-3.6-0.8c-2.5-0.9-4.3-1.9-5.3-3s-1.5-2.8-1.5-4.9c0-4.5,1.2-9.4,3.6-14.5c4.7-9.8,11.1-19.1,19.2-27.9
			c9.9-10.8,23.1-20.9,39.4-30.2l4.3-2.5c0-1.8-0.1-3-0.2-3.8c-0.4-2.6-1.8-4.3-4.2-5.1c-4.4-1.5-8.6-2.3-12.4-2.5l-9.1-0.4
			c-3.8-0.3-6.9-1.7-9.2-4.3c-1-1.3-1.5-2.3-1.5-3.2c0-1,0.4-2,1.3-3c1.8-2.3,3.5-4,5.1-5.3c8.5-6.8,16.3-11.9,23.4-15.5
			c0.4-0.1,1.4-0.6,3-1.5s3.3-1.3,5.1-1.3c2.1,0,3.5,0.8,4.1,2.5c-10.3,6.4-17.8,11.4-22.4,14.9c-4.6,3.5-8.1,7-10.7,10.4
			c0.3,0.8,1,1.1,2.3,1.1c1.4,0,5.2,0.3,11.5,0.9c5,0.5,8.7,1.1,10.9,1.8c2.3,0.7,4.8,2.4,7.5,5.2l1.3,0.9l3.4-1.3
			c4.3-1.9,9.2-3.8,14.9-5.7c2.1-0.8,5.3-1.5,9.6-2.3c1.5-0.3,2.9-0.1,4.2,0.4s2.9,1.3,4.6,2.5C801.4,641.8,801.7,642.5,802.3,643.8
			z M754.5,670.2c0.8-1.6,1.3-3.5,1.7-5.7c-3.4,1.4-8.7,4.8-16,10.2s-12.7,9.9-16.2,13.4c-6.8,6.8-12.4,13.6-16.8,20.4
			c-2.9,4.5-5.5,10.4-7.7,17.7c-0.2,1-0.4,2.2-0.4,3.6c0,1.4,0,2.3,0,2.6c0,0.4,0.2,0.9,0.6,1.5c0.4,0.6,0.7,1.2,0.9,1.7
			c0.8-0.5,1.7-1,2.7-1.5c1.1-0.5,1.9-0.9,2.5-1.3c1.8-1.3,4.3-3.3,7.5-6c4.5-3.9,9.9-9.8,16.2-17.7c5.3-6.7,9.8-12.8,13.7-18.5
			c3.8-5.7,7.1-11.5,9.9-17.5C753.3,672.8,753.8,671.8,754.5,670.2z"/>
	</g>
</g>
<path class="st1" d="M708.1,831.3c-0.9-17.9-17.9-28.6-49.7-29.1c-18-0.3-36.5,5.3-53.2,11.8c-0.8-0.7-1.8-1.5-2.8-2.1
	c-19.2-12.8-36.9-12.6-44.6-12.6c-7.8,0-48.1,5.5-47.6,21.3s32.5,20.8,61.3,10.1c11.1-4.1,22.3-8.8,33.4-13
	c2.8,3.7,4.1,7.7,4.1,11.4c0,9.4-9.4,19.5-24.3,19.2c-14.9-0.2-14-12.8-14-12.8c-1.6,14.4,13,16.7,24.9,13
	c10.5-3.2,22.6-19.3,12-31.9c17-6.2,33.9-11.1,50.5-11.1c28.4,0,47.1,7.8,47.1,25.6c0,17.9-24.3,24.7-39.6,24.7s-22.7-4.8-26.8-11.4
	c-4.1-6.7,1.4-19.9,23.8-19.7c22.4,0.2,18.5,14.7,18.5,14.7c4.8-11-8.2-17.2-18.8-17.2c-10.5,0-27.9,6.4-27.7,17.8
	c0.2,11.5,15.6,18.5,31.3,18.1C682,857.6,709,849.2,708.1,831.3z M570.8,828.3c-22.7,8.9-42.8,6.4-52.2,1.4
	c-9.4-5-8.2-15.6,6.6-21.7c14.9-6.2,35.7-8.5,55.4-4.1c10.2,2.2,17.4,6.4,22,11.2C590.8,819.7,579.9,824.7,570.8,828.3z"/>
<path class="st1" d="M733.3,1570.1c-1.6-2.7-3.5-4.8-5.9-6.3c-2.3-1.6-5-2.5-7.9-3.1c-3-0.6-5.8-0.9-8.5-0.9
	c-5.7,0-11.2,0.7-16.4,2.3c-5.2,1.5-10.3,3.5-15.4,6.1c-3.5-2.7-7.5-4.8-11.8-6.2c-4.2-1.5-8.4-2.2-12.5-2.2c-1.7,0-3.3,0-4.9,0.1
	c-0.4,0.1-0.8,0.1-1.2,0.1c-3.9,0.3-7.7,0.9-11.5,1.8c-4.1,1-8.2,2.3-12.1,3.7c-1.5,0.5-2.9,1.1-4.2,1.6c-1.6-1.1-3.2-2.1-5-3
	c-2.3-1.2-4.8-2.1-7.5-2.8c-4.8-1.4-9.7-2-14.8-2h-0.6c-4,0-8.2,0.7-12.4,1.9c-4.5,1.3-8.5,3.2-12.2,6.1c-3.5,2.7-6.6,6.3-8.9,10.7
	c-2.4,4.4-3.5,9.7-3.5,15.9v2.8c0,0.9,0.1,1.8,0.3,2.6c-5.4,1.6-10.9,2.3-16.5,2.3c-8.3,0-15.1-1.9-20.2-5.8
	c-5-3.8-7.6-8.4-7.6-13.8c0-2.8,0.8-5.3,2.2-7.8c1.5-2.5,3.2-4.5,5.3-6.2c2.2-1.7,4.4-3,7-4c2.5-1,4.9-1.6,7.1-1.6
	c4.5,0,8.4,1.4,11.4,3.9c3,2.6,4.5,5.6,4.5,9c0,2.7-0.8,5.3-2.4,7.8c-1.7,2.5-4.3,4.2-7.9,5.1c4-0.5,6.9-2.1,8.6-4.7
	c1.8-2.6,2.6-5.2,2.6-8c0-3.6-1.4-7.2-4.2-10.3c-2.9-3.2-7.6-4.8-13.9-4.8c-6.1,0-11.2,2-15.3,5.8c-4.1,3.9-6.2,8.7-6.2,14.6
	c0,7.1,3,12.8,9.1,17s14.9,6.3,26.5,6.3c1.9,0,3.7-0.1,5.7-0.3c2-0.1,3.8-0.4,5.7-0.7c1.9,4.7,5.2,8.7,10.1,12
	c4.9,3.2,10.9,4.9,18.2,4.9c2.4,0,4.6-0.1,7-0.4c5.9-0.7,11.9-2.2,17.8-4.6c1.6,1.1,3.3,2.2,5.1,3.1c2.5,1.2,5.2,2.2,8.1,2.9
	c0.4,0.1,0.7,0.2,1.1,0.3c4.8,1.2,9.8,1.8,15,1.8c0.7,0,1.3,0,1.9-0.1c0.6-0.1,1.3-0.2,2.2-0.2c-2.9,5.1-6.5,9.1-10.9,12.2
	c-2.7,2-5.5,3.2-8.1,3.9c-1.6,0.4-3.1,0.6-4.7,0.6c-1.5,0-3-0.2-4.5-0.6c-1.2-0.3-2.4-0.8-3.5-1.3c-2.9-1.3-4.3-3.6-4.3-7.2
	c0-1.9,0.5-3.5,1.4-5c2.1-2.9,6.6-2.6,9.1-0.3c-0.9-1.7-2.9-3-4.8-3c-2.4,0-4.3,0.7-5.8,2.2c-1.6,1.4-2.4,3.4-2.4,6.2
	c0,3.3,1.5,5.8,4.3,7.5c1.8,0.9,3.7,1.6,6.1,2c1.6,0.3,3.2,0.4,5,0.4c1.4,0,2.8-0.2,4.2-0.6c2.8-0.7,5.9-2.1,9.2-4.1
	c5-3,9.2-7.4,12.6-13c0.6-0.1,1.2-0.2,1.8-0.3c0.4-0.1,0.8-0.1,1.2-0.2c3.9-0.8,8-2,12-3.7c5.1-2.1,9.7-4.7,14-7.7
	c4.2-3.1,7.6-6.7,10.2-10.6c2.5-4,3.9-8.2,3.9-12.8c0-3.4-0.8-6.5-2.2-9.2c-1.5-2.9-3.3-5.3-5.7-7.5c5-2.8,10-5.2,14.8-7
	c4.7-1.8,9.4-2.6,14-2.6s8.2,0.6,11.2,1.7c2.8,1.1,5.1,2.5,6.9,4.4c1.8,1.9,3,3.9,3.7,6.3c0.6,2.3,1,4.8,1,7.4c0,2-0.7,4.1-1.9,6.3
	c-1.3,2.2-3,4.2-5,6s-4.2,3.3-6.7,4.4c-2.5,1.2-4.9,1.8-7.4,1.8c-5.2,0-9.2-1.4-12.2-3.9c-3-2.7-4.4-5.8-4.4-9.5
	c0-3.5,0.9-6.4,2.9-8.5c2-2.3,4.2-3.4,6.7-3.8c-2.4,0.4-4.3,0.2-6.3,1.8c-3,2.3-5,6.7-5,10.4c0,5,1.8,8.8,5.5,11.5
	c3.7,2.6,8.4,3.9,13.9,3.9c3.6,0,6.9-0.6,9.7-1.8c2.8-1.2,5-2.7,6.8-4.7c1.8-1.9,3.1-4.1,4-6.6c1-2.5,1.4-4.8,1.4-7.2
	C735.6,1576.2,734.9,1572.8,733.3,1570.1z M625.2,1568.9c4.4-2,9-3.6,13.7-4.8c3.1-0.9,6.5-1.5,9.8-1.8c0.4,0,0.8-0.1,1.2-0.1
	c1.9-0.1,3.7-0.2,5.7-0.2c3.3,0,6.9,0.7,10.5,2.2c3.5,1.4,6.9,3.3,9.9,5.7c-4.7,2.6-9.3,5.5-13.9,8.4c-4.1,2.7-8.1,5.5-12.3,8.4
	c-0.4,0.3-0.8,0.6-1.2,0.8c-0.1,0.1-0.1,0.2-0.2,0.2c-2.4-3.3-5.3-6-8.7-7.8c-3.4-1.9-7.1-3-11-3.5c-0.9-1.9-2.2-3.6-3.6-5.4
	c-0.5-0.5-0.9-1-1.4-1.5C624.2,1569.4,624.7,1569.2,625.2,1568.9z M558.2,1595.9c-0.1-1.1-0.1-2-0.1-2.8c0-4,0.8-8,2.4-11.9
	c1.6-3.8,3.9-7.2,7.1-10.3c3.1-3,6.9-5.5,11.4-7.4c4.2-1.8,8.9-2.7,14.1-2.8h0.9c4.9,0,9.5,0.6,14,1.9c2.9,0.9,5.7,2.1,8,3.4
	c1.1,0.6,2.1,1.3,3,2.1c-1.1,0.4-2.1,0.9-3,1.4c-4.3,2-8.5,4.1-12.7,6.4c-3.4,2-6.9,3.9-10.2,5.9c-1.6,0.9-3.1,1.9-4.7,2.7
	c-4.8,2.8-9.8,5.6-14.7,8c-5,2.6-10.1,4.6-15.3,6.1C558.3,1597.7,558.3,1596.8,558.2,1595.9z M593,1616.8c-2.5,0.4-5.1,0.5-7.8,0.5
	c-6.4,0-11.8-1.2-16.2-3.7c-4.5-2.5-7.7-6.3-9.5-11.1c5.4-1.4,10.7-3.3,15.9-5.9c5.2-2.5,10.4-5.3,15.4-8.3c0.7-0.5,1.5-0.9,2.2-1.4
	c4.3-2.6,8.7-5.3,13.2-8.1c3.2-2,6.4-3.8,9.7-5.5c2-1.1,4-2.1,6.1-3.1c0.8,0.8,1.6,1.7,2.4,2.7c0.3,0.3,0.5,0.6,0.8,1
	c0.5,0.7,0.9,1.4,1.4,2.2h-1.4c-2.6,0.1-5.1,0.5-7.8,1.4c-0.5,0.2-1,0.4-1.5,0.6c-2.3,0.9-4.4,2.1-6.5,3.6c-2.5,1.8-4.4,4.1-5.9,6.8
	c-1.6,2.7-2.3,5.9-2.3,9.6c0,5.7,2.4,10.5,7.1,14.4C603.1,1614.6,598,1616.1,593,1616.8z M610.6,1611.8c-4.6-4-6.9-8.5-6.9-13.5
	c0-5.2,2-9.9,5.7-14.3c1.8-2,3.9-3.5,6.5-4.5c2.6-1.2,5.7-1.8,9.2-1.9c0.4,0,0.9-0.1,1.4-0.1h0.5c1,2.3,1.5,4.8,1.5,7.4
	c0,3.7-1.1,6.3-3.3,7.5c0,0.1-0.1,0.1-0.1,0.1c-2.2,1.3-4.4,1.8-6.7,1.5c1.7,1,3.2,1.4,4.7,1.1c0.7-0.1,1.4-0.3,2-0.5
	c0.8-0.4,1.5-0.8,2.2-1.4c1.2-1,2.1-2.3,2.7-3.6c0.6-1.5,0.9-3,0.9-4.4c0-2.5-0.5-5-1.6-7.4c3.4,0.3,6.6,1.6,9.5,3.6
	c3,2.2,5.3,4.9,7.2,8.3c-5.9,4.4-11.8,8.4-17.6,12.3c-1.1,0.7-2.2,1.4-3.2,2.1c-3,1.9-6.2,3.6-9.2,5.1
	C614.2,1610.1,612.4,1611,610.6,1611.8z M645.2,1620.3c-0.8,0.2-1.7,0.3-2.6,0.4c-0.9,0.1-1.8,0.1-2.7,0.1c-5.3,0-10.2-0.6-14.7-1.8
	c-0.1,0-0.2-0.1-0.3-0.1c-3.3-0.9-6.3-2.1-8.9-3.4c-1.1-0.5-2.1-1.1-3-1.8c1-0.4,2.1-0.9,3-1.3c3-1.5,6.2-3,9.2-4.7
	c1.8-1,3.5-2,5.3-3c5.8-3.5,11.5-7.3,17-11.1c0.6,1.2,1,2.5,1.3,3.9c0.4,1.7,0.5,3.5,0.5,5.6c0,2.2-0.1,4.3-0.5,6.4
	C648.1,1613.3,646.9,1616.9,645.2,1620.3z M684.3,1579.2c1.3,2.6,1.9,5.1,1.9,7.9c0,4-1.1,7.9-3.4,11.5c-2.3,3.6-5.2,6.9-8.8,9.7
	c-3.6,2.9-7.7,5.3-12.2,7.3c-4,1.8-7.9,3.1-11.8,4c-0.4,0.1-0.8,0.1-1.2,0.2c-0.1,0-0.3,0.1-0.5,0.1c0.2-0.3,0.4-0.7,0.5-1
	c0.5-0.8,0.8-1.7,1.2-2.6c1.8-4.4,2.7-9.2,2.7-14.4c0-3.8-0.7-7.3-2.1-10.3c4.9-3.3,9.7-6.8,14.5-10.1c4.8-3.3,9.5-6.5,14-9.3
	C681.2,1574.3,683,1576.6,684.3,1579.2z"/>
</svg>
