<?xml version="1.0" encoding="utf-8"?>
<!-- Generator: Adobe Illustrator 25.4.1, SVG Export Plug-In . SVG Version: 6.00 Build 0)  -->
<!DOCTYPE svg PUBLIC "-//W3C//DTD SVG 1.1//EN" "http://www.w3.org/Graphics/SVG/1.1/DTD/svg11.dtd" [
	<!ENTITY ns_extend "http://ns.adobe.com/Extensibility/1.0/">
	<!ENTITY ns_ai "http://ns.adobe.com/AdobeIllustrator/10.0/">
	<!ENTITY ns_graphs "http://ns.adobe.com/Graphs/1.0/">
	<!ENTITY ns_vars "http://ns.adobe.com/Variables/1.0/">
	<!ENTITY ns_imrep "http://ns.adobe.com/ImageReplacement/1.0/">
	<!ENTITY ns_sfw "http://ns.adobe.com/SaveForWeb/1.0/">
	<!ENTITY ns_custom "http://ns.adobe.com/GenericCustomNamespace/1.0/">
	<!ENTITY ns_adobe_xpath "http://ns.adobe.com/XPath/1.0/">
]>
<svg version="1.1" id="Capa_1" xmlns:x="&ns_extend;" xmlns:i="&ns_ai;" xmlns:graph="&ns_graphs;"
	 xmlns="http://www.w3.org/2000/svg" xmlns:xlink="http://www.w3.org/1999/xlink" x="0px" y="0px" viewBox="0 0 1242 2208"
	 style="enable-background:new 0 0 1242 2208;" xml:space="preserve">
<style type="text/css">
	.st0{fill:#4D4D4D;}
	.st1{fill:none;}
	.st2{enable-background:new    ;}
</style>
<metadata>
	<sfw  xmlns="&ns_sfw;">
		<slices></slices>
		<sliceSourceBounds  bottomLeftOrigin="true" height="1175.9" width="2590.1" x="82.8" y="508.8"></sliceSourceBounds>
	</sfw>
</metadata>
<g id="fondo">
</g>
<g id="Capa_2_00000171000038569402273490000012704646517353608069_">
</g>
<g>
	<g>
		<path class="st0" d="M338.3,1393.7c3.7-20.9,25.8-31.1,43.9-33.3c1.6-0.3,3.4-0.4,5.3-0.4c10.3-12.6,23.9-16.6,30.2-17.7
			c15.9-2.5,24.3,6.7,15.6,12.9c-6.2,4.4-25.7,4.9-40.4,5.7c-8.2,10.2-11.5,20.8-10.2,27.8c1.9,9.4,8.2,12,23.8,5.7
			c12-4.8,23.4-21.7,27.3-28.6c0.5-1.2,0.9-1.9,0.9-1.9c1.8-1,3.3,0.4,2.8,6.1c0,0-9.4,25.4-19.3,46.3c5.2,0.8,10.3,1.8,18.5,2.5
			c16.2,1.4,24.7-1.2,34.4-4.9c-9.6,4.4-19.7,8.9-51.6,3.5c-0.5-0.1-1.2-0.3-1.9-0.4c-4.3,8.9-8.7,17-12.6,21.8
			c-8.8,11-19.7,13.7-27.9,13.1c-14-1-14.5-13.6-10.3-20.4c5.9-10.3,21.5-16,35.9-16.4c4-0.1,7.3,0,10.3,0.4
			c1.5-3.4,2.8-6.9,4.3-10.6c5-13.1,9.6-23.3,12.6-30.1c-5.7,8.8-15.1,18.4-26.4,22c-26.6,8.8-29.1-15.1-20.4-30.3
			c1-1.9,2.3-3.7,3.7-5.4C360.8,1363.4,344.4,1375,338.3,1393.7z M375.8,1424.4c-13.7,8.8-12.8,25.2,0.5,26.4
			c17.3,1.6,26.8-13.2,35.9-34.2C395.8,1415.2,384.6,1419,375.8,1424.4z M397.9,1355.3c-1.5,1.4-2.8,2.9-4.1,4.4
			c12.7-0.8,28-1.4,33.8-3.3c13.5-4.3,6.1-12.6-1.9-12.8C414.4,1343,404.9,1348.3,397.9,1355.3z"/>
		<path class="st0" d="M447.3,1380.4c4.4-0.1,8,2.6,8,9.7c0,2-0.4,5-1.2,7.8c1.4-0.5,2.9-1.5,4.4-2.8c5.8-4.8,7.3-9.7,10.3-9.3
			c-3.3,2.4-5.9,8.3-11.6,11.6c-1,0.6-2.3,1-3.5,1.6c-2.1,6.4-6.3,13.3-11.2,13.1c-6.9-0.3-7.5-9.4-4.3-15.7c0.4-0.8,0.8-1.6,1-2.3
			C435.2,1386.5,441.8,1380.5,447.3,1380.4z M442.6,1397.7c-1,1.8-1.8,3.5-2.3,5.3c-1.2,4.9,1,10.2,5.4,6.3c2-1.9,4.4-5.7,6.1-10.2
			C448.7,1400.1,445.3,1399.7,442.6,1397.7z M445.8,1386c2.8-0.4,3,2.1,2.8,3.7c0,0.1-2.9,3.1-5.2,7.2c2.3,1.8,5.5,2.5,9.1,1.6
			c2-5.8,2.8-12.6-0.8-15.2c-4.6-4-10.3,0.5-11.1,4c-0.4,1.9-0.4,3.7,0,5.3C442.9,1388.2,444.9,1386,445.8,1386z"/>
		<path class="st0" d="M468.8,1380.4c4.4-0.1,8,2.6,8,9.7c0,2-0.4,5-1.2,7.8c1.4-0.5,2.9-1.5,4.4-2.8c5.8-4.8,7.3-9.7,10.3-9.3
			c-3.3,2.4-5.9,8.3-11.6,11.6c-1,0.6-2.3,1-3.5,1.6c-2.1,6.4-6.3,13.3-11.2,13.1c-6.9-0.3-7.5-9.4-4.3-15.7c0.4-0.8,0.8-1.6,1-2.3
			C456.8,1386.5,463.4,1380.5,468.8,1380.4z M464.1,1397.7c-1,1.8-1.8,3.5-2.3,5.3c-1.2,4.9,1,10.2,5.4,6.3c2-1.9,4.4-5.7,6.1-10.2
			C470.2,1400.1,466.8,1399.7,464.1,1397.7z M467.3,1386c2.8-0.4,3,2.1,2.8,3.7c0,0.1-2.9,3.1-5.2,7.2c2.3,1.8,5.5,2.5,9.1,1.6
			c2-5.8,2.8-12.6-0.8-15.2c-4.6-4-10.3,0.5-11.1,4c-0.4,1.9-0.4,3.7,0,5.3C464.4,1388.2,466.5,1386,467.3,1386z"/>
		<path class="st0" d="M491.8,1403.5c3.8-1,6.9-0.9,9.3,0.3c9.6-5.9,15-10.2,19.3-18.1c-0.9,6.3-8.6,12.7-18.1,18.7
			c4.3,2.9,5.2,9.3,4.3,14.2c-1.9,9.4-7.5,17.3-17.7,23.8c-7.8,4.9-18.1,5.9-22,3.3c-10.3-7.2,4.4-23.1,15.5-30.2
			c6.8-4.4,12.6-8,17.1-10.8c-1.8-0.6-3.8-0.9-6.7-0.4c-4.6,1-7.9,2.5-7.9,2.5S487.5,1404.8,491.8,1403.5z M482.9,1416.7
			c-23.8,15.7-23.4,35-4,26.2c21.9-10.3,25-25.7,24-32.3c-0.4-1.8-1-3.7-2.8-4.9C494.9,1409.3,488.8,1412.8,482.9,1416.7z
			 M501.3,1384.5c0.4,0.4,1,0.8,1.4,1.6c1.8,5-4.3,12.8-11.2,16.5c-6.3,3.5-10.7,2-11.6-3.4c-1.6-8.8,8.8-15.7,13.5-17
			c2-0.5,3.7-0.6,5-0.6C501.3,1382,502.1,1383.6,501.3,1384.5z M487.7,1390.8c-5,5.4-6.2,12.1-2.1,11.8c4.3-0.4,8.7-3.4,12.7-8.3
			c3.1-4,3-8,2-9.7C498.4,1384.8,492.8,1385.9,487.7,1390.8z"/>
		<path class="st0" d="M514.5,1413.5c-0.4,2.9,0.1,5,2.8,1.5c7.8-10.8,17.1-25.7,25.2-29.1c-5.4,5-12.6,13.1-18.1,21.3
			c-7.8,11.3-8.8,12.1-11,11c-4.1-2-2-13.8,0.4-21.8c3-9.7,10.8-28.8,19.5-41.5c4.3-6.1,8-11,11.8-13.5c3-2,6.7-2.9,8.8,0.1
			c4.4,6.4-20.1,34.5-27.4,41.1c-1.4,1.2-2.3,2.1-3.1,2.8C516.6,1400,515.1,1408.2,514.5,1413.5z M527.2,1376c-1,2.5-2.3,4.9-3.3,7
			c3.8-4,11-11.5,15.1-16.8c9.7-12.2,12.6-18.4,13.2-21c1.8-6.9-5.3,0.4-7.3,2.5C541.8,1351.2,535.3,1359.1,527.2,1376z"/>
		<path class="st0" d="M537.4,1395.9c-1.6,7.8,2.6,10.6,6.9,8.8c7.3-2.9,14.2-18.9,19.4-18.7c-5,4.6-5.4,6.1-8.9,10.6
			c-4.5,5.7-9.4,11-15,10.3c-7.5-0.8-8.3-10.2-6.3-14.5c1.9-4.5,5.8-9.7,12.2-10.2c5-0.4,7.2,4.5,2.1,8.8c-3,2.4-7.3,3.7-10.3,4.3
			C537.5,1395.2,537.4,1395.6,537.4,1395.9z M541.6,1392.8c8-2.8,9.6-8.8,5.2-7.8c0,0-6.4,0.8-8.9,8.8
			C539,1393.7,540.3,1393.4,541.6,1392.8z"/>
		<path class="st0" d="M602,1390.2c0.1,2-2.3,6.8-2.8,7.8c0.4,0,1-1.4,3.3-4.1c2.8-3.4,5.7-5.7,7.9-5.4c3.1,1,3.4,3.7,2,6.7
			c-1.2,3-2.8,8.8,0.4,5c2.3-2.9,12.6-16.1,16.5-18.1c3.4-1.6,7.3,0.9,5,7.3c-0.6,2.4-3,6.4-6.8,12.6c-5.7,8.6-5.7,17.1,0.4,12.1
			c9.7-7.8,13.6-28.4,22.8-28c-7.5,3.4-10.3,13.1-13.6,18.5c-6.1,10.6-11.2,14-15,11.3c-3.7-2.6-4.6-7-0.3-14.2
			c6.1-9.9,11.1-21.8,6.4-18.1c-6.3,5.4-13.7,16-15.7,18.1c-1.8,1.8-3.5,1.8-4.9,0.4c-1-1-1.8-3.7,0.6-9.7c2.1-5.3-0.6-2.8-3-0.6
			c-4.3,3.8-9.8,14.8-11.1,16.8c-2.1,3.4-5.2-0.9-4-4.4c0.3-0.5,7.3-16.1,6.3-18C598.4,1385.4,601.9,1385.3,602,1390.2z"/>
		<path class="st0" d="M662.5,1409.3c5.7-8.3,12.7-22.6,17.5-23.6c-5,5.7-6.2,8.3-9.1,12.8c-5.4,8.8-8.4,14.8-11.6,14.2
			c-3.5-0.5-6.8-5.2-3.1-15.2c0.1-0.4,0.4-0.8,0.4-1c-4.1,5-8,9.7-11.8,5.4c-3.8-4.4-0.1-12.2,3.4-15.5c2.6-2.4,7.5-4.4,12.7-3.1
			c5.7,1.5,1.4,1.5,1.4,1.5s-7.3-1.6-12.7,6.8c-3.8,6.2-1.8,12,1.4,8.9c1.8-1.6,5.3-6.2,8.3-9.9c1.5-2.5,3-5.2,4.5-5.2
			c1.5-0.1,5,0.4,1.9,4.5C656.6,1401.6,656.5,1418.1,662.5,1409.3z"/>
		<path class="st0" d="M639,1448.3c-0.9-13.1,23.1-34.5,26.9-38.1c1.5-1.4,2.8-2.5,3.7-3c1.8-5.7,2.9-9.9,3.4-11.1
			c3.1-9.3,5-10.4,6.3-10.1c1.8,0.8,1.6,2.8,0.5,5.7c3.1-3.8,7.3-7.8,12.9-7.8c6.8-0.3,8.8,6.3,6.4,14.1c5.2-1.8,10.3-4.8,15-12
			c-2.5,7.9-8.7,10.8-15.3,13.1c-0.8,2.3-2,4.9-3.7,7.2c-7.3,10.3-16.5,8.9-17.7,5.7c-0.9-2.9,0.9-5.4,4-7.5c4.3-2.8,8.7-3.7,13.1-5
			c2.3-6.1,2.9-13.5-1.5-13.8c-5.7-0.5-10.7,4.5-14.2,9.3c-1.6,4.1-4,9.6-5.7,15.7c-3.4,11.6-8.3,25.7-14.2,34.9
			C651,1457.6,639.7,1457.4,639,1448.3z M663.2,1415.1c-8.3,7.8-13.8,14.1-18.7,22.5c-5.3,8.9-4.4,16.4,0.4,15.9
			c10.3-0.9,19.4-27.7,24.4-44.3C668,1410.3,666,1412.2,663.2,1415.1z M682.5,1405.2c-3.5,2.3-4.4,5.2-3.5,6.4
			c2,3.4,8.4-0.6,12.7-6.8c0.9-1,1.8-2.6,2.3-4.3C690.1,1402,686.1,1403,682.5,1405.2z"/>
		<path class="st0" d="M716.5,1386.8c-0.4,1.4-0.4,3.4,0.9,5.7c1.8,3,3.7,5.7,4.4,8c9.9-4.9,12.4-7.8,17.3-14.2
			c-2.1,6.7-9.1,11.6-17.1,15.3c1.5,4.6,1.2,8.4-1.8,13.1c-5,8-15.7,10.6-19.3,6.3c-4.8-5.8,2.8-12.6,13.7-17.3
			c1.6-0.6,2.9-1.4,4.3-1.9c-0.4-1.9-1-3.7-2.3-5.7c-4.8-7.5-4-8.3-3.8-10.1c0.3-3.1,4-6.3,4-6.3c2.1-1.6,2.8,1.6,2.3,3.4
			C717.9,1383.8,716.9,1385.3,716.5,1386.8z M717.8,1402.9c-9.3,4-17.3,9.3-16.5,14.2c0.4,3.4,3.4,4.5,7.2,2.4
			c3.7-2,11.8-8.7,11-17.3C718.8,1402.8,718.2,1402.8,717.8,1402.9z"/>
		<path class="st0" d="M768.5,1413.5c-0.4,2.9,0.1,5,2.8,1.5c7.8-10.8,17.1-25.7,25.2-29.1c-5.4,5-12.6,13.1-18.1,21.3
			c-7.8,11.3-8.8,12.1-11,11c-4.1-2-2-13.8,0.4-21.8c3-9.7,10.8-28.8,19.5-41.5c4.3-6.1,8-11,11.8-13.5c3-2,6.7-2.9,8.8,0.1
			c4.4,6.4-20.1,34.5-27.4,41.1c-1.4,1.2-2.3,2.1-3.1,2.8C770.9,1400,769.2,1408.2,768.5,1413.5z M781.6,1376c-1,2.5-2.3,4.9-3.3,7
			c3.8-4,11-11.5,15.1-16.8c9.7-12.2,12.6-18.4,13.2-21c1.8-6.9-5.3,0.4-7.3,2.5C795.9,1351.2,789.7,1359.1,781.6,1376z"/>
		<path class="st0" d="M803,1397.5c-4.5,5.9-8.2,9.8-12,8.7c-6.1-1.9-0.9-17.3,3.4-20.3c1.9-0.9,3,0.1,2.8,1.6
			c-0.4,2.4-3,6.1-4.3,10.4c-0.8,3.3-1.8,7,0.6,6.7c3-0.4,8.8-8.9,12.7-13.8c3.3-4.1,4.3-5.2,6.3-5.2
			C809.5,1387.4,807,1392.1,803,1397.5z M798.1,1381.9c-1-0.4-1.2-1-0.4-2.8c0.9-1.9,0.4-2.3,1.9-3.1c1-0.5,4.6-0.3,3.4,2.3
			C801.8,1380.9,799.4,1382.1,798.1,1381.9z"/>
		<path class="st0" d="M815.9,1389.2c0.1,3.3-0.9,4.9-2.8,8.7c4.3-5.8,13.7-15.5,20.4-17.3c3.7-0.9,5.4,2.4,5,5
			c-0.4,3.8-11.5,18.9-12.9,24.4c-1.9,8.3,3.1,5.5,4.8,4.4c4.8-3.5,13.7-19.5,17.7-24.3c5-5.7,6.8-3.8,6.8-3.8
			c-7.9,1.9-17.3,27.2-26.1,30.6c-2.6,1-6.4,0.4-7.8-3.7c-2.3-8.3,12.8-27.7,13.3-30.4c0.4-3.3-9.1,2.6-15.7,10.3
			c-4.5,5.2-6.9,9.3-8.9,12.4c-0.4,0.6-2.8,0.6-3.7-0.9c-0.4-0.6-1.6-2.3,2-9.8c4.1-8.3,2.3-8,2.3-8
			C811.4,1385.2,815.9,1386,815.9,1389.2z"/>
		<path class="st0" d="M890.9,1343.9c-0.9,11.8-26.4,36-34.9,42.7c-2,3.7-2.3,5.7-3.8,9.8c1.5-2.8,10.6-13.8,18-12.6
			c6.8,1.4,4.3,8.9-1,12c-3.7,2-10.4,4.5-10.7,5.3c7.5,3.3,1.8,12.2,5,15.7c5.7,3.7,15-24.9,26.4-31.1c-1.2,1-2.3,3-4.1,5
			c-8.3,9.3-12.6,20.8-17.3,25.7c-2.3,2.3-5,2-6.2,1.2c-7.8-4.4-0.5-14.7-5.7-15.7c-1-0.3-2-2-0.8-3.4c1.9-2,8.6-4,13.1-7.3
			c7.5-5.3,1.6-8.9-5.7-3.8c-9.4,6.4-11,12.6-14.1,21.8c-4.3,0-4.1-3.5-3.4-7.3c0.3-0.9,9.7-29.6,18.7-43.3
			c8.8-14.2,16.6-18.4,18.5-19C887.6,1338.2,891.3,1340.6,890.9,1343.9z M884.5,1343.4c-12,7.8-22.8,28.3-27.9,40.9
			c12.8-10.6,31.5-31.8,32.6-39C889.9,1342.2,887.5,1341.6,884.5,1343.4z"/>
	</g>
</g>
<g>
	<g>
		<g>
			<path class="st0" d="M581.5,1688.8v0.7c-1.8-0.9-3.4-2-4.5-3.2c-1.7-1.7-3.1-3.8-4.1-6.2c-0.9-2.5-1.4-4.9-1.4-7.5
				c0-3.7,0.9-7.1,2.8-10.3c1.8-3.1,4.3-5.3,7.1-6.6v0.8c-1.5,0.8-2.7,2-3.6,3.4c-0.9,1.4-1.7,3.2-2.1,5.4c-0.4,2.2-0.7,4.4-0.7,6.8
				c0,2.7,0.2,5,0.5,7c0.3,1.7,0.7,3,1.1,4.1c0.3,1,1,2,1.8,2.9C579.3,1687,580.4,1688,581.5,1688.8z"/>
			<path class="st0" d="M598.1,1675.3c-0.3,2.2-1.2,4-2.7,5c-1.2,1.1-2.7,1.8-4.3,1.8c-2,0-3.5-0.8-5-2.5c-1.4-1.6-2.1-3.7-2.1-6.4
				c0-2.7,0.8-4.8,2.3-6.3c1.5-1.6,3.5-2.4,5.6-2.4c1.6,0,3,0.3,4.1,1.2c1,0.9,1.6,1.8,1.6,2.7c0,0.4-0.1,0.8-0.3,1.1
				c-0.3,0.3-0.7,0.3-1.1,0.3c-0.7,0-1.1-0.2-1.6-0.7c-0.2-0.3-0.3-0.7-0.3-1.4c-0.1-0.7-0.3-1.2-0.7-1.6c-0.3-0.3-1-0.4-1.7-0.4
				c-1.1,0-2.2,0.3-2.9,1.2c-1,1.1-1.5,2.7-1.5,4.8c0,2,0.4,3.7,1.4,5.2s2.3,2.3,4,2.3c1.1,0,2.2-0.3,3.2-1.1c0.7-0.5,1.2-1.6,2-3
				V1675.3z"/>
			<path class="st0" d="M606.6,1655.8v21.9c0,1,0.1,1.7,0.2,2.1c0.1,0.3,0.3,0.5,0.7,0.8c0.3,0.2,0.9,0.3,1.7,0.3v0.5h-8.1v-0.5
				c0.8,0,1.2-0.1,1.6-0.2c0.3-0.2,0.4-0.3,0.5-0.8c0.1-0.4,0.2-1.1,0.2-2.1v-15c0-2,0-3-0.1-3.4c-0.1-0.3-0.2-0.7-0.3-0.9
				c-0.2-0.2-0.3-0.2-0.7-0.2s-0.7,0.1-1.1,0.3l-0.3-0.5l5-2h0.9L606.6,1655.8L606.6,1655.8z"/>
			<path class="st0" d="M617.4,1664.6v13.4c0,1,0.1,1.7,0.2,2.1c0.1,0.3,0.3,0.5,0.7,0.8s0.8,0.3,1.6,0.3v0.5h-8.1v-0.5
				c0.8,0,1.2-0.1,1.6-0.2c0.3-0.2,0.4-0.3,0.5-0.8c0.2-0.3,0.2-1.1,0.2-2.1v-6.4c0-1.8-0.1-2.9-0.2-3.5c-0.1-0.3-0.2-0.7-0.3-0.8
				c-0.2-0.1-0.3-0.2-0.7-0.2c-0.3,0-0.7,0.1-1.1,0.3l-0.3-0.5l5-2h0.9L617.4,1664.6L617.4,1664.6z M615.8,1655.8
				c0.4,0,0.9,0.2,1.2,0.4c0.3,0.3,0.4,0.8,0.4,1.2c0,0.4-0.2,0.9-0.4,1.2c-0.3,0.3-0.8,0.4-1.2,0.4s-0.9-0.2-1.2-0.4
				c-0.3-0.3-0.4-0.8-0.4-1.2c0-0.4,0.2-0.9,0.4-1.2C614.8,1656,615.4,1655.8,615.8,1655.8z"/>
			<path class="st0" d="M636.4,1675.3c-0.3,2.2-1.2,4-2.7,5c-1.2,1.1-2.7,1.8-4.3,1.8c-2,0-3.5-0.8-5-2.5c-1.4-1.6-2.1-3.7-2.1-6.4
				c0-2.7,0.8-4.8,2.3-6.3c1.5-1.6,3.5-2.4,5.6-2.4c1.6,0,3,0.3,4.1,1.2c1,0.9,1.6,1.8,1.6,2.7c0,0.4-0.1,0.8-0.3,1.1
				c-0.3,0.3-0.7,0.3-1.1,0.3c-0.7,0-1.1-0.2-1.6-0.7c-0.2-0.3-0.3-0.7-0.3-1.4c-0.1-0.7-0.3-1.2-0.7-1.6c-0.3-0.3-1-0.4-1.7-0.4
				c-1.1,0-2.2,0.3-2.9,1.2c-1,1.1-1.5,2.7-1.5,4.8c0,2,0.4,3.7,1.4,5.2s2.3,2.3,4,2.3c1.1,0,2.2-0.3,3.2-1.1c0.7-0.5,1.2-1.6,2-3
				V1675.3z"/>
			<path class="st0" d="M637.9,1656.6v-0.8c1.8,0.9,3.4,2,4.7,3.2c1.7,1.7,3,3.8,4.1,6.2c0.9,2.4,1.4,4.9,1.4,7.5
				c0,3.7-0.9,7.1-2.7,10.3c-1.8,3.1-4.3,5.3-7.1,6.6v-0.7c1.5-0.8,2.7-2,3.6-3.4c1-1.4,1.7-3.2,2.1-5.4s0.7-4.5,0.7-6.8
				c0-2.7-0.2-5-0.5-7c-0.3-1.7-0.7-3-1.1-4.1c-0.3-1-1-2-1.8-2.9C640.1,1658.3,639.2,1657.4,637.9,1656.6z"/>
		</g>
	</g>
	<a xlink:href="https://goo.gl/maps/ocRmkScPXSRdDo196"  pointer-events="all" target='_blank'>
		<rect x="530.9" y="1491.1" class="st1" width="167.5" height="208.1"/>
		<path class="st0" d="M685,1525.9c-10.5-23.8-42.3-29.8-60.8-11.5c-0.8,0.7-1.5,1-2.6,1c-18.5,0-37,0-55.4,0
			c-10.1,0-17.9,7.8-17.9,17.9c0,31,0,61.8,0,92.7c0,1.1,0.1,2.6,0.3,3.7c2,8.7,8.8,14.1,17.8,14.1c15.4,0,30.6,0,46,0s30.6,0,46,0
			c2,0,4.2-0.3,6-0.9c7.6-2.6,12.1-9,12.1-17c0-17.9,0-35.6,0-53.3c0-0.8,0.3-1.6,0.7-2.3c1.8-2.9,3.7-5.6,5.4-8.8
			C689.2,1549.8,690.4,1538,685,1525.9z M626.7,1571.2c8.7,11.8,16,24.5,19.5,39.3c-10-10-19.8-19.8-29.5-29.3
			C620.1,1577.7,623.5,1574.5,626.7,1571.2z M557.7,1630.8c-0.3,0.3-0.5,0.7-1.1,1c-0.1-0.7-0.1-0.9-0.1-1.4c0-33.5,0-66.9,0-100.4
			c0-4.2,2.7-6.8,6.7-6.8c18.2,0,36.5,0,54.7,0c0.3,0,0.5,0,0.7,0c-0.8,3.2-1.8,6.3-2.3,9.6c-1.7,10,0.4,19.4,5.2,28.1
			c0.4,0.8,0.7,1.7,1.4,2.3c1,1.2,0.5,2.1-0.4,3.2C600.5,1587.8,579.2,1609.4,557.7,1630.8z M562.3,1636.6
			c16.5-16.5,33.2-33.2,49.8-49.7c16.2,16.2,33,33,49.7,49.7C628.5,1636.6,595.1,1636.6,562.3,1636.6z M669,1627.8
			c0,1.4-0.4,2.8-0.8,4.1c-6.8-6.8-13.4-13.4-20-20c0.7-0.1,1.4-0.1,2.2-0.2c5.1-0.9,7.7-4.3,8.7-9c1.8-8.1,4.8-15.8,8.6-23.3
			c0.2-0.5,0.5-1.1,1-1.8c0.1,0.7,0.2,1,0.2,1.4C669.2,1595,669.2,1611.3,669,1627.8z M675.4,1553.2c-2.6,4.7-5.4,8.9-8.3,13.3
			c-6.3,9.3-11.8,19-15.9,29.3c-0.1,0.3-0.3,0.5-0.4,1c-1.4-3.1-2.7-6-4-8.9c-4.3-9.4-10-17.9-15.7-26.2c-3.1-4.5-5.9-9.3-7.6-14.6
			c-4.8-15.7,5.7-33,22-35.7c15-2.7,28.8,6.1,32.8,20.9C680,1539.5,678.9,1546.4,675.4,1553.2z"/>
		<path class="st0" d="M595.7,1537.8c-1.4,1.4-2.7,2.7-4.2,4.1c-6.1-4.1-10.8-4.3-15.3-0.8c-4.1,3.1-5.5,8.3-3.8,13.2
			c1.6,4.7,6.2,7.8,11,7.7c4.1-0.1,8.7-2.7,9.5-5.7c-3.2,0-6.3,0-9.6,0c0-2,0-3.8,0-5.7c5.7,0,11.4,0,17.3,0
			c1.5,4.9-4,13.3-10.3,15.9c-8.2,3.6-18,0.3-22.4-7.6s-2.1-17.8,5.3-23C581,1530.6,590.8,1532.6,595.7,1537.8z"/>
		<path class="st0" d="M641.9,1541.3c0-4.9,4-8.8,8.8-8.7c4.9,0,8.7,4,8.7,8.8s-4,8.8-8.8,8.8
			C645.7,1550.2,641.8,1546.2,641.9,1541.3z"/>
	</a>
</g>
<g id="Capa_4">
</g>
<g>
	<g class="st2">
		<g>
			<path class="st0" d="M488.4,539c-10.8,17.8-45.1,13.3-66.8,13.3c-2.7,3-5.5,6.4-8.1,10.4c-21.7,31.8-24.8,69.9-8.7,82.6
				c14.1,11.1,36.8,6,57.2-21.4c15.8-21.5,26.4-29.1,31.5-30.3c-11.1,8.1-19.6,17.8-31,33.1c-17.8,24.7-43.7,32.7-61.3,20.3
				c-26.4-24.1-9-70.5,11-94.6c-38.8,1.8-58.2,20.3-68.6,34.4c11-20.8,36.6-34.1,70.5-36.4c15.4-16.7,35.3-26.9,55.5-27.1
				C481.1,523,495.2,528.2,488.4,539z M469.8,526.2c-11.7,0.4-29.2,6.6-46.2,24.1c15,0.1,35.5,2.1,48.6-2.1
				C491.1,542,494.1,525.3,469.8,526.2z"/>
		</g>
		<g>
			<path class="st0" d="M488.7,608.5c-2.3,11.3,3.9,15.8,10.4,13.1c11-4.3,21.2-28.1,29.1-28c-7.7,7-8.1,9-13.3,15.8
				c-6.8,8.7-14,16.2-22.1,15.4c-11-1.3-12.5-15.1-9.7-21.5c2.9-6.8,8.9-14.4,18.1-15.1c7.7-0.4,10.5,6.8,3.3,13
				c-4.4,3.7-11,5.5-15.3,6.1C489.3,607.5,488.7,608.2,488.7,608.5z M495.2,604.2c12-4.1,14-13,7.8-11.4c0,0-9.8,1.3-13.4,13
				C491.1,605.4,493,604.8,495.2,604.2z"/>
		</g>
		<g>
			<path class="st0" d="M535.1,595c9.7,6.1,13,12.7,4.6,24.8c-8.7,12.7-10.1,33,2.1,23.4c7.1-5.7,12.5-15.7,21.2-30.4
				c8.6-14.4,10.5-16.8,14.4-18.8c-1.3,2.1-7.8,11.1-12.4,19.3c-10,18-20.3,35.3-29.2,34.5c-9-0.6-12.7-13.3-6.8-25.1
				c6.3-13,13.6-18.1,2.1-25.7c-14.6-9.7-7-17-3.4-19.1c4.3-2.6,10.5-1.5,10.5,4.9c0,4.7-3.3,8.7-5.7,11
				C533.4,593.8,534.3,594.4,535.1,595z M530.8,579.1c-4.3,1.8-6.3,7.7,0.9,13.6c2.6-2.9,4.3-6.1,4.7-7.8
				C537.6,580.8,534.3,577.6,530.8,579.1z"/>
		</g>
		<g>
			<path class="st0" d="M575.9,608.5c-2.3,11.3,3.9,15.8,10.4,13.1c11-4.3,21.2-28.1,29.1-28c-7.7,7-8.1,9-13.3,15.8
				c-6.8,8.7-14,16.2-22.1,15.4c-11-1.3-12.5-15.1-9.7-21.5c2.9-6.8,8.9-14.4,18.1-15.1c7.7-0.4,10.5,6.8,3.3,13
				c-4.4,3.7-11,5.5-15.3,6.1C576.2,607.5,575.9,608.2,575.9,608.5z M582.2,604.2c12-4.1,14-13,7.8-11.4c0,0-9.8,1.3-13.4,13
				C578.2,605.4,580.3,604.8,582.2,604.2z"/>
		</g>
		<g>
			<path class="st0" d="M623.4,600.1c0.1,3-3.4,10.3-4.1,11.4c0.4,0,1.7-2.1,4.9-6.1c4.3-5.2,8.4-8.6,11.6-8.1c4.7,1.7,5,5.5,3,10.1
				s-4.1,13,0.4,7.7c3.6-4.3,18.7-24.1,24.8-27.1c5-2.3,10.8,1.3,7.7,11c-0.9,3.6-4.4,10-10.3,18.5c-8.6,12.7-8.6,25.7,0.6,18
				c14.4-11.3,20.3-42.2,33.9-41.7c-11,5-15.4,19.3-20.3,27.5c-9,15.8-16.8,20.8-22.1,17c-5.7-3.9-7-10.5-0.1-21.2
				c9-14.7,16.7-32.5,10-26.9c-9.7,8.1-20.7,24-23.4,26.9c-2.6,2.6-5.3,2.6-7.1,0.6c-1.7-1.8-2.6-5.5,0.9-14.4
				c3.3-8.1-0.9-4.3-4.6-0.9c-6.3,5.7-14.6,22-16.5,25.1c-3.3,5.2-7.8-1.3-6-6.6c0.1-0.7,10.8-24.1,9.7-26.7
				C617.9,593.1,623.2,592.8,623.4,600.1z"/>
		</g>
		<g>
			<path class="st0" d="M699.4,585.4c6.6-0.1,12,3.9,12,14.4c0,3-0.6,7.4-2,11.4c2.1-0.7,4.3-2.1,6.4-4.1c8.9-7.1,11-14.3,15.4-13.7
				c-4.9,3.7-9,12.4-17.3,17.3c-1.7,0.9-3.4,1.8-5.3,2.3c-3.3,10-9.7,19.7-16.8,19.4c-10.4-0.1-11-14-6.1-23.5
				c0.6-1.3,1.3-2.3,1.8-3.4C681.5,594.5,691.3,585.5,699.4,585.4z M692.3,611.4c-1.5,2.6-2.6,5.3-3.4,8.1c-2,7.1,1.8,15.1,8.1,9.7
				c3-2.7,6.6-8.6,9-15.1C701.5,614.6,696.4,614.1,692.3,611.4z M697.3,593.5c4.1-0.6,4.4,3.3,4.3,5.5c0,0.1-4.3,4.7-7.8,10.5
				c3.4,2.6,8.3,3.7,13.6,2.3c3-8.9,4.1-18.5-1.3-22.7c-7-6-15.3,0.7-16.7,6c-0.6,2.7-0.6,5.7,0,8.1
				C693,597.1,696,593.7,697.3,593.5z"/>
		</g>
		<g>
			<path class="st0" d="M740.1,598.2c0.1,4.9-1.5,7.1-4.3,13c6.1-8.9,20.7-23.1,30.3-25.7c5.7-1.5,8.1,3.7,7.7,7.7
				c-0.6,5.7-17.1,28.1-19.3,36.5c-2.9,12.4,4.7,8.3,7.1,6.4c7.1-5.3,20.3-29.2,26.4-36.1c7.4-8.6,10.3-5.7,10.3-5.7
				c-11.6,2.7-25.8,40.5-38.7,45.5c-3.9,1.7-9.8,0.6-11.4-5.7c-3.4-12.5,19.1-41,19.7-45.4c0.6-4.9-13.6,3.9-23.7,15.4
				c-6.8,7.8-10.4,13.7-13.3,18.4c-0.6,0.9-4.1,0.9-5.5-1.5c-0.6-0.9-2.3-3.4,3-14.6c6.1-12.4,3.6-11.7,3.6-11.7
				C733.5,592.5,740.1,593.5,740.1,598.2z"/>
		</g>
		<g>
			<path class="st0" d="M811.2,611.1c-6.8,9-12.2,14.6-17.8,13c-9-2.9-1.5-25.8,5-30.1c2.9-1.5,4.4,0.1,4.1,2.6
				c-0.6,3.7-4.6,9-6.1,15.7c-1.3,4.9-2.6,10.5,0.9,10.1c4.6-0.4,13-13.4,18.8-20.8c4.9-6.1,6.3-7.8,9.7-7.8
				C821,595.8,817.5,602.9,811.2,611.1z M804.2,587.7c-1.8-0.6-2-1.7-0.6-4.3c1.5-2.7,0.6-3.4,2.9-4.7c1.7-0.7,7-0.1,5.2,3.4
				C809.7,586.1,806.4,588.1,804.2,587.7z"/>
		</g>
		<g>
			<path class="st0" d="M846.2,628.5c8.4-12.5,18.8-33.4,26.1-35.1c-7.4,8.4-9.2,12.4-13.6,19.1c-8.1,13.1-12.5,22-17.3,21.2
				c-5.3-0.7-10.3-7.8-4.7-22.7c0.1-0.6,0.4-1.3,0.6-1.8c-6.1,7.4-11.7,14.4-17.3,8.1c-5.7-6.4-0.1-18.1,5.2-23.1
				c3.9-3.6,11-6.6,18.8-4.7c8.6,2.1,2.1,2.1,2.1,2.1s-11-2.3-18.8,10.3c-5.7,9.2-2.6,17.8,2.1,13.4c2.6-2.3,8.1-9.2,12.4-14.7
				c2.1-3.6,4.6-7.8,6.8-7.8c2.1-0.1,7.7,0.6,2.7,6.8C837.6,617,837.1,641.6,846.2,628.5z"/>
		</g>
	</g>
</g>
<g>
	<g>
		<g>
			<g>
				<g>
					<g>
						<path class="st0" d="M465.6,728.9c13.3,18.5,39.2,14.3,59,10.4c15.9-3.1,32.1-5.1,48.5-4.7c8.1,0.2,16.6,0.5,24.3,2.5
							c3.7,0.9,7.7,2.2,10.3,5c4.2,5,4.2,10.1-0.1,15c-6.6,5.6-9.2,4.9-7.8-2c0.2,0.8,1.8,0.7,1.8-0.2c-0.5-10.6-18.1-0.7-6.8,6.5
							c12.5,8.1,23.7-10.7,15.7-20.2c-5.7-6.6-15.9-7.4-24.2-8.3c-14.2-1.5-28.6-0.9-42.8,0.7c-25,3.1-57,16-76.7-5.7
							C466.1,727.5,465.1,728.4,465.6,728.9L465.6,728.9z"/>
					</g>
					<g>
						<path class="st0" d="M574.8,744.6c1.2-6.4-8.3-4.7-6.6,1.2c3,10.7,18.3,1.8,19.9-4.9c3.4-12.2-10.8-20-21.6-20.2
							c-9.5-0.1-18.3,3.6-27,6.4c-5.2,1.7-10.7,3.1-16.3,3.1c-3.6,0-7.6-0.5-10.9-2.2c-1-0.7-2.3-1.5-3.4-2.2c-4.3-3-4.3-5.6,0-7.7
							c-0.8-1-2.5-0.2-2,1c3,6.6,13.2,1.9,9.9-4.8c-4.1-7.8-14.6-1.8-14.3,5.2c0.5,12.5,18.4,14.3,27.9,12.6
							c10.1-1.8,19-6.8,29.1-8.5c7-1.2,14.4-0.9,20.3,3c2.6,1.8,5.9,4.9,6.2,8.3c-0.5,2.6-0.8,5.1-1.5,7.8
							c-3.6,5.9-7.2,6.4-10.3,1.5C573.9,744.8,574.6,745,574.8,744.6L574.8,744.6z"/>
					</g>
				</g>
			</g>
		</g>
		<g>
			<g>
				<g>
					<g>
						<path class="st0" d="M770.2,728.5c-13.3,18.5-39.2,14.3-58.8,10.4c-15.9-3.1-32.1-5.1-48.5-4.7c-8.1,0.2-16.6,0.5-24.3,2.5
							c-3.7,0.9-7.7,2.2-10.3,5c-4.2,5-4.2,10.1,0.1,15c6.6,5.6,9.2,4.9,7.8-2c-0.2,0.8-1.8,0.7-1.7-0.2c0.5-10.6,18.1-0.7,6.8,6.5
							c-12.5,8.1-23.7-10.7-15.7-20.2c5.7-6.6,15.9-7.4,24.2-8.3c14.2-1.5,28.6-0.9,42.8,0.7c25,3.1,57,16,76.7-5.7
							C769.5,727,770.8,727.7,770.2,728.5L770.2,728.5z"/>
					</g>
					<g>
						<path class="st0" d="M661.1,744.1c-1.2-6.4,8.3-4.7,6.6,1.2c-3,10.7-18.3,1.8-19.9-4.9c-3.4-12.2,10.8-20,21.6-20.2
							c9.5-0.1,18.3,3.6,27,6.4c5.2,1.7,10.7,3.1,16.3,3.1c3.6,0,7.6-0.5,10.9-2.2c1-0.7,2.3-1.5,3.5-2.2c4.3-3,4.3-5.6,0-7.7
							c0.8-1,2.5-0.2,2,1c-3,6.6-13.2,1.9-9.9-4.8c4.1-7.8,14.6-1.8,14.4,5.2c-0.5,12.5-18.4,14.3-27.9,12.6
							c-10-1.8-19-6.8-29.1-8.5c-7-1.2-14.4-0.9-20.3,3c-2.6,1.9-5.9,4.9-6.2,8.3c0.5,2.6,0.8,5.1,1.5,7.8c3.6,5.9,7.2,6.4,10.3,1.5
							C661.8,744.4,661.2,744.5,661.1,744.1L661.1,744.1z"/>
					</g>
				</g>
			</g>
		</g>
	</g>
</g>
<g>
	<path class="st0" d="M353.2,870.6l3.2-32.5c0.1-1.7,0.2-2.8,0.2-3.3c0-0.9-0.3-1.6-1-2.1s-1.7-0.9-3-0.9h-1l0.3-1.1h15.4l-0.3,1.1
		c-1.7,0-2.8,0.2-3.4,0.5s-1.1,0.9-1.5,1.7c-0.2,0.4-0.4,1.7-0.5,3.5l-2.3,23.2l15.3-20.9c1.7-2.3,2.7-3.8,3.1-4.7
		c0.3-0.5,0.4-1.1,0.4-1.6s-0.2-0.9-0.6-1.3c-0.4-0.4-1.2-0.6-2.5-0.6l0.3-1.1H387l-0.3,1.1c-0.9,0.1-1.7,0.2-2.3,0.5
		c-1,0.4-2.1,1.2-3.1,2.3c-1,1-2.7,3-4.9,6.1l-21.9,29.9h-1.3L353.2,870.6L353.2,870.6z"/>
	<path class="st0" d="M387.2,859c-0.1,1-0.2,1.8-0.2,2.4c0,1.7,0.5,3.1,1.8,4.4c1.2,1.2,2.7,1.8,4.4,1.8c1.3,0,2.7-0.3,4-0.9
		c1.2-0.5,3.1-1.8,5.7-3.8l0.5,0.8c-4.6,4.5-8.8,6.7-13,6.7c-2.8,0-4.9-0.9-6.2-2.7c-1.5-1.8-2.1-3.7-2.1-5.8c0-2.9,0.9-5.8,2.7-8.7
		c1.8-3,3.9-5.4,6.6-7c2.7-1.7,5.4-2.5,8.3-2.5c2,0,3.4,0.4,4.5,1.2c1,0.8,1.5,1.8,1.5,2.9c0,1.6-0.6,3.1-1.9,4.6
		c-1.7,1.9-4.2,3.4-7.4,4.6C394.2,857.8,391.2,858.5,387.2,859z M387.5,857.5c2.8-0.3,5.2-0.9,7-1.7c2.4-1,4.2-2.4,5.3-3.8
		c1.2-1.5,1.8-2.9,1.8-4.3c0-0.8-0.2-1.5-0.8-1.9c-0.5-0.4-1.2-0.8-2.1-0.8c-1.9,0-4,1-6.2,3.1C390.1,850.4,388.5,853.4,387.5,857.5
		z"/>
	<path class="st0" d="M419.4,843.7l-3.8,13.1c3.5-5.4,6.2-8.8,8.3-10.6c1.9-1.7,3.8-2.6,5.5-2.6c1,0,1.8,0.3,2.4,1
		c0.6,0.6,0.9,1.5,0.9,2.5c0,1.1-0.2,2.7-0.8,4.6l-3.4,12c-0.4,1.5-0.5,2.3-0.5,2.6c0,0.2,0.1,0.4,0.2,0.6c0.1,0.2,0.3,0.2,0.4,0.2
		c0.2,0,0.4-0.1,0.8-0.3c1-0.8,2.1-2,3.3-3.7l0.9,0.5c-1.8,2.6-3.4,4.4-5.1,5.5c-1.1,0.8-2.1,1.1-3,1.1c-0.6,0-1.2-0.2-1.7-0.6
		c-0.4-0.4-0.6-1-0.6-1.7c0-0.9,0.3-2.5,1-4.7l3.3-11.5c0.4-1.5,0.5-2.6,0.5-3.3c0-0.3-0.1-0.6-0.3-0.9c-0.2-0.2-0.5-0.3-0.9-0.3
		c-0.5,0-1.1,0.2-1.9,0.6c-1.5,0.9-2.9,2.3-4.4,4.3c-1.6,2-3.1,4.5-4.9,7.6c-0.9,1.7-1.7,3.4-2.3,5.4l-1.5,4.7h-4.1l5.3-18.1
		c0.6-2.1,0.9-3.4,0.9-3.9c0-0.4-0.2-0.8-0.5-1.1s-0.8-0.4-1.2-0.4c-0.2,0-0.6,0-1.2,0.1l-1.1,0.1l-0.2-1L419.4,843.7z"/>
	<path class="st0" d="M478.1,843.7l-5.6,19.5l-0.6,2.7c0,0.2-0.1,0.4-0.1,0.5c0,0.3,0.1,0.5,0.3,0.8c0.1,0.1,0.3,0.2,0.5,0.2
		s0.5-0.1,1-0.4c0.8-0.5,1.8-1.7,3-3.4l1,0.6c-1.3,2-2.7,3.4-4,4.6c-1.5,1-2.7,1.6-3.9,1.6c-0.8,0-1.5-0.2-1.8-0.5
		c-0.4-0.4-0.6-1-0.6-1.8c0-1,0.2-2.3,0.6-3.7l0.5-2.1c-2.6,3.2-4.8,5.6-7,7c-1.6,0.9-3,1.3-4.5,1.3s-2.6-0.5-3.5-1.7
		c-1-1.2-1.6-2.8-1.6-4.8c0-3,0.9-6.2,2.7-9.6c1.8-3.3,4.2-6.1,7-8.2c2.3-1.6,4.3-2.5,6.2-2.5c1.2,0,2.1,0.3,2.9,0.9
		c0.8,0.6,1.3,1.7,1.8,3l1-3.2L478.1,843.7z M467.9,845.2c-1.2,0-2.5,0.5-3.9,1.8c-2,1.6-3.7,4-5.3,7.3c-1.6,3.2-2.3,6.1-2.3,8.7
		c0,1.2,0.3,2.4,1,3c0.6,0.8,1.5,1.1,2.3,1.1c2.1,0,4.4-1.6,6.8-4.7c3.2-4.2,4.9-8.3,4.9-12.7c0-1.6-0.3-2.8-0.9-3.5
		C469.9,845.6,469,845.2,467.9,845.2z"/>
	<path class="st0" d="M507.7,843.7l-3.8,13.1c3.5-5.4,6.2-8.8,8.3-10.6c1.9-1.7,3.8-2.6,5.5-2.6c1,0,1.8,0.3,2.4,1
		c0.6,0.6,0.9,1.5,0.9,2.5c0,1.1-0.2,2.7-0.8,4.6l-3.4,12c-0.4,1.5-0.5,2.3-0.5,2.6c0,0.2,0.1,0.4,0.2,0.6c0.1,0.2,0.3,0.2,0.4,0.2
		c0.2,0,0.4-0.1,0.8-0.3c1-0.8,2.1-2,3.3-3.7l0.9,0.5c-1.8,2.6-3.4,4.4-5.1,5.5c-1.1,0.8-2.1,1.1-3,1.1c-0.6,0-1.2-0.2-1.7-0.6
		c-0.5-0.4-0.6-1-0.6-1.7c0-0.9,0.3-2.5,1-4.7l3.3-11.5c0.4-1.5,0.5-2.6,0.5-3.3c0-0.3-0.1-0.6-0.3-0.9c-0.2-0.2-0.5-0.3-0.9-0.3
		c-0.5,0-1.1,0.2-1.9,0.6c-1.5,0.9-2.9,2.3-4.4,4.3c-1.6,2-3.1,4.5-4.9,7.6c-0.9,1.7-1.7,3.4-2.3,5.4l-1.5,4.7h-4.4l5.3-18.1
		c0.6-2.1,0.9-3.4,0.9-3.9c0-0.4-0.2-0.8-0.5-1.1s-0.8-0.4-1.2-0.4c-0.2,0-0.6,0-1.2,0.1l-1.1,0.1l-0.2-1L507.7,843.7z"/>
	<path class="st0" d="M551.8,844.4l-5.1,17.1c-0.8,2.6-1.1,4.2-1.1,4.8c0,0.3,0.1,0.5,0.2,0.8c0.1,0.1,0.3,0.2,0.4,0.2
		c0.3,0,0.6-0.1,1.1-0.4c0.4-0.3,1.3-1.5,2.9-3.5l0.9,0.6c-1.6,2.4-3.1,4.2-4.7,5.3c-1,0.6-2,1.1-3,1.1c-0.8,0-1.3-0.2-1.8-0.6
		c-0.4-0.4-0.6-1-0.6-1.7c0-0.6,0.1-1.6,0.3-2.6c0.3-1.5,1.2-4.5,2.7-9.2c-3.2,5.4-6,9-8.2,11.1c-2.3,2-4.3,3-6.1,3
		c-0.9,0-1.7-0.3-2.3-0.9c-0.6-0.5-0.9-1.3-0.9-2.4c0-1.5,0.4-3.5,1.2-6.6l2.6-8.9c0.5-2.1,0.9-3.4,0.9-3.9c0-0.2-0.1-0.4-0.2-0.5
		c-0.1-0.1-0.3-0.2-0.5-0.2c-0.4,0-0.8,0.1-1.2,0.4c-0.4,0.3-1.3,1.3-2.8,3.1l-0.9-0.5c1.5-2.3,3-3.9,4.6-4.9
		c1.2-0.8,2.4-1.2,3.3-1.2c0.6,0,1.3,0.2,1.8,0.6c0.4,0.4,0.6,1,0.6,1.8c0,1-0.3,2.9-1.1,5.5l-2.7,9.2c-0.8,2.6-1.1,4.2-1.1,4.8
		c0,0.3,0.1,0.6,0.3,0.9c0.2,0.2,0.5,0.3,1,0.3c0.6,0,1.5-0.3,2.5-0.9c1-0.6,2.4-2,4-4.3c1.7-2.1,3.1-4.3,4.3-6.1s2.3-4.9,3.4-9
		l0.6-2.1h4.5v-0.2L551.8,844.4L551.8,844.4z"/>
	<path class="st0" d="M560.5,859c-0.1,1-0.2,1.8-0.2,2.4c0,1.7,0.5,3.1,1.8,4.4c1.2,1.2,2.7,1.8,4.4,1.8c1.3,0,2.7-0.3,4-0.9
		c1.2-0.5,3.1-1.8,5.7-3.8l0.5,0.8c-4.6,4.5-8.8,6.7-13,6.7c-2.8,0-4.9-0.9-6.2-2.7c-1.5-1.8-2.1-3.7-2.1-5.8c0-2.9,0.9-5.8,2.7-8.7
		c1.8-3,3.9-5.4,6.6-7c2.7-1.7,5.4-2.5,8.3-2.5c2,0,3.4,0.4,4.5,1.2c1,0.8,1.5,1.8,1.5,2.9c0,1.6-0.6,3.1-1.9,4.6
		c-1.7,1.9-4.2,3.4-7.4,4.6C567.5,857.8,564.5,858.5,560.5,859z M560.7,857.5c2.8-0.3,5.2-0.9,7-1.7c2.4-1,4.2-2.4,5.3-3.8
		c1.2-1.5,1.8-2.9,1.8-4.3c0-0.8-0.2-1.5-0.8-1.9s-1.2-0.8-2.1-0.8c-1.9,0-4,1-6.2,3.1C563.4,850.4,561.9,853.4,560.7,857.5z"/>
	<path class="st0" d="M601,843.7l-1.8,8.8h-1.1c-0.1-2.6-0.6-4.5-1.7-5.6s-2.3-1.8-3.7-1.8c-1.1,0-2.1,0.3-2.8,1
		c-0.6,0.6-1,1.5-1,2.4c0,0.6,0.1,1.2,0.4,1.8c0.2,0.5,0.9,1.3,1.8,2.5c2.5,2.7,4,4.8,4.8,6.1c0.6,1.3,1.1,2.7,1.1,3.9
		c0,2-0.8,3.8-2.5,5.3c-1.7,1.6-3.7,2.4-6.2,2.4c-1.3,0-3-0.3-4.8-1c-0.6-0.2-1.1-0.3-1.5-0.3c-0.9,0-1.6,0.4-2,1.3h-1l1.8-9.2h1.1
		c0.1,2.9,0.6,5.1,1.8,6.1c1.1,1.2,2.6,1.8,4.5,1.8c1.5,0,2.6-0.4,3.4-1.2c0.9-0.8,1.2-1.8,1.2-3c0-0.8-0.1-1.5-0.4-2.1
		c-0.5-1.1-1.7-2.7-3.3-4.8c-1.7-2-2.8-3.5-3.3-4.6c-0.4-1-0.8-2-0.8-3c0-1.9,0.6-3.4,2-4.7c1.3-1.2,3.1-1.9,5.3-1.9
		c0.6,0,1.2,0,1.7,0.1c0.2,0.1,0.9,0.3,1.9,0.6c1.1,0.3,1.7,0.5,2,0.5c0.8,0,1.5-0.4,2.1-1.3L601,843.7L601,843.7z"/>
	<path class="st0" d="M617.9,836.6l-2.3,7.8h4.6l-0.4,1.8h-4.5l-4.9,16.9c-0.5,1.8-0.8,3-0.8,3.5c0,0.3,0.1,0.5,0.2,0.8
		c0.1,0.2,0.3,0.2,0.5,0.2c0.4,0,1.1-0.3,1.9-1c0.4-0.3,1.6-1.6,3.1-3.5l0.9,0.8c-1.8,2.6-3.4,4.4-5.1,5.5c-1.1,0.6-2.1,1.1-3.2,1.1
		c-0.8,0-1.6-0.2-2-0.8c-0.5-0.5-0.8-1.2-0.8-2c0-1,0.3-2.6,0.9-4.7l4.8-16.7h-4.4l0.3-1.1c2.1-0.5,3.9-1.5,5.3-2.6
		c1.4-1.1,2.9-3.1,4.7-5.9L617.9,836.6L617.9,836.6z"/>
	<path class="st0" d="M622.1,845.3l10-1.7l-4.2,14c3.3-5.7,6.3-9.8,9.1-12c1.6-1.3,2.8-2,3.8-2c0.6,0,1.1,0.2,1.5,0.5
		s0.5,0.9,0.5,1.7c0,1.2-0.3,2.5-1,3.5c-0.4,0.9-1.1,1.2-2,1.2c-0.4,0-0.8-0.1-1.1-0.4s-0.5-0.6-0.5-1.3c0-0.3-0.1-0.5-0.2-0.6
		c-0.2-0.1-0.3-0.2-0.5-0.2c-0.3,0-0.6,0.1-0.9,0.2c-0.4,0.2-1.2,1-2.3,2.3c-1.6,1.9-3.3,4.4-5.2,7.3c-0.8,1.2-1.5,2.7-2.1,4.3
		c-0.8,2.3-1.2,3.4-1.3,3.9l-0.9,3.5h-4.4l5.4-18c0.5-2.1,0.9-3.5,0.9-4.5c0-0.3-0.1-0.6-0.4-0.9c-0.3-0.3-0.9-0.4-1.5-0.4
		c-0.4,0-1.1,0.1-2.3,0.2L622.1,845.3z"/>
	<path class="st0" d="M669.2,852.7c0,2.9-0.8,5.7-2.3,8.5c-1.6,2.8-3.7,5.1-6.3,6.7c-2.7,1.6-5.4,2.5-8,2.5s-4.8-0.9-6.3-2.6
		c-1.7-1.7-2.5-3.8-2.5-6.4c0-2.8,0.8-5.7,2.5-8.5c1.6-2.8,3.8-5.1,6.4-6.7c2.7-1.7,5.4-2.5,7.8-2.5c2.6,0,4.6,0.9,6.2,2.6
		C668.4,847.9,669.2,850,669.2,852.7z M664.4,850.7c0-1.8-0.4-3.1-1.3-4.2c-0.9-1-2-1.5-3.3-1.5c-2.8,0-5.4,2-7.7,6
		c-2.4,4-3.5,8.1-3.5,12c0,1.8,0.4,3.2,1.3,4.3s2.1,1.5,3.4,1.5c2.7,0,5.3-2,7.6-6C663.2,859,664.4,854.8,664.4,850.7z"/>
	<path class="st0" d="M716.8,845.6l-0.8,3h-4.8c0.3,1,0.5,2,0.5,2.9c0,2.6-1.1,4.8-3.2,6.8c-2.1,1.9-5.2,3-8.8,3.2
		c-2,0.6-3.5,1.3-4.6,2.3c-0.3,0.3-0.5,0.5-0.5,0.9c0,0.3,0.2,0.8,0.5,1c0.3,0.3,1.2,0.6,2.6,0.9l5.6,1.3c3,0.6,5.2,1.6,6.1,2.6
		s1.5,2.3,1.5,3.4c0,1.6-0.5,3-1.7,4.4s-2.8,2.4-5.2,3c-2.3,0.8-4.7,1.1-7.4,1.1c-2.4,0-4.6-0.3-6.4-0.9c-1.9-0.5-3.3-1.3-4.3-2.3
		c-0.9-1-1.2-1.9-1.2-3c0-0.8,0.2-1.7,0.8-2.6c0.5-0.9,1.2-1.7,2-2.3c0.5-0.3,2-1.2,4.4-2.6c-0.9-0.6-1.3-1.5-1.3-2.3
		s0.4-1.6,1.2-2.5s2.5-1.8,4.9-2.9c-2.1-0.4-3.8-1.2-5.1-2.7c-1.2-1.3-1.8-2.9-1.8-4.6c0-2.7,1.2-5.2,3.5-7.3
		c2.4-2.1,5.6-3.2,9.5-3.2c1.5,0,2.6,0.1,3.4,0.4c0.9,0.3,1.8,0.8,2.7,1.3h7.7L716.8,845.6L716.8,845.6z M692.9,869.7
		c-1.6,0.6-2.7,1.7-3.4,2.7c-0.8,1.1-1.2,2.3-1.2,3.2c0,1.2,0.5,2.4,1.7,3.1c1.7,1.2,4.2,1.8,7.3,1.8c2.7,0,5.1-0.4,7.1-1.3
		c1.9-0.9,2.9-2.1,2.9-3.5c0-0.8-0.3-1.5-1.1-2.1c-0.6-0.6-2.1-1.2-4.3-1.7C700.8,871.7,697.9,870.9,692.9,869.7z M706.9,850
		c0-1.6-0.4-2.8-1.2-3.7c-0.9-0.9-2-1.3-3.3-1.3c-2.1,0-3.9,1.1-5.4,3.2c-1.5,2.1-2.1,4.5-2.1,6.8c0,1.5,0.4,2.7,1.3,3.5
		s2,1.5,3.2,1.5c1,0,2-0.3,3-0.9c1-0.5,1.8-1.3,2.4-2.4c0.5-1.1,1.1-2.3,1.6-3.7C706.6,851.8,706.9,850.7,706.9,850z"/>
	<path class="st0" d="M718.6,845.3l10-1.7l-4.2,14c3.3-5.7,6.3-9.8,9.1-12c1.6-1.3,2.8-2,3.8-2c0.6,0,1.1,0.2,1.5,0.5
		c0.3,0.3,0.5,0.9,0.5,1.7c0,1.2-0.3,2.5-1,3.5c-0.4,0.9-1.1,1.2-2,1.2c-0.4,0-0.8-0.1-1.1-0.4c-0.3-0.3-0.5-0.6-0.5-1.3
		c0-0.3-0.1-0.5-0.2-0.6c-0.1-0.1-0.3-0.2-0.5-0.2c-0.3,0-0.6,0.1-0.9,0.2c-0.4,0.2-1.2,1-2.3,2.3c-1.6,1.9-3.3,4.4-5.2,7.3
		c-0.8,1.2-1.5,2.7-2.1,4.3c-0.8,2.3-1.2,3.4-1.3,3.9l-0.9,3.5H717l5.4-18c0.5-2.1,0.9-3.5,0.9-4.5c0-0.3-0.1-0.6-0.4-0.9
		c-0.3-0.3-0.9-0.4-1.5-0.4c-0.4,0-1.1,0.1-2.3,0.2L718.6,845.3z"/>
	<path class="st0" d="M766.1,843.7l-5.6,19.5l-0.6,2.7c0,0.2-0.1,0.4-0.1,0.5c0,0.3,0.1,0.5,0.3,0.8c0.1,0.1,0.3,0.2,0.5,0.2
		s0.5-0.1,1-0.4c0.8-0.5,1.8-1.7,3-3.4l1,0.6c-1.3,2-2.7,3.4-4,4.6c-1.5,1-2.7,1.6-3.9,1.6c-0.8,0-1.5-0.2-1.8-0.5
		c-0.4-0.4-0.6-1-0.6-1.8c0-1,0.2-2.3,0.6-3.7l0.5-2.1c-2.6,3.2-4.8,5.6-7,7c-1.6,0.9-3,1.3-4.5,1.3s-2.6-0.5-3.5-1.7
		c-1-1.1-1.6-2.8-1.6-4.8c0-3,0.9-6.2,2.7-9.6c1.8-3.3,4.2-6.1,7-8.2c2.3-1.6,4.3-2.5,6.2-2.5c1.2,0,2.1,0.3,2.9,0.9
		c0.8,0.6,1.3,1.7,1.8,3l1-3.2L766.1,843.7z M755.8,845.2c-1.2,0-2.5,0.5-3.9,1.8c-2,1.6-3.7,4-5.3,7.3s-2.3,6.1-2.3,8.7
		c0,1.2,0.3,2.4,1,3c0.6,0.8,1.5,1.1,2.3,1.1c2.1,0,4.4-1.6,6.8-4.7c3.2-4.2,4.9-8.3,4.9-12.7c0-1.6-0.3-2.8-0.9-3.5
		C757.7,845.6,757,845.2,755.8,845.2z"/>
	<path class="st0" d="M780.8,843.7l-3.8,13.1c3.5-5.4,6.2-8.8,8.3-10.6c1.9-1.7,3.8-2.6,5.5-2.6c1,0,1.8,0.3,2.4,1
		c0.6,0.6,0.9,1.5,0.9,2.5c0,1.1-0.2,2.7-0.8,4.6l-3.4,12c-0.4,1.5-0.5,2.3-0.5,2.6c0,0.2,0.1,0.4,0.2,0.6c0.1,0.2,0.3,0.2,0.4,0.2
		c0.2,0,0.4-0.1,0.8-0.3c1-0.8,2.1-2,3.3-3.7l0.9,0.5c-1.8,2.6-3.4,4.4-5.1,5.5c-1.1,0.8-2.1,1.1-3,1.1c-0.6,0-1.2-0.2-1.7-0.6
		c-0.4-0.4-0.6-1-0.6-1.7c0-0.9,0.3-2.5,1-4.7l3.3-11.5c0.4-1.5,0.5-2.6,0.5-3.3c0-0.3-0.1-0.6-0.3-0.9c-0.2-0.2-0.5-0.3-0.9-0.3
		c-0.5,0-1.1,0.2-1.9,0.6c-1.5,0.9-2.9,2.3-4.4,4.3c-1.6,2-3.1,4.5-4.9,7.6c-0.9,1.7-1.7,3.4-2.3,5.4l-1.5,4.7h-4.5l5.3-18.1
		c0.6-2.1,0.9-3.4,0.9-3.9c0-0.4-0.2-0.8-0.5-1.1s-0.8-0.4-1.2-0.4c-0.2,0-0.6,0-1.2,0.1l-1.1,0.1l-0.2-1L780.8,843.7z"/>
	<path class="st0" d="M843.8,828.9l-9.9,33.9c-0.5,1.8-0.8,3-0.8,3.7c0,0.2,0.1,0.3,0.2,0.5c0.1,0.2,0.3,0.2,0.4,0.2
		c0.2,0,0.5-0.1,0.9-0.3c0.6-0.4,1.8-1.7,3.2-3.4l1,0.5c-1.3,1.9-2.8,3.4-4.3,4.7c-1.5,1.2-2.7,1.8-3.9,1.8c-0.6,0-1.2-0.2-1.7-0.6
		c-0.4-0.4-0.6-1.1-0.6-2c0-1.1,0.3-2.6,0.9-4.4l1.1-3.5c-2.8,4.4-5.3,7.3-7.6,8.9c-1.6,1.1-3,1.7-4.5,1.7s-2.8-0.6-3.8-1.9
		c-1.1-1.2-1.7-3-1.7-5.3c0-2.9,0.9-5.9,2.7-9.1c1.8-3.2,4.3-5.8,7.3-8c2.4-1.7,4.5-2.5,6.4-2.5c1,0,1.9,0.2,2.7,0.6
		c0.8,0.4,1.5,1.1,2.3,2.1l2.8-10c0.2-0.6,0.3-1.2,0.4-1.7c0.2-0.8,0.3-1.3,0.3-1.9c0-0.4-0.1-0.8-0.4-1c-0.4-0.3-0.9-0.4-1.6-0.4
		c-0.4,0-1.1,0.1-2.1,0.2v-1.1L843.8,828.9z M833.2,849.2c0-1.2-0.3-2.3-1-3c-0.6-0.8-1.6-1.1-2.7-1.1c-2.5,0-4.9,2-7.6,5.9
		c-2.6,4-3.9,7.8-3.9,11.4c0,1.5,0.3,2.6,0.9,3.3c0.6,0.8,1.3,1.1,2.3,1.1c2,0,4.5-2.1,7.5-6.4C831.7,856.3,833.2,852.4,833.2,849.2
		z"/>
	<path class="st0" d="M854.9,843.7l-5.7,20.1c-0.3,1.3-0.5,2.1-0.5,2.5c0,0.3,0.1,0.5,0.2,0.8c0.2,0.2,0.3,0.3,0.6,0.3
		s0.6-0.1,1-0.4c1.1-0.9,2.3-2.1,3.3-3.7l1,0.6c-1.3,2-2.8,3.7-4.6,5.1c-1.2,1-2.6,1.5-3.7,1.5c-0.8,0-1.5-0.2-1.9-0.6
		c-0.4-0.4-0.8-1-0.8-1.8c0-0.6,0.2-1.9,0.6-3.5l3.8-12.9c0.5-2.1,0.9-3.4,0.9-3.9s-0.1-0.8-0.4-1c-0.3-0.2-0.6-0.4-1.2-0.4
		c-0.4,0-1.3,0.1-2.7,0.3v-1.1L854.9,843.7z M861.1,829.4l-8.4,9.9h-1l2.9-9.9H861.1z"/>
	<path class="st0" d="M885.4,843.7l-5.6,19.5l-0.6,2.7c0,0.2-0.1,0.4-0.1,0.5c0,0.3,0.1,0.5,0.3,0.8c0.1,0.1,0.3,0.2,0.5,0.2
		s0.5-0.1,1-0.4c0.8-0.5,1.8-1.7,3-3.4l1,0.6c-1.3,2-2.7,3.4-4,4.6c-1.5,1-2.7,1.6-3.9,1.6c-0.8,0-1.5-0.2-1.8-0.5
		c-0.4-0.4-0.6-1-0.6-1.8c0-1,0.2-2.3,0.6-3.7l0.5-2.1c-2.6,3.2-4.8,5.6-7,7c-1.6,0.9-3,1.3-4.5,1.3s-2.6-0.5-3.5-1.7
		c-1-1.1-1.6-2.8-1.6-4.8c0-3,0.9-6.2,2.7-9.6c1.8-3.3,4.2-6.1,7-8.2c2.3-1.6,4.3-2.5,6.2-2.5c1.2,0,2.1,0.3,2.9,0.9
		c0.8,0.6,1.3,1.7,1.8,3l1-3.2L885.4,843.7z M875.2,845.2c-1.2,0-2.5,0.5-3.9,1.8c-2,1.6-3.7,4-5.3,7.3c-1.6,3.2-2.3,6.1-2.3,8.7
		c0,1.2,0.3,2.4,1,3c0.6,0.8,1.5,1.1,2.3,1.1c2.1,0,4.4-1.6,6.8-4.7c3.2-4.2,4.9-8.3,4.9-12.7c0-1.6-0.3-2.8-0.9-3.5
		C877,845.6,876.3,845.2,875.2,845.2z"/>
</g>
<g id="XMLID_1_">
	<path class="st0" d="M314.4,964.9h-28.5l0.3-1c1.6,0,2.6-0.1,3-0.3c0.8-0.3,1.3-0.8,1.8-1.3c0.5-0.9,1.2-2.5,1.9-4.7l6.8-23.3
		c0.5-1.9,0.9-3.3,0.9-4.3c0-0.6-0.2-1.2-0.8-1.7s-1.5-0.5-2.9-0.5c-0.3,0-0.5,0-0.8,0l0.3-1h15.7l-0.2,1c-1.8,0-3,0.2-3.8,0.5
		s-1.3,0.9-1.9,1.7c-0.3,0.5-0.9,2.1-1.7,4.8l-6.7,23c-0.5,1.8-0.8,2.9-0.8,3.5c0,0.4,0.2,0.9,0.8,1.3c0.3,0.3,1,0.4,2.3,0.4h3.7
		c2.7,0,4.8-0.3,6.4-1c1.1-0.4,2.3-1.2,3.2-2.3c0.5-0.5,1.5-2,2.8-4.3l0.8-1.2h1L314.4,964.9z"/>
	<path class="st0" d="M345.6,939.2l-5.5,19.2l-0.6,2.6c0,0.2-0.1,0.4-0.1,0.5c0,0.3,0.1,0.5,0.3,0.8c0.1,0.1,0.3,0.2,0.5,0.2
		s0.5-0.1,1-0.4c0.8-0.5,1.7-1.7,2.9-3.3l1,0.6c-1.3,2-2.7,3.4-4,4.5s-2.7,1.6-3.8,1.6c-0.8,0-1.5-0.2-1.8-0.5
		c-0.4-0.4-0.6-1-0.6-1.8c0-0.9,0.2-2.1,0.6-3.7l0.5-2.1c-2.5,3.2-4.8,5.5-6.8,6.8c-1.5,0.9-3,1.3-4.4,1.3c-1.3,0-2.6-0.5-3.5-1.7
		s-1.5-2.7-1.5-4.7c0-3,0.9-6.1,2.7-9.5c1.8-3.3,4.2-6,7-8.1c2.1-1.6,4.3-2.4,6.1-2.4c1.1,0,2.1,0.3,2.9,0.9c0.8,0.5,1.3,1.6,1.8,3
		l1-3.2L345.6,939.2z M335.5,940.7c-1.2,0-2.5,0.5-3.8,1.7c-1.9,1.6-3.7,4-5.2,7.2s-2.3,6-2.3,8.6c0,1.2,0.3,2.3,1,3
		c0.6,0.8,1.3,1.1,2.3,1.1c2,0,4.3-1.6,6.7-4.6c3.2-4,4.8-8.2,4.8-12.5c0-1.6-0.3-2.8-0.9-3.4C337.4,941,336.6,940.7,335.5,940.7z"
		/>
	<path class="st0" d="M380.7,958.8c-2,2.4-3.9,4-5.9,5.2s-4.2,1.7-6.3,1.7c-2.7,0-4.8-0.8-6.2-2.3c-1.5-1.5-2.3-3.5-2.3-6
		c0-2.9,0.8-5.7,2.5-8.5c1.6-2.8,3.8-5.1,6.4-6.8c2.7-1.7,5.4-2.6,8.1-2.6c2,0,3.5,0.4,4.6,1.3c1,0.9,1.6,1.9,1.6,3.1
		c0,1.2-0.3,2.1-1.1,3c-0.5,0.6-1.1,1-1.9,1c-0.5,0-1.1-0.2-1.5-0.5c-0.3-0.3-0.5-0.9-0.5-1.5c0-0.3,0.1-0.6,0.2-1
		c0.1-0.3,0.4-0.6,0.9-1.1c0.4-0.4,0.6-0.6,0.8-0.9c0.1-0.2,0.1-0.3,0.1-0.5c0-0.4-0.2-0.8-0.5-1c-0.5-0.3-1.3-0.5-2.4-0.5
		c-1.9,0-3.7,0.6-5.5,1.9c-1.8,1.3-3.3,3.1-4.7,5.6c-1.6,2.9-2.4,5.8-2.4,8.7c0,1.9,0.5,3.4,1.7,4.6s2.6,1.7,4.5,1.7
		c1.5,0,2.9-0.3,4.4-1.1s3-2,4.8-3.9L380.7,958.8z"/>
	<path class="st0" d="M389.1,954.2c-0.1,0.9-0.2,1.7-0.2,2.4c0,1.7,0.5,3.1,1.8,4.4c1.2,1.2,2.7,1.8,4.4,1.8c1.3,0,2.7-0.3,3.9-0.9
		s3.1-1.8,5.6-3.7l0.5,0.8c-4.5,4.5-8.7,6.7-12.9,6.7c-2.8,0-4.8-0.9-6.2-2.6c-1.3-1.8-2.1-3.7-2.1-5.7c0-2.8,0.9-5.7,2.6-8.6
		c1.8-2.9,3.9-5.3,6.4-7c2.6-1.7,5.4-2.5,8.2-2.5c2,0,3.4,0.4,4.5,1.2c1,0.8,1.5,1.8,1.5,2.9c0,1.6-0.6,3.1-1.9,4.5
		c-1.7,1.9-4,3.3-7.3,4.6C396,953.2,393.1,953.8,389.1,954.2z M389.3,952.8c2.8-0.3,5.1-0.9,6.8-1.7c2.4-1,4-2.3,5.3-3.7
		c1.1-1.5,1.8-2.8,1.8-4.2c0-0.8-0.2-1.5-0.8-1.9s-1.2-0.8-2.1-0.8c-1.9,0-3.9,1-6.1,3C392,945.7,390.4,948.8,389.3,952.8z"/>
	<path class="st0" d="M409.2,940.8l9.9-1.6l-4.2,13.8c3.3-5.7,6.2-9.6,9-11.8c1.6-1.3,2.8-1.9,3.7-1.9c0.6,0,1.1,0.2,1.5,0.5
		c0.3,0.3,0.5,0.9,0.5,1.6c0,1.2-0.3,2.5-1,3.5c-0.4,0.9-1.1,1.2-2,1.2c-0.4,0-0.8-0.1-1.1-0.4c-0.3-0.3-0.5-0.6-0.5-1.3
		c0-0.3-0.1-0.5-0.2-0.6s-0.3-0.2-0.5-0.2c-0.3,0-0.6,0.1-0.9,0.2c-0.4,0.2-1.2,1-2.3,2.3c-1.6,1.9-3.2,4.3-5.2,7.2
		c-0.8,1.2-1.5,2.7-2,4.3c-0.8,2.1-1.2,3.4-1.3,3.9l-0.9,3.5h-4.4l5.3-17.6c0.5-2,0.9-3.4,0.9-4.4c0-0.3-0.1-0.5-0.4-0.9
		c-0.3-0.3-0.9-0.4-1.5-0.4c-0.4,0-1.1,0.1-2.3,0.2L409.2,940.8z"/>
	<path class="st0" d="M434,954.2c-0.1,0.9-0.2,1.7-0.2,2.4c0,1.7,0.5,3.1,1.8,4.4c1.2,1.2,2.7,1.8,4.4,1.8c1.3,0,2.7-0.3,3.9-0.9
		c1.2-0.5,3.1-1.8,5.6-3.7l0.5,0.8c-4.5,4.5-8.7,6.7-12.9,6.7c-2.8,0-4.8-0.9-6.2-2.6c-1.3-1.8-2.1-3.7-2.1-5.7
		c0-2.8,0.9-5.7,2.6-8.6c1.8-2.9,3.9-5.3,6.4-7c2.6-1.7,5.4-2.5,8.2-2.5c2,0,3.4,0.4,4.5,1.2c1,0.8,1.5,1.8,1.5,2.9
		c0,1.6-0.6,3.1-1.9,4.5c-1.7,1.9-4,3.3-7.3,4.6C440.8,953.2,437.8,953.8,434,954.2z M434.2,952.8c2.8-0.3,5.1-0.9,6.8-1.7
		c2.4-1,4-2.3,5.3-3.7c1.1-1.5,1.8-2.8,1.8-4.2c0-0.8-0.2-1.5-0.8-1.9s-1.2-0.8-2.1-0.8c-1.9,0-3.9,1-6.1,3
		C436.7,945.7,435.2,948.8,434.2,952.8z"/>
	<path class="st0" d="M463.6,939.2l-3.7,12.9c1.7-3,3-5.3,4.2-6.8c1.8-2.4,3.5-4,5.3-5.2c1-0.5,2-0.9,3.1-0.9c0.9,0,1.7,0.3,2.4,0.9
		s1,1.3,1,2.4c0,1-0.2,2.1-0.6,3.5l-2,7.3c3.1-5.8,6-9.9,8.7-12.1c1.6-1.3,3-1.9,4.5-1.9c0.9,0,1.6,0.3,2.1,0.9s0.9,1.6,0.9,2.8
		c0,1.1-0.2,2.3-0.5,3.4l-3.1,11.1c-0.6,2.5-1,3.8-1,4s0.1,0.4,0.2,0.6c0.1,0.1,0.2,0.2,0.4,0.2c0.2,0,0.5-0.2,1-0.5
		c1.1-0.9,2.1-1.9,3-3.3l1,0.5c-0.4,0.8-1.3,1.8-2.5,3.1s-2.3,2.3-3.1,2.7c-0.9,0.4-1.7,0.6-2.4,0.6s-1.2-0.2-1.7-0.6
		c-0.4-0.4-0.6-1-0.6-1.7c0-0.9,0.3-2.8,1.1-5.5l2.6-9c0.5-2.1,0.9-3.2,0.9-3.4c0.1-0.3,0.1-0.8,0.1-1c0-0.4-0.1-0.8-0.3-1.1
		c-0.2-0.3-0.4-0.4-0.8-0.4c-0.8,0-1.7,0.4-2.5,1.2c-2.7,2.4-5.1,5.7-7.4,10.1c-1.5,2.9-2.9,6.4-4.2,11h-4.3l4.8-17.1
		c0.5-1.9,0.8-3.1,0.8-3.7s-0.1-0.9-0.3-1.1c-0.2-0.2-0.4-0.3-0.8-0.3c-0.6,0-1.3,0.2-2,0.6c-1.1,0.8-2.6,2.4-4.4,4.8
		c-1.8,2.5-3.1,4.7-4.2,7c-0.4,1-1.6,4.4-3.3,10h-4.2l5.3-18.4l0.6-2.4c0.1-0.3,0.2-0.6,0.2-0.8c0-0.4-0.2-0.8-0.5-1.1
		s-0.9-0.4-1.5-0.4c-0.2,0-0.9,0.1-2,0.3l-0.2-1L463.6,939.2z"/>
	<path class="st0" d="M518.1,948.1c0,2.8-0.8,5.7-2.3,8.4c-1.5,2.8-3.5,5.1-6.2,6.6c-2.7,1.6-5.3,2.5-7.8,2.5
		c-2.6,0-4.7-0.8-6.3-2.5c-1.7-1.7-2.5-3.8-2.5-6.3c0-2.8,0.8-5.6,2.4-8.4c1.6-2.8,3.7-5.1,6.3-6.6c2.7-1.7,5.3-2.5,7.7-2.5
		c2.5,0,4.6,0.8,6.1,2.5C517.3,943.3,518.1,945.5,518.1,948.1z M513.4,946.2c0-1.8-0.4-3.1-1.3-4c-0.9-0.9-2-1.5-3.3-1.5
		c-2.8,0-5.4,2-7.7,5.9c-2.4,4-3.4,8-3.4,11.8c0,1.8,0.4,3.1,1.3,4.2c0.9,1,2,1.5,3.4,1.5c2.7,0,5.2-2,7.5-5.9
		C512.2,954.2,513.4,950.3,513.4,946.2z"/>
	<path class="st0" d="M531.3,939.2l-3.8,13c3.5-5.3,6.2-8.7,8.2-10.4c1.9-1.7,3.7-2.5,5.5-2.5c0.9,0,1.7,0.3,2.4,0.9
		c0.5,0.6,0.9,1.5,0.9,2.5c0,1.1-0.2,2.7-0.8,4.6l-3.4,11.9c-0.4,1.3-0.5,2.3-0.5,2.6c0,0.2,0.1,0.4,0.2,0.6
		c0.1,0.2,0.3,0.2,0.4,0.2c0.2,0,0.4-0.1,0.8-0.3c1-0.8,2.1-2,3.3-3.5l0.9,0.5c-1.8,2.5-3.4,4.4-5.1,5.4c-1.1,0.8-2.1,1.1-2.9,1.1
		c-0.6,0-1.2-0.2-1.7-0.6c-0.4-0.4-0.6-1-0.6-1.7c0-0.9,0.3-2.5,1-4.7l3.3-11.4c0.4-1.5,0.5-2.5,0.5-3.3c0-0.3-0.1-0.6-0.3-0.9
		c-0.2-0.2-0.5-0.3-0.9-0.3c-0.5,0-1.1,0.2-1.9,0.6c-1.3,0.9-2.8,2.3-4.4,4.3c-1.6,2-3.1,4.5-4.8,7.5c-0.9,1.6-1.7,3.3-2.3,5.3
		l-1.5,4.7h-4.3l5.2-17.7c0.5-2.1,0.9-3.4,0.9-3.8c0-0.3-0.2-0.8-0.5-1.1s-0.8-0.4-1.2-0.4c-0.2,0-0.6,0-1.2,0.1l-1.1,0.1l-0.2-1
		L531.3,939.2z"/>
	<path class="st0" d="M559.1,939.2l-5.6,19.9c-0.3,1.3-0.5,2.1-0.5,2.4s0.1,0.5,0.2,0.8c0.2,0.2,0.3,0.3,0.6,0.3s0.6-0.1,1-0.4
		c1.1-0.9,2.1-2,3.2-3.5l1,0.6c-1.3,1.9-2.8,3.5-4.6,4.9c-1.2,1-2.5,1.5-3.7,1.5c-0.8,0-1.5-0.2-1.9-0.6s-0.8-1-0.8-1.8
		c0-0.6,0.2-1.9,0.6-3.4l3.7-12.8c0.5-2,0.9-3.3,0.9-3.9c0-0.4-0.1-0.8-0.4-1c-0.3-0.2-0.6-0.4-1.2-0.4c-0.4,0-1.3,0.1-2.6,0.3V941
		L559.1,939.2z M558.8,928c0.8,0,1.5,0.2,2,0.8s0.8,1.2,0.8,2s-0.2,1.5-0.8,2s-1.2,0.9-2,0.9s-1.5-0.3-2-0.9s-0.9-1.2-0.9-2
		s0.2-1.5,0.8-2S557.8,928,558.8,928z"/>
	<path class="st0" d="M587.2,939.2l-5.5,19.2l-0.6,2.6c0,0.2-0.1,0.4-0.1,0.5c0,0.3,0.1,0.5,0.3,0.8c0.1,0.1,0.3,0.2,0.5,0.2
		s0.5-0.1,1-0.4c0.8-0.5,1.7-1.7,2.9-3.3l1,0.6c-1.3,2-2.7,3.4-4,4.5c-1.3,1-2.7,1.6-3.8,1.6c-0.8,0-1.5-0.2-1.8-0.5
		c-0.4-0.4-0.6-1-0.6-1.8c0-0.9,0.2-2.1,0.6-3.7l0.5-2.1c-2.5,3.2-4.8,5.5-6.8,6.8c-1.5,0.9-3,1.3-4.4,1.3s-2.6-0.5-3.5-1.7
		c-1-1.1-1.5-2.7-1.5-4.7c0-3,0.9-6.1,2.7-9.5c1.8-3.3,4.2-6,7-8.1c2.1-1.6,4.3-2.4,6.1-2.4c1.1,0,2.1,0.3,2.9,0.9
		c0.8,0.5,1.3,1.6,1.8,3l1-3.2L587.2,939.2z M577.1,940.7c-1.2,0-2.5,0.5-3.8,1.7c-1.9,1.6-3.7,4-5.2,7.2c-1.5,3.1-2.3,6-2.3,8.6
		c0,1.2,0.3,2.3,1,3c0.6,0.8,1.3,1.1,2.3,1.1c2,0,4.3-1.6,6.7-4.6c3.2-4,4.8-8.2,4.8-12.5c0-1.6-0.3-2.8-0.9-3.4
		C579.1,941,578.3,940.7,577.1,940.7z"/>
	<path class="st0" d="M621,939.2l-1.7,8.7h-1c-0.1-2.6-0.6-4.4-1.6-5.5s-2.3-1.7-3.7-1.7c-1.1,0-2.1,0.3-2.8,1c-0.6,0.6-1,1.5-1,2.4
		c0,0.5,0.1,1.2,0.4,1.8c0.2,0.5,0.9,1.3,1.8,2.4c2.5,2.7,4,4.7,4.7,6c0.6,1.3,1.1,2.7,1.1,3.8c0,2-0.8,3.7-2.5,5.3
		s-3.7,2.3-6.1,2.3c-1.3,0-2.9-0.3-4.7-1c-0.5-0.2-1.1-0.3-1.5-0.3c-0.9,0-1.5,0.4-1.9,1.3h-1l1.7-9.1h1c0.1,2.9,0.6,4.9,1.8,6.1
		c1.1,1.2,2.6,1.8,4.5,1.8c1.5,0,2.6-0.4,3.4-1.2c0.9-0.8,1.2-1.8,1.2-2.9c0-0.8-0.1-1.5-0.4-2.1c-0.5-1.1-1.7-2.7-3.3-4.7
		c-1.7-2-2.8-3.4-3.2-4.5s-0.6-2-0.6-3c0-1.8,0.6-3.3,2-4.7c1.3-1.2,3-1.9,5.2-1.9c0.5,0,1.1,0,1.7,0.1c0.2,0.1,0.9,0.3,1.9,0.6
		s1.7,0.5,1.9,0.5c0.8,0,1.5-0.4,2-1.3h0.8L621,939.2L621,939.2z"/>
	<path class="st0" d="M627.7,954.2c-0.1,0.9-0.2,1.7-0.2,2.4c0,1.7,0.5,3.1,1.8,4.4c1.2,1.2,2.7,1.8,4.4,1.8c1.3,0,2.7-0.3,3.9-0.9
		c1.2-0.5,3.1-1.8,5.6-3.7l0.5,0.8c-4.5,4.5-8.7,6.7-12.9,6.7c-2.8,0-4.8-0.9-6.2-2.6c-1.3-1.8-2.1-3.7-2.1-5.7
		c0-2.8,0.9-5.7,2.6-8.6c1.7-2.9,3.9-5.3,6.4-7c2.6-1.7,5.4-2.5,8.2-2.5c2,0,3.4,0.4,4.5,1.2s1.5,1.8,1.5,2.9c0,1.6-0.6,3.1-1.9,4.5
		c-1.7,1.9-4,3.3-7.3,4.6C634.5,953.2,631.5,953.8,627.7,954.2z M627.9,952.8c2.8-0.3,5.1-0.9,6.8-1.7c2.4-1,4-2.3,5.3-3.7
		c1.1-1.5,1.8-2.8,1.8-4.2c0-0.8-0.2-1.5-0.8-1.9s-1.2-0.8-2.1-0.8c-1.9,0-3.9,1-6.1,3C630.6,945.7,628.9,948.8,627.9,952.8z"/>
	<path class="st0" d="M647.8,940.8l9.9-1.6l-4.2,13.8c3.3-5.7,6.2-9.6,9-11.8c1.6-1.3,2.8-1.9,3.7-1.9c0.6,0,1.1,0.2,1.5,0.5
		c0.3,0.3,0.5,0.9,0.5,1.6c0,1.2-0.3,2.5-1,3.5c-0.4,0.9-1.1,1.2-2,1.2c-0.4,0-0.8-0.1-1.1-0.4c-0.3-0.3-0.5-0.6-0.5-1.3
		c0-0.3-0.1-0.5-0.2-0.6c-0.1-0.1-0.3-0.2-0.5-0.2c-0.3,0-0.6,0.1-0.9,0.2c-0.4,0.2-1.2,1-2.3,2.3c-1.6,1.9-3.2,4.3-5.2,7.2
		c-0.8,1.2-1.5,2.7-2,4.3c-0.8,2.1-1.2,3.4-1.3,3.9l-0.9,3.5h-4.4l5.3-17.6c0.5-2,0.9-3.4,0.9-4.4c0-0.3-0.1-0.5-0.4-0.9
		s-0.9-0.4-1.5-0.4c-0.4,0-1.1,0.1-2.3,0.2L647.8,940.8z"/>
	<path class="st0" d="M692.8,939.2l-5.5,19.2l-0.6,2.6c0,0.2-0.1,0.4-0.1,0.5c0,0.3,0.1,0.5,0.3,0.8c0.1,0.1,0.3,0.2,0.5,0.2
		s0.5-0.1,0.9-0.4c0.8-0.5,1.7-1.7,2.9-3.3l0.9,0.6c-1.3,2-2.7,3.4-4,4.5c-1.3,1-2.7,1.6-3.8,1.6c-0.8,0-1.5-0.2-1.8-0.5
		c-0.4-0.4-0.6-1-0.6-1.8c0-0.9,0.2-2.1,0.6-3.7l0.5-2.1c-2.5,3.2-4.8,5.5-6.8,6.8c-1.5,0.9-3,1.3-4.4,1.3s-2.6-0.5-3.5-1.7
		s-1.5-2.7-1.5-4.7c0-3,0.9-6.1,2.7-9.5c1.8-3.3,4.2-6,7-8.1c2.1-1.6,4.3-2.4,6.1-2.4c1.1,0,2.1,0.3,2.9,0.9c0.8,0.5,1.3,1.6,1.8,3
		l1-3.2L692.8,939.2z M682.8,940.7c-1.2,0-2.5,0.5-3.8,1.7c-1.9,1.6-3.7,4-5.2,7.2c-1.5,3.1-2.3,6-2.3,8.6c0,1.2,0.3,2.3,1,3
		c0.6,0.8,1.3,1.1,2.3,1.1c2,0,4.3-1.6,6.7-4.6c3.2-4,4.8-8.2,4.8-12.5c0-1.6-0.3-2.8-0.9-3.4C684.6,941,683.8,940.7,682.8,940.7z
		 M691.4,925l-8.3,9.8h-1l2.9-9.8H691.4z"/>
	<path class="st0" d="M712.5,954.2c-0.1,0.9-0.2,1.7-0.2,2.4c0,1.7,0.5,3.1,1.8,4.4c1.2,1.2,2.7,1.8,4.4,1.8c1.3,0,2.7-0.3,3.9-0.9
		c1.2-0.5,3.1-1.8,5.6-3.7l0.5,0.8c-4.5,4.5-8.7,6.7-12.9,6.7c-2.8,0-4.8-0.9-6.2-2.6c-1.3-1.8-2.1-3.7-2.1-5.7
		c0-2.8,0.9-5.7,2.6-8.6c1.7-2.9,3.9-5.3,6.4-7c2.6-1.7,5.4-2.5,8.2-2.5c2,0,3.4,0.4,4.5,1.2c1,0.8,1.5,1.8,1.5,2.9
		c0,1.6-0.6,3.1-1.9,4.5c-1.7,1.9-4,3.3-7.3,4.6C719.2,953.2,716.3,953.8,712.5,954.2z M712.7,952.8c2.8-0.3,5.1-0.9,6.8-1.7
		c2.4-1,4-2.3,5.3-3.7c1.1-1.5,1.8-2.8,1.8-4.2c0-0.8-0.2-1.5-0.8-1.9s-1.2-0.8-2.1-0.8c-1.9,0-3.9,1-6.1,3
		C715.4,945.7,713.7,948.8,712.7,952.8z"/>
	<path class="st0" d="M742.2,939.2l-3.8,13c3.4-5.3,6.2-8.7,8.2-10.4c1.9-1.7,3.7-2.5,5.5-2.5c0.9,0,1.7,0.3,2.4,0.9
		c0.5,0.6,0.9,1.5,0.9,2.5c0,1.1-0.2,2.7-0.8,4.6l-3.4,11.9c-0.4,1.3-0.5,2.3-0.5,2.6c0,0.2,0.1,0.4,0.2,0.6
		c0.1,0.2,0.3,0.2,0.4,0.2c0.2,0,0.4-0.1,0.8-0.3c1-0.8,2.1-2,3.3-3.5l0.9,0.5c-1.8,2.5-3.4,4.4-5.1,5.4c-1.1,0.8-2.1,1.1-2.9,1.1
		c-0.6,0-1.2-0.2-1.7-0.6c-0.4-0.4-0.6-1-0.6-1.7c0-0.9,0.3-2.5,0.9-4.7l3.3-11.4c0.4-1.5,0.5-2.5,0.5-3.3c0-0.3-0.1-0.6-0.3-0.9
		c-0.2-0.2-0.5-0.3-0.9-0.3c-0.5,0-1.1,0.2-1.9,0.6c-1.3,0.9-2.8,2.3-4.4,4.3c-1.6,2-3.1,4.5-4.8,7.5c-0.9,1.6-1.7,3.3-2.3,5.3
		l-1.5,4.7h-4.3l5.2-17.7c0.5-2.1,0.9-3.4,0.9-3.8c0-0.3-0.2-0.8-0.5-1.1s-0.8-0.4-1.2-0.4c-0.2,0-0.6,0-1.2,0.1l-1.1,0.1l-0.2-1
		L742.2,939.2z"/>
	<path class="st0" d="M786.7,924.5l-9.8,33.8c-0.4,1.7-0.6,2.7-0.6,3.1c0,0.3,0.1,0.5,0.2,0.6c0.2,0.2,0.4,0.3,0.6,0.3
		c0.3,0,0.8-0.1,1.1-0.4c1-0.8,2-2,3.1-3.5l0.9,0.9c-1.8,2.6-3.4,4.4-4.9,5.4c-1.1,0.6-2.1,1-3.1,1c-0.6,0-1.3-0.2-1.8-0.8
		c-0.4-0.4-0.6-1-0.6-1.7c0-0.6,0.3-2.1,0.9-4.2l7.7-26.7c0.5-2.3,0.9-3.4,0.9-3.7c0-0.4-0.2-0.9-0.5-1.1c-0.3-0.3-0.9-0.4-1.7-0.4
		c-0.4,0-1.1,0.1-2,0.2v-1L786.7,924.5z"/>
	<path class="st0" d="M811,939.2l-5.5,19.2l-0.6,2.6c0,0.2-0.1,0.4-0.1,0.5c0,0.3,0.1,0.5,0.3,0.8c0.1,0.1,0.3,0.2,0.5,0.2
		s0.5-0.1,0.9-0.4c0.8-0.5,1.7-1.7,2.9-3.3l0.9,0.6c-1.3,2-2.7,3.4-4,4.5c-1.3,1-2.7,1.6-3.8,1.6c-0.8,0-1.5-0.2-1.8-0.5
		c-0.4-0.4-0.6-1-0.6-1.8c0-0.9,0.2-2.1,0.6-3.7l0.5-2.1c-2.5,3.2-4.8,5.5-6.8,6.8c-1.5,0.9-3,1.3-4.4,1.3s-2.6-0.5-3.5-1.7
		c-1-1.1-1.5-2.7-1.5-4.7c0-3,0.9-6.1,2.7-9.5c1.8-3.3,4.2-6,7-8.1c2.1-1.6,4.3-2.4,6.1-2.4c1.1,0,2.1,0.3,2.9,0.9
		c0.8,0.5,1.3,1.6,1.8,3l1-3.2L811,939.2z M800.9,940.7c-1.2,0-2.5,0.5-3.8,1.7c-1.9,1.6-3.7,4-5.2,7.2c-1.5,3.1-2.3,6-2.3,8.6
		c0,1.2,0.3,2.3,1,3c0.6,0.8,1.3,1.1,2.3,1.1c2,0,4.3-1.6,6.7-4.6c3.2-4,4.8-8.2,4.8-12.5c0-1.6-0.3-2.8-0.9-3.4
		C802.9,941,802,940.7,800.9,940.7z"/>
	<path class="st0" d="M837.2,939.2l-5.6,19.9c-0.3,1.3-0.5,2.1-0.5,2.4s0.1,0.5,0.2,0.8c0.2,0.2,0.3,0.3,0.6,0.3s0.6-0.1,1-0.4
		c1.1-0.9,2.1-2,3.2-3.5l1,0.6c-1.3,1.9-2.8,3.5-4.6,4.9c-1.2,1-2.5,1.5-3.7,1.5c-0.8,0-1.5-0.2-1.9-0.6s-0.8-1-0.8-1.8
		c0-0.6,0.2-1.9,0.6-3.4l3.7-12.8c0.5-2,0.9-3.3,0.9-3.9c0-0.4-0.1-0.8-0.4-1c-0.3-0.2-0.6-0.4-1.2-0.4c-0.4,0-1.3,0.1-2.6,0.3V941
		L837.2,939.2z M836.7,928c0.8,0,1.5,0.2,2,0.8c0.5,0.5,0.8,1.2,0.8,2s-0.2,1.5-0.8,2c-0.5,0.5-1.2,0.9-2,0.9c-0.9,0-1.5-0.3-2-0.9
		s-0.9-1.2-0.9-2s0.2-1.5,0.8-2C835.2,928.2,835.9,928,836.7,928z"/>
	<path class="st0" d="M868.3,940.9l-0.8,2.9h-4.8c0.3,1,0.5,2,0.5,2.9c0,2.5-1,4.7-3.1,6.7c-2.1,1.9-5.1,3-8.7,3.2
		c-2,0.5-3.4,1.3-4.5,2.3c-0.3,0.3-0.5,0.5-0.5,0.9s0.2,0.6,0.5,1c0.3,0.3,1.2,0.6,2.6,0.9l5.5,1.3c3,0.6,5.1,1.6,6,2.6
		c1,1,1.5,2.1,1.5,3.4c0,1.6-0.5,3-1.7,4.3s-2.8,2.4-5.1,3c-2.3,0.8-4.6,1.1-7.3,1.1c-2.4,0-4.5-0.3-6.3-0.9
		c-1.9-0.5-3.3-1.3-4.2-2.3c-0.8-0.9-1.2-1.9-1.2-2.9c0-0.8,0.2-1.7,0.8-2.6s1.2-1.6,2-2.1c0.5-0.3,2-1.2,4.4-2.6
		c-0.9-0.6-1.3-1.5-1.3-2.3s0.3-1.6,1.1-2.4c0.8-0.9,2.4-1.8,4.8-2.8c-2.1-0.4-3.7-1.2-4.9-2.6c-1.2-1.3-1.8-2.8-1.8-4.5
		c0-2.7,1.1-5.1,3.4-7.2c2.4-2.1,5.5-3.2,9.4-3.2c1.5,0,2.6,0.1,3.4,0.4c0.9,0.3,1.8,0.8,2.7,1.3h7.5L868.3,940.9L868.3,940.9z
		 M844.9,964.9c-1.6,0.6-2.7,1.6-3.4,2.7s-1.2,2.1-1.2,3.2c0,1.2,0.5,2.3,1.7,3.1c1.7,1.1,4,1.8,7.2,1.8c2.7,0,5.1-0.4,7-1.3
		s2.9-2.1,2.9-3.5c0-0.8-0.3-1.5-1.1-2.1c-0.6-0.6-2.1-1.2-4.2-1.6C852.5,966.8,849.6,966.1,844.9,964.9z M858.6,945.4
		c0-1.6-0.4-2.7-1.2-3.5c-0.9-0.9-1.9-1.3-3.3-1.3c-2.1,0-3.9,1.1-5.3,3.2c-1.3,2.1-2.1,4.4-2.1,6.7c0,1.5,0.4,2.7,1.3,3.5
		s1.9,1.3,3.2,1.3c1,0,2-0.2,2.9-0.8c0.9-0.5,1.7-1.3,2.4-2.3c0.6-1,1.1-2.3,1.6-3.7C858.3,947.1,858.6,946.1,858.6,945.4z"/>
	<path class="st0" d="M882.5,924.5l-9.8,33.8c-0.4,1.7-0.6,2.7-0.6,3.1c0,0.3,0.1,0.5,0.2,0.6c0.2,0.2,0.4,0.3,0.6,0.3
		c0.3,0,0.8-0.1,1.1-0.4c1-0.8,2-2,3.1-3.5l0.9,0.9c-1.8,2.6-3.4,4.4-4.9,5.4c-1.1,0.6-2.1,1-3.1,1c-0.6,0-1.3-0.2-1.8-0.8
		c-0.4-0.4-0.6-1-0.6-1.7c0-0.6,0.3-2.1,0.9-4.2l7.7-26.7c0.5-2.3,0.9-3.4,0.9-3.7c0-0.4-0.2-0.9-0.5-1.1c-0.3-0.3-0.9-0.4-1.7-0.4
		c-0.4,0-1.1,0.1-2,0.2v-1L882.5,924.5z"/>
	<path class="st0" d="M886.6,954.2c-0.1,0.9-0.2,1.7-0.2,2.4c0,1.7,0.5,3.1,1.8,4.4c1.2,1.2,2.7,1.8,4.4,1.8c1.3,0,2.7-0.3,3.9-0.9
		c1.2-0.5,3.1-1.8,5.6-3.7l0.5,0.8c-4.5,4.5-8.7,6.7-12.9,6.7c-2.8,0-4.8-0.9-6.2-2.6c-1.3-1.8-2.1-3.7-2.1-5.7
		c0-2.8,0.9-5.7,2.6-8.6c1.7-2.9,3.9-5.3,6.4-7c2.6-1.7,5.4-2.5,8.2-2.5c2,0,3.4,0.4,4.5,1.2c1,0.8,1.5,1.8,1.5,2.9
		c0,1.6-0.6,3.1-1.9,4.5c-1.7,1.9-4,3.3-7.3,4.6C893.4,953.2,890.4,953.8,886.6,954.2z M886.7,952.8c2.8-0.3,5.1-0.9,6.8-1.7
		c2.4-1,4-2.3,5.3-3.7c1.1-1.5,1.8-2.8,1.8-4.2c0-0.8-0.2-1.5-0.8-1.9s-1.2-0.8-2.1-0.8c-1.9,0-3.9,1-6.1,3
		C889.4,945.7,887.8,948.8,886.7,952.8z"/>
	<path class="st0" d="M924.8,939.2l-1.7,8.7h-1c-0.1-2.6-0.6-4.4-1.6-5.5s-2.3-1.7-3.7-1.7c-1.1,0-2.1,0.3-2.8,1
		c-0.6,0.6-1,1.5-1,2.4c0,0.5,0.1,1.2,0.4,1.8c0.2,0.5,0.9,1.3,1.8,2.4c2.5,2.7,4,4.7,4.7,6c0.6,1.3,1.1,2.7,1.1,3.8
		c0,2-0.8,3.7-2.5,5.3s-3.7,2.3-6.1,2.3c-1.3,0-2.9-0.3-4.7-1c-0.5-0.2-1.1-0.3-1.5-0.3c-0.9,0-1.5,0.4-1.9,1.3h-1.2l1.7-9.1h1
		c0.1,2.9,0.6,4.9,1.8,6.1c1.1,1.2,2.6,1.8,4.5,1.8c1.5,0,2.6-0.4,3.4-1.2s1.2-1.8,1.2-2.9c0-0.8-0.1-1.5-0.4-2.1
		c-0.5-1.1-1.7-2.7-3.3-4.7c-1.7-2-2.8-3.4-3.2-4.5c-0.4-1-0.6-2-0.6-3c0-1.8,0.6-3.3,2-4.7c1.3-1.2,3-1.9,5.2-1.9
		c0.5,0,1.1,0,1.7,0.1c0.2,0.1,0.9,0.3,1.9,0.6s1.7,0.5,1.9,0.5c0.8,0,1.5-0.4,2-1.3h1L924.8,939.2L924.8,939.2z"/>
	<path class="st0" d="M937.8,939.2l-5.6,19.9c-0.3,1.3-0.5,2.1-0.5,2.4s0.1,0.5,0.2,0.8c0.2,0.2,0.3,0.3,0.6,0.3s0.6-0.1,1-0.4
		c1.1-0.9,2.1-2,3.2-3.5l1,0.6c-1.3,1.9-2.8,3.5-4.6,4.9c-1.2,1-2.5,1.5-3.7,1.5c-0.8,0-1.5-0.2-1.9-0.6s-0.8-1-0.8-1.8
		c0-0.6,0.2-1.9,0.6-3.4l3.7-12.8c0.5-2,0.9-3.3,0.9-3.9c0-0.4-0.1-0.8-0.4-1c-0.3-0.2-0.6-0.4-1.2-0.4c-0.4,0-1.3,0.1-2.6,0.3V941
		L937.8,939.2z M937.5,928c0.8,0,1.5,0.2,2,0.8s0.8,1.2,0.8,2s-0.2,1.5-0.8,2s-1.2,0.9-2,0.9s-1.5-0.3-2-0.9s-0.9-1.2-0.9-2
		s0.2-1.5,0.8-2C936,928.2,936.7,928,937.5,928z"/>
	<path class="st0" d="M966,939.2l-5.5,19.2l-0.6,2.6c0,0.2-0.1,0.4-0.1,0.5c0,0.3,0.1,0.5,0.3,0.8c0.1,0.1,0.3,0.2,0.5,0.2
		s0.5-0.1,0.9-0.4c0.8-0.5,1.7-1.7,2.9-3.3l0.9,0.6c-1.3,2-2.7,3.4-4,4.5c-1.3,1-2.7,1.6-3.8,1.6c-0.8,0-1.5-0.2-1.8-0.5
		c-0.4-0.4-0.6-1-0.6-1.8c0-0.9,0.2-2.1,0.6-3.7l0.5-2.1c-2.5,3.2-4.8,5.5-6.8,6.8c-1.5,0.9-3,1.3-4.4,1.3s-2.6-0.5-3.5-1.7
		s-1.5-2.7-1.5-4.7c0-3,0.9-6.1,2.7-9.5c1.8-3.3,4.2-6,7-8.1c2.1-1.6,4.3-2.4,6.1-2.4c1.1,0,2.1,0.3,2.9,0.9c0.8,0.5,1.3,1.6,1.8,3
		l1-3.2L966,939.2z M955.9,940.7c-1.2,0-2.5,0.5-3.8,1.7c-1.9,1.6-3.7,4-5.2,7.2c-1.5,3.1-2.3,6-2.3,8.6c0,1.2,0.3,2.3,1,3
		s1.3,1.1,2.3,1.1c2,0,4.3-1.6,6.7-4.6c3.2-4,4.8-8.2,4.8-12.5c0-1.6-0.3-2.8-0.9-3.4C957.9,941,957,940.7,955.9,940.7z"/>
</g>
<g>
	<path class="st0" d="M298.8,1149.5l0.9,12.8h-0.9c-1.1-3.8-2.8-6.6-4.9-8.3c-2.1-1.7-4.7-2.5-7.6-2.5c-2.5,0-4.7,0.6-6.8,1.9
		c-2,1.3-3.6,3.3-4.7,6c-1.2,2.8-1.7,6.2-1.7,10.3c0,3.4,0.5,6.3,1.6,8.8s2.7,4.4,4.9,5.7c2.2,1.3,4.7,2,7.5,2
		c2.5,0,4.6-0.5,6.5-1.6c1.9-1,3.9-3.1,6.2-6.2l0.8,0.5c-1.9,3.3-4.1,5.8-6.6,7.3s-5.5,2.3-8.9,2.3c-6.2,0-11-2.3-14.4-6.9
		c-2.5-3.4-3.8-7.5-3.8-12.1c0-3.7,0.8-7.2,2.5-10.3c1.7-3.1,4-5.6,6.9-7.3c2.9-1.7,6.2-2.6,9.6-2.6c2.7,0,5.4,0.7,8,2
		c0.8,0.4,1.3,0.6,1.7,0.6c0.5,0,0.9-0.2,1.3-0.5c0.5-0.5,0.8-1.2,1-2.1h0.9V1149.5z"/>
	<path class="st0" d="M318.6,1184.2c-2.6,2-4.2,3.1-4.9,3.5c-1,0.5-2.1,0.7-3.2,0.7c-1.7,0-3.2-0.6-4.3-1.8
		c-1.1-1.2-1.7-2.8-1.7-4.7c0-1.2,0.3-2.3,0.8-3.2c0.8-1.3,2.1-2.4,3.9-3.5c1.9-1.1,5-2.5,9.3-4.1v-1c0-2.5-0.4-4.2-1.2-5.2
		c-0.8-0.9-2-1.4-3.5-1.4c-1.1,0-2.1,0.3-2.7,0.9c-0.7,0.6-1.1,1.4-1.1,2.2l0.1,1.6c0,0.8-0.2,1.5-0.7,2c-0.4,0.5-1,0.7-1.7,0.7
		s-1.2-0.2-1.7-0.7c-0.4-0.5-0.7-1.1-0.7-2c0-1.6,0.8-3,2.4-4.4c1.6-1.3,3.9-2,6.8-2c2.2,0,4.1,0.4,5.5,1.1c1.1,0.6,1.9,1.5,2.4,2.7
		c0.3,0.8,0.5,2.4,0.5,4.9v8.6c0,2.4,0,3.9,0.1,4.4s0.2,0.9,0.5,1.1c0.2,0.2,0.5,0.3,0.7,0.3c0.3,0,0.5-0.1,0.8-0.2
		c0.4-0.2,1.1-0.9,2.3-2v1.5c-2.1,2.7-4.1,4.1-5.9,4.1c-0.9,0-1.6-0.3-2.1-0.9C318.9,1186.8,318.6,1185.8,318.6,1184.2z
		 M318.6,1182.4v-9.7c-2.8,1.1-4.6,1.9-5.4,2.4c-1.4,0.8-2.5,1.6-3.1,2.5s-0.9,1.9-0.9,2.9c0,1.3,0.4,2.4,1.2,3.3
		c0.8,0.9,1.7,1.3,2.7,1.3C314.4,1185.2,316.3,1184.3,318.6,1182.4z"/>
	<path class="st0" d="M336.9,1167.2c1.9-1.9,2.9-2.9,3.3-3.2c0.8-0.7,1.7-1.2,2.7-1.6s1.9-0.6,2.8-0.6c1.6,0,3,0.5,4.1,1.4
		s1.9,2.3,2.3,4c1.9-2.2,3.5-3.7,4.8-4.4c1.3-0.7,2.7-1,4-1c1.4,0,2.5,0.3,3.6,1c1,0.7,1.9,1.8,2.5,3.4c0.4,1.1,0.6,2.7,0.6,5v10.9
		c0,1.6,0.1,2.7,0.3,3.3c0.2,0.4,0.6,0.8,1,1c0.5,0.3,1.3,0.4,2.4,0.4v1h-12.5v-1h0.5c1.1,0,1.9-0.2,2.5-0.6
		c0.4-0.3,0.7-0.8,0.9-1.4c0.1-0.3,0.1-1.2,0.1-2.7v-10.9c0-2.1-0.2-3.5-0.7-4.4c-0.7-1.2-1.9-1.8-3.5-1.8c-1,0-2,0.2-3,0.7
		s-2.2,1.4-3.6,2.7l-0.1,0.3l0.1,1.2v12.1c0,1.7,0.1,2.8,0.3,3.2c0.2,0.4,0.6,0.8,1.1,1.1c0.5,0.3,1.4,0.4,2.7,0.4v1h-12.8v-1
		c1.4,0,2.4-0.2,2.9-0.5s0.9-0.8,1.1-1.5c0.1-0.3,0.1-1.2,0.1-2.7v-10.9c0-2.1-0.3-3.5-0.9-4.4c-0.8-1.2-2-1.8-3.4-1.8
		c-1,0-2,0.3-3,0.8c-1.5,0.8-2.7,1.7-3.6,2.7v13.6c0,1.7,0.1,2.8,0.4,3.2c0.2,0.5,0.6,0.9,1,1.1c0.4,0.3,1.4,0.4,2.7,0.4v1h-12.5v-1
		c1.1,0,2-0.1,2.4-0.4c0.5-0.3,0.8-0.6,1.1-1.2c0.2-0.5,0.4-1.6,0.4-3.2v-9.7c0-2.8-0.1-4.6-0.3-5.4c-0.1-0.6-0.3-1-0.6-1.3
		c-0.3-0.2-0.7-0.3-1.1-0.3c-0.5,0-1.1,0.1-1.9,0.4l-0.4-1l7.6-3.1h1.2v5.7H336.9z"/>
	<path class="st0" d="M382.2,1161.8v20.3c0,1.6,0.1,2.7,0.3,3.2c0.2,0.5,0.6,0.9,1,1.2c0.4,0.3,1.3,0.4,2.5,0.4v1h-12.3v-1
		c1.2,0,2.1-0.1,2.5-0.4c0.4-0.2,0.8-0.6,1-1.2c0.2-0.5,0.4-1.6,0.4-3.2v-9.8c0-2.7-0.1-4.5-0.2-5.3c-0.1-0.6-0.3-1-0.6-1.2
		c-0.3-0.2-0.7-0.3-1.1-0.3c-0.5,0-1.1,0.1-1.9,0.4l-0.4-1l7.6-3.1H382.2z M379.9,1148.6c0.8,0,1.4,0.3,2,0.8c0.5,0.5,0.8,1.2,0.8,2
		s-0.3,1.4-0.8,2s-1.2,0.8-2,0.8s-1.4-0.3-2-0.8c-0.5-0.6-0.8-1.2-0.8-2s0.3-1.4,0.8-2S379.1,1148.6,379.9,1148.6z"/>
	<path class="st0" d="M396.5,1167.2c3-3.6,5.8-5.4,8.5-5.4c1.4,0,2.6,0.3,3.6,1s1.8,1.8,2.4,3.4c0.4,1.1,0.6,2.8,0.6,5.1v10.8
		c0,1.6,0.1,2.7,0.4,3.3c0.2,0.5,0.5,0.8,1,1.1c0.4,0.3,1.3,0.4,2.5,0.4v1H403v-1h0.5c1.2,0,2-0.2,2.5-0.5c0.5-0.4,0.8-0.9,1-1.6
		c0.1-0.3,0.1-1.1,0.1-2.6v-10.4c0-2.3-0.3-4-0.9-5s-1.6-1.6-3-1.6c-2.2,0-4.4,1.2-6.6,3.6v13.3c0,1.7,0.1,2.8,0.3,3.2
		c0.3,0.5,0.6,0.9,1.1,1.2c0.4,0.3,1.4,0.4,2.7,0.4v1h-12.5v-1h0.5c1.3,0,2.2-0.3,2.6-1c0.5-0.7,0.7-1.9,0.7-3.8v-9.4
		c0-3-0.1-4.9-0.2-5.6s-0.3-1.1-0.6-1.4c-0.3-0.2-0.7-0.4-1.2-0.4s-1.1,0.1-1.9,0.4l-0.4-1l7.6-3.1h1.2L396.5,1167.2L396.5,1167.2z"
		/>
	<path class="st0" d="M429.9,1161.8c3.8,0,6.9,1.5,9.2,4.4c2,2.5,3,5.4,3,8.6c0,2.3-0.5,4.6-1.6,6.9s-2.6,4.1-4.5,5.3
		c-1.9,1.2-4,1.8-6.4,1.8c-3.8,0-6.8-1.5-9.1-4.6c-1.9-2.6-2.8-5.4-2.8-8.6c0-2.3,0.6-4.6,1.7-6.9s2.7-4,4.5-5.1
		C425.8,1162.4,427.7,1161.8,429.9,1161.8z M429,1163.6c-1,0-1.9,0.3-2.9,0.9s-1.8,1.6-2.4,3.1s-0.9,3.3-0.9,5.6
		c0,3.7,0.7,6.9,2.2,9.5c1.5,2.7,3.4,4,5.8,4c1.8,0,3.3-0.7,4.4-2.2c1.2-1.5,1.7-4,1.7-7.6c0-4.5-1-8.1-2.9-10.7
		C432.7,1164.5,431,1163.6,429,1163.6z"/>
	<path class="st0" d="M477.8,1185c-1.2,1.3-2.4,2.2-3.6,2.8c-1.2,0.6-2.4,0.9-3.8,0.9c-2.8,0-5.2-1.2-7.2-3.5
		c-2.1-2.3-3.1-5.3-3.1-8.9s1.1-7,3.4-10s5.2-4.5,8.8-4.5c2.2,0,4.1,0.7,5.5,2.1v-4.7c0-2.9-0.1-4.7-0.2-5.3
		c-0.1-0.7-0.3-1.1-0.6-1.4c-0.3-0.2-0.7-0.4-1.1-0.4c-0.5,0-1.1,0.1-1.9,0.4l-0.4-1l7.6-3.1h1.2v29.3c0,3,0.1,4.8,0.2,5.4
		c0.1,0.7,0.4,1.1,0.7,1.4c0.3,0.3,0.7,0.4,1.1,0.4c0.5,0,1.1-0.2,2-0.5l0.3,1l-7.5,3.1h-1.3v-3.5H477.8z M477.8,1183.1V1170
		c-0.1-1.3-0.4-2.4-1-3.4s-1.3-1.8-2.2-2.3c-0.9-0.5-1.8-0.8-2.7-0.8c-1.6,0-3.1,0.7-4.4,2.2c-1.7,1.9-2.5,4.7-2.5,8.4
		c0,3.7,0.8,6.6,2.4,8.6s3.4,3,5.4,3C474.6,1185.6,476.3,1184.8,477.8,1183.1z"/>
	<path class="st0" d="M492.5,1172.1c0,3.8,0.9,6.7,2.7,8.9c1.9,2.1,4,3.2,6.5,3.2c1.7,0,3.1-0.5,4.3-1.4c1.2-0.9,2.3-2.5,3.1-4.7
		l0.9,0.5c-0.4,2.5-1.5,4.8-3.4,6.9s-4.2,3.1-7,3.1c-3,0-5.7-1.2-7.8-3.6c-2.2-2.4-3.2-5.6-3.2-9.6c0-4.3,1.1-7.7,3.3-10.1
		c2.2-2.4,5-3.6,8.4-3.6c2.8,0,5.2,0.9,7,2.8s2.7,4.4,2.7,7.5L492.5,1172.1L492.5,1172.1z M492.5,1170.5h11.8
		c-0.1-1.6-0.3-2.8-0.6-3.4c-0.5-1-1.1-1.8-2.1-2.4c-0.9-0.6-1.9-0.9-2.9-0.9c-1.5,0-2.9,0.6-4.1,1.8
		C493.4,1166.7,492.7,1168.4,492.5,1170.5z"/>
	<path class="st0" d="M564.1,1187.9h-10l-12.7-17.5c-0.9,0-1.7,0-2.3,0c-0.2,0-0.5,0-0.8,0s-0.6,0-0.9,0v10.9c0,2.4,0.3,3.8,0.8,4.4
		c0.7,0.8,1.8,1.2,3.2,1.2h1.5v1h-16.1v-1h1.4c1.6,0,2.7-0.5,3.4-1.5c0.4-0.6,0.6-1.9,0.6-4.1V1157c0-2.4-0.3-3.8-0.8-4.4
		c-0.7-0.8-1.8-1.2-3.2-1.2h-1.4v-1h13.7c4,0,6.9,0.3,8.8,0.9c1.9,0.6,3.5,1.7,4.8,3.2c1.3,1.6,2,3.4,2,5.6c0,2.3-0.8,4.3-2.3,6
		s-3.8,2.9-7,3.6l7.7,10.8c1.8,2.5,3.3,4.1,4.6,4.9s2.9,1.3,5,1.5V1187.9z M537.4,1168.6c0.3,0,0.6,0,0.9,0c0.3,0,0.5,0,0.6,0
		c3.6,0,6.3-0.8,8.1-2.3c1.8-1.6,2.7-3.5,2.7-5.9c0-2.3-0.7-4.2-2.2-5.7s-3.4-2.2-5.8-2.2c-1.1,0-2.5,0.2-4.3,0.5V1168.6z"/>
	<path class="st0" d="M574.1,1161.8v20.3c0,1.6,0.1,2.7,0.3,3.2s0.6,0.9,1,1.2c0.4,0.3,1.3,0.4,2.5,0.4v1h-12.3v-1
		c1.2,0,2.1-0.1,2.5-0.4c0.4-0.2,0.8-0.6,1-1.2c0.2-0.5,0.4-1.6,0.4-3.2v-9.8c0-2.7-0.1-4.5-0.2-5.3c-0.1-0.6-0.3-1-0.6-1.2
		s-0.7-0.3-1.1-0.3c-0.5,0-1.1,0.1-1.9,0.4l-0.4-1l7.6-3.1H574.1z M571.8,1148.6c0.8,0,1.4,0.3,2,0.8c0.5,0.5,0.8,1.2,0.8,2
		s-0.3,1.4-0.8,2s-1.2,0.8-2,0.8s-1.4-0.3-2-0.8c-0.5-0.6-0.8-1.2-0.8-2s0.3-1.4,0.8-2S571,1148.6,571.8,1148.6z"/>
	<path class="st0" d="M579.2,1165.1l7.8-3.2h1.1v5.9c1.3-2.2,2.6-3.8,3.9-4.7c1.3-0.9,2.7-1.3,4.2-1.3c2.5,0,4.7,1,6.4,3
		c2.1,2.4,3.1,5.6,3.1,9.5c0,4.4-1.3,8-3.8,10.8c-2.1,2.4-4.7,3.5-7.8,3.5c-1.4,0-2.5-0.2-3.5-0.6c-0.7-0.3-1.6-0.8-2.5-1.7v7.7
		c0,1.7,0.1,2.8,0.3,3.3s0.6,0.8,1.1,1.1c0.5,0.3,1.5,0.4,2.9,0.4v1h-13.3v-1h0.7c1,0,1.9-0.2,2.6-0.6c0.3-0.2,0.6-0.5,0.8-1
		c0.2-0.4,0.3-1.6,0.3-3.5V1170c0-1.6-0.1-2.7-0.2-3.1c-0.1-0.4-0.4-0.8-0.7-1s-0.8-0.3-1.3-0.3c-0.4,0-1,0.1-1.7,0.4L579.2,1165.1z
		 M588.1,1169.5v9.4c0,2.1,0.1,3.4,0.2,4.1c0.3,1.1,0.9,2,1.9,2.8s2.3,1.2,3.8,1.2c1.9,0,3.3-0.7,4.5-2.2c1.5-1.9,2.3-4.5,2.3-7.9
		c0-3.9-0.8-6.8-2.5-8.9c-1.2-1.4-2.6-2.1-4.2-2.1c-0.9,0-1.7,0.2-2.6,0.7C590.7,1166.8,589.6,1167.8,588.1,1169.5z"/>
	<path class="st0" d="M621.8,1161.8c3.8,0,6.9,1.5,9.2,4.4c2,2.5,3,5.4,3,8.6c0,2.3-0.5,4.6-1.6,6.9s-2.6,4.1-4.5,5.3
		c-1.9,1.2-4,1.8-6.4,1.8c-3.8,0-6.8-1.5-9.1-4.6c-1.9-2.6-2.8-5.4-2.8-8.6c0-2.3,0.6-4.6,1.7-6.9c1.1-2.3,2.7-4,4.5-5.1
		C617.7,1162.4,619.7,1161.8,621.8,1161.8z M620.9,1163.6c-1,0-1.9,0.3-2.9,0.9s-1.8,1.6-2.4,3.1c-0.6,1.5-0.9,3.3-0.9,5.6
		c0,3.7,0.7,6.9,2.2,9.5c1.5,2.7,3.4,4,5.8,4c1.8,0,3.3-0.7,4.4-2.2c1.2-1.5,1.7-4,1.7-7.6c0-4.5-1-8.1-2.9-10.7
		C624.6,1164.5,623,1163.6,620.9,1163.6z"/>
	<path class="st0" d="M646.4,1148.6v33.6c0,1.6,0.1,2.7,0.3,3.2s0.6,0.9,1.1,1.2c0.5,0.3,1.4,0.4,2.7,0.4v1h-12.4v-1
		c1.2,0,2-0.1,2.4-0.4s0.7-0.6,1-1.2c0.2-0.5,0.3-1.6,0.3-3.2v-23c0-2.9-0.1-4.6-0.2-5.3c-0.1-0.7-0.3-1.1-0.6-1.3
		c-0.3-0.2-0.6-0.4-1.1-0.4s-1.1,0.1-1.8,0.4l-0.5-1l7.6-3.1h1.2V1148.6z"/>
	<path class="st0" d="M662.2,1148.6v33.6c0,1.6,0.1,2.7,0.3,3.2s0.6,0.9,1.1,1.2c0.5,0.3,1.4,0.4,2.7,0.4v1h-12.4v-1
		c1.2,0,2-0.1,2.4-0.4s0.7-0.6,1-1.2c0.2-0.5,0.3-1.6,0.3-3.2v-23c0-2.9-0.1-4.6-0.2-5.3c-0.1-0.7-0.3-1.1-0.6-1.3
		c-0.3-0.2-0.6-0.4-1.1-0.4s-1.1,0.1-1.8,0.4l-0.5-1l7.6-3.1h1.2V1148.6z"/>
	<path class="st0" d="M673.4,1172.1c0,3.8,0.9,6.7,2.7,8.9c1.9,2.1,4,3.2,6.5,3.2c1.7,0,3.1-0.5,4.3-1.4s2.2-2.5,3.1-4.7l0.9,0.5
		c-0.4,2.5-1.5,4.8-3.4,6.9s-4.2,3.1-7,3.1c-3,0-5.7-1.2-7.8-3.6c-2.2-2.4-3.2-5.6-3.2-9.6c0-4.3,1.1-7.7,3.3-10.1s5-3.6,8.4-3.6
		c2.8,0,5.2,0.9,7,2.8s2.7,4.4,2.7,7.5L673.4,1172.1L673.4,1172.1z M673.4,1170.5h11.8c-0.1-1.6-0.3-2.8-0.6-3.4
		c-0.5-1-1.1-1.8-2.1-2.4c-0.9-0.6-1.9-0.9-2.9-0.9c-1.5,0-2.9,0.6-4.1,1.8C674.3,1166.7,673.6,1168.4,673.4,1170.5z"/>
	<path class="st0" d="M701.7,1154.2v8.3h5.9v1.9h-5.9v16.4c0,1.6,0.2,2.8,0.7,3.3c0.5,0.6,1.1,0.9,1.8,0.9c0.6,0,1.2-0.2,1.8-0.6
		s1-0.9,1.3-1.7h1.1c-0.6,1.8-1.6,3.2-2.7,4.1c-1.2,0.9-2.4,1.4-3.6,1.4c-0.9,0-1.7-0.2-2.5-0.7s-1.4-1.1-1.8-2
		c-0.4-0.9-0.6-2.2-0.6-4.1v-17h-4v-0.9c1-0.4,2-1.1,3.1-2c1.1-1,2-2.1,2.8-3.5c0.4-0.7,1-2,1.8-3.8L701.7,1154.2L701.7,1154.2z"/>
	<path class="st0" d="M738.6,1184.2c-2.6,2-4.2,3.1-4.9,3.5c-1,0.5-2.1,0.7-3.2,0.7c-1.7,0-3.2-0.6-4.3-1.8
		c-1.1-1.2-1.7-2.8-1.7-4.7c0-1.2,0.3-2.3,0.8-3.2c0.8-1.3,2.1-2.4,3.9-3.5c1.9-1.1,5-2.5,9.3-4.1v-1c0-2.5-0.4-4.2-1.2-5.2
		c-0.8-0.9-2-1.4-3.5-1.4c-1.1,0-2.1,0.3-2.7,0.9c-0.7,0.6-1.1,1.4-1.1,2.2l0.1,1.6c0,0.8-0.2,1.5-0.7,2c-0.4,0.5-1,0.7-1.7,0.7
		s-1.2-0.2-1.7-0.7c-0.4-0.5-0.7-1.1-0.7-2c0-1.6,0.8-3,2.4-4.4c1.6-1.3,3.9-2,6.8-2c2.2,0,4.1,0.4,5.5,1.1c1.1,0.6,1.9,1.5,2.4,2.7
		c0.3,0.8,0.5,2.4,0.5,4.9v8.6c0,2.4,0,3.9,0.1,4.4s0.2,0.9,0.5,1.1c0.2,0.2,0.5,0.3,0.7,0.3c0.3,0,0.6-0.1,0.8-0.2
		c0.4-0.2,1.1-0.9,2.3-2v1.5c-2.1,2.7-4.1,4.1-5.9,4.1c-0.9,0-1.6-0.3-2.1-0.9C738.9,1186.8,738.6,1185.8,738.6,1184.2z
		 M738.6,1182.4v-9.7c-2.8,1.1-4.6,1.9-5.4,2.4c-1.4,0.8-2.5,1.6-3.1,2.5s-0.9,1.9-0.9,2.9c0,1.3,0.4,2.4,1.2,3.3s1.7,1.3,2.7,1.3
		C734.4,1185.2,736.3,1184.3,738.6,1182.4z"/>
	<path class="st0" d="M795.9,1149.5l0.9,12.8h-0.9c-1.1-3.8-2.8-6.6-4.9-8.3c-2.1-1.7-4.7-2.5-7.6-2.5c-2.5,0-4.7,0.6-6.8,1.9
		c-2,1.3-3.6,3.3-4.7,6c-1.2,2.8-1.7,6.2-1.7,10.3c0,3.4,0.5,6.3,1.6,8.8s2.7,4.4,4.9,5.7c2.2,1.3,4.7,2,7.5,2
		c2.5,0,4.6-0.5,6.5-1.6c1.9-1,3.9-3.1,6.1-6.2l0.8,0.5c-1.9,3.3-4.1,5.8-6.6,7.3s-5.5,2.3-8.9,2.3c-6.2,0-11-2.3-14.4-6.9
		c-2.5-3.4-3.8-7.5-3.8-12.1c0-3.7,0.8-7.2,2.5-10.3c1.7-3.1,4-5.6,6.9-7.3c2.9-1.7,6.2-2.6,9.6-2.6c2.7,0,5.4,0.7,8,2
		c0.8,0.4,1.3,0.6,1.7,0.6c0.5,0,0.9-0.2,1.3-0.5c0.5-0.5,0.8-1.2,1-2.1h1V1149.5z"/>
	<path class="st0" d="M815.7,1184.2c-2.6,2-4.2,3.1-4.9,3.5c-1,0.5-2.1,0.7-3.2,0.7c-1.7,0-3.2-0.6-4.3-1.8
		c-1.1-1.2-1.7-2.8-1.7-4.7c0-1.2,0.3-2.3,0.8-3.2c0.8-1.3,2.1-2.4,3.9-3.5c1.9-1.1,5-2.5,9.3-4.1v-1c0-2.5-0.4-4.2-1.2-5.2
		c-0.8-0.9-2-1.4-3.5-1.4c-1.1,0-2.1,0.3-2.7,0.9c-0.7,0.6-1.1,1.4-1.1,2.2l0.1,1.6c0,0.8-0.2,1.5-0.7,2c-0.4,0.5-1,0.7-1.7,0.7
		s-1.2-0.2-1.7-0.7c-0.4-0.5-0.7-1.1-0.7-2c0-1.6,0.8-3,2.4-4.4c1.6-1.3,3.9-2,6.8-2c2.2,0,4.1,0.4,5.5,1.1c1.1,0.6,1.9,1.5,2.4,2.7
		c0.3,0.8,0.5,2.4,0.5,4.9v8.6c0,2.4,0,3.9,0.1,4.4s0.2,0.9,0.5,1.1c0.2,0.2,0.5,0.3,0.7,0.3c0.3,0,0.6-0.1,0.8-0.2
		c0.4-0.2,1.1-0.9,2.3-2v1.5c-2.1,2.7-4.1,4.1-5.9,4.1c-0.9,0-1.6-0.3-2.1-0.9C816,1186.8,815.7,1185.8,815.7,1184.2z M815.7,1182.4
		v-9.7c-2.8,1.1-4.6,1.9-5.4,2.4c-1.4,0.8-2.5,1.6-3.1,2.5s-0.9,1.9-0.9,2.9c0,1.3,0.4,2.4,1.2,3.3s1.7,1.3,2.7,1.3
		C811.5,1185.2,813.4,1184.3,815.7,1182.4z"/>
	<path class="st0" d="M842.8,1161.8v8.6h-0.9c-0.7-2.7-1.6-4.5-2.7-5.5c-1.1-1-2.5-1.5-4.2-1.5c-1.3,0-2.3,0.3-3.1,1
		s-1.2,1.4-1.2,2.3c0,1,0.3,1.9,0.9,2.6c0.6,0.8,1.7,1.6,3.5,2.4l4,2c3.8,1.8,5.6,4.2,5.6,7.2c0,2.3-0.9,4.1-2.6,5.6
		c-1.8,1.4-3.7,2.1-5.9,2.1c-1.5,0-3.3-0.3-5.3-0.9c-0.6-0.2-1.1-0.3-1.5-0.3s-0.7,0.2-1,0.7h-0.9v-9h0.9c0.5,2.6,1.5,4.5,3,5.8
		s3.1,2,4.9,2c1.3,0,2.3-0.4,3.1-1.1s1.2-1.6,1.2-2.7c0-1.3-0.4-2.4-1.3-3.2c-0.9-0.9-2.7-2-5.3-3.3c-2.7-1.3-4.4-2.5-5.2-3.6
		s-1.2-2.4-1.2-4c0-2.1,0.7-3.8,2.1-5.2c1.4-1.4,3.3-2.1,5.5-2.1c1,0,2.2,0.2,3.6,0.6c0.9,0.3,1.6,0.4,1.9,0.4
		c0.3,0,0.5-0.1,0.7-0.2s0.4-0.4,0.6-0.8L842.8,1161.8L842.8,1161.8z"/>
	<path class="st0" d="M855.9,1154.2v8.3h5.9v1.9h-5.9v16.4c0,1.6,0.2,2.8,0.7,3.3c0.5,0.6,1.1,0.9,1.8,0.9c0.6,0,1.2-0.2,1.8-0.6
		s1-0.9,1.3-1.7h1.1c-0.6,1.8-1.6,3.2-2.7,4.1c-1.2,0.9-2.4,1.4-3.6,1.4c-0.9,0-1.7-0.2-2.5-0.7s-1.4-1.1-1.8-2
		c-0.4-0.9-0.6-2.2-0.6-4.1v-17h-4v-0.9c1-0.4,2-1.1,3.1-2c1.1-1,2-2.1,2.8-3.5c0.4-0.7,1-2,1.8-3.8L855.9,1154.2L855.9,1154.2z"/>
	<path class="st0" d="M868.5,1172.1c0,3.8,0.9,6.7,2.7,8.9c1.9,2.1,4,3.2,6.5,3.2c1.7,0,3.1-0.5,4.3-1.4s2.3-2.5,3.1-4.7l0.9,0.5
		c-0.4,2.5-1.5,4.8-3.4,6.9s-4.2,3.1-7,3.1c-3,0-5.7-1.2-7.8-3.6c-2.2-2.4-3.2-5.6-3.2-9.6c0-4.3,1.1-7.7,3.3-10.1s5-3.6,8.4-3.6
		c2.8,0,5.2,0.9,7,2.8s2.7,4.4,2.7,7.5L868.5,1172.1L868.5,1172.1z M868.5,1170.5h11.7c-0.1-1.6-0.3-2.8-0.6-3.4
		c-0.5-1-1.1-1.8-2.1-2.4c-0.9-0.6-1.9-0.9-2.9-0.9c-1.5,0-2.9,0.6-4.1,1.8C869.4,1166.7,868.7,1168.4,868.5,1170.5z"/>
	<path class="st0" d="M898.1,1148.6v33.6c0,1.6,0.1,2.7,0.3,3.2s0.6,0.9,1.1,1.2c0.5,0.3,1.4,0.4,2.7,0.4v1h-12.4v-1
		c1.2,0,2-0.1,2.4-0.4c0.4-0.2,0.7-0.6,1-1.2c0.2-0.5,0.3-1.6,0.3-3.2v-23c0-2.9-0.1-4.6-0.2-5.3c-0.1-0.7-0.3-1.1-0.6-1.3
		c-0.3-0.2-0.6-0.4-1.1-0.4s-1.1,0.1-1.8,0.4l-0.5-1l7.6-3.1h1.2V1148.6z"/>
	<path class="st0" d="M913.9,1148.6v33.6c0,1.6,0.1,2.7,0.3,3.2s0.6,0.9,1.1,1.2c0.5,0.3,1.4,0.4,2.7,0.4v1h-12.4v-1
		c1.2,0,2-0.1,2.4-0.4c0.4-0.2,0.7-0.6,1-1.2c0.2-0.5,0.3-1.6,0.3-3.2v-23c0-2.9-0.1-4.6-0.2-5.3c-0.1-0.7-0.3-1.1-0.6-1.3
		c-0.3-0.2-0.6-0.4-1.1-0.4s-1.1,0.1-1.8,0.4l-0.5-1l7.6-3.1h1.2V1148.6z"/>
	<path class="st0" d="M935.2,1184.2c-2.6,2-4.2,3.1-4.9,3.5c-1,0.5-2.1,0.7-3.2,0.7c-1.7,0-3.2-0.6-4.3-1.8
		c-1.1-1.2-1.7-2.8-1.7-4.7c0-1.2,0.3-2.3,0.8-3.2c0.8-1.3,2.1-2.4,3.9-3.5c1.9-1.1,5-2.5,9.3-4.1v-1c0-2.5-0.4-4.2-1.2-5.2
		c-0.8-0.9-2-1.4-3.5-1.4c-1.1,0-2.1,0.3-2.7,0.9c-0.7,0.6-1.1,1.4-1.1,2.2l0.1,1.6c0,0.8-0.2,1.5-0.7,2c-0.4,0.5-1,0.7-1.7,0.7
		s-1.2-0.2-1.7-0.7c-0.4-0.5-0.7-1.1-0.7-2c0-1.6,0.8-3,2.4-4.4c1.6-1.3,3.9-2,6.8-2c2.2,0,4.1,0.4,5.5,1.1c1.1,0.6,1.9,1.5,2.4,2.7
		c0.3,0.8,0.5,2.4,0.5,4.9v8.6c0,2.4,0,3.9,0.1,4.4s0.2,0.9,0.5,1.1c0.2,0.2,0.5,0.3,0.7,0.3c0.3,0,0.6-0.1,0.8-0.2
		c0.4-0.2,1.1-0.9,2.3-2v1.5c-2.1,2.7-4.1,4.1-5.9,4.1c-0.9,0-1.6-0.3-2.1-0.9C935.5,1186.8,935.3,1185.8,935.2,1184.2z
		 M935.2,1182.4v-9.7c-2.8,1.1-4.6,1.9-5.4,2.4c-1.4,0.8-2.5,1.6-3.1,2.5s-0.9,1.9-0.9,2.9c0,1.3,0.4,2.4,1.2,3.3s1.7,1.3,2.7,1.3
		C931.1,1185.2,932.9,1184.3,935.2,1182.4z"/>
	<path class="st0" d="M953.4,1161.8v5.7c2.1-3.8,4.3-5.7,6.5-5.7c1,0,1.9,0.3,2.5,0.9c0.7,0.6,1,1.3,1,2.1c0,0.7-0.2,1.3-0.7,1.8
		s-1,0.7-1.7,0.7s-1.4-0.3-2.2-0.9s-1.4-0.9-1.8-0.9c-0.3,0-0.7,0.2-1.1,0.5c-0.8,0.8-1.7,2-2.6,3.7v12.2c0,1.4,0.2,2.5,0.5,3.2
		c0.2,0.5,0.6,0.9,1.3,1.3c0.6,0.3,1.5,0.5,2.6,0.5v1h-13v-1c1.3,0,2.2-0.2,2.9-0.6c0.5-0.3,0.8-0.8,1-1.4c0.1-0.3,0.1-1.2,0.1-2.7
		v-9.8c0-2.9-0.1-4.7-0.2-5.3c-0.1-0.6-0.3-1-0.7-1.2c-0.3-0.3-0.7-0.4-1.2-0.4c-0.6,0-1.2,0.1-1.9,0.4l-0.3-1l7.7-3.1L953.4,1161.8
		L953.4,1161.8z"/>
	<path class="st0" d="M966.2,1197.3v-1.2c1.9-0.6,3.3-1.6,4.4-2.9c1-1.3,1.6-2.7,1.6-4.2c0-0.3-0.1-0.6-0.2-0.9
		c-0.1-0.2-0.2-0.2-0.4-0.2s-0.7,0.2-1.3,0.6c-0.3,0.2-0.7,0.3-1,0.3c-0.9,0-1.6-0.3-2.2-0.8c-0.5-0.5-0.8-1.3-0.8-2.2
		c0-0.9,0.3-1.7,1-2.3c0.7-0.6,1.5-1,2.5-1c1.2,0,2.3,0.5,3.3,1.6c0.9,1.1,1.4,2.5,1.4,4.2c0,1.9-0.7,3.7-2,5.3
		C971.1,1195.1,969,1196.4,966.2,1197.3z"/>
	<path class="st0" d="M447.5,1238.5l9.1-4.4h0.9v31.7c0,2.1,0.1,3.4,0.3,3.9c0.2,0.5,0.5,0.9,1.1,1.2s1.7,0.4,3.4,0.5v1h-14.1v-1
		c1.8,0,2.9-0.2,3.4-0.4c0.5-0.3,0.9-0.6,1.1-1.1c0.2-0.4,0.3-1.8,0.3-4v-20.3c0-2.7-0.1-4.5-0.3-5.3c-0.1-0.6-0.4-1-0.7-1.3
		c-0.3-0.3-0.8-0.4-1.2-0.4c-0.7,0-1.6,0.3-2.9,0.9L447.5,1238.5z"/>
	<path class="st0" d="M494.6,1234.1v1c-2.4,0.2-4.4,0.7-6,1.4c-1.5,0.7-3.1,1.8-4.6,3.3s-2.7,3.1-3.7,5c-1,1.8-1.8,4-2.5,6.6
		c2.7-1.8,5.3-2.7,8-2.7c2.6,0,4.8,1,6.7,3.1c1.9,2.1,2.8,4.7,2.8,8c0,3.1-1,6-2.9,8.6c-2.3,3.1-5.3,4.7-9.1,4.7
		c-2.6,0-4.7-0.8-6.5-2.5c-3.5-3.3-5.3-7.6-5.3-12.8c0-3.4,0.7-6.6,2-9.6s3.3-5.7,5.8-8s4.9-3.9,7.2-4.7c2.3-0.8,4.4-1.2,6.4-1.2
		h1.7V1234.1z M477.3,1253.4c-0.3,2.5-0.5,4.5-0.5,6c0,1.8,0.3,3.7,1,5.8c0.7,2.1,1.6,3.7,2.9,4.9c0.9,0.9,2.1,1.3,3.4,1.3
		c1.6,0,3-0.8,4.3-2.3s1.9-3.7,1.9-6.5c0-3.2-0.6-5.9-1.9-8.2s-3-3.5-5.3-3.5c-0.7,0-1.4,0.1-2.2,0.4
		C480.1,1251.8,478.9,1252.4,477.3,1253.4z"/>
	<path class="st0" d="M523.4,1265.1l-2.6,7.2h-22.1v-1c6.5-5.9,11.1-10.8,13.8-14.5c2.6-3.8,4-7.2,4-10.3c0-2.4-0.7-4.3-2.2-5.9
		c-1.5-1.5-3.2-2.3-5.2-2.3c-1.9,0-3.5,0.5-5,1.6s-2.5,2.7-3.2,4.7h-1c0.5-3.4,1.6-6,3.6-7.9c1.9-1.8,4.3-2.7,7.1-2.7
		c3,0,5.6,1,7.6,2.9c2,2,3.1,4.3,3.1,6.9c0,1.9-0.4,3.8-1.3,5.7c-1.4,3-3.6,6.2-6.6,9.5c-4.6,5-7.4,8-8.6,9.1h9.8
		c2,0,3.4-0.1,4.2-0.2s1.5-0.4,2.2-0.9c0.6-0.5,1.2-1.1,1.7-1.9L523.4,1265.1L523.4,1265.1z"/>
	<path class="st0" d="M552,1253.2c2.6,0.5,4.5,1.4,5.8,2.6c1.8,1.7,2.7,3.8,2.7,6.2c0,1.9-0.6,3.7-1.8,5.4c-1.2,1.7-2.8,2.9-4.8,3.7
		c-2.1,0.8-5.2,1.2-9.4,1.2h-17.7v-1h1.4c1.6,0,2.7-0.5,3.4-1.5c0.4-0.6,0.6-2,0.6-4.1v-24.2c0-2.3-0.3-3.8-0.8-4.4
		c-0.7-0.8-1.8-1.2-3.2-1.2h-1.4v-1H543c3,0,5.5,0.2,7.3,0.7c2.8,0.7,4.9,1.8,6.3,3.5c1.5,1.7,2.2,3.6,2.2,5.8c0,1.9-0.6,3.6-1.7,5
		C555.9,1251.4,554.2,1252.5,552,1253.2z M537.5,1251.7c0.7,0.1,1.4,0.2,2.3,0.3c0.9,0.1,1.8,0.1,2.9,0.1c2.7,0,4.7-0.3,6.1-0.9
		c1.4-0.6,2.4-1.5,3.1-2.7c0.7-1.2,1.1-2.5,1.1-3.9c0-2.2-0.9-4-2.7-5.6s-4.4-2.3-7.8-2.3c-1.9,0-3.5,0.2-5,0.6L537.5,1251.7
		L537.5,1251.7z M537.5,1269.6c2.1,0.5,4.2,0.8,6.3,0.8c3.3,0,5.9-0.8,7.6-2.3c1.8-1.5,2.6-3.4,2.6-5.6c0-1.5-0.4-2.9-1.2-4.2
		c-0.8-1.3-2.1-2.4-3.9-3.2c-1.8-0.8-4-1.2-6.6-1.2c-1.1,0-2.1,0-2.9,0.1c-0.8,0-1.5,0.1-1.9,0.2L537.5,1269.6L537.5,1269.6z"/>
	<path class="st0" d="M566.6,1281.8v-1.2c1.9-0.6,3.3-1.6,4.4-2.9c1-1.3,1.6-2.7,1.6-4.2c0-0.3-0.1-0.6-0.2-0.9
		c-0.1-0.2-0.2-0.2-0.4-0.2s-0.7,0.2-1.3,0.6c-0.3,0.2-0.7,0.3-1,0.3c-0.9,0-1.6-0.3-2.2-0.8c-0.5-0.5-0.8-1.3-0.8-2.2
		c0-0.9,0.3-1.7,1-2.3c0.7-0.6,1.5-1,2.5-1c1.2,0,2.3,0.5,3.3,1.6c0.9,1.1,1.4,2.5,1.4,4.2c0,1.9-0.7,3.7-2,5.3
		C571.6,1279.5,569.5,1280.8,566.6,1281.8z"/>
	<path class="st0" d="M617.9,1234v13h-1c-0.3-2.5-0.9-4.5-1.8-5.9c-0.9-1.5-2.1-2.6-3.7-3.5c-1.6-0.9-3.2-1.3-4.9-1.3
		c-1.9,0-3.5,0.6-4.7,1.8c-1.3,1.2-1.9,2.5-1.9,4c0,1.1,0.4,2.2,1.2,3.1c1.1,1.4,3.9,3.2,8.1,5.5c3.5,1.9,5.9,3.3,7.2,4.3
		s2.3,2.2,3,3.6s1,2.8,1,4.3c0,2.8-1.1,5.3-3.3,7.4s-5,3.1-8.5,3.1c-1.1,0-2.1-0.1-3.1-0.2c-0.6-0.1-1.8-0.4-3.6-1s-2.9-0.9-3.4-0.9
		s-0.8,0.1-1.1,0.4s-0.5,0.8-0.6,1.7h-1v-12.9h1c0.5,2.7,1.1,4.7,1.9,6c0.8,1.3,2.1,2.5,3.7,3.3c1.7,0.9,3.5,1.3,5.5,1.3
		c2.3,0,4.1-0.6,5.4-1.8c1.3-1.2,2-2.7,2-4.3c0-0.9-0.3-1.8-0.8-2.8c-0.5-0.9-1.3-1.8-2.4-2.6c-0.7-0.5-2.7-1.7-5.9-3.5
		s-5.5-3.2-6.9-4.3c-1.4-1.1-2.4-2.3-3.1-3.6c-0.7-1.3-1-2.7-1-4.2c0-2.7,1-5,3.1-7c2.1-1.9,4.7-2.9,7.9-2.9c2,0,4.1,0.5,6.3,1.5
		c1,0.5,1.8,0.7,2.2,0.7c0.5,0,0.8-0.1,1.2-0.4c0.3-0.3,0.6-0.9,0.7-1.7h1.3V1234z"/>
	<path class="st0" d="M639.5,1268.7c-2.6,2-4.2,3.1-4.9,3.5c-1,0.5-2.1,0.7-3.2,0.7c-1.7,0-3.2-0.6-4.3-1.8
		c-1.1-1.2-1.7-2.8-1.7-4.7c0-1.2,0.3-2.3,0.8-3.2c0.8-1.3,2.1-2.4,3.9-3.5c1.9-1.1,5-2.5,9.3-4.1v-1c0-2.5-0.4-4.2-1.2-5.2
		c-0.8-0.9-2-1.4-3.5-1.4c-1.1,0-2.1,0.3-2.7,0.9c-0.7,0.6-1.1,1.4-1.1,2.2l0.1,1.6c0,0.8-0.2,1.5-0.7,2c-0.4,0.5-1,0.7-1.7,0.7
		s-1.2-0.2-1.7-0.7c-0.4-0.5-0.7-1.1-0.7-2c0-1.6,0.8-3,2.4-4.4c1.6-1.3,3.9-2,6.8-2c2.2,0,4.1,0.4,5.5,1.1c1.1,0.6,1.9,1.5,2.4,2.7
		c0.3,0.8,0.5,2.4,0.5,4.9v8.6c0,2.4,0,3.9,0.1,4.4s0.2,0.9,0.5,1.1c0.2,0.2,0.5,0.3,0.7,0.3c0.3,0,0.5-0.1,0.8-0.2
		c0.4-0.2,1.1-0.9,2.3-2v1.5c-2.1,2.7-4.1,4.1-5.9,4.1c-0.9,0-1.6-0.3-2.1-0.9C639.8,1271.3,639.5,1270.2,639.5,1268.7z
		 M639.5,1266.9v-9.7c-2.8,1.1-4.6,1.9-5.4,2.4c-1.4,0.8-2.5,1.6-3.1,2.5s-0.9,1.9-0.9,2.9c0,1.3,0.4,2.4,1.2,3.3s1.7,1.3,2.7,1.3
		C635.4,1269.7,637.2,1268.7,639.5,1266.9z"/>
	<path class="st0" d="M657.3,1251.4c2.5-3.4,5.1-5.1,7.9-5.1c2.6,0,4.9,1.1,6.8,3.3c1.9,2.2,2.9,5.3,2.9,9.1c0,4.5-1.5,8.1-4.5,10.9
		c-2.6,2.4-5.4,3.6-8.6,3.6c-1.5,0-3-0.3-4.5-0.8s-3.1-1.3-4.7-2.4v-26.3c0-2.9-0.1-4.6-0.2-5.3c-0.1-0.7-0.4-1.1-0.7-1.4
		c-0.3-0.2-0.7-0.4-1.1-0.4c-0.5,0-1.2,0.1-2,0.4l-0.4-1l7.6-3.1h1.3v18.5H657.3z M657.3,1253.1v15.2c0.9,0.9,1.9,1.6,2.9,2.1
		s2,0.7,3.1,0.7c1.7,0,3.3-0.9,4.7-2.8c1.4-1.8,2.2-4.5,2.2-8.1c0-3.3-0.7-5.7-2.2-7.5c-1.4-1.7-3.1-2.6-4.9-2.6c-1,0-2,0.3-2.9,0.8
		C659.3,1251.3,658.4,1252,657.3,1253.1z"/>
	<path class="st0" d="M693,1268.7c-2.6,2-4.2,3.1-4.9,3.5c-1,0.5-2.1,0.7-3.2,0.7c-1.7,0-3.2-0.6-4.3-1.8c-1.1-1.2-1.7-2.8-1.7-4.7
		c0-1.2,0.3-2.3,0.8-3.2c0.8-1.3,2.1-2.4,3.9-3.5c1.9-1.1,5-2.5,9.3-4.1v-1c0-2.5-0.4-4.2-1.2-5.2c-0.8-0.9-2-1.4-3.5-1.4
		c-1.1,0-2.1,0.3-2.7,0.9c-0.7,0.6-1.1,1.4-1.1,2.2l0.1,1.6c0,0.8-0.2,1.5-0.7,2c-0.4,0.5-1,0.7-1.7,0.7s-1.2-0.2-1.7-0.7
		c-0.4-0.5-0.7-1.1-0.7-2c0-1.6,0.8-3,2.4-4.4c1.6-1.3,3.9-2,6.8-2c2.2,0,4.1,0.4,5.5,1.1c1.1,0.6,1.9,1.5,2.4,2.7
		c0.3,0.8,0.5,2.4,0.5,4.9v8.6c0,2.4,0,3.9,0.1,4.4s0.2,0.9,0.5,1.1c0.2,0.2,0.5,0.3,0.7,0.3c0.3,0,0.5-0.1,0.8-0.2
		c0.4-0.2,1.1-0.9,2.3-2v1.5c-2.1,2.7-4.1,4.1-5.9,4.1c-0.9,0-1.6-0.3-2.1-0.9C693.3,1271.3,693,1270.2,693,1268.7z M693,1266.9
		v-9.7c-2.8,1.1-4.6,1.9-5.4,2.4c-1.4,0.8-2.5,1.6-3.1,2.5s-0.9,1.9-0.9,2.9c0,1.3,0.4,2.4,1.2,3.3s1.7,1.3,2.7,1.3
		C688.8,1269.7,690.7,1268.7,693,1266.9z"/>
	<path class="st0" d="M721.7,1269.5c-1.2,1.3-2.4,2.2-3.6,2.8c-1.2,0.6-2.4,0.9-3.8,0.9c-2.8,0-5.2-1.2-7.2-3.5
		c-2.1-2.3-3.1-5.3-3.1-8.9s1.1-7,3.4-10c2.3-3,5.2-4.5,8.8-4.5c2.2,0,4.1,0.7,5.5,2.1v-4.7c0-2.9-0.1-4.7-0.2-5.3
		c-0.1-0.7-0.3-1.1-0.6-1.4c-0.3-0.2-0.7-0.4-1.1-0.4c-0.5,0-1.1,0.1-1.9,0.4l-0.4-1l7.6-3.1h1.2v29.3c0,3,0.1,4.8,0.2,5.4
		c0.1,0.7,0.4,1.1,0.7,1.4s0.7,0.4,1.1,0.4c0.5,0,1.1-0.2,2-0.5l0.3,1l-7.5,3.1h-1.3v-3.5H721.7z M721.7,1267.6v-13.1
		c-0.1-1.3-0.4-2.4-1-3.4s-1.3-1.8-2.2-2.3s-1.8-0.8-2.7-0.8c-1.6,0-3.1,0.7-4.4,2.2c-1.7,1.9-2.5,4.7-2.5,8.4
		c0,3.7,0.8,6.6,2.4,8.6c1.6,2,3.4,3,5.4,3C718.5,1270.1,720.1,1269.2,721.7,1267.6z"/>
	<path class="st0" d="M736.3,1256.5c0,3.8,0.9,6.7,2.7,8.9c1.9,2.1,4,3.2,6.5,3.2c1.7,0,3.1-0.5,4.3-1.4s2.3-2.5,3.1-4.7l0.9,0.5
		c-0.4,2.5-1.5,4.8-3.4,6.9s-4.2,3.1-7,3.1c-3,0-5.7-1.2-7.8-3.6c-2.2-2.4-3.2-5.6-3.2-9.6c0-4.3,1.1-7.7,3.3-10.1s5-3.6,8.4-3.6
		c2.8,0,5.2,0.9,7,2.8s2.7,4.4,2.7,7.5L736.3,1256.5L736.3,1256.5z M736.3,1254.9H748c-0.1-1.6-0.3-2.8-0.6-3.4
		c-0.5-1-1.1-1.8-2.1-2.4c-0.9-0.6-1.9-0.9-2.9-0.9c-1.5,0-2.9,0.6-4.1,1.8C737.2,1251.2,736.5,1252.8,736.3,1254.9z"/>
	<path class="st0" d="M765.9,1233v33.6c0,1.6,0.1,2.7,0.3,3.2s0.6,0.9,1.1,1.2c0.5,0.3,1.4,0.4,2.7,0.4v1h-12.4v-1
		c1.2,0,2-0.1,2.4-0.4c0.4-0.2,0.7-0.6,1-1.2c0.2-0.5,0.3-1.6,0.3-3.2v-23c0-2.9-0.1-4.6-0.2-5.3c-0.1-0.7-0.3-1.1-0.6-1.3
		c-0.3-0.2-0.6-0.4-1.1-0.4s-1.1,0.1-1.8,0.4l-0.5-1l7.6-3.1h1.2V1233z"/>
	<path class="st0" d="M781.7,1233v33.6c0,1.6,0.1,2.7,0.3,3.2s0.6,0.9,1.1,1.2c0.5,0.3,1.4,0.4,2.7,0.4v1h-12.4v-1
		c1.2,0,2-0.1,2.4-0.4c0.4-0.2,0.7-0.6,1-1.2c0.2-0.5,0.3-1.6,0.3-3.2v-23c0-2.9-0.1-4.6-0.2-5.3c-0.1-0.7-0.3-1.1-0.6-1.3
		c-0.3-0.2-0.6-0.4-1.1-0.4s-1.1,0.1-1.8,0.4l-0.5-1l7.6-3.1h1.2V1233z"/>
	<path class="st0" d="M794,1267c0.9,0,1.6,0.3,2.2,0.9c0.6,0.6,0.9,1.3,0.9,2.2c0,0.8-0.3,1.6-0.9,2.2c-0.6,0.6-1.3,0.9-2.2,0.9
		c-0.8,0-1.6-0.3-2.2-0.9c-0.6-0.6-0.9-1.3-0.9-2.2c0-0.9,0.3-1.6,0.9-2.2S793.2,1267,794,1267z"/>
</g>
<text transform="matrix(1 0 0 1 1719.9941 1039.985)" style="font-family:'Vijaya'; font-size:85px;">Santuario de la Virgen de la Salud</text>
<g>
	<path class="st0" d="M891.7,864.6c0.8,0,1.5,0.3,2,0.8c0.6,0.5,0.8,1.2,0.8,2c0,0.8-0.3,1.5-0.8,2s-1.2,0.8-2,0.8
		c-0.8,0-1.5-0.3-2-0.8c-0.5-0.6-0.8-1.2-0.8-2c0-0.8,0.3-1.5,0.8-2C890.2,864.8,890.9,864.6,891.7,864.6z"/>
</g>
<g>
	<path class="st0" d="M82.8,1077.9l3.7-16.8h1.2c-0.2,1.6-0.2,3-0.2,4c0,3.1,1,5.6,2.9,7.5c2,1.9,4.5,2.9,7.7,2.9
		c2.9,0,5.1-0.9,6.6-2.7c1.5-1.8,2.3-3.9,2.3-6.2c0-1.5-0.3-2.9-1-4.2c-1.1-1.9-3.9-5.1-8.4-9.8c-2.2-2.2-3.6-3.9-4.2-5
		c-1-1.8-1.5-3.7-1.5-5.7c0-3.2,1.2-5.9,3.5-8.1c2.4-2.3,5.4-3.4,9.1-3.4c1.3,0,2.5,0.1,3.6,0.4c0.7,0.1,2,0.6,3.8,1.4
		c1.3,0.5,2,0.8,2.1,0.8c0.3,0.1,0.7,0.1,1,0.1c0.7,0,1.2-0.2,1.7-0.5c0.5-0.3,1-1.1,1.6-2.2h1.3l-3.5,15.1h-1.2
		c0.1-1.4,0.2-2.4,0.2-3.2c0-2.7-0.9-4.9-2.7-6.6c-1.8-1.7-4.1-2.6-7.1-2.6c-2.3,0-4.2,0.7-5.6,2c-1.5,1.4-2.2,2.9-2.2,4.7
		c0,1.5,0.5,3,1.4,4.4s3.1,3.7,6.4,6.9c3.3,3.2,5.5,5.7,6.5,7.5c1,1.8,1.5,3.7,1.5,5.7c0,2.3-0.6,4.5-1.8,6.7
		c-1.2,2.2-2.9,3.8-5.2,5c-2.3,1.2-4.8,1.8-7.5,1.8c-1.3,0-2.6-0.1-3.7-0.4s-3-0.8-5.6-1.8c-0.9-0.3-1.6-0.5-2.2-0.5
		c-1.3,0-2.4,0.9-3.1,2.7H82.8z"/>
	<path class="st0" d="M148.7,1046.7l-6.5,22.7l-0.7,3.1c-0.1,0.3-0.1,0.5-0.1,0.7c0,0.4,0.1,0.7,0.3,1c0.2,0.2,0.4,0.3,0.7,0.3
		s0.7-0.2,1.1-0.5c0.9-0.6,2-2,3.5-4l1.1,0.8c-1.5,2.3-3.1,4.1-4.7,5.3c-1.6,1.2-3.1,1.8-4.5,1.8c-0.9,0-1.7-0.2-2.1-0.7
		s-0.7-1.2-0.7-2.1c0-1.1,0.2-2.5,0.7-4.3l0.7-2.5c-2.9,3.8-5.6,6.5-8.1,8c-1.8,1.1-3.5,1.6-5.2,1.6c-1.6,0-3-0.7-4.2-2
		c-1.2-1.3-1.8-3.2-1.8-5.5c0-3.5,1.1-7.3,3.2-11.2c2.1-3.9,4.8-7.1,8.1-9.4c2.5-1.9,5-2.8,7.2-2.8c1.4,0,2.5,0.4,3.4,1.1
		c0.9,0.7,1.6,1.9,2.1,3.6l1.2-3.8L148.7,1046.7z M136.8,1048.4c-1.4,0-2.9,0.7-4.5,2c-2.3,1.9-4.3,4.7-6.1,8.4
		c-1.8,3.7-2.7,7.1-2.7,10.1c0,1.5,0.4,2.7,1.1,3.6c0.8,0.9,1.6,1.3,2.6,1.3c2.4,0,5-1.8,7.9-5.4c3.8-4.8,5.7-9.6,5.7-14.7
		c0-1.9-0.4-3.3-1.1-4.1C139,1048.8,138,1048.4,136.8,1048.4z"/>
	<path class="st0" d="M165.8,1046.7l-4.4,15.2c4.2-6.2,7.3-10.3,9.6-12.3c2.2-2,4.4-2.9,6.4-2.9c1.1,0,2,0.4,2.7,1.1
		c0.7,0.7,1.1,1.7,1.1,2.9c0,1.4-0.3,3.1-1,5.4l-4.1,14.1c-0.5,1.6-0.7,2.6-0.7,3c0,0.3,0.1,0.6,0.3,0.8c0.2,0.2,0.4,0.3,0.6,0.3
		c0.2,0,0.6-0.1,1-0.4c1.2-0.9,2.5-2.4,3.9-4.3l1,0.6c-2.1,3-4,5.1-5.9,6.3c-1.3,0.9-2.5,1.3-3.5,1.3c-0.8,0-1.5-0.2-2-0.7
		s-0.7-1.2-0.7-2c0-1.1,0.4-2.9,1.1-5.5l3.9-13.4c0.5-1.7,0.7-3,0.7-3.9c0-0.4-0.1-0.8-0.4-1.1c-0.3-0.3-0.6-0.4-1.1-0.4
		c-0.6,0-1.4,0.3-2.2,0.8c-1.6,1-3.3,2.6-5.1,5c-1.8,2.3-3.7,5.3-5.7,8.8c-1.1,1.9-1.9,4-2.6,6.2l-1.7,5.5h-5l6.1-20.9
		c0.7-2.5,1.1-4,1.1-4.5s-0.2-0.9-0.6-1.3c-0.4-0.4-0.9-0.6-1.4-0.6c-0.3,0-0.7,0.1-1.4,0.2l-1.3,0.2l-0.2-1.2L165.8,1046.7z"/>
	<path class="st0" d="M202.7,1038.4l-2.6,9.1h5.3l-0.6,2.1h-5.2l-5.8,19.7c-0.6,2.1-0.9,3.5-0.9,4.1c0,0.4,0.1,0.7,0.2,0.9
		c0.2,0.2,0.4,0.3,0.6,0.3c0.6,0,1.3-0.4,2.2-1.2c0.6-0.4,1.8-1.8,3.6-4.1l1.1,0.9c-2,3-4,5.1-5.8,6.3c-1.2,0.8-2.5,1.2-3.8,1.2
		c-1,0-1.8-0.3-2.4-0.9c-0.6-0.6-0.9-1.4-0.9-2.4c0-1.2,0.3-3,1-5.5l5.6-19.3h-5.1l0.3-1.3c2.5-0.7,4.5-1.7,6.1-3
		c1.6-1.3,3.4-3.6,5.5-6.9H202.7z"/>
	<path class="st0" d="M236.2,1047.5l-5.8,19.9c-0.9,3-1.3,4.8-1.3,5.6c0,0.4,0.1,0.7,0.2,0.9c0.1,0.2,0.3,0.3,0.6,0.3
		c0.4,0,0.8-0.2,1.3-0.5c0.5-0.3,1.6-1.7,3.4-4.1l1,0.8c-1.8,2.8-3.6,4.8-5.4,6.1c-1.2,0.8-2.4,1.2-3.5,1.2c-0.9,0-1.6-0.2-2.1-0.7
		c-0.5-0.5-0.7-1.1-0.7-1.9c0-0.8,0.1-1.8,0.4-3c0.4-1.6,1.4-5.2,3.1-10.8c-3.8,6.2-7,10.5-9.5,12.9c-2.5,2.4-4.9,3.5-7.1,3.5
		c-1,0-1.9-0.4-2.6-1.1c-0.7-0.7-1.1-1.6-1.1-2.7c0-1.7,0.5-4.2,1.5-7.7l2.9-10.3c0.7-2.5,1-4,1-4.6c0-0.2-0.1-0.5-0.3-0.7
		c-0.2-0.2-0.4-0.3-0.6-0.3c-0.5,0-0.9,0.2-1.4,0.5c-0.5,0.3-1.5,1.6-3.2,3.7l-1-0.7c1.7-2.6,3.5-4.5,5.3-5.7c1.4-1,2.8-1.5,3.9-1.5
		c0.8,0,1.5,0.3,2,0.8c0.5,0.5,0.8,1.2,0.8,2c0,1.2-0.4,3.4-1.3,6.4l-3.2,10.8c-0.9,3-1.3,4.8-1.3,5.6c0,0.4,0.1,0.8,0.4,1
		c0.3,0.3,0.6,0.4,1.1,0.4c0.7,0,1.7-0.4,2.9-1.1c1.2-0.7,2.8-2.4,4.7-4.9c2-2.5,3.6-4.9,4.9-7.1c1.3-2.2,2.6-5.7,4.1-10.6l0.7-2.5
		H236.2z"/>
	<path class="st0" d="M270.3,1046.7l-6.5,22.7l-0.7,3.1c-0.1,0.3-0.1,0.5-0.1,0.7c0,0.4,0.1,0.7,0.3,1c0.2,0.2,0.4,0.3,0.7,0.3
		s0.7-0.2,1.1-0.5c0.9-0.6,2-2,3.5-4l1.1,0.8c-1.5,2.3-3.1,4.1-4.7,5.3c-1.6,1.2-3.1,1.8-4.5,1.8c-0.9,0-1.7-0.2-2.1-0.7
		s-0.7-1.2-0.7-2.1c0-1.1,0.2-2.5,0.7-4.3l0.7-2.5c-2.9,3.8-5.6,6.5-8.1,8c-1.8,1.1-3.5,1.6-5.2,1.6c-1.6,0-3-0.7-4.2-2
		c-1.2-1.3-1.8-3.2-1.8-5.5c0-3.5,1.1-7.3,3.2-11.2c2.1-3.9,4.8-7.1,8.1-9.4c2.5-1.9,5-2.8,7.2-2.8c1.4,0,2.5,0.4,3.4,1.1
		c0.9,0.7,1.6,1.9,2.1,3.6l1.2-3.8L270.3,1046.7z M258.4,1048.4c-1.4,0-2.9,0.7-4.5,2c-2.3,1.9-4.3,4.7-6.1,8.4
		c-1.8,3.7-2.7,7.1-2.7,10.1c0,1.5,0.4,2.7,1.1,3.6c0.8,0.9,1.6,1.3,2.6,1.3c2.4,0,5-1.8,7.9-5.4c3.8-4.8,5.7-9.6,5.7-14.7
		c0-1.9-0.4-3.3-1.1-4.1C260.6,1048.8,259.6,1048.4,258.4,1048.4z"/>
	<path class="st0" d="M275.9,1048.6l11.5-1.9l-4.8,16.3c3.9-6.7,7.4-11.3,10.6-14c1.8-1.5,3.3-2.3,4.4-2.3c0.7,0,1.3,0.2,1.7,0.7
		c0.4,0.4,0.6,1.1,0.6,1.9c0,1.5-0.4,2.9-1.1,4.2c-0.5,1-1.3,1.5-2.3,1.5c-0.5,0-0.9-0.2-1.3-0.5c-0.4-0.3-0.6-0.8-0.7-1.5
		c0-0.4-0.1-0.7-0.3-0.8c-0.2-0.2-0.4-0.2-0.6-0.2c-0.4,0-0.7,0.1-1.1,0.2c-0.6,0.3-1.5,1.2-2.7,2.6c-1.9,2.2-3.9,5-6,8.5
		c-0.9,1.5-1.7,3.1-2.4,5c-0.9,2.5-1.4,4.1-1.6,4.6l-1.1,4.2h-5.1l6.2-20.8c0.7-2.4,1-4.1,1-5.1c0-0.4-0.2-0.7-0.5-1
		c-0.4-0.4-1-0.5-1.7-0.5c-0.5,0-1.3,0.1-2.6,0.3L275.9,1048.6z"/>
	<path class="st0" d="M314.7,1046.7l-6.6,23.4c-0.4,1.6-0.7,2.5-0.7,2.8c0,0.4,0.1,0.7,0.3,0.9c0.2,0.2,0.4,0.3,0.7,0.3
		c0.4,0,0.8-0.2,1.2-0.5c1.3-1,2.6-2.4,3.9-4.3l1.2,0.8c-1.5,2.3-3.3,4.2-5.4,5.9c-1.5,1.2-2.9,1.7-4.3,1.7c-0.9,0-1.7-0.3-2.2-0.8
		c-0.6-0.5-0.9-1.2-0.9-2.1s0.3-2.2,0.8-4.1l4.4-15c0.7-2.4,1-4,1-4.6c0-0.5-0.2-0.9-0.5-1.2c-0.3-0.3-0.8-0.5-1.4-0.5
		c-0.5,0-1.5,0.1-3.1,0.4v-1.3L314.7,1046.7z M314.3,1033.4c0.9,0,1.7,0.3,2.4,1c0.6,0.7,1,1.4,1,2.3s-0.3,1.7-1,2.4
		c-0.7,0.7-1.4,1-2.3,1c-0.9,0-1.7-0.3-2.4-1s-1-1.5-1-2.4s0.3-1.7,1-2.3C312.6,1033.7,313.4,1033.4,314.3,1033.4z"/>
	<path class="st0" d="M372.1,1029.4l-11.5,39.4c-0.6,2.1-1,3.5-1,4.2c0,0.2,0.1,0.4,0.3,0.6c0.2,0.2,0.4,0.3,0.6,0.3
		c0.3,0,0.7-0.1,1-0.4c0.8-0.6,2-1.9,3.8-4l1.2,0.7c-1.6,2.2-3.2,4-4.9,5.4c-1.6,1.4-3.2,2.1-4.6,2.1c-0.8,0-1.4-0.3-1.9-0.8
		s-0.7-1.3-0.7-2.3c0-1.3,0.3-3,1-5.1l1.3-4.2c-3.2,5-6.1,8.5-8.8,10.4c-1.8,1.3-3.6,2-5.2,2c-1.7,0-3.2-0.7-4.5-2.2
		s-1.9-3.5-1.9-6.1c0-3.3,1.1-6.9,3.2-10.6c2.1-3.8,4.9-6.8,8.4-9.2c2.7-1.9,5.3-2.9,7.6-2.9c1.2,0,2.2,0.2,3.1,0.7
		c0.9,0.5,1.7,1.3,2.6,2.4l3.3-11.6c0.2-0.8,0.4-1.5,0.6-2c0.3-0.9,0.4-1.6,0.4-2.2c0-0.5-0.2-0.9-0.5-1.2c-0.5-0.4-1.1-0.6-1.8-0.6
		c-0.5,0-1.3,0.1-2.5,0.2v-1.2L372.1,1029.4z M359.7,1053.1c0-1.4-0.4-2.6-1.2-3.4c-0.8-0.9-1.9-1.3-3.1-1.3c-2.8,0-5.7,2.3-8.8,6.9
		c-3,4.6-4.5,9-4.5,13.3c0,1.7,0.4,3,1.1,3.8c0.7,0.9,1.6,1.3,2.6,1.3c2.3,0,5.2-2.5,8.7-7.5C358,1061.2,359.7,1056.9,359.7,1053.1z
		"/>
	<path class="st0" d="M377.4,1064.3c-0.1,1.1-0.2,2-0.2,2.7c0,2,0.7,3.7,2.1,5.1c1.4,1.4,3.1,2.1,5.1,2.1c1.6,0,3.1-0.3,4.6-1
		s3.7-2.1,6.6-4.4l0.7,1c-5.3,5.2-10.3,7.8-15.1,7.8c-3.2,0-5.7-1-7.3-3.1c-1.6-2-2.5-4.3-2.5-6.8c0-3.3,1-6.7,3.1-10.2
		c2-3.5,4.6-6.2,7.7-8.1c3.1-1.9,6.3-2.9,9.6-2.9c2.4,0,4.1,0.5,5.2,1.5c1.1,1,1.7,2.1,1.7,3.4c0,1.9-0.7,3.6-2.2,5.3
		c-1.9,2.2-4.8,4-8.5,5.4C385.5,1063.1,382,1063.8,377.4,1064.3z M377.7,1062.7c3.3-0.4,6-1,8.1-2c2.7-1.2,4.8-2.7,6.2-4.4
		c1.4-1.7,2.1-3.3,2.1-4.9c0-0.9-0.3-1.7-0.9-2.2s-1.4-0.9-2.5-0.9c-2.3,0-4.7,1.2-7.2,3.6C380.8,1054.4,378.9,1057.9,377.7,1062.7z
		"/>
	<path class="st0" d="M437.1,1029.4l-11.4,39.8c-0.6,2-0.8,3.2-0.8,3.7c0,0.3,0.1,0.6,0.3,0.8c0.2,0.2,0.5,0.3,0.8,0.3
		c0.4,0,0.9-0.2,1.4-0.6c1.2-0.9,2.4-2.3,3.7-4.2l1,1c-2.1,3-4.1,5.1-5.9,6.3c-1.3,0.8-2.5,1.2-3.7,1.2c-0.8,0-1.5-0.3-2.1-0.9
		s-0.9-1.2-0.9-2c0-0.8,0.3-2.4,1-4.9l9.1-31.3c0.7-2.6,1.1-4,1.1-4.4c0-0.6-0.2-1-0.6-1.3c-0.4-0.3-1.1-0.5-2-0.5
		c-0.5,0-1.3,0.1-2.3,0.2v-1.2L437.1,1029.4z"/>
	<path class="st0" d="M467.9,1046.7l-6.5,22.7l-0.7,3.1c-0.1,0.3-0.1,0.5-0.1,0.7c0,0.4,0.1,0.7,0.3,1c0.2,0.2,0.4,0.3,0.7,0.3
		s0.7-0.2,1.1-0.5c0.9-0.6,2-2,3.5-4l1.1,0.8c-1.5,2.3-3.1,4.1-4.7,5.3c-1.6,1.2-3.1,1.8-4.5,1.8c-0.9,0-1.7-0.2-2.1-0.7
		s-0.7-1.2-0.7-2.1c0-1.1,0.2-2.5,0.7-4.3l0.7-2.5c-2.9,3.8-5.6,6.5-8.1,8c-1.8,1.1-3.5,1.6-5.2,1.6c-1.6,0-3-0.7-4.2-2
		c-1.2-1.3-1.8-3.2-1.8-5.5c0-3.5,1.1-7.3,3.2-11.2c2.1-3.9,4.8-7.1,8.1-9.4c2.5-1.9,5-2.8,7.2-2.8c1.4,0,2.5,0.4,3.4,1.1
		c0.9,0.7,1.6,1.9,2.1,3.6l1.2-3.8L467.9,1046.7z M456,1048.4c-1.4,0-2.9,0.7-4.5,2c-2.3,1.9-4.3,4.7-6.1,8.4
		c-1.8,3.7-2.7,7.1-2.7,10.1c0,1.5,0.4,2.7,1.1,3.6c0.8,0.9,1.6,1.3,2.6,1.3c2.4,0,5-1.8,7.9-5.4c3.8-4.8,5.7-9.6,5.7-14.7
		c0-1.9-0.4-3.3-1.1-4.1C458.3,1048.8,457.3,1048.4,456,1048.4z"/>
	<path class="st0" d="M508.8,1031.6l4.2,36.5l26.3-36.5h11v1.2c-2.4,0.2-3.8,0.3-4.2,0.5c-0.7,0.3-1.4,0.9-2,1.8
		c-0.6,0.9-1.3,2.5-2,5l-8.4,28.7c-0.5,1.7-0.7,3-0.7,3.9c0,0.9,0.3,1.5,0.9,2c0.9,0.6,2.2,1,4,1h0.8l-0.3,1.2h-19.1l0.3-1.2h0.9
		c1.7,0,3-0.2,3.9-0.7c0.7-0.4,1.3-1,1.9-2c0.6-1,1.3-3.2,2.3-6.6l7.5-26.3l-26.4,36.9h-1.3l-4.3-36.9l-8.1,28c-0.7,2.4-1,4-1,4.8
		c0,0.8,0.3,1.5,0.9,1.9c0.6,0.4,2.1,0.7,4.4,0.9l-0.4,1.2h-14.9l0.4-1.2h0.9c2.2,0,3.8-0.6,4.8-1.7c0.7-0.8,1.5-2.5,2.2-5.2
		l9.8-33.7c-0.7-0.8-1.4-1.3-2.1-1.6c-0.7-0.3-1.9-0.5-3.7-0.6l0.3-1.2H508.8z"/>
	<path class="st0" d="M576.2,1046.7l-6.5,22.7l-0.7,3.1c-0.1,0.3-0.1,0.5-0.1,0.7c0,0.4,0.1,0.7,0.3,1c0.2,0.2,0.4,0.3,0.7,0.3
		s0.7-0.2,1.1-0.5c0.9-0.6,2-2,3.5-4l1.1,0.8c-1.5,2.3-3.1,4.1-4.7,5.3c-1.6,1.2-3.1,1.8-4.5,1.8c-0.9,0-1.7-0.2-2.1-0.7
		s-0.7-1.2-0.7-2.1c0-1.1,0.2-2.5,0.7-4.3l0.7-2.5c-2.9,3.8-5.6,6.5-8.1,8c-1.8,1.1-3.5,1.6-5.2,1.6c-1.6,0-3-0.7-4.2-2
		c-1.2-1.3-1.8-3.2-1.8-5.5c0-3.5,1.1-7.3,3.2-11.2c2.1-3.9,4.8-7.1,8.1-9.4c2.5-1.9,5-2.8,7.2-2.8c1.4,0,2.5,0.4,3.4,1.1
		c0.9,0.7,1.6,1.9,2.1,3.6l1.2-3.8L576.2,1046.7z M564.3,1048.4c-1.4,0-2.9,0.7-4.5,2c-2.3,1.9-4.3,4.7-6.1,8.4
		c-1.8,3.7-2.7,7.1-2.7,10.1c0,1.5,0.4,2.7,1.1,3.6c0.8,0.9,1.6,1.3,2.6,1.3c2.4,0,5-1.8,7.9-5.4c3.8-4.8,5.7-9.6,5.7-14.7
		c0-1.9-0.4-3.3-1.1-4.1C566.6,1048.8,565.6,1048.4,564.3,1048.4z"/>
	<path class="st0" d="M581.8,1048.6l11.5-1.9l-4.8,16.3c3.9-6.7,7.4-11.3,10.6-14c1.8-1.5,3.3-2.3,4.4-2.3c0.7,0,1.3,0.2,1.7,0.7
		c0.4,0.4,0.6,1.1,0.6,1.9c0,1.5-0.4,2.9-1.1,4.2c-0.5,1-1.3,1.5-2.3,1.5c-0.5,0-0.9-0.2-1.3-0.5c-0.4-0.3-0.6-0.8-0.7-1.5
		c0-0.4-0.1-0.7-0.3-0.8c-0.2-0.2-0.4-0.2-0.6-0.2c-0.4,0-0.7,0.1-1.1,0.2c-0.6,0.3-1.5,1.2-2.7,2.6c-1.9,2.2-3.9,5-6,8.5
		c-0.9,1.5-1.7,3.1-2.4,5c-0.9,2.5-1.4,4.1-1.6,4.6l-1.1,4.2h-5.1l6.2-20.8c0.7-2.4,1-4.1,1-5.1c0-0.4-0.2-0.7-0.5-1
		c-0.4-0.4-1-0.5-1.7-0.5c-0.5,0-1.3,0.1-2.6,0.3L581.8,1048.6z"/>
	<path class="st0" d="M613.1,1064.3c-0.1,1.1-0.2,2-0.2,2.7c0,2,0.7,3.7,2.1,5.1c1.4,1.4,3.1,2.1,5.1,2.1c1.6,0,3.1-0.3,4.6-1
		s3.7-2.1,6.6-4.4l0.7,1c-5.3,5.2-10.3,7.8-15.1,7.8c-3.2,0-5.7-1-7.3-3.1c-1.6-2-2.5-4.3-2.5-6.8c0-3.3,1-6.7,3.1-10.2
		c2-3.5,4.6-6.2,7.7-8.1c3.1-1.9,6.3-2.9,9.6-2.9c2.4,0,4.1,0.5,5.2,1.5c1.1,1,1.7,2.1,1.7,3.4c0,1.9-0.7,3.6-2.2,5.3
		c-1.9,2.2-4.8,4-8.5,5.4C621.1,1063.1,617.6,1063.8,613.1,1064.3z M613.3,1062.7c3.3-0.4,6-1,8.1-2c2.7-1.2,4.8-2.7,6.2-4.4
		c1.4-1.7,2.1-3.3,2.1-4.9c0-0.9-0.3-1.7-0.9-2.2s-1.4-0.9-2.5-0.9c-2.3,0-4.7,1.2-7.2,3.6C616.4,1054.4,614.5,1057.9,613.3,1062.7z
		"/>
	<path class="st0" d="M689.4,1029.4l-11.5,39.4c-0.6,2.1-1,3.5-1,4.2c0,0.2,0.1,0.4,0.3,0.6c0.2,0.2,0.4,0.3,0.6,0.3
		c0.3,0,0.7-0.1,1-0.4c0.8-0.6,2-1.9,3.8-4l1.2,0.7c-1.6,2.2-3.2,4-4.9,5.4c-1.6,1.4-3.2,2.1-4.6,2.1c-0.8,0-1.4-0.3-1.9-0.8
		s-0.7-1.3-0.7-2.3c0-1.3,0.3-3,1-5.1l1.3-4.2c-3.2,5-6.1,8.5-8.8,10.4c-1.8,1.3-3.6,2-5.2,2c-1.7,0-3.2-0.7-4.5-2.2
		s-1.9-3.5-1.9-6.1c0-3.3,1.1-6.9,3.2-10.6c2.1-3.8,4.9-6.8,8.4-9.2c2.7-1.9,5.3-2.9,7.6-2.9c1.2,0,2.2,0.2,3.1,0.7
		c0.9,0.5,1.7,1.3,2.6,2.4l3.3-11.6c0.2-0.8,0.4-1.5,0.6-2c0.3-0.9,0.4-1.6,0.4-2.2c0-0.5-0.2-0.9-0.5-1.2c-0.5-0.4-1.1-0.6-1.8-0.6
		c-0.5,0-1.3,0.1-2.5,0.2v-1.2L689.4,1029.4z M677,1053.1c0-1.4-0.4-2.6-1.2-3.4c-0.8-0.9-1.9-1.3-3.1-1.3c-2.8,0-5.7,2.3-8.8,6.9
		c-3,4.6-4.5,9-4.5,13.3c0,1.7,0.4,3,1.1,3.8c0.7,0.9,1.6,1.3,2.6,1.3c2.3,0,5.2-2.5,8.7-7.5C675.3,1061.2,677,1056.9,677,1053.1z"
		/>
	<path class="st0" d="M694.7,1064.3c-0.1,1.1-0.2,2-0.2,2.7c0,2,0.7,3.7,2.1,5.1c1.4,1.4,3.1,2.1,5.1,2.1c1.6,0,3.1-0.3,4.6-1
		s3.7-2.1,6.6-4.4l0.7,1c-5.3,5.2-10.3,7.8-15.1,7.8c-3.2,0-5.7-1-7.3-3.1c-1.6-2-2.5-4.3-2.5-6.8c0-3.3,1-6.7,3.1-10.2
		c2-3.5,4.6-6.2,7.7-8.1c3.1-1.9,6.3-2.9,9.6-2.9c2.4,0,4.1,0.5,5.2,1.5c1.1,1,1.7,2.1,1.7,3.4c0,1.9-0.7,3.6-2.2,5.3
		c-1.9,2.2-4.8,4-8.5,5.4C702.8,1063.1,699.3,1063.8,694.7,1064.3z M695,1062.7c3.3-0.4,6-1,8.1-2c2.7-1.2,4.8-2.7,6.2-4.4
		c1.4-1.7,2.1-3.3,2.1-4.9c0-0.9-0.3-1.7-0.9-2.2s-1.4-0.9-2.5-0.9c-2.3,0-4.7,1.2-7.2,3.6C698.1,1054.4,696.2,1057.9,695,1062.7z"
		/>
	<path class="st0" d="M744.1,1032.8l0.4-1.2H759c6.1,0,10.6,0.7,13.6,2.1c2.9,1.4,5.3,3.6,7.1,6.6c1.8,3,2.7,6.3,2.7,9.7
		c0,3-0.5,5.8-1.5,8.6c-1,2.8-2.2,5-3.4,6.7c-1.3,1.7-3.2,3.5-5.9,5.6c-2.7,2-5.5,3.5-8.6,4.5c-3.1,1-7,1.5-11.6,1.5H732l0.4-1.2
		c1.8,0,3-0.2,3.6-0.5c0.9-0.4,1.5-0.9,2-1.5c0.7-0.9,1.4-2.8,2.2-5.6l8-27.4c0.6-2.2,0.9-3.9,0.9-5.1c0-0.9-0.3-1.5-0.9-2
		c-0.6-0.5-1.7-0.7-3.4-0.7H744.1z M756,1034.1l-9.8,33.9c-0.7,2.5-1.1,4.1-1.1,4.7c0,0.4,0.1,0.7,0.4,1s0.5,0.6,0.9,0.7
		c0.6,0.2,1.5,0.3,2.8,0.3c3.5,0,6.7-0.4,9.7-1.1c3-0.7,5.5-1.8,7.4-3.2c2.7-2.1,4.9-4.9,6.5-8.5c1.6-3.6,2.4-7.8,2.4-12.4
		c0-5.2-1.2-9.1-3.7-11.7c-2.5-2.5-6.1-3.8-10.9-3.8C759.4,1034,757.8,1034,756,1034.1z"/>
	<path class="st0" d="M791.6,1064.3c-0.1,1.1-0.2,2-0.2,2.7c0,2,0.7,3.7,2.1,5.1c1.4,1.4,3.1,2.1,5.1,2.1c1.6,0,3.1-0.3,4.6-1
		s3.7-2.1,6.6-4.4l0.7,1c-5.3,5.2-10.3,7.8-15.1,7.8c-3.2,0-5.7-1-7.3-3.1c-1.6-2-2.5-4.3-2.5-6.8c0-3.3,1-6.7,3.1-10.2
		c2-3.5,4.6-6.2,7.7-8.1c3.1-1.9,6.3-2.9,9.6-2.9c2.4,0,4.1,0.5,5.2,1.5c1.1,1,1.7,2.1,1.7,3.4c0,1.9-0.7,3.6-2.2,5.3
		c-1.9,2.2-4.8,4-8.5,5.4C799.7,1063.1,796.2,1063.8,791.6,1064.3z M791.9,1062.7c3.3-0.4,6-1,8.1-2c2.7-1.2,4.8-2.7,6.2-4.4
		c1.4-1.7,2.1-3.3,2.1-4.9c0-0.9-0.3-1.7-0.9-2.2s-1.4-0.9-2.5-0.9c-2.3,0-4.7,1.2-7.2,3.6C795,1054.4,793.1,1057.9,791.9,1062.7z
		 M812,1030.1l-9.8,11.5h-1.2l3.4-11.5H812z"/>
	<path class="st0" d="M846.1,1047.5l-5.8,19.9c-0.9,3-1.3,4.8-1.3,5.6c0,0.4,0.1,0.7,0.2,0.9c0.1,0.2,0.3,0.3,0.6,0.3
		c0.4,0,0.8-0.2,1.3-0.5c0.5-0.3,1.6-1.7,3.4-4.1l1,0.8c-1.8,2.8-3.6,4.8-5.4,6.1c-1.2,0.8-2.4,1.2-3.5,1.2c-0.9,0-1.6-0.2-2.1-0.7
		c-0.5-0.5-0.7-1.1-0.7-1.9c0-0.8,0.1-1.8,0.4-3c0.4-1.6,1.4-5.2,3.1-10.8c-3.8,6.2-7,10.5-9.5,12.9c-2.5,2.4-4.9,3.5-7.1,3.5
		c-1,0-1.9-0.4-2.6-1.1c-0.7-0.7-1.1-1.6-1.1-2.7c0-1.7,0.5-4.2,1.5-7.7l2.9-10.3c0.7-2.5,1-4,1-4.6c0-0.2-0.1-0.5-0.3-0.7
		c-0.2-0.2-0.4-0.3-0.6-0.3c-0.5,0-0.9,0.2-1.4,0.5c-0.5,0.3-1.5,1.6-3.2,3.7l-1-0.7c1.7-2.6,3.5-4.5,5.3-5.7c1.4-1,2.8-1.5,3.9-1.5
		c0.8,0,1.5,0.3,2,0.8c0.5,0.5,0.8,1.2,0.8,2c0,1.2-0.4,3.4-1.3,6.4l-3.2,10.8c-0.9,3-1.3,4.8-1.3,5.6c0,0.4,0.1,0.8,0.4,1
		c0.3,0.3,0.6,0.4,1.1,0.4c0.7,0,1.7-0.4,2.9-1.1c1.2-0.7,2.8-2.4,4.7-4.9c2-2.5,3.6-4.9,4.9-7.1c1.3-2.2,2.6-5.7,4.1-10.6l0.7-2.5
		H846.1z"/>
	<path class="st0" d="M902.2,1029.4l-11.5,39.4c-0.6,2.1-1,3.5-1,4.2c0,0.2,0.1,0.4,0.3,0.6c0.2,0.2,0.4,0.3,0.6,0.3
		c0.3,0,0.7-0.1,1-0.4c0.8-0.6,2-1.9,3.8-4l1.2,0.7c-1.6,2.2-3.2,4-4.9,5.4c-1.6,1.4-3.2,2.1-4.6,2.1c-0.8,0-1.4-0.3-1.9-0.8
		s-0.7-1.3-0.7-2.3c0-1.3,0.3-3,1-5.1l1.3-4.2c-3.2,5-6.1,8.5-8.8,10.4c-1.8,1.3-3.6,2-5.2,2c-1.7,0-3.2-0.7-4.5-2.2
		s-1.9-3.5-1.9-6.1c0-3.3,1.1-6.9,3.2-10.6c2.1-3.8,4.9-6.8,8.4-9.2c2.7-1.9,5.3-2.9,7.6-2.9c1.2,0,2.2,0.2,3.1,0.7
		c0.9,0.5,1.7,1.3,2.6,2.4l3.3-11.6c0.2-0.8,0.4-1.5,0.6-2c0.3-0.9,0.4-1.6,0.4-2.2c0-0.5-0.2-0.9-0.5-1.2c-0.5-0.4-1.1-0.6-1.8-0.6
		c-0.5,0-1.3,0.1-2.5,0.2v-1.2L902.2,1029.4z M889.8,1053.1c0-1.4-0.4-2.6-1.2-3.4c-0.8-0.9-1.9-1.3-3.1-1.3c-2.8,0-5.7,2.3-8.8,6.9
		c-3,4.6-4.5,9-4.5,13.3c0,1.7,0.4,3,1.1,3.8c0.7,0.9,1.6,1.3,2.6,1.3c2.3,0,5.2-2.5,8.7-7.5
		C888.1,1061.2,889.8,1056.9,889.8,1053.1z"/>
	<path class="st0" d="M907.5,1064.3c-0.1,1.1-0.2,2-0.2,2.7c0,2,0.7,3.7,2.1,5.1c1.4,1.4,3.1,2.1,5.1,2.1c1.6,0,3.1-0.3,4.6-1
		s3.7-2.1,6.6-4.4l0.7,1c-5.3,5.2-10.3,7.8-15.1,7.8c-3.2,0-5.7-1-7.3-3.1c-1.6-2-2.5-4.3-2.5-6.8c0-3.3,1-6.7,3.1-10.2
		c2-3.5,4.6-6.2,7.7-8.1c3.1-1.9,6.3-2.9,9.6-2.9c2.4,0,4.1,0.5,5.2,1.5c1.1,1,1.7,2.1,1.7,3.4c0,1.9-0.7,3.6-2.2,5.3
		c-1.9,2.2-4.8,4-8.5,5.4C915.6,1063.1,912.1,1063.8,907.5,1064.3z M907.8,1062.7c3.3-0.4,6-1,8.1-2c2.7-1.2,4.8-2.7,6.2-4.4
		c1.4-1.7,2.1-3.3,2.1-4.9c0-0.9-0.3-1.7-0.9-2.2s-1.4-0.9-2.5-0.9c-2.3,0-4.7,1.2-7.2,3.6C910.9,1054.4,909,1057.9,907.8,1062.7z"
		/>
	<path class="st0" d="M967.2,1029.4l-11.4,39.8c-0.6,2-0.8,3.2-0.8,3.7c0,0.3,0.1,0.6,0.3,0.8c0.2,0.2,0.5,0.3,0.8,0.3
		c0.4,0,0.9-0.2,1.4-0.6c1.2-0.9,2.4-2.3,3.7-4.2l1,1c-2.1,3-4.1,5.1-5.9,6.3c-1.3,0.8-2.5,1.2-3.7,1.2c-0.8,0-1.5-0.3-2.1-0.9
		s-0.9-1.2-0.9-2c0-0.8,0.3-2.4,1-4.9l9.1-31.3c0.7-2.6,1.1-4,1.1-4.4c0-0.6-0.2-1-0.6-1.3c-0.4-0.3-1.1-0.5-2-0.5
		c-0.5,0-1.3,0.1-2.3,0.2v-1.2L967.2,1029.4z"/>
	<path class="st0" d="M998,1046.7l-6.5,22.7l-0.7,3.1c-0.1,0.3-0.1,0.5-0.1,0.7c0,0.4,0.1,0.7,0.3,1c0.2,0.2,0.4,0.3,0.7,0.3
		s0.7-0.2,1.1-0.5c0.9-0.6,2-2,3.5-4l1.1,0.8c-1.5,2.3-3.1,4.1-4.7,5.3c-1.6,1.2-3.1,1.8-4.5,1.8c-0.9,0-1.7-0.2-2.1-0.7
		s-0.7-1.2-0.7-2.1c0-1.1,0.2-2.5,0.7-4.3l0.7-2.5c-2.9,3.8-5.6,6.5-8.1,8c-1.8,1.1-3.5,1.6-5.2,1.6c-1.6,0-3-0.7-4.2-2
		c-1.2-1.3-1.8-3.2-1.8-5.5c0-3.5,1.1-7.3,3.2-11.2c2.1-3.9,4.8-7.1,8.1-9.4c2.5-1.9,5-2.8,7.2-2.8c1.4,0,2.5,0.4,3.4,1.1
		c0.9,0.7,1.6,1.9,2.1,3.6l1.2-3.8L998,1046.7z M986.1,1048.4c-1.4,0-2.9,0.7-4.5,2c-2.3,1.9-4.3,4.7-6.1,8.4
		c-1.8,3.7-2.7,7.1-2.7,10.1c0,1.5,0.4,2.7,1.1,3.6c0.8,0.9,1.6,1.3,2.6,1.3c2.4,0,5-1.8,7.9-5.4c3.8-4.8,5.7-9.6,5.7-14.7
		c0-1.9-0.4-3.3-1.1-4.1C988.4,1048.8,987.4,1048.4,986.1,1048.4z"/>
	<path class="st0" d="M1017.6,1077.9l3.7-16.8h1.2c-0.2,1.6-0.2,3-0.2,4c0,3.1,1,5.6,2.9,7.5c2,1.9,4.5,2.9,7.7,2.9
		c2.9,0,5.1-0.9,6.6-2.7c1.5-1.8,2.3-3.9,2.3-6.2c0-1.5-0.3-2.9-1-4.2c-1.1-1.9-3.9-5.1-8.4-9.8c-2.2-2.2-3.6-3.9-4.2-5
		c-1-1.8-1.5-3.7-1.5-5.7c0-3.2,1.2-5.9,3.5-8.1c2.4-2.3,5.4-3.4,9.1-3.4c1.3,0,2.5,0.1,3.6,0.4c0.7,0.1,2,0.6,3.8,1.4
		c1.3,0.5,2,0.8,2.1,0.8c0.3,0.1,0.7,0.1,1,0.1c0.7,0,1.2-0.2,1.7-0.5c0.5-0.3,1-1.1,1.6-2.2h1.3l-3.5,15.1h-1.2
		c0.1-1.4,0.2-2.4,0.2-3.2c0-2.7-0.9-4.9-2.7-6.6c-1.8-1.7-4.1-2.6-7.1-2.6c-2.3,0-4.2,0.7-5.6,2c-1.5,1.4-2.2,2.9-2.2,4.7
		c0,1.5,0.5,3,1.4,4.4s3.1,3.7,6.4,6.9c3.3,3.2,5.5,5.7,6.5,7.5c1,1.8,1.5,3.7,1.5,5.7c0,2.3-0.6,4.5-1.8,6.7
		c-1.2,2.2-2.9,3.8-5.2,5c-2.3,1.2-4.8,1.8-7.5,1.8c-1.3,0-2.6-0.1-3.7-0.4s-3-0.8-5.6-1.8c-0.9-0.3-1.6-0.5-2.2-0.5
		c-1.3,0-2.4,0.9-3.1,2.7H1017.6z"/>
	<path class="st0" d="M1083.5,1046.7l-6.5,22.7l-0.7,3.1c-0.1,0.3-0.1,0.5-0.1,0.7c0,0.4,0.1,0.7,0.3,1c0.2,0.2,0.4,0.3,0.7,0.3
		s0.7-0.2,1.1-0.5c0.9-0.6,2-2,3.5-4l1.1,0.8c-1.5,2.3-3.1,4.1-4.7,5.3c-1.6,1.2-3.1,1.8-4.5,1.8c-0.9,0-1.7-0.2-2.1-0.7
		s-0.7-1.2-0.7-2.1c0-1.1,0.2-2.5,0.7-4.3l0.7-2.5c-2.9,3.8-5.6,6.5-8.1,8c-1.8,1.1-3.5,1.6-5.2,1.6c-1.6,0-3-0.7-4.2-2
		c-1.2-1.3-1.8-3.2-1.8-5.5c0-3.5,1.1-7.3,3.2-11.2c2.1-3.9,4.8-7.1,8.1-9.4c2.5-1.9,5-2.8,7.2-2.8c1.4,0,2.5,0.4,3.4,1.1
		c0.9,0.7,1.6,1.9,2.1,3.6l1.2-3.8L1083.5,1046.7z M1071.6,1048.4c-1.4,0-2.9,0.7-4.5,2c-2.3,1.9-4.3,4.7-6.1,8.4
		c-1.8,3.7-2.7,7.1-2.7,10.1c0,1.5,0.4,2.7,1.1,3.6c0.8,0.9,1.6,1.3,2.6,1.3c2.4,0,5-1.8,7.9-5.4c3.8-4.8,5.7-9.6,5.7-14.7
		c0-1.9-0.4-3.3-1.1-4.1C1073.9,1048.8,1072.9,1048.4,1071.6,1048.4z"/>
	<path class="st0" d="M1105.9,1029.4l-11.4,39.8c-0.6,2-0.8,3.2-0.8,3.7c0,0.3,0.1,0.6,0.3,0.8c0.2,0.2,0.5,0.3,0.8,0.3
		c0.4,0,0.9-0.2,1.4-0.6c1.2-0.9,2.4-2.3,3.7-4.2l1,1c-2.1,3-4.1,5.1-5.9,6.3c-1.3,0.8-2.5,1.2-3.7,1.2c-0.8,0-1.5-0.3-2.1-0.9
		s-0.9-1.2-0.9-2c0-0.8,0.3-2.4,1-4.9l9.1-31.3c0.7-2.6,1.1-4,1.1-4.4c0-0.6-0.2-1-0.6-1.3c-0.4-0.3-1.1-0.5-2-0.5
		c-0.5,0-1.3,0.1-2.3,0.2v-1.2L1105.9,1029.4z"/>
	<path class="st0" d="M1136.8,1047.5l-5.8,19.9c-0.9,3-1.3,4.8-1.3,5.6c0,0.4,0.1,0.7,0.2,0.9c0.1,0.2,0.3,0.3,0.6,0.3
		c0.4,0,0.8-0.2,1.3-0.5c0.5-0.3,1.6-1.7,3.4-4.1l1,0.8c-1.8,2.8-3.6,4.8-5.4,6.1c-1.2,0.8-2.4,1.2-3.5,1.2c-0.9,0-1.6-0.2-2.1-0.7
		c-0.5-0.5-0.7-1.1-0.7-1.9c0-0.8,0.1-1.8,0.4-3c0.4-1.6,1.4-5.2,3.1-10.8c-3.8,6.2-7,10.5-9.5,12.9c-2.5,2.4-4.9,3.5-7.1,3.5
		c-1,0-1.9-0.4-2.6-1.1c-0.7-0.7-1.1-1.6-1.1-2.7c0-1.7,0.5-4.2,1.5-7.7l2.9-10.3c0.7-2.5,1-4,1-4.6c0-0.2-0.1-0.5-0.3-0.7
		c-0.2-0.2-0.4-0.3-0.6-0.3c-0.5,0-0.9,0.2-1.4,0.5c-0.5,0.3-1.5,1.6-3.2,3.7l-1-0.7c1.7-2.6,3.5-4.5,5.3-5.7c1.4-1,2.8-1.5,3.9-1.5
		c0.8,0,1.5,0.3,2,0.8c0.5,0.5,0.8,1.2,0.8,2c0,1.2-0.4,3.4-1.3,6.4l-3.2,10.8c-0.9,3-1.3,4.8-1.3,5.6c0,0.4,0.1,0.8,0.4,1
		c0.3,0.3,0.6,0.4,1.1,0.4c0.7,0,1.7-0.4,2.9-1.1c1.2-0.7,2.8-2.4,4.7-4.9c2-2.5,3.6-4.9,4.9-7.1c1.3-2.2,2.6-5.7,4.1-10.6l0.7-2.5
		H1136.8z"/>
	<path class="st0" d="M1156.5,1038.4l-2.6,9.1h5.3l-0.6,2.1h-5.2l-5.8,19.7c-0.6,2.1-0.9,3.5-0.9,4.1c0,0.4,0.1,0.7,0.2,0.9
		c0.2,0.2,0.4,0.3,0.6,0.3c0.6,0,1.3-0.4,2.2-1.2c0.6-0.4,1.8-1.8,3.6-4.1l1.1,0.9c-2,3-4,5.1-5.8,6.3c-1.2,0.8-2.5,1.2-3.8,1.2
		c-1,0-1.8-0.3-2.4-0.9c-0.6-0.6-0.9-1.4-0.9-2.4c0-1.2,0.3-3,1-5.5l5.6-19.3h-5.1l0.3-1.3c2.5-0.7,4.5-1.7,6.1-3
		c1.6-1.3,3.4-3.6,5.5-6.9H1156.5z"/>
</g>
<text transform="matrix(1 0 0 1 1816.426 1172.3931)" style="font-family:'Aparajita'; font-size:75.0461px;">Camino de Ripollet a Castellar,</text>
<text transform="matrix(1 0 0 1 2004.326 1262.493)" style="font-family:'Aparajita'; font-size:75.0461px;">162B, Sabadell.</text>
</svg>
