<?xml version="1.0" encoding="utf-8"?>
<!-- Generator: Adobe Illustrator 25.4.1, SVG Export Plug-In . SVG Version: 6.00 Build 0)  -->
<!DOCTYPE svg PUBLIC "-//W3C//DTD SVG 1.1//EN" "http://www.w3.org/Graphics/SVG/1.1/DTD/svg11.dtd" [
	<!ENTITY ns_extend "http://ns.adobe.com/Extensibility/1.0/">
	<!ENTITY ns_ai "http://ns.adobe.com/AdobeIllustrator/10.0/">
	<!ENTITY ns_graphs "http://ns.adobe.com/Graphs/1.0/">
	<!ENTITY ns_vars "http://ns.adobe.com/Variables/1.0/">
	<!ENTITY ns_imrep "http://ns.adobe.com/ImageReplacement/1.0/">
	<!ENTITY ns_sfw "http://ns.adobe.com/SaveForWeb/1.0/">
	<!ENTITY ns_custom "http://ns.adobe.com/GenericCustomNamespace/1.0/">
	<!ENTITY ns_adobe_xpath "http://ns.adobe.com/XPath/1.0/">
]>
<svg version="1.1" id="regalo" xmlns:x="&ns_extend;" xmlns:i="&ns_ai;" xmlns:graph="&ns_graphs;"
	 xmlns="http://www.w3.org/2000/svg" xmlns:xlink="http://www.w3.org/1999/xlink" x="0px" y="0px" viewBox="0 0 1242 2208"
	 style="enable-background:new 0 0 1242 2208;" xml:space="preserve">
<style type="text/css">
	.st0{enable-background:new    ;}
	.st1{fill:#4D4D4D;}
	.st2{fill:none;}
</style>
<metadata>
	<sfw  xmlns="&ns_sfw;">
		<slices></slices>
		<sliceSourceBounds  bottomLeftOrigin="true" height="1140.2" width="2195.7" x="238.5" y="731.6"></sliceSourceBounds>
	</sfw>
</metadata>
<script  type="text/ecmascript">
	<![CDATA[
      function changerect(evt) {
        console.log("aaaaa")
		navigator.clipboard.writeText("ES1321003278612200218023").then(function() {
          /* Alert the copied text */
          alert("Cuenta: ES13 2100 3278 6122 0021 8023");
        });
      }
    
		
		
		
		
		
		
		
		
		
		]]>
</script>
<g class="st0">
	<path class="st1" d="M503.1,594.1c24.4-12.7,25.7-18.9,28.3-22.6c0.7-1.7,2.2-3.7,4.6-1.3c2.8,2.8,1.4,7.4,1.4,7.4
		s-8.9,17.9-16.8,35.1c5.9-7.2,18.2-21.4,31.1-28c9.5-4.9,22.6-6.9,28.8,0.3c7.8,9.4,2.9,25-8.9,38.4
		c-16.6,18.9-35.2,23.8-39.5,26.4c9.2,0.3,19.2,8.2,18.8,20.9c-0.4,12.8-7.2,18.5-7.5,32c-0.3,13.4,14.3,9.8,27.9-20
		c11.1-24.4,14.7-31.1,19.2-31.9c-8.8,5.2-22.1,61.3-42.7,61.2c-13.4,0-11.4-19.7-4.6-37.2c6.5-16.5-5.2-26.8-18.9-21.8
		c-13.7,5.1-10.7-3.9-10.7-3.9s2.8-0.6,7.4-2c4.6-1.4,14.4-3.7,26.1-11c20-12.4,29-24.4,32-38.7c3.6-16.6-10.5-18-23.1-12.4
		c-18.6,8.2-38.5,35.8-38.5,35.8l-0.9,0.9c-1.4,3.2-2.8,6.3-3.9,9.1c-7.7,18.6-24.5,64.1-36.8,74.4c-11,9.2-17.9-0.4-16-12.3
		c3.3-22.8,21.5-46.2,46.9-67.5c5.5-13.1,12-27.4,19.5-43.1c-24.1,24.5-79.8,25.5-81.1,66.5C442.7,616.9,473.1,609.7,503.1,594.1z
		 M462.3,698.5c0.1,9.2,6.3,9.2,12.8-0.6s13.6-25.1,22.1-48.3c2.5-6.5,5.2-13.4,8.4-20.8C483.7,649.1,462,674.7,462.3,698.5z"/>
	<path class="st1" d="M584,666.3c-2.5,11.8,4,16.5,10.8,13.7c11.4-4.5,22.2-29.4,30.2-29.3c-7.8,7.2-8.5,9.5-13.9,16.5
		c-7.1,9.1-14.4,16.9-23.2,16c-11.5-1.3-13-15.7-10-22.5c3-7.1,9.2-15.1,18.9-15.7c8.1-0.4,11.1,7.1,3.3,13.6
		c-4.6,3.9-11.4,5.6-15.9,6.5C584.3,665.4,584,666.1,584,666.3z M590.6,661.9c12.4-4.2,14.6-13.6,8.2-12c0,0-10.1,1.3-14,13.6
		C586.3,663.1,588.5,662.6,590.6,661.9z"/>
</g>
<g class="st0">
	<path class="st1" d="M628.1,678.2c6.1-1.7,11-1.4,14.5,0.3c14.9-9.5,23.5-16,30.5-28.6c-1.6,10-13.5,19.9-28.7,29.8
		c6.7,4.5,8.3,14.5,6.7,22.7c-2.9,14.7-11.7,27.3-28,37.4c-12.2,7.6-28.7,9.5-34.9,5.1c-16.3-11.3,7-36.4,24.5-47.6
		c10.8-7,19.6-12.6,27-17c-2.6-1-6.1-1.6-10.7-0.4c-7.3,1.7-12.3,3.8-12.3,3.8S621.6,679.8,628.1,678.2z M614.4,698.9
		c-37.7,24.8-37,55.4-6.3,41.4c34.8-16.1,39.6-40.6,38-51c-0.4-2.8-1.7-5.8-4.4-7.6C633.1,687.2,623.5,692.8,614.4,698.9z
		 M643.3,648c0.7,0.4,1.7,1.3,2.2,2.6c2.6,7.9-6.7,20.2-17.9,26.4c-10.1,5.6-16.9,3.2-18.5-5.3c-2.5-13.9,13.8-24.8,21.3-26.8
		c3.2-0.9,5.8-1,7.8-1C643.3,643.9,644.7,646.6,643.3,648z M621.9,658c-8.2,8.6-9.8,19.1-3.5,18.6c6.6-0.4,13.6-5.3,19.9-13
		c5-6.3,4.7-12.7,3.2-15.2C638.9,648.5,629.8,649.9,621.9,658z"/>
</g>
<g class="st0">
	<path class="st1" d="M692.4,687.3c8.8-13,19.6-34.9,27.1-36.6c-7.7,8.8-9.7,12.8-14.1,19.9c-8.5,13.7-13.1,22.9-18,22.2
		c-5.5-0.9-10.7-8.2-4.9-23.7c0.1-0.6,0.4-1.3,0.6-1.9c-6.3,7.7-12.3,15.1-18.2,8.5c-6-6.8-0.1-18.9,5.4-24.1
		c4-3.7,11.5-6.9,19.6-4.9c8.9,2.3,2.2,2.3,2.2,2.3s-11.4-2.5-19.6,10.7c-6,9.7-2.6,18.5,2.2,14c2.6-2.5,8.4-9.7,12.8-15.4
		c2.3-3.7,4.8-8.2,7.1-8.2c2.3-0.1,8.1,0.6,2.9,7.1C683.3,675.3,683,701,692.4,687.3z"/>
	<path class="st1" d="M709.1,693.9c-0.4,4.5,0.1,8.1,4.2,2.3c12-16.8,26.7-39.8,39-45.3c-8.5,7.8-19.2,20.2-28,33.2
		c-12,17.7-13.7,18.8-17,16.9c-6.3-3.2-3.2-21.5,0.6-34c4.6-15,16.8-44.9,30.5-64.5c6.6-9.5,12.3-16.9,18.2-20.8
		c4.6-3.2,10.5-4.5,13.6,0.1c6.8,10.1-31.3,53.8-42.7,64.1c-2.2,2-3.7,3.3-4.9,4.3C712.9,672.7,710.1,685.7,709.1,693.9z
		 M729.2,635.3c-1.9,3.9-3.6,7.5-5.1,11c6-6.2,17-17.9,23.5-26.1c14.7-18.9,19.5-28.4,20.5-32.8c2.6-10.8-8.4,0.4-11.4,3.9
		C751.7,596.8,741.9,609.4,729.2,635.3z"/>
	<path class="st1" d="M752.1,642.3c6.9-0.1,12.4,4,12.4,15c0,3.2-0.7,7.7-2,12c2.2-0.9,4.5-2.3,6.8-4.2c9.2-7.4,11.4-14.7,16.2-14.3
		c-5.1,3.9-9.4,12.8-18,18c-1.7,1-3.6,1.9-5.5,2.5c-3.3,10.4-10,20.6-17.6,20.3c-10.8-0.3-11.5-14.4-6.5-24.5
		c0.6-1.3,1.3-2.5,1.9-3.6C733.5,651.7,743.7,642.4,752.1,642.3z M744.9,669.4c-1.6,2.8-2.8,5.5-3.6,8.4c-2,7.5,1.9,15.7,8.5,9.8
		c3.2-2.9,6.9-8.9,9.5-15.7C754.3,672.8,749.1,672.3,744.9,669.4z M749.8,650.8c4.2-0.6,4.6,3.3,4.3,5.6c0,0.1-4.5,4.9-8.2,11.1
		c3.6,2.8,8.6,3.9,14.1,2.5c3.2-9.2,4.2-19.2-1.3-23.7c-7.2-6.2-15.9,0.9-17.4,6.2c-0.7,2.9-0.7,5.9,0,8.4
		C745.3,654.5,748.6,650.9,749.8,650.8z"/>
</g>
<g>
	<path class="st1" d="M738.2,421.9c-0.2-0.6-0.7-1-1.4-1.2l-45.3-2.8c-0.3,0-0.5,0-0.9-0.1c0.1-0.6,0.1-1.5,0.2-2.3
		c0.2-4.2,0.4-8.4,0.6-12.6c0.1-2.1,0.2-4.2,0.3-6.3c0.3-5.8-3-9-9.9-9.4c-2.6-0.2-5.2,0-7.9,0.1c-2.1,0.1-4.3,0.2-5.9,0.1
		c-0.4,0-0.9,0-1.4-0.1c0.3-0.1,0.6-0.2,1-0.3c3.6-1,8.2-2.6,11.6-5.9c0.7-0.7,1.9-1.9,2.3-3.6c0.3-1.3,0.2-2.5,0.1-3.7
		c-1.5-10.7-4.2-18.6-9.6-28.4l-0.1,0.1c-1.5-4.4-5.2-8.1-9.8-9c-7-1.4-13.3,3.2-17.6,6.8c-7,6.1-13.2,13-18.5,20.7
		c-2.6,3.8-4.9,7.8-7.1,12.2c0,0-0.7,1.7-1.2,3.5c-0.4-0.2-1-0.3-1.5-0.3c-1.9-0.2-3.6,0.3-5,1c-0.3-2.1-1.3-4.2-1.3-4.2
		c-2.1-4.4-4.6-8.5-7.1-12.2c-5.2-7.7-11.4-14.6-18.5-20.7c-4.2-3.6-10.6-8.2-17.6-6.8c-4.6,0.9-8.4,4.5-9.8,9l-0.1-0.1
		c-5.6,9.8-8.3,17.8-9.6,28.4c-0.1,1.2-0.2,2.5,0.1,3.7c0.4,1.6,1.6,2.8,2.3,3.6c3.5,3.2,7.9,4.8,11.6,5.9c0.6,0.2,1.4,0.3,2,0.5
		c-0.9,0-1.9-0.1-3-0.2c-4.9-0.3-12.9-1.3-16,1.7c-1.7,1.6-2.6,3.8-2.6,6.8c0,2.8-0.1,5.8-0.2,8.6c-0.1,3.3-0.2,6.9-0.2,10.2
		c-0.4,0.2-0.9,0.3-1.5,0.5c-3.7,1.4-8.1,2.8-12.7,3c-4.1,0.2-7.1,0.2-9.5-0.1c-0.1,0-0.4,0-0.6-0.1c-3.7-0.4-8.4-2.8-11.8-2.6
		c0.4,0,7.1,11.6,8.1,12.9c2.6,3.8,4.4,7.9,7,11.6c1.8,2.5,10.9-1.7,13.1-2.2c8.1-2.2,16.3-4.5,24.4-8.3c-0.5,11-1,22.2-1.3,33.3
		c-0.2,7.7,0.4,15.5,1,23c0.4,6.5,1,13.2,1,19.8c0.1,8.5,9.8,12.1,18.9,12.7c15.4,0.9,30.6,1,45.1,1.2c6.5,0,13.4-0.2,22.1-0.6
		c2.2-0.1,4.6,0.1,7.1,0.4c2.2,0.2,4.6,0.5,6.8,0.5c2.8,0,5.4-0.3,8.1-1.7c3.2-1.6,5.8-4.9,7-9.9l0,0c1.8-6.7,1.7-14.1,1.5-21.3
		c0-2.2-0.1-4.3-0.1-6.3c0-3.6-0.1-7.3-0.2-10.9c-0.2-6.3-0.3-12.7,0.1-18.8c0.4-5.9,0.5-11.9,0.4-18.5c2.3,1.6,4.8,2.8,7.5,3.6
		c5.2,1.6,10.8,1.4,16,1.2c1.6-0.1,3.1-0.1,4.6-0.2c8.3-0.1,14.1,1.7,17.8,5.6c0.2,0.2,0.5,0.4,0.9,0.4c0.1,0,0.2,0,0.3,0
		c0.4,0,0.9-0.3,1.3-0.7c4.3-6.5,9.1-12.8,14.1-18.6C738.2,423.2,738.4,422.5,738.2,421.9z M667.8,391.5c1.8,0.1,4.1,0,6.3-0.1
		c2.6-0.1,5.1-0.3,7.5-0.1c5.6,0.4,6.6,2.5,6.5,5.3c-0.1,2.1-0.2,4.2-0.3,6.3c-0.2,4.2-0.4,8.3-0.6,12.6c0,0.6-0.1,1.5-0.2,2.2
		c-2.3-0.2-4.8-0.6-7-1.5c-6.3-2.1-11.1-6.9-16.3-12.1c-2.5-2.5-5-4.9-7.7-7c-2.2-1.9-5.2-3.9-8.6-5.8c1.7-0.1,3.3-0.3,5.1-0.5
		C657.7,390.8,662.8,391.1,667.8,391.5z M672.1,353.9c3.1,6.7,4.9,13,6,20.8c0.1,0.7,0.2,1.6,0,2.1c-0.1,0.5-0.5,1.2-1.3,1.8
		c-2.8,2.7-6.8,4.1-9.9,4.9c-10,2.8-18.9,4.2-26.7,4.2c-4.8-2-9.8-3.3-14.5-3.3c1.9-0.3,3.9-0.4,6-0.4c11-3.6,20.1-9.6,30.4-17.6
		C666.4,362.9,670.6,358.9,672.1,353.9z M668.9,351c-0.5,4.9-4.8,8.9-9.3,12.3c-8.4,6.6-16,11.7-24.5,15.3
		c7.1-13.4,19.5-24.3,33.8-29.6C669,349.6,669,350.3,668.9,351z M622.7,378.3c2.1-4.3,4.4-8.2,6.8-11.7c5-7.4,11-14.1,17.8-19.9
		c5.8-4.8,10.1-6.7,14.3-6c2.6,0.4,4.8,2.3,6.2,4.7c-16.5,6.1-30.5,19-37.9,35.1l0,0c-2.7,0.9-5.3,1.6-8.3,2.1l0,0
		C621.5,381.6,622,379.4,622.7,378.3z M612.9,384.3c1.3-0.5,2.2-0.9,3.2-0.7c0.7,0.1,1.6,0.6,2.1,1.6c0.1,0.2,0.2,0.4,0.3,0.7
		c-0.1,0.1-0.2,0.2-0.2,0.3c-1.8,0-3.6,0-5.2,0C612.9,385.6,612.8,384.8,612.9,384.3z M604.4,393.4c1.2-0.9,2.8-2.1,4.1-2.9
		c-1.2,9.9-2,19.9-2.7,30c-9.5,0.1-19,0.3-28.3,0.4c-2,0-4.1,0.1-6.1,0.1c2.8-2.5,5.2-5.1,7.7-7.7c2.8-2.9,5.8-6,9-8.7
		c4.1-3.3,8.7-6.2,12.8-8.5C601.4,395.5,602.6,394.8,604.4,393.4z M567.9,340.7c0.5-0.1,1.3-0.2,1.8-0.2c3.6,0,7.6,2,12.6,6.2
		c6.7,5.9,12.8,12.6,17.8,19.9c2.5,3.6,4.8,7.6,6.8,11.7c0.5,1.2,1.2,3.2,1,4.2l0,0c-2.8-0.5-5.4-1.3-8.4-2.1h0.1
		c-7.1-16-21.2-29.1-37.9-35.1C562.9,342.9,565.2,341.1,567.9,340.7z M560.5,349c14.3,5.2,26.8,16.1,33.8,29.7
		c-6.8-2.9-14.4-7.4-24.5-15.4c-4.5-3.5-8.7-7.4-9.3-12.3C560.4,350.3,560.4,349.6,560.5,349z M562.5,383.6
		c-3.1-0.9-7.1-2.2-9.9-4.9c-0.6-0.6-1.2-1.3-1.3-1.8s-0.1-1.4,0-2.1c1-7.7,2.8-14.1,6-20.8c1.6,5,5.9,8.9,10.1,12.3
		c12.2,9.5,22.8,16.2,36.7,19.3c-1.2,0.3-2.2,0.5-3.3,0.9c-1.6,0.2-3.1,0.4-4.7,0.7C586.6,388.5,575.6,387.2,562.5,383.6z
		 M545.5,404.8c0.1-2.9,0.2-5.9,0.2-8.6c0-1.9,0.4-3.2,1.4-4.1c2-1.8,9-1,13.1-0.6c2,0.1,4.2,0.3,6.1,0.2c4.3-0.2,8.5-0.4,13-0.6
		c1.6,0.2,3.1,0.3,4.7,0.4c-6.1,2.7-11.9,6.3-18.1,10c-0.7,0.4-1.6,0.9-2.2,1.5c-6,3.7-12.1,7.5-18.3,10.6
		C545.3,410.4,545.4,407.6,545.5,404.8z M532.5,434.8c-3.5,0.9-7,1.9-10.7,3c-0.4-1.8-1.9-4.7-5.4-10.2c-1.5-2.3-3-4.6-4.4-6.4
		c1.3,0.2,2.8,0.4,4.6,0.6c0.3,0,0.5,0.1,0.6,0.1c2.7,0.3,6,0.4,10.1,0.2c5-0.2,9.7-1.8,13.7-3.2c8.4-3.1,16.4-8.2,24.2-13
		c0.7-0.4,1.6-0.9,2.2-1.5c12.1-7.5,23.3-13.9,35.9-14.6c-0.4,0.3-0.7,0.6-1.4,1c-1.4,1-2.7,2-3.2,2.3c-4.3,2.5-9.1,5.3-13.3,9
		c-3.5,2.9-6.4,6.1-9.3,9.1c-4.8,5-9.4,9.8-15.8,13.5C551.6,429.5,542.3,432.1,532.5,434.8z M577.7,514.7
		c-1.6-0.1-15.4-1.2-15.4-8.9c0-6.7-0.5-13.5-1-20.2c-0.5-7.4-1.2-15.1-1-22.6c0.2-11.7,0.7-23.7,1.4-35.3c0.2-0.1,0.4-0.2,0.7-0.4
		c1.5-0.7,2.7-1.7,4.1-2.6c3.7,0,7.3-0.1,11-0.1c9.2-0.1,18.6-0.2,28-0.4c-1.9,30.4-1.6,61,0.7,91.4
		C596.8,515.5,587.3,515.3,577.7,514.7z M621.7,515.8c-3.8,0-7.7,0-11.6-0.1c-2.5-30.4-0.5-95.4-0.5-95.4
		c0.6-10.1,1.6-20.3,2.8-30.4c2.7,0,5.3,0,7.9,0c0.6,10,1.4,20.2,1.8,30.2C621.7,420.2,623.2,485.2,621.7,515.8z M671,450.7
		c-0.4,6.4-0.2,12.9-0.1,19.2c0.1,3.6,0.2,7.1,0.2,10.8c0,2.1,0,4.2,0.1,6.4c0.2,6.9,0.3,14.1-1.4,20.3l0,0c-1.2,3.9-2.8,6.5-5,7.6
		c-3.7,1.8-8.3,1.3-12.8,0.7c-2.1-0.2-4.4-0.4-6.5-0.4c-0.4,0-0.9,0-1.3,0c-7.1,0.3-13.2,0.5-18.8,0.5c1.5-30.4,1.6-61.2,0.3-91.9
		c8.4-0.1,16.9,0.3,25.2,0.6c1.5,0.1,2.8,0.1,4.3,0.2c3.8,0.1,7.5,0.2,11.1,0.1c1.6,1.7,3.2,3.2,5,4.7
		C671.6,437.1,671.4,444,671,450.7z M624.2,392.3c2.1,1.3,4.4,2.3,6.6,3.5c3,1.6,6.3,3.1,9.1,5c6.7,4.5,13,9.7,18.6,15.6
		c1.3,1.3,2.5,2.6,3.6,3.8c0.2,0.3,0.5,0.5,0.7,0.9c-2.5,0-4.9,0-7.4-0.1c-1.5-0.1-2.8-0.1-4.3-0.2c-8.4-0.3-16.9-0.6-25.5-0.6
		C625.3,410.8,624.8,401.6,624.2,392.3z M722.1,438.7c-3-2.6-6.9-4.2-11.9-4.8c-2-0.2-4.3-0.3-6.7-0.3c-1.6,0-3.1,0.1-4.7,0.2
		c-5.2,0.2-10.2,0.4-15-1c-7.6-2.3-13.7-8.7-19.3-15c-1.3-1.3-2.5-2.6-3.7-3.9c-5.9-6.1-12.2-11.4-19.1-16c-3-2-6.3-3.7-9.4-5.2
		c-2.8-1.5-5.9-2.9-8.5-4.7c9.5-1,22.8,5.9,30.2,11.8c2.6,2.1,5,4.5,7.5,6.9c5.1,5.1,10.6,10.5,17.5,12.8c4.2,1.5,8.4,1.7,12.6,1.9
		l41.8,2.6C729.1,428.7,725.5,433.6,722.1,438.7z"/>
</g>
<a onclick="changerect()" pointer-events="all">
	<g>
		<rect x="451" y="1298.1" class="st2" width="341.4" height="178.3"/>
		<path class="st1" d="M480.7,1338.5h14.4h2.2v2.2v87.2c0,3,1.3,5.6,3.1,7.6c2,2,4.6,3.1,7.6,3.1h55h2.2v2.2v9.3
			c0,4.3-1.8,8.1-4.6,11c-2.9,2.9-6.7,4.6-11,4.6h-69.3c-4.3,0-8.1-1.8-11-4.6c-2.9-2.9-4.6-6.7-4.6-11v-96.3c0-4.3,1.8-8.1,4.6-11
			C472.4,1340.2,476.5,1338.5,480.7,1338.5L480.7,1338.5z M492.8,1343h-12.1c-3,0-5.6,1.3-7.6,3.1c-2,2-3.2,4.6-3.2,7.6v96.3
			c0,3,1.3,5.6,3.2,7.6c2,2,4.6,3.1,7.6,3.1h69.5c3,0,5.6-1.3,7.6-3.1c2-2,3.1-4.6,3.1-7.6v-6.9h-52.8c-4.3,0-8.1-1.8-11-4.6
			c-2.9-2.9-4.6-6.7-4.6-11V1343H492.8L492.8,1343z"/>
		<g>
			<g>
				<g>
					<g class="st0">
						<path class="st1" d="M642.5,1360.6l0.9,13.3h-0.9c-1.3-4.2-3-6.8-5.1-8.6c-2.2-1.8-4.8-2.6-7.9-2.6c-2.6,0-4.8,0.7-6.9,2
							c-2.1,1.3-3.7,3.5-4.8,6.4c-1.3,2.9-1.8,6.5-1.8,10.8c0,3.5,0.4,6.7,1.8,9.1c1,2.6,2.9,4.6,5.1,6c2.2,1.4,4.8,2.1,7.7,2.1
							c2.6,0,4.7-0.4,6.7-1.5c2-1,4.2-3.1,6.5-6.5l0.9,0.4c-2,3.5-4.3,6-6.8,7.7c-2.6,1.5-5.9,2.5-9.3,2.5c-6.5,0-11.4-2.5-15.3-7.3
							c-2.6-3.5-4.2-7.7-4.2-12.7c0-3.8,0.9-7.6,2.6-10.8c1.8-3.3,4.3-5.9,7.3-7.6c3.1-1.8,6.5-2.6,10-2.6c2.9,0,5.6,0.7,8.5,2.1
							c0.9,0.3,1.4,0.7,1.8,0.7c0.4,0,1-0.1,1.4-0.4c0.4-0.4,0.9-1.3,1-2.1h0.9v-0.4H642.5L642.5,1360.6L642.5,1360.6z"/>
						<path class="st1" d="M661.2,1373.7c4.2,0,7.3,1.5,9.7,4.6c2.1,2.6,3.1,5.6,3.1,9c0,2.2-0.4,4.7-1.8,7.3
							c-1.3,2.5-2.6,4.3-4.7,5.4c-2,1.3-4.3,2-6.7,2c-4.2,0-7.3-1.5-9.5-4.7c-2-2.6-3-5.6-3-9c0-2.5,0.4-4.8,1.8-7.3
							c1.3-2.2,2.9-4.3,4.7-5.3C657,1374.1,659.2,1373.7,661.2,1373.7z M660.3,1375.5c-1,0-2.1,0.3-3,0.9c-1,0.4-2,1.8-2.5,3.1
							c-0.7,1.5-0.9,3.5-0.9,5.9c0,3.8,0.7,7.3,2.2,10c1.5,2.9,3.5,4.3,6.3,4.3c2,0,3.3-0.7,4.6-2.2s1.8-4.3,1.8-7.9
							c0-4.7-1-8.5-3-11.1C664.3,1376.3,662.4,1375.5,660.3,1375.5z"/>
						<path class="st1" d="M675.9,1377l8.1-3.3h1v6.3c1.4-2.2,2.9-3.8,4.2-4.8c1.4-0.9,2.9-1.4,4.4-1.4c2.6,0,4.8,1,6.7,3.1
							c2.1,2.5,3.3,5.9,3.3,10c0,4.6-1.3,8.2-3.8,11.2c-2.1,2.5-4.8,3.7-8.1,3.7c-1.4,0-2.6-0.1-3.7-0.4c-0.7-0.3-1.5-0.9-2.6-1.8
							v8.1c0,1.8,0.1,3,0.3,3.5c0.1,0.4,0.4,0.9,1.3,1.3c0.4,0.3,1.5,0.3,3,0.3v1h-14v-1h0.7c1,0,2-0.1,2.9-0.4
							c0.3-0.1,0.7-0.4,0.9-1c0.1-0.4,0.3-1.8,0.3-3.7v-25.1c0-1.8,0-2.9-0.1-3.3s-0.3-0.9-0.7-1c-0.3-0.1-0.7-0.3-1.4-0.3
							c-0.4,0-1,0.1-1.8,0.3L675.9,1377z M685.3,1381.7v9.8c0,2.1,0,3.5,0.1,4.3c0.3,1,0.9,2.1,2,3s2.2,1.3,4.2,1.3s3.5-0.7,4.7-2.2
							c1.5-2,2.2-4.7,2.2-8.2c0-4.2-0.9-7.3-2.6-9.3c-1.3-1.4-2.6-2.2-4.4-2.2c-0.9,0-1.8,0.1-2.9,0.7
							C688.1,1378.8,686.9,1379.7,685.3,1381.7z"/>
						<path class="st1" d="M716.7,1373.7v21.2c0,1.8,0.1,2.9,0.3,3.3c0.1,0.4,0.4,0.9,1,1.3c0.4,0.3,1.4,0.3,2.6,0.3v1h-12.9v-1
							c1.3,0,2.1-0.1,2.6-0.3c0.4-0.1,0.7-0.7,1-1.3c0.1-0.4,0.3-1.8,0.3-3.3v-10.1c0-2.9,0-4.7-0.1-5.6c-0.1-0.7-0.3-1-0.7-1.3
							c-0.3-0.1-0.7-0.3-1.3-0.3c-0.4,0-1.3,0.1-2,0.3l-0.3-1l7.9-3.1L716.7,1373.7L716.7,1373.7z M714.4,1359.7
							c0.9,0,1.5,0.3,2.1,0.9c0.4,0.4,0.9,1.3,0.9,2.1c0,0.7-0.3,1.4-0.9,2.1c-0.4,0.4-1.3,0.9-2.1,0.9c-0.9,0-1.5-0.3-2.1-0.9
							c-0.4-0.4-0.9-1.3-0.9-2.1c0-0.8,0.3-1.5,0.9-2.1C712.8,1360,713.4,1359.7,714.4,1359.7z"/>
						<path class="st1" d="M739,1397c-2.6,2.1-4.4,3.3-5.1,3.7c-1,0.4-2.1,0.7-3.3,0.7c-1.8,0-3.3-0.7-4.6-2s-1.8-2.9-1.8-4.8
							c0-1.3,0.3-2.5,0.9-3.3c0.7-1.3,2.1-2.6,4.2-3.7c2-1,5.3-2.6,9.7-4.3v-1c0-2.6-0.3-4.4-1.3-5.4c-0.9-1-2.1-1.4-3.7-1.4
							c-1.3,0-2.1,0.3-2.9,1c-0.7,0.7-1,1.4-1,2.2v1.8c0,0.9-0.1,1.5-0.7,2.1c-0.4,0.4-1,0.7-1.8,0.7c-0.7,0-1.3-0.1-1.8-0.7
							c-0.4-0.4-0.7-1.3-0.7-2.1c0-1.5,0.9-3.1,2.5-4.6c1.8-1.4,4.2-2.1,7.3-2.1c2.2,0,4.3,0.3,5.9,1.3c1,0.4,2,1.5,2.5,2.9
							c0.3,0.9,0.4,2.5,0.4,5.1v9c0,2.5,0,4.2,0.1,4.6s0.1,0.9,0.4,1.3c0.1,0.1,0.4,0.3,0.7,0.3s0.4,0,0.7-0.1s1.3-0.9,2.2-2.1v1.5
							c-2.1,2.9-4.3,4.4-6.3,4.4c-0.9,0-1.8-0.3-2.2-1C739.4,1399.7,739,1398.5,739,1397z M739,1395v-10c-2.9,1.3-4.7,2-5.6,2.5
							c-1.5,0.9-2.6,1.8-3.1,2.6c-0.7,0.9-1,2-1,3c0,1.4,0.3,2.5,1.3,3.5c0.9,1,1.8,1.4,2.9,1.4C734.7,1398,736.7,1397.1,739,1395z"
							/>
						<path class="st1" d="M757.9,1373.7v6c2.2-4.2,4.6-6,6.8-6c1,0,2,0.3,2.6,1c0.7,0.7,1,1.4,1,2.2c0,0.7-0.1,1.4-0.7,2
							c-0.4,0.4-1,0.7-1.8,0.7s-1.4-0.3-2.2-1c-0.9-0.7-1.4-1-1.8-1c-0.3,0-0.7,0.1-1.3,0.4c-0.9,0.7-1.8,2.1-2.6,3.8v12.7
							c0,1.4,0.1,2.6,0.4,3.3c0.1,0.4,0.7,0.9,1.3,1.3c0.7,0.3,1.5,0.4,2.9,0.4v1H749v-1c1.4,0,2.2-0.1,3-0.7c0.4-0.3,0.9-0.9,1-1.4
							c0.1-0.3,0.1-1.3,0.1-2.9v-10.1c0-3,0-4.8-0.1-5.4c-0.1-0.4-0.3-1-0.7-1.3s-0.7-0.3-1.3-0.3c-0.5,0-1.3,0.1-2,0.3l-0.3-1
							l8.1-3.1L757.9,1373.7L757.9,1373.7L757.9,1373.7L757.9,1373.7L757.9,1373.7z"/>
					</g>
				</g>
			</g>
		</g>
		<path class="st2" d="M578.4,1440.6h-68.9c-6.5,0-11.9-5.3-11.9-11.9v-97.8c0-6.5,5.3-11.9,11.9-11.9h68.9
			c6.5,0,11.9,5.3,11.9,11.9v97.8C590.4,1435.3,585,1440.6,578.4,1440.6z"/>
		<path class="st1" d="M508.1,1316.3h69.5c4.3,0,8.1,1.8,11,4.6c2.9,2.9,4.6,6.7,4.6,11v96.3c0,4.3-1.8,8.1-4.6,11s-6.7,4.6-11,4.6
			h-69.5c-4.3,0-8.1-1.8-11-4.6c-2.9-2.9-4.6-6.7-4.6-11v-96.3c0-4.3,1.8-8.1,4.6-11C500,1317.9,503.9,1316.3,508.1,1316.3
			L508.1,1316.3z M577.4,1320.9h-69.5c-3,0-5.6,1.3-7.6,3.1c-2,2-3.2,4.6-3.2,7.6v96.3c0,3,1.3,5.6,3.2,7.6c2,2,4.6,3.1,7.6,3.1
			h69.5c3,0,5.6-1.3,7.6-3.1c2-2,3.1-4.6,3.1-7.6v-96.3c0-3-1.3-5.6-3.1-7.6C583,1322,580.4,1320.9,577.4,1320.9z"/>
	</g>
</a>
<g>
	<g>
		<g>
			<g>
				<g>
					<path class="st1" d="M487.2,799.4c12.6,17.3,36.6,13.3,55.2,9.7c15-2.9,30.1-4.8,45.4-4.4c7.6,0.2,15.6,0.5,22.8,2.3
						c3.5,0.9,7.1,2,9.7,4.7c3.9,4.7,3.9,9.4-0.1,14c-6.3,5.1-8.7,4.6-7.4-1.9c0.2,0.9,1.7,0.6,1.6-0.2c-0.4-9.8-16.9-0.6-6.4,6.1
						c11.6,7.5,22.2-10,14.7-18.9c-5.2-6.3-14.9-6.9-22.7-7.7c-13.3-1.4-26.8-0.9-40.1,0.6c-23.4,2.9-53.3,15-71.8-5.3
						C487.7,798.1,486.8,798.8,487.2,799.4L487.2,799.4z"/>
				</g>
				<g>
					<path class="st1" d="M589.5,814.1c1.2-6-7.8-4.4-6.3,1.3c2.8,10,17,1.7,18.8-4.6c3.1-11.4-10-18.8-20.3-18.9
						c-8.9-0.1-17.2,3.3-25.3,6.1c-4.9,1.6-9.9,3-15.3,2.9c-3.3,0-7-0.4-10.1-1.9c-1.2-0.6-2.1-1.4-3.2-2c-4.1-2.8-4.1-5.1-0.1-7.1
						c-0.7-1-2.3-0.2-1.8,1c2.8,6.3,12.3,1.7,9.2-4.5c-3.7-7.3-13.8-1.7-13.4,4.9c0.4,11.6,17.2,13.4,26.1,11.7
						c9.4-1.7,17.8-6.3,27.1-8.1c6.6-1.3,13.4-0.9,19,2.9c2.5,1.7,5.4,4.6,5.9,7.7c-0.4,2.5-0.9,4.8-1.4,7.3c-3.5,5.4-6.7,6-9.7,1.4
						C588.9,814.4,589.4,814.4,589.5,814.1L589.5,814.1z"/>
				</g>
			</g>
		</g>
	</g>
	<g>
		<g>
			<g>
				<g>
					<path class="st1" d="M772.8,799c-12.6,17.3-36.6,13.3-55.2,9.7c-15-2.9-30.1-4.8-45.4-4.4c-7.6,0.2-15.6,0.5-22.8,2.3
						c-3.5,0.9-7.1,2-9.7,4.7c-3.9,4.7-3.9,9.4,0.1,14c6.3,5.1,8.7,4.6,7.4-1.9c-0.2,0.9-1.6,0.6-1.6-0.2c0.4-9.8,16.9-0.6,6.4,6.1
						c-11.6,7.5-22.2-10-14.7-18.9c5.2-6.3,14.9-6.9,22.7-7.7c13.3-1.4,26.8-0.9,40.1,0.6c23.4,2.9,53.3,15,71.8-5.3
						C772.2,797.6,773.3,798.3,772.8,799L772.8,799z"/>
				</g>
				<g>
					<path class="st1" d="M670.6,813.6c-1.2-6,7.8-4.4,6.3,1.3c-2.8,10-17,1.7-18.8-4.6c-3.1-11.4,10-18.8,20.3-18.9
						c8.9-0.1,17.2,3.3,25.3,6.1c4.9,1.6,9.9,3,15.3,2.9c3.3,0,7-0.4,10.1-1.9c1.2-0.6,2.1-1.4,3.2-2c4.1-2.8,4.1-5.1,0.1-7.1
						c0.7-1,2.3-0.2,1.8,1c-2.8,6.3-12.3,1.7-9.2-4.5c3.7-7.3,13.8-1.7,13.4,4.9c-0.4,11.6-17.2,13.4-26.1,11.7
						c-9.4-1.7-17.8-6.3-27.1-8.1c-6.6-1.3-13.4-0.9-19,2.9c-2.5,1.7-5.4,4.6-5.9,7.7c0.4,2.5,0.9,4.8,1.4,7.3
						c3.5,5.4,6.7,6,9.7,1.4C671.1,813.8,670.6,813.9,670.6,813.6L670.6,813.6z"/>
				</g>
			</g>
		</g>
	</g>
</g>
<g>
	<path class="st1" d="M272.3,955.7h-33.8l0.5-1.3c1.8,0,3-0.2,3.6-0.4c0.9-0.4,1.6-0.9,2.1-1.6c0.7-1,1.4-2.9,2.2-5.6l8.1-27.7
		c0.7-2.3,1-4,1-5.1c0-0.8-0.3-1.5-0.9-2c-0.6-0.5-1.8-0.7-3.5-0.7c-0.4,0-0.7,0-0.9,0l0.4-1.3h18.6l-0.3,1.3
		c-2.1,0-3.6,0.2-4.4,0.6c-0.9,0.4-1.6,1.1-2.2,2c-0.4,0.6-1,2.5-2,5.6l-7.9,27.3c-0.6,2.1-0.9,3.5-0.9,4.3c0,0.6,0.3,1.1,0.9,1.5
		c0.4,0.3,1.2,0.5,2.6,0.5h4.4c3.2,0,5.8-0.4,7.6-1.2c1.4-0.6,2.7-1.5,3.8-2.7c0.6-0.7,1.7-2.3,3.3-5l0.9-1.5h1.3L272.3,955.7z"/>
	<path class="st1" d="M311.4,925.2l-6.6,22.8l-0.8,3.1c-0.1,0.3-0.1,0.5-0.1,0.7c0,0.4,0.1,0.7,0.3,1c0.2,0.2,0.4,0.3,0.7,0.3
		c0.3,0,0.7-0.2,1.1-0.5c0.9-0.6,2-2,3.5-4l1.1,0.8c-1.5,2.3-3.1,4.1-4.8,5.3c-1.6,1.2-3.2,1.8-4.6,1.8c-0.9,0-1.7-0.2-2.2-0.7
		s-0.7-1.2-0.7-2.1c0-1.1,0.3-2.6,0.8-4.3l0.7-2.5c-3,3.8-5.7,6.5-8.1,8.1c-1.8,1.1-3.5,1.6-5.2,1.6c-1.6,0-3.1-0.7-4.2-2
		c-1.2-1.4-1.8-3.2-1.8-5.6c0-3.6,1.1-7.3,3.2-11.3s4.9-7.1,8.2-9.5c2.6-1.9,5-2.8,7.3-2.8c1.4,0,2.5,0.4,3.4,1.1
		c0.9,0.7,1.6,1.9,2.1,3.6l1.2-3.8L311.4,925.2z M299.4,927c-1.4,0-2.9,0.7-4.6,2c-2.3,1.9-4.4,4.7-6.1,8.5
		c-1.8,3.7-2.7,7.1-2.7,10.2c0,1.5,0.4,2.7,1.1,3.6c0.8,0.9,1.7,1.3,2.7,1.3c2.4,0,5.1-1.8,7.9-5.4c3.8-4.8,5.8-9.7,5.8-14.7
		c0-1.9-0.4-3.3-1.1-4.1C301.7,927.4,300.7,927,299.4,927z"/>
	<path class="st1" d="M363,925.2l-6.6,22.8l-0.8,3.1c-0.1,0.3-0.1,0.5-0.1,0.7c0,0.4,0.1,0.7,0.3,1c0.2,0.2,0.4,0.3,0.7,0.3
		c0.3,0,0.7-0.2,1.1-0.5c0.9-0.6,2-2,3.5-4l1.1,0.8c-1.5,2.3-3.1,4.1-4.8,5.3c-1.6,1.2-3.2,1.8-4.6,1.8c-0.9,0-1.7-0.2-2.2-0.7
		s-0.7-1.2-0.7-2.1c0-1.1,0.3-2.6,0.8-4.3l0.7-2.5c-3,3.8-5.7,6.5-8.1,8.1c-1.8,1.1-3.5,1.6-5.2,1.6c-1.6,0-3.1-0.7-4.2-2
		c-1.2-1.4-1.8-3.2-1.8-5.6c0-3.6,1.1-7.3,3.2-11.3s4.9-7.1,8.2-9.5c2.6-1.9,5-2.8,7.3-2.8c1.4,0,2.5,0.4,3.4,1.1
		c0.9,0.7,1.6,1.9,2.1,3.6l1.2-3.8L363,925.2z M351,927c-1.4,0-2.9,0.7-4.6,2c-2.3,1.9-4.4,4.7-6.1,8.5c-1.8,3.7-2.7,7.1-2.7,10.2
		c0,1.5,0.4,2.7,1.1,3.6c0.8,0.9,1.7,1.3,2.7,1.3c2.4,0,5.1-1.8,7.9-5.4c3.8-4.8,5.8-9.7,5.8-14.7c0-1.9-0.4-3.3-1.1-4.1
		C353.3,927.4,352.3,927,351,927z"/>
	<path class="st1" d="M390.1,925.2l-2,10.4h-1.3c-0.1-3-0.8-5.2-1.9-6.6c-1.2-1.4-2.6-2-4.3-2c-1.4,0-2.5,0.4-3.3,1.1
		c-0.8,0.8-1.2,1.7-1.2,2.8c0,0.7,0.2,1.4,0.5,2.1c0.3,0.7,1,1.6,2.2,2.8c2.9,3.2,4.8,5.6,5.6,7.2c0.8,1.6,1.3,3.1,1.3,4.6
		c0,2.3-1,4.4-2.9,6.2s-4.4,2.7-7.3,2.7c-1.6,0-3.5-0.4-5.6-1.1c-0.7-0.3-1.3-0.4-1.7-0.4c-1,0-1.8,0.5-2.3,1.5h-1.2l2-10.9h1.3
		c0.1,3.4,0.8,5.8,2.1,7.2c1.3,1.4,3,2.1,5.3,2.1c1.7,0,3-0.5,4.1-1.4c1-0.9,1.5-2.1,1.5-3.5c0-0.9-0.2-1.7-0.5-2.5
		c-0.6-1.3-2-3.2-4-5.6c-2-2.4-3.3-4.2-3.9-5.3c-0.6-1.2-0.9-2.4-0.9-3.6c0-2.2,0.8-4,2.4-5.5s3.6-2.3,6.1-2.3c0.7,0,1.4,0.1,2,0.2
		c0.3,0.1,1,0.3,2.2,0.8c1.2,0.4,1.9,0.6,2.3,0.6c0.9,0,1.8-0.5,2.4-1.6H390.1z"/>
	<path class="st1" d="M407.8,925.2l-6.6,23.6c-0.4,1.6-0.7,2.5-0.7,2.8c0,0.4,0.1,0.7,0.3,0.9c0.2,0.2,0.5,0.3,0.7,0.3
		c0.4,0,0.8-0.2,1.2-0.5c1.3-1,2.6-2.4,3.9-4.3l1.2,0.8c-1.5,2.3-3.3,4.3-5.4,5.9c-1.5,1.2-3,1.8-4.3,1.8c-0.9,0-1.7-0.3-2.3-0.8
		c-0.6-0.5-0.9-1.2-0.9-2.1c0-0.8,0.3-2.2,0.8-4.1l4.4-15.1c0.7-2.5,1-4,1-4.6c0-0.5-0.2-0.9-0.5-1.2s-0.8-0.5-1.4-0.5
		c-0.5,0-1.5,0.1-3.1,0.4v-1.3L407.8,925.2z M407.3,911.9c0.9,0,1.7,0.3,2.4,1c0.6,0.7,1,1.4,1,2.4c0,0.9-0.3,1.7-1,2.4
		s-1.4,1-2.4,1c-0.9,0-1.7-0.3-2.4-1c-0.7-0.7-1-1.5-1-2.4s0.3-1.7,1-2.4S406.4,911.9,407.3,911.9z"/>
	<path class="st1" d="M436.1,925.2l-2,10.4h-1.3c-0.1-3-0.8-5.2-1.9-6.6c-1.2-1.4-2.6-2-4.3-2c-1.4,0-2.5,0.4-3.3,1.1
		c-0.8,0.8-1.2,1.7-1.2,2.8c0,0.7,0.2,1.4,0.5,2.1c0.3,0.7,1,1.6,2.2,2.8c2.9,3.2,4.8,5.6,5.6,7.2c0.8,1.6,1.3,3.1,1.3,4.6
		c0,2.3-1,4.4-2.9,6.2s-4.4,2.7-7.3,2.7c-1.6,0-3.5-0.4-5.6-1.1c-0.7-0.3-1.3-0.4-1.7-0.4c-1,0-1.8,0.5-2.3,1.5h-1.2l2-10.9h1.3
		c0.1,3.4,0.8,5.8,2.1,7.2c1.3,1.4,3,2.1,5.3,2.1c1.7,0,3-0.5,4.1-1.4c1-0.9,1.5-2.1,1.5-3.5c0-0.9-0.2-1.7-0.5-2.5
		c-0.6-1.3-2-3.2-4-5.6c-2-2.4-3.3-4.2-3.9-5.3c-0.6-1.2-0.9-2.4-0.9-3.6c0-2.2,0.8-4,2.4-5.5s3.6-2.3,6.1-2.3c0.7,0,1.4,0.1,2,0.2
		c0.3,0.1,1,0.3,2.2,0.8c1.2,0.4,1.9,0.6,2.3,0.6c0.9,0,1.8-0.5,2.4-1.6H436.1z"/>
	<path class="st1" d="M455.8,916.9l-2.6,9.2h5.3l-0.6,2.1h-5.2l-5.8,19.8c-0.6,2.1-0.9,3.5-0.9,4.1c0,0.4,0.1,0.7,0.3,0.9
		c0.2,0.2,0.4,0.3,0.6,0.3c0.6,0,1.3-0.4,2.2-1.2c0.6-0.4,1.8-1.8,3.6-4.1l1.1,0.9c-2.1,3-4,5.1-5.8,6.4c-1.3,0.8-2.5,1.3-3.8,1.3
		c-1,0-1.8-0.3-2.4-0.9s-0.9-1.4-0.9-2.4c0-1.2,0.3-3,1-5.5l5.6-19.5h-5.1l0.3-1.3c2.5-0.7,4.5-1.7,6.2-3c1.6-1.3,3.5-3.6,5.5-6.9
		h1.4V916.9z"/>
	<path class="st1" d="M465.2,943c-0.1,1.1-0.2,2-0.2,2.8c0,2,0.7,3.7,2.1,5.1c1.4,1.4,3.1,2.1,5.2,2.1c1.6,0,3.2-0.3,4.7-1
		s3.7-2.1,6.6-4.4l0.7,1c-5.3,5.3-10.4,7.9-15.2,7.9c-3.3,0-5.7-1-7.4-3.1c-1.7-2.1-2.5-4.3-2.5-6.8c0-3.3,1-6.8,3.1-10.3
		s4.6-6.2,7.8-8.2c3.1-1.9,6.3-2.9,9.6-2.9c2.4,0,4.1,0.5,5.3,1.5c1.1,1,1.7,2.1,1.7,3.4c0,1.9-0.7,3.6-2.2,5.3
		c-1.9,2.2-4.8,4-8.6,5.4C473.3,941.8,469.8,942.5,465.2,943z M465.5,941.3c3.3-0.4,6-1,8.1-2c2.8-1.2,4.8-2.7,6.2-4.4
		c1.4-1.7,2.1-3.3,2.1-4.9c0-0.9-0.3-1.7-0.9-2.3s-1.4-0.9-2.5-0.9c-2.3,0-4.7,1.2-7.3,3.6C468.6,933,466.7,936.6,465.5,941.3z"/>
	<path class="st1" d="M502.8,925.2l-4.5,15.3c4.2-6.3,7.4-10.4,9.6-12.4s4.4-3,6.5-3c1.1,0,2,0.4,2.8,1.1c0.7,0.8,1.1,1.7,1.1,2.9
		c0,1.4-0.3,3.2-1,5.4l-4.1,14.2c-0.5,1.6-0.7,2.6-0.7,3c0,0.3,0.1,0.6,0.3,0.8s0.4,0.3,0.6,0.3c0.3,0,0.6-0.1,1-0.4
		c1.2-0.9,2.5-2.4,3.9-4.3l1,0.6c-2.1,3-4.1,5.1-5.9,6.4c-1.3,0.9-2.5,1.3-3.5,1.3c-0.8,0-1.5-0.3-2-0.8s-0.7-1.2-0.7-2
		c0-1.1,0.4-2.9,1.1-5.6l3.9-13.5c0.5-1.7,0.7-3,0.7-3.9c0-0.4-0.1-0.8-0.4-1.1c-0.3-0.3-0.6-0.4-1.1-0.4c-0.6,0-1.4,0.3-2.3,0.8
		c-1.6,1-3.4,2.7-5.2,5c-1.8,2.3-3.7,5.3-5.7,8.9c-1.1,1.9-1.9,4-2.6,6.3l-1.7,5.6h-5.1l6.1-21.1c0.7-2.5,1.1-4.1,1.1-4.6
		s-0.2-0.9-0.6-1.3s-0.9-0.6-1.4-0.6c-0.3,0-0.8,0.1-1.4,0.2l-1.3,0.2l-0.2-1.2L502.8,925.2z"/>
	<path class="st1" d="M548.7,948.4c-2.3,2.8-4.7,4.8-7.1,6.1c-2.4,1.3-4.9,2-7.5,2c-3.2,0-5.7-0.9-7.4-2.7c-1.8-1.8-2.7-4.2-2.7-7.2
		c0-3.4,1-6.8,2.9-10.1s4.5-6,7.7-8.1s6.4-3.1,9.5-3.1c2.5,0,4.3,0.5,5.5,1.5s1.8,2.3,1.8,3.8c0,1.4-0.4,2.6-1.3,3.6
		c-0.6,0.8-1.4,1.2-2.3,1.2c-0.7,0-1.3-0.2-1.7-0.7c-0.5-0.5-0.7-1-0.7-1.7c0-0.4,0.1-0.8,0.3-1.2s0.5-0.8,1-1.3s0.8-0.9,1-1.1
		c0.1-0.2,0.2-0.5,0.2-0.7c0-0.5-0.2-0.9-0.6-1.2c-0.7-0.4-1.6-0.7-2.8-0.7c-2.2,0-4.4,0.8-6.5,2.3c-2.2,1.5-4,3.7-5.5,6.6
		c-1.8,3.5-2.8,6.9-2.8,10.4c0,2.3,0.7,4.1,2,5.4c1.3,1.3,3.1,2,5.3,2c1.7,0,3.4-0.4,5.1-1.3c1.7-0.9,3.6-2.4,5.7-4.7L548.7,948.4z"
		/>
	<path class="st1" d="M568.5,925.2l-6.6,23.6c-0.4,1.6-0.7,2.5-0.7,2.8c0,0.4,0.1,0.7,0.3,0.9s0.5,0.3,0.7,0.3
		c0.4,0,0.8-0.2,1.2-0.5c1.3-1,2.6-2.4,3.9-4.3l1.2,0.8c-1.5,2.3-3.3,4.3-5.4,5.9c-1.5,1.2-3,1.8-4.3,1.8c-0.9,0-1.7-0.3-2.3-0.8
		s-0.9-1.2-0.9-2.1c0-0.8,0.3-2.2,0.8-4.1l4.4-15.1c0.7-2.5,1-4,1-4.6c0-0.5-0.2-0.9-0.5-1.2s-0.8-0.5-1.4-0.5
		c-0.5,0-1.5,0.1-3.1,0.4v-1.3L568.5,925.2z M568,911.9c0.9,0,1.7,0.3,2.4,1c0.6,0.7,1,1.4,1,2.4c0,0.9-0.3,1.7-1,2.4s-1.4,1-2.4,1
		c-0.9,0-1.7-0.3-2.4-1s-1-1.5-1-2.4s0.3-1.7,1-2.4S567.1,911.9,568,911.9z"/>
	<path class="st1" d="M604.1,925.2l-6.6,22.8l-0.8,3.1c-0.1,0.3-0.1,0.5-0.1,0.7c0,0.4,0.1,0.7,0.3,1c0.2,0.2,0.4,0.3,0.7,0.3
		s0.7-0.2,1.1-0.5c0.9-0.6,2-2,3.5-4l1.1,0.8c-1.5,2.3-3.1,4.1-4.8,5.3c-1.6,1.2-3.2,1.8-4.6,1.8c-0.9,0-1.7-0.2-2.2-0.7
		s-0.7-1.2-0.7-2.1c0-1.1,0.3-2.6,0.8-4.3l0.7-2.5c-3,3.8-5.7,6.5-8.1,8.1c-1.8,1.1-3.5,1.6-5.2,1.6c-1.6,0-3.1-0.7-4.2-2
		c-1.2-1.4-1.8-3.2-1.8-5.6c0-3.6,1.1-7.3,3.2-11.3s4.9-7.1,8.2-9.5c2.6-1.9,5-2.8,7.3-2.8c1.4,0,2.5,0.4,3.4,1.1
		c0.9,0.7,1.6,1.9,2.1,3.6l1.2-3.8L604.1,925.2z M592.1,927c-1.4,0-2.9,0.7-4.6,2c-2.3,1.9-4.4,4.7-6.1,8.5
		c-1.8,3.7-2.7,7.1-2.7,10.2c0,1.5,0.4,2.7,1.1,3.6c0.8,0.9,1.7,1.3,2.7,1.3c2.4,0,5.1-1.8,7.9-5.4c3.8-4.8,5.8-9.7,5.8-14.7
		c0-1.9-0.4-3.3-1.1-4.1C594.4,927.4,593.4,927,592.1,927z"/>
	<path class="st1" d="M631.6,943c-0.1,1.1-0.2,2-0.2,2.8c0,2,0.7,3.7,2.1,5.1c1.4,1.4,3.1,2.1,5.2,2.1c1.6,0,3.2-0.3,4.7-1
		s3.7-2.1,6.6-4.4l0.7,1c-5.3,5.3-10.4,7.9-15.2,7.9c-3.3,0-5.7-1-7.4-3.1s-2.5-4.3-2.5-6.8c0-3.3,1-6.8,3.1-10.3s4.6-6.2,7.8-8.2
		c3.1-1.9,6.3-2.9,9.6-2.9c2.4,0,4.1,0.5,5.3,1.5c1.1,1,1.7,2.1,1.7,3.4c0,1.9-0.7,3.6-2.2,5.3c-2,2.2-4.8,4-8.6,5.4
		C639.7,941.8,636.2,942.5,631.6,943z M631.8,941.3c3.3-0.4,6-1,8.1-2c2.8-1.2,4.8-2.7,6.2-4.4s2.1-3.3,2.1-4.9
		c0-0.9-0.3-1.7-0.9-2.3c-0.6-0.6-1.4-0.9-2.5-0.9c-2.3,0-4.7,1.2-7.3,3.6S633.1,936.6,631.8,941.3z"/>
	<path class="st1" d="M679,925.2l-2,10.4h-1.3c-0.1-3-0.8-5.2-1.9-6.6c-1.2-1.4-2.6-2-4.3-2c-1.4,0-2.5,0.4-3.3,1.1
		c-0.8,0.8-1.2,1.7-1.2,2.8c0,0.7,0.2,1.4,0.5,2.1c0.3,0.7,1,1.6,2.2,2.8c2.9,3.2,4.8,5.6,5.6,7.2c0.8,1.6,1.3,3.1,1.3,4.6
		c0,2.3-1,4.4-2.9,6.2s-4.4,2.7-7.3,2.7c-1.6,0-3.5-0.4-5.6-1.1c-0.7-0.3-1.3-0.4-1.7-0.4c-1,0-1.8,0.5-2.3,1.5h-1.2l2-10.9h1.3
		c0.1,3.4,0.8,5.8,2.1,7.2s3,2.1,5.3,2.1c1.7,0,3.1-0.5,4.1-1.4s1.5-2.1,1.5-3.5c0-0.9-0.2-1.7-0.5-2.5c-0.6-1.3-2-3.2-4-5.6
		s-3.3-4.2-3.9-5.3c-0.6-1.2-0.9-2.4-0.9-3.6c0-2.2,0.8-4,2.4-5.5c1.6-1.5,3.6-2.3,6.1-2.3c0.7,0,1.4,0.1,2,0.2
		c0.3,0.1,1,0.3,2.2,0.8c1.2,0.4,1.9,0.6,2.3,0.6c0.9,0,1.8-0.5,2.4-1.6H679z"/>
	<path class="st1" d="M729.9,935.7c0,3.4-0.9,6.7-2.7,10s-4.3,5.9-7.4,7.8c-3.2,1.9-6.3,2.9-9.3,2.9c-3.1,0-5.6-1-7.5-2.9
		c-2-2-2.9-4.5-2.9-7.6c0-3.3,0.9-6.6,2.8-9.9c1.9-3.3,4.4-5.9,7.6-7.9c3.2-1.9,6.2-2.9,9.2-2.9s5.4,1,7.3,2.9
		C728.9,930.1,729.9,932.6,729.9,935.7z M724.3,933.4c0-2.1-0.5-3.7-1.5-4.8s-2.4-1.7-4-1.7c-3.3,0-6.3,2.4-9.1,7.1
		s-4.2,9.4-4.2,14.1c0,2.1,0.5,3.8,1.6,4.9c1.1,1.2,2.4,1.7,4.1,1.7c3.2,0,6.1-2.3,8.9-7C722.9,943.1,724.3,938.3,724.3,933.4z"/>
	<path class="st1" d="M752.3,907.8l-6.6,23.3c2.1-2.3,4-3.8,5.6-4.6s3.3-1.3,5-1.3c2.5,0,4.5,0.8,6.1,2.5c1.6,1.6,2.4,3.9,2.4,6.7
		c0,3.6-1,7.2-3.1,10.8s-4.7,6.4-7.8,8.4s-6.2,3-9.2,3c-3.4,0-6.9-1.3-10.4-3.8l10.2-35.2c0.8-2.7,1.2-4.3,1.2-4.8
		c0-0.6-0.2-1-0.5-1.3c-0.5-0.4-1.3-0.6-2.3-0.6c-0.5,0-1.2,0.1-2.2,0.3v-1.3L752.3,907.8z M739.3,953c2.3,1.2,4.2,1.8,5.9,1.8
		c2,0,4-0.7,6.1-2.2c2.1-1.4,4-3.9,5.5-7.3c1.6-3.4,2.3-6.9,2.3-10.4c0-2.1-0.5-3.7-1.5-4.8s-2.2-1.8-3.6-1.8
		c-2.1,0-4.1,0.8-6.1,2.5s-3.4,4-4.3,7L739.3,953z"/>
	<path class="st1" d="M787.4,907.8l-11.5,40c-0.6,2-0.8,3.2-0.8,3.7c0,0.3,0.1,0.6,0.3,0.8s0.5,0.3,0.8,0.3c0.4,0,0.9-0.2,1.4-0.6
		c1.2-0.9,2.4-2.3,3.7-4.3l1,1c-2.1,3-4.1,5.1-5.9,6.3c-1.3,0.8-2.6,1.3-3.8,1.3c-0.8,0-1.5-0.3-2.1-0.9s-0.9-1.3-0.9-2
		c0-0.8,0.3-2.5,1-5l9.2-31.5c0.7-2.6,1.1-4.1,1.1-4.4c0-0.6-0.2-1-0.6-1.4c-0.4-0.3-1.1-0.5-2-0.5c-0.5,0-1.3,0.1-2.3,0.3v-1.3
		L787.4,907.8z"/>
	<path class="st1" d="M801.8,925.2l-6.6,23.6c-0.4,1.6-0.7,2.5-0.7,2.8c0,0.4,0.1,0.7,0.3,0.9s0.5,0.3,0.7,0.3
		c0.4,0,0.8-0.2,1.2-0.5c1.3-1,2.6-2.4,3.9-4.3l1.2,0.8c-1.5,2.3-3.3,4.3-5.4,5.9c-1.5,1.2-3,1.8-4.3,1.8c-0.9,0-1.7-0.3-2.3-0.8
		s-0.9-1.2-0.9-2.1c0-0.8,0.3-2.2,0.8-4.1l4.4-15.1c0.7-2.5,1-4,1-4.6c0-0.5-0.2-0.9-0.5-1.2s-0.8-0.5-1.4-0.5
		c-0.5,0-1.5,0.1-3.1,0.4v-1.3L801.8,925.2z M801.4,911.9c0.9,0,1.7,0.3,2.4,1c0.6,0.7,1,1.4,1,2.4c0,0.9-0.3,1.7-1,2.4
		s-1.4,1-2.4,1c-0.9,0-1.7-0.3-2.4-1s-1-1.5-1-2.4s0.3-1.7,1-2.4S800.5,911.9,801.4,911.9z"/>
	<path class="st1" d="M841,927.3l-1,3.5h-5.6c0.4,1.2,0.6,2.4,0.6,3.4c0,3-1.3,5.6-3.8,7.9c-2.5,2.3-6,3.6-10.4,3.8
		c-2.4,0.7-4.2,1.6-5.3,2.6c-0.4,0.3-0.7,0.7-0.7,1.1c0,0.4,0.2,0.9,0.6,1.2c0.4,0.4,1.4,0.7,3,1.1l6.6,1.5c3.6,0.8,6,1.8,7.1,3
		s1.7,2.6,1.7,4.1c0,1.8-0.7,3.5-2,5.1c-1.4,1.5-3.3,2.7-6,3.6c-2.6,0.9-5.5,1.3-8.6,1.3c-2.8,0-5.3-0.3-7.6-1s-3.9-1.6-4.9-2.7
		c-1-1.1-1.5-2.3-1.5-3.5c0-0.9,0.3-1.9,1-3s1.4-1.9,2.4-2.6c0.6-0.4,2.3-1.5,5.1-3.1c-1-0.8-1.5-1.7-1.5-2.7c0-0.9,0.5-1.8,1.4-2.8
		s2.8-2.1,5.8-3.3c-2.5-0.5-4.4-1.5-5.9-3.1c-1.4-1.6-2.2-3.4-2.2-5.3c0-3.2,1.4-6,4.2-8.5s6.5-3.8,11.2-3.8c1.7,0,3,0.2,4.1,0.5
		s2.1,0.9,3.2,1.6h9V927.3z M813.3,955.7c-1.8,0.8-3.2,1.9-4.1,3.2c-0.9,1.3-1.4,2.6-1.4,3.8c0,1.5,0.7,2.7,2,3.7
		c1.9,1.4,4.8,2.1,8.5,2.1c3.2,0,5.9-0.5,8.2-1.6s3.4-2.5,3.4-4.2c0-0.9-0.4-1.7-1.3-2.5c-0.9-0.8-2.5-1.4-4.9-1.9
		C822.4,957.9,818.9,957.1,813.3,955.7z M829.4,932.6c0-1.8-0.5-3.2-1.5-4.3c-1-1-2.3-1.5-3.9-1.5c-2.5,0-4.6,1.3-6.3,3.8
		c-1.6,2.5-2.5,5.2-2.5,8c0,1.7,0.5,3.1,1.6,4.2c1,1.1,2.3,1.7,3.8,1.7c1.2,0,2.4-0.3,3.5-1s2-1.6,2.8-2.7c0.8-1.1,1.4-2.6,1.8-4.4
		C829.2,934.7,829.4,933.4,829.4,932.6z"/>
	<path class="st1" d="M871.9,925.2l-6.6,22.8l-0.8,3.1c-0.1,0.3-0.1,0.5-0.1,0.7c0,0.4,0.1,0.7,0.3,1c0.2,0.2,0.4,0.3,0.7,0.3
		s0.7-0.2,1.1-0.5c0.9-0.6,2-2,3.5-4l1.1,0.8c-1.5,2.3-3.1,4.1-4.8,5.3c-1.6,1.2-3.2,1.8-4.6,1.8c-0.9,0-1.7-0.2-2.2-0.7
		s-0.7-1.2-0.7-2.1c0-1.1,0.3-2.6,0.8-4.3l0.7-2.5c-3,3.8-5.7,6.5-8.1,8.1c-1.8,1.1-3.5,1.6-5.2,1.6c-1.6,0-3.1-0.7-4.2-2
		c-1.2-1.4-1.8-3.2-1.8-5.6c0-3.6,1.1-7.3,3.2-11.3s4.9-7.1,8.2-9.5c2.6-1.9,5-2.8,7.3-2.8c1.4,0,2.5,0.4,3.4,1.1
		c0.9,0.7,1.6,1.9,2.1,3.6l1.2-3.8L871.9,925.2z M859.9,927c-1.4,0-2.9,0.7-4.6,2c-2.3,1.9-4.4,4.7-6.1,8.5
		c-1.8,3.7-2.7,7.1-2.7,10.2c0,1.5,0.4,2.7,1.1,3.6c0.8,0.9,1.7,1.3,2.7,1.3c2.4,0,5.1-1.8,7.9-5.4c3.8-4.8,5.8-9.7,5.8-14.7
		c0-1.9-0.4-3.3-1.1-4.1C862.2,927.4,861.2,927,859.9,927z"/>
	<path class="st1" d="M891.9,916.9l-2.6,9.2h5.3l-0.6,2.1h-5.2L883,948c-0.6,2.1-0.9,3.5-0.9,4.1c0,0.4,0.1,0.7,0.2,0.9
		c0.2,0.2,0.4,0.3,0.6,0.3c0.6,0,1.3-0.4,2.2-1.2c0.6-0.4,1.8-1.8,3.6-4.1l1.1,0.9c-2.1,3-4,5.1-5.8,6.4c-1.3,0.8-2.5,1.3-3.8,1.3
		c-1,0-1.8-0.3-2.4-0.9s-0.9-1.4-0.9-2.4c0-1.2,0.3-3,1-5.5l5.6-19.5h-5.1l0.3-1.3c2.5-0.7,4.5-1.7,6.2-3c1.6-1.3,3.5-3.6,5.5-6.9
		h1.5V916.9z"/>
	<path class="st1" d="M925,935.7c0,3.4-0.9,6.7-2.7,10s-4.3,5.9-7.4,7.8c-3.2,1.9-6.3,2.9-9.3,2.9c-3.1,0-5.6-1-7.5-2.9
		c-2-2-2.9-4.5-2.9-7.6c0-3.3,0.9-6.6,2.8-9.9c1.9-3.3,4.4-5.9,7.6-7.9c3.2-1.9,6.2-2.9,9.2-2.9s5.4,1,7.3,2.9
		C924,930.1,925,932.6,925,935.7z M919.4,933.4c0-2.1-0.5-3.7-1.5-4.8s-2.4-1.7-4-1.7c-3.3,0-6.3,2.4-9.1,7.1s-4.2,9.4-4.2,14.1
		c0,2.1,0.5,3.8,1.6,4.9c1.1,1.2,2.4,1.7,4.1,1.7c3.2,0,6.1-2.3,8.9-7C918,943.1,919.4,938.3,919.4,933.4z"/>
	<path class="st1" d="M931.2,927.1l11.6-1.9l-4.8,16.4c3.9-6.7,7.5-11.4,10.7-14.1c1.8-1.5,3.3-2.3,4.4-2.3c0.8,0,1.3,0.2,1.8,0.7
		c0.4,0.4,0.6,1.1,0.6,1.9c0,1.5-0.4,2.9-1.1,4.2c-0.5,1-1.3,1.5-2.3,1.5c-0.5,0-0.9-0.2-1.3-0.5c-0.4-0.3-0.6-0.8-0.7-1.5
		c0-0.4-0.1-0.7-0.3-0.8c-0.2-0.2-0.4-0.3-0.6-0.3c-0.4,0-0.8,0.1-1.1,0.3c-0.6,0.3-1.5,1.2-2.7,2.6c-1.9,2.2-3.9,5-6.1,8.5
		c-0.9,1.5-1.7,3.1-2.4,5c-0.9,2.6-1.4,4.1-1.6,4.6l-1.1,4.2H929l6.2-20.9c0.7-2.4,1-4.1,1-5.2c0-0.4-0.2-0.7-0.5-1
		c-0.4-0.4-1-0.5-1.8-0.5c-0.5,0-1.3,0.1-2.6,0.3L931.2,927.1z"/>
	<path class="st1" d="M970.2,925.2l-6.6,23.6c-0.4,1.6-0.7,2.5-0.7,2.8c0,0.4,0.1,0.7,0.3,0.9s0.5,0.3,0.7,0.3
		c0.4,0,0.8-0.2,1.2-0.5c1.3-1,2.6-2.4,3.9-4.3l1.2,0.8c-1.5,2.3-3.3,4.3-5.4,5.9c-1.5,1.2-3,1.8-4.3,1.8c-0.9,0-1.7-0.3-2.3-0.8
		s-0.9-1.2-0.9-2.1c0-0.8,0.3-2.2,0.8-4.1l4.4-15.1c0.7-2.5,1-4,1-4.6c0-0.5-0.2-0.9-0.5-1.2s-0.8-0.5-1.4-0.5
		c-0.5,0-1.5,0.1-3.1,0.4v-1.3L970.2,925.2z M969.8,911.9c0.9,0,1.7,0.3,2.4,1c0.6,0.7,1,1.4,1,2.4c0,0.9-0.3,1.7-1,2.4
		s-1.4,1-2.4,1c-0.9,0-1.7-0.3-2.4-1s-1-1.5-1-2.4s0.3-1.7,1-2.4S968.9,911.9,969.8,911.9z"/>
	<path class="st1" d="M1005.9,925.2l-6.6,22.8l-0.8,3.1c-0.1,0.3-0.1,0.5-0.1,0.7c0,0.4,0.1,0.7,0.3,1c0.2,0.2,0.4,0.3,0.7,0.3
		s0.7-0.2,1.1-0.5c0.9-0.6,2-2,3.5-4l1.1,0.8c-1.5,2.3-3.1,4.1-4.8,5.3c-1.6,1.2-3.2,1.8-4.6,1.8c-0.9,0-1.7-0.2-2.2-0.7
		s-0.7-1.2-0.7-2.1c0-1.1,0.3-2.6,0.8-4.3l0.7-2.5c-3,3.8-5.7,6.5-8.1,8.1c-1.8,1.1-3.5,1.6-5.2,1.6c-1.6,0-3.1-0.7-4.2-2
		c-1.2-1.4-1.8-3.2-1.8-5.6c0-3.6,1.1-7.3,3.2-11.3s4.9-7.1,8.2-9.5c2.6-1.9,5-2.8,7.3-2.8c1.4,0,2.5,0.4,3.4,1.1
		c0.9,0.7,1.6,1.9,2.1,3.6l1.2-3.8L1005.9,925.2z M993.9,927c-1.4,0-2.9,0.7-4.6,2c-2.3,1.9-4.4,4.7-6.1,8.5
		c-1.8,3.7-2.7,7.1-2.7,10.2c0,1.5,0.4,2.7,1.1,3.6c0.8,0.9,1.7,1.3,2.7,1.3c2.4,0,5.1-1.8,7.9-5.4c3.8-4.8,5.8-9.7,5.8-14.7
		c0-1.9-0.4-3.3-1.1-4.1C996.2,927.4,995.2,927,993.9,927z"/>
	<path class="st1" d="M1007.2,963.2c1.7-0.8,3-1.7,4.1-2.9c0.8-0.9,1.2-1.8,1.2-2.6c0-0.4-0.1-0.8-0.2-1.1c-0.1-0.2-0.4-0.5-0.9-1.1
		s-0.8-0.9-0.9-1.1c-0.1-0.4-0.2-0.8-0.2-1.3c0-1,0.3-1.8,1-2.5s1.4-1,2.3-1c0.9,0,1.7,0.4,2.4,1.1c0.7,0.7,1.1,1.7,1.1,2.8
		c0,2-0.8,4-2.4,6.1c-1.6,2-3.9,3.6-6.8,4.7L1007.2,963.2z"/>
	<path class="st1" d="M388.6,1045.7c-0.1,1.1-0.2,2-0.2,2.8c0,2,0.7,3.7,2.1,5.1s3.1,2.1,5.2,2.1c1.6,0,3.2-0.3,4.7-1
		s3.7-2.1,6.6-4.4l0.7,1c-5.3,5.3-10.4,7.9-15.2,7.9c-3.3,0-5.7-1-7.4-3.1c-1.7-2.1-2.5-4.3-2.5-6.8c0-3.3,1-6.8,3.1-10.3
		s4.6-6.2,7.8-8.2c3.1-1.9,6.3-2.9,9.6-2.9c2.4,0,4.1,0.5,5.3,1.5c1.1,1,1.7,2.1,1.7,3.4c0,1.9-0.7,3.6-2.2,5.3
		c-1.9,2.2-4.8,4-8.6,5.4C396.8,1044.4,393.2,1045.2,388.6,1045.7z M388.9,1044c3.3-0.4,6-1,8.1-2c2.8-1.2,4.8-2.7,6.2-4.4
		c1.4-1.7,2.1-3.3,2.1-4.9c0-0.9-0.3-1.7-0.9-2.3c-0.6-0.6-1.4-0.9-2.5-0.9c-2.3,0-4.7,1.2-7.3,3.6
		C392,1035.7,390.1,1039.3,388.9,1044z"/>
	<path class="st1" d="M431.5,1010.5l-11.5,40c-0.6,2-0.8,3.2-0.8,3.7c0,0.3,0.1,0.6,0.3,0.8c0.2,0.2,0.5,0.3,0.8,0.3
		c0.4,0,0.9-0.2,1.4-0.6c1.2-0.9,2.4-2.3,3.7-4.3l1,1c-2.1,3-4.1,5.1-5.9,6.3c-1.3,0.8-2.6,1.3-3.8,1.3c-0.8,0-1.5-0.3-2.1-0.9
		s-0.9-1.3-0.9-2c0-0.8,0.3-2.5,1-5l9.1-31.5c0.7-2.6,1.1-4.1,1.1-4.4c0-0.6-0.2-1-0.6-1.4c-0.4-0.3-1.1-0.5-2-0.5
		c-0.5,0-1.3,0.1-2.3,0.3v-1.3L431.5,1010.5z"/>
	<path class="st1" d="M451,1029.8l11.6-1.9l-4.8,16.4c3.9-6.7,7.5-11.4,10.7-14.1c1.8-1.5,3.3-2.3,4.4-2.3c0.8,0,1.3,0.2,1.8,0.7
		c0.4,0.4,0.6,1.1,0.6,1.9c0,1.5-0.4,2.9-1.1,4.2c-0.5,1-1.3,1.5-2.3,1.5c-0.5,0-0.9-0.2-1.3-0.5s-0.6-0.8-0.7-1.5
		c0-0.4-0.1-0.7-0.3-0.8c-0.2-0.2-0.4-0.3-0.6-0.3c-0.4,0-0.8,0.1-1.1,0.3c-0.6,0.3-1.5,1.2-2.7,2.6c-1.9,2.2-3.9,5-6.1,8.5
		c-0.9,1.5-1.7,3.1-2.4,5c-0.9,2.6-1.4,4.1-1.6,4.6l-1.1,4.2h-5.1l6.2-20.9c0.7-2.4,1-4.1,1-5.2c0-0.4-0.2-0.7-0.5-1
		c-0.4-0.4-1-0.5-1.8-0.5c-0.5,0-1.3,0.1-2.6,0.3L451,1029.8z"/>
	<path class="st1" d="M482.4,1045.7c-0.1,1.1-0.2,2-0.2,2.8c0,2,0.7,3.7,2.1,5.1s3.1,2.1,5.2,2.1c1.6,0,3.2-0.3,4.7-1
		s3.7-2.1,6.6-4.4l0.7,1c-5.3,5.3-10.4,7.9-15.2,7.9c-3.3,0-5.7-1-7.4-3.1c-1.7-2.1-2.5-4.3-2.5-6.8c0-3.3,1-6.8,3.1-10.3
		s4.6-6.2,7.8-8.2c3.1-1.9,6.3-2.9,9.6-2.9c2.4,0,4.1,0.5,5.3,1.5c1.1,1,1.7,2.1,1.7,3.4c0,1.9-0.7,3.6-2.2,5.3
		c-1.9,2.2-4.8,4-8.6,5.4C490.5,1044.4,487,1045.2,482.4,1045.7z M482.7,1044c3.3-0.4,6-1,8.1-2c2.8-1.2,4.8-2.7,6.2-4.4
		c1.4-1.7,2.1-3.3,2.1-4.9c0-0.9-0.3-1.7-0.9-2.3c-0.6-0.6-1.4-0.9-2.5-0.9c-2.3,0-4.7,1.2-7.3,3.6
		C485.8,1035.7,483.9,1039.3,482.7,1044z"/>
	<path class="st1" d="M540.7,1030l-1,3.5h-5.6c0.4,1.2,0.6,2.4,0.6,3.4c0,3-1.3,5.6-3.8,7.9s-6,3.6-10.4,3.8
		c-2.4,0.7-4.2,1.6-5.3,2.6c-0.4,0.3-0.7,0.7-0.7,1.1s0.2,0.9,0.6,1.2s1.4,0.7,3,1.1l6.6,1.5c3.6,0.8,6,1.8,7.1,3s1.7,2.6,1.7,4.1
		c0,1.8-0.7,3.5-2,5.1c-1.4,1.5-3.3,2.7-6,3.6c-2.6,0.9-5.5,1.3-8.6,1.3c-2.8,0-5.3-0.3-7.6-1c-2.3-0.7-3.9-1.6-4.9-2.7
		s-1.5-2.3-1.5-3.5c0-0.9,0.3-1.9,1-3c0.6-1,1.4-1.9,2.4-2.6c0.6-0.4,2.3-1.5,5.1-3.1c-1-0.8-1.5-1.7-1.5-2.7c0-0.9,0.5-1.8,1.4-2.8
		s2.8-2.1,5.8-3.3c-2.5-0.5-4.4-1.5-5.9-3.1c-1.4-1.6-2.2-3.4-2.2-5.3c0-3.2,1.4-6,4.2-8.5s6.5-3.8,11.2-3.8c1.7,0,3,0.2,4.1,0.5
		s2.1,0.9,3.2,1.6h9V1030z M512.9,1058.4c-1.8,0.8-3.2,1.9-4.1,3.2c-0.9,1.3-1.4,2.6-1.4,3.8c0,1.5,0.7,2.7,2,3.7
		c1.9,1.4,4.8,2.1,8.5,2.1c3.2,0,5.9-0.5,8.2-1.6s3.4-2.5,3.4-4.2c0-0.9-0.4-1.7-1.3-2.5c-0.9-0.8-2.5-1.4-4.9-1.9
		C522,1060.6,518.6,1059.8,512.9,1058.4z M529,1035.3c0-1.8-0.5-3.2-1.5-4.3c-1-1-2.3-1.5-3.9-1.5c-2.5,0-4.6,1.3-6.3,3.8
		c-1.6,2.5-2.5,5.2-2.5,8c0,1.7,0.5,3.1,1.6,4.2c1,1.1,2.3,1.7,3.8,1.7c1.2,0,2.4-0.3,3.5-1s2-1.6,2.8-2.7s1.4-2.6,1.8-4.4
		C528.8,1037.3,529,1036.1,529,1035.3z"/>
	<path class="st1" d="M571.6,1027.9l-6.6,22.8l-0.8,3.1c-0.1,0.3-0.1,0.5-0.1,0.7c0,0.4,0.1,0.7,0.3,1c0.2,0.2,0.4,0.3,0.7,0.3
		s0.7-0.2,1.1-0.5c0.9-0.6,2-2,3.5-4l1.1,0.8c-1.5,2.3-3.1,4.1-4.8,5.3c-1.6,1.2-3.2,1.8-4.6,1.8c-0.9,0-1.7-0.2-2.2-0.7
		s-0.7-1.2-0.7-2.1c0-1.1,0.3-2.6,0.8-4.3l0.7-2.5c-3,3.8-5.7,6.5-8.1,8.1c-1.8,1.1-3.5,1.6-5.2,1.6c-1.6,0-3.1-0.7-4.2-2
		c-1.2-1.4-1.8-3.2-1.8-5.6c0-3.6,1.1-7.3,3.2-11.3s4.9-7.1,8.2-9.5c2.6-1.9,5-2.8,7.3-2.8c1.4,0,2.5,0.4,3.4,1.1s1.6,1.9,2.1,3.6
		l1.2-3.8L571.6,1027.9z M559.6,1029.6c-1.4,0-2.9,0.7-4.6,2c-2.3,1.9-4.4,4.7-6.1,8.5c-1.8,3.7-2.7,7.1-2.7,10.2
		c0,1.5,0.4,2.7,1.1,3.6c0.8,0.9,1.7,1.3,2.7,1.3c2.4,0,5.1-1.8,7.9-5.4c3.8-4.8,5.8-9.7,5.8-14.7c0-1.9-0.4-3.3-1.1-4.1
		C561.9,1030.1,560.9,1029.6,559.6,1029.6z"/>
	<path class="st1" d="M594.1,1010.5l-11.5,40c-0.6,2-0.8,3.2-0.8,3.7c0,0.3,0.1,0.6,0.3,0.8c0.2,0.2,0.5,0.3,0.8,0.3
		c0.4,0,0.9-0.2,1.4-0.6c1.2-0.9,2.4-2.3,3.7-4.3l1,1c-2.1,3-4.1,5.1-5.9,6.3c-1.3,0.8-2.6,1.3-3.8,1.3c-0.8,0-1.5-0.3-2.1-0.9
		s-0.9-1.3-0.9-2c0-0.8,0.3-2.5,1-5l9.2-31.5c0.7-2.6,1.1-4.1,1.1-4.4c0-0.6-0.2-1-0.6-1.4c-0.4-0.3-1.1-0.5-2-0.5
		c-0.5,0-1.3,0.1-2.3,0.3v-1.3L594.1,1010.5z"/>
	<path class="st1" d="M624.6,1038.4c0,3.4-0.9,6.7-2.7,10s-4.3,5.9-7.4,7.8c-3.2,1.9-6.3,2.9-9.3,2.9c-3.1,0-5.6-1-7.5-2.9
		c-2-2-2.9-4.5-2.9-7.6c0-3.3,0.9-6.6,2.8-9.9c1.9-3.3,4.4-5.9,7.6-7.9c3.2-1.9,6.2-2.9,9.2-2.9s5.4,1,7.3,2.9
		C623.7,1032.8,624.6,1035.3,624.6,1038.4z M619.1,1036.1c0-2.1-0.5-3.7-1.5-4.8c-1-1.1-2.4-1.7-4-1.7c-3.3,0-6.3,2.4-9.1,7.1
		s-4.2,9.4-4.2,14.1c0,2.1,0.5,3.8,1.6,4.9c1.1,1.2,2.4,1.7,4.1,1.7c3.2,0,6.1-2.3,8.9-7S619.1,1041,619.1,1036.1z"/>
	<path class="st1" d="M676.3,1038.4c0,3.4-0.9,6.7-2.7,10s-4.3,5.9-7.4,7.8c-3.2,1.9-6.3,2.9-9.3,2.9c-3.1,0-5.6-1-7.5-2.9
		c-2-2-2.9-4.5-2.9-7.6c0-3.3,0.9-6.6,2.8-9.9c1.9-3.3,4.4-5.9,7.6-7.9c3.2-1.9,6.2-2.9,9.2-2.9s5.4,1,7.3,2.9
		C675.3,1032.8,676.3,1035.3,676.3,1038.4z M670.7,1036.1c0-2.1-0.5-3.7-1.5-4.8c-1-1.1-2.4-1.7-4-1.7c-3.3,0-6.3,2.4-9.1,7.1
		s-4.2,9.4-4.2,14.1c0,2.1,0.5,3.8,1.6,4.9c1.1,1.2,2.4,1.7,4.1,1.7c3.2,0,6.1-2.3,8.9-7C669.3,1045.7,670.7,1041,670.7,1036.1z"/>
	<path class="st1" d="M694.1,1027.9l-2.3,7.8c2.5-2.9,4.6-4.9,6.6-6c1.9-1.2,3.9-1.7,5.8-1.7c2,0,3.7,0.8,5.1,2.4
		c1.4,1.6,2.1,3.6,2.1,6.2c0,4.9-2,9.9-6,15s-8.7,7.6-14,7.6c-1.1,0-2.1-0.1-3-0.4c-0.9-0.2-1.8-0.7-2.9-1.3l-2.5,8.7
		c-0.5,1.7-0.8,2.8-0.8,3.3s0.1,0.9,0.4,1.3c0.3,0.3,0.7,0.6,1.3,0.8c0.6,0.2,1.7,0.3,3.4,0.3l-0.3,1.3h-15.8l0.3-1.3
		c2.1-0.1,3.5-0.4,4.2-1.1c0.7-0.6,1.5-2.4,2.3-5.2l8.5-29.5c0.5-1.9,0.8-3,0.8-3.5c0-0.6-0.2-1.1-0.5-1.4s-0.9-0.5-1.6-0.5
		c-0.7,0-1.6,0.1-2.7,0.3v-1.3L694.1,1027.9z M686.3,1054.8c1.4,1.7,3.3,2.5,5.6,2.5c1.1,0,2.3-0.3,3.5-1s2.4-1.6,3.6-2.9
		c1.2-1.3,2.2-2.7,3.1-4.4s1.7-3.6,2.5-5.9c0.7-2.3,1.1-4.5,1.1-6.7c0-1.8-0.4-3.1-1.2-4.1c-0.8-0.9-1.8-1.4-2.9-1.4
		c-2.4,0-4.8,1.4-7.2,4.2c-2.4,2.8-4.1,6-5.2,9.8L686.3,1054.8z"/>
	<path class="st1" d="M739.9,1051c-2.3,2.8-4.7,4.8-7.1,6.1c-2.4,1.3-4.9,2-7.5,2c-3.2,0-5.7-0.9-7.4-2.7c-1.8-1.8-2.7-4.2-2.7-7.2
		c0-3.4,1-6.8,2.9-10.1c1.9-3.3,4.5-6,7.7-8.1s6.4-3.1,9.5-3.1c2.5,0,4.3,0.5,5.5,1.5s1.8,2.3,1.8,3.8c0,1.4-0.4,2.6-1.3,3.6
		c-0.6,0.8-1.4,1.2-2.3,1.2c-0.7,0-1.3-0.2-1.7-0.7c-0.5-0.5-0.7-1-0.7-1.7c0-0.4,0.1-0.8,0.2-1.2c0.2-0.4,0.5-0.8,1-1.3
		s0.8-0.9,1-1.1c0.1-0.2,0.2-0.5,0.2-0.7c0-0.5-0.2-0.9-0.6-1.2c-0.7-0.4-1.6-0.7-2.8-0.7c-2.2,0-4.4,0.8-6.5,2.3
		c-2.2,1.5-4,3.7-5.5,6.6c-1.8,3.5-2.8,6.9-2.8,10.4c0,2.3,0.7,4.1,2,5.4s3.1,2,5.3,2c1.7,0,3.4-0.4,5.1-1.3
		c1.7-0.9,3.6-2.4,5.7-4.7L739.9,1051z"/>
	<path class="st1" d="M759.7,1027.9l-6.6,23.6c-0.4,1.6-0.7,2.5-0.7,2.8c0,0.4,0.1,0.7,0.3,0.9c0.2,0.2,0.5,0.3,0.7,0.3
		c0.4,0,0.8-0.2,1.2-0.5c1.3-1,2.6-2.4,3.9-4.3l1.2,0.8c-1.5,2.3-3.3,4.3-5.4,5.9c-1.5,1.2-3,1.8-4.3,1.8c-0.9,0-1.7-0.3-2.3-0.8
		s-0.9-1.2-0.9-2.1c0-0.8,0.3-2.2,0.8-4.1l4.4-15.1c0.7-2.5,1-4,1-4.6c0-0.5-0.2-0.9-0.5-1.2c-0.3-0.3-0.8-0.5-1.4-0.5
		c-0.5,0-1.5,0.1-3.1,0.4v-1.3L759.7,1027.9z M759.3,1014.6c0.9,0,1.7,0.3,2.4,1c0.6,0.7,1,1.4,1,2.4c0,0.9-0.3,1.7-1,2.4
		s-1.4,1-2.4,1c-0.9,0-1.7-0.3-2.4-1s-1-1.5-1-2.4s0.3-1.7,1-2.4C757.5,1014.9,758.3,1014.6,759.3,1014.6z"/>
	<path class="st1" d="M794.9,1038.4c0,3.4-0.9,6.7-2.7,10s-4.3,5.9-7.4,7.8c-3.2,1.9-6.3,2.9-9.3,2.9c-3.1,0-5.6-1-7.5-2.9
		c-2-2-2.9-4.5-2.9-7.6c0-3.3,0.9-6.6,2.8-9.9c1.9-3.3,4.4-5.9,7.6-7.9c3.2-1.9,6.2-2.9,9.2-2.9s5.4,1,7.3,2.9
		C793.9,1032.8,794.9,1035.3,794.9,1038.4z M789.3,1036.1c0-2.1-0.5-3.7-1.5-4.8c-1-1.1-2.4-1.7-4-1.7c-3.3,0-6.3,2.4-9.1,7.1
		s-4.2,9.4-4.2,14.1c0,2.1,0.5,3.8,1.6,4.9c1.1,1.2,2.4,1.7,4.1,1.7c3.2,0,6.1-2.3,8.9-7S789.3,1041,789.3,1036.1z"/>
	<path class="st1" d="M812.7,1027.9l-4.5,15.3c4.2-6.3,7.4-10.4,9.6-12.4c2.2-2,4.4-3,6.5-3c1.1,0,2,0.4,2.8,1.1
		c0.7,0.8,1.1,1.7,1.1,2.9c0,1.4-0.3,3.2-1,5.4l-4.1,14.2c-0.5,1.6-0.7,2.6-0.7,3c0,0.3,0.1,0.6,0.3,0.8c0.2,0.2,0.4,0.3,0.6,0.3
		c0.3,0,0.6-0.1,1-0.4c1.2-0.9,2.5-2.4,3.9-4.3l1,0.6c-2.1,3-4.1,5.1-5.9,6.4c-1.3,0.9-2.5,1.3-3.5,1.3c-0.8,0-1.5-0.3-2-0.8
		s-0.7-1.2-0.7-2c0-1.1,0.4-2.9,1.1-5.6l3.9-13.5c0.5-1.7,0.7-3,0.7-3.9c0-0.4-0.1-0.8-0.4-1.1c-0.3-0.3-0.6-0.4-1.1-0.4
		c-0.6,0-1.4,0.3-2.3,0.8c-1.6,1-3.4,2.7-5.2,5s-3.7,5.3-5.7,8.9c-1.1,1.9-1.9,4-2.6,6.3l-1.7,5.6h-5.1l6.1-21.1
		c0.7-2.5,1.1-4.1,1.1-4.6s-0.2-0.9-0.6-1.3c-0.4-0.4-0.9-0.6-1.4-0.6c-0.3,0-0.8,0.1-1.4,0.2l-1.3,0.2l-0.2-1.2L812.7,1027.9z"/>
	<path class="st1" d="M864.2,1027.9l-6.6,22.8l-0.8,3.1c-0.1,0.3-0.1,0.5-0.1,0.7c0,0.4,0.1,0.7,0.3,1c0.2,0.2,0.4,0.3,0.7,0.3
		s0.7-0.2,1.1-0.5c0.9-0.6,2-2,3.5-4l1.1,0.8c-1.5,2.3-3.1,4.1-4.8,5.3c-1.6,1.2-3.2,1.8-4.6,1.8c-0.9,0-1.7-0.2-2.2-0.7
		s-0.7-1.2-0.7-2.1c0-1.1,0.3-2.6,0.8-4.3l0.7-2.5c-3,3.8-5.7,6.5-8.1,8.1c-1.8,1.1-3.5,1.6-5.2,1.6c-1.6,0-3.1-0.7-4.2-2
		c-1.2-1.4-1.8-3.2-1.8-5.6c0-3.6,1.1-7.3,3.2-11.3s4.9-7.1,8.2-9.5c2.6-1.9,5-2.8,7.3-2.8c1.4,0,2.5,0.4,3.4,1.1s1.6,1.9,2.1,3.6
		l1.2-3.8L864.2,1027.9z M852.2,1029.6c-1.4,0-2.9,0.7-4.6,2c-2.3,1.9-4.4,4.7-6.1,8.5c-1.8,3.7-2.7,7.1-2.7,10.2
		c0,1.5,0.4,2.7,1.1,3.6c0.8,0.9,1.7,1.3,2.7,1.3c2.4,0,5.1-1.8,7.9-5.4c3.8-4.8,5.8-9.7,5.8-14.7c0-1.9-0.4-3.3-1.1-4.1
		C854.5,1030.1,853.5,1029.6,852.2,1029.6z"/>
	<path class="st1" d="M886.8,1010.5l-11.5,40c-0.6,2-0.8,3.2-0.8,3.7c0,0.3,0.1,0.6,0.3,0.8c0.2,0.2,0.5,0.3,0.8,0.3
		c0.4,0,0.9-0.2,1.4-0.6c1.2-0.9,2.4-2.3,3.7-4.3l1,1c-2.1,3-4.1,5.1-5.9,6.3c-1.3,0.8-2.6,1.3-3.8,1.3c-0.8,0-1.5-0.3-2.1-0.9
		s-0.9-1.3-0.9-2c0-0.8,0.3-2.5,1-5l9.2-31.5c0.7-2.6,1.1-4.1,1.1-4.4c0-0.6-0.2-1-0.6-1.4c-0.4-0.3-1.1-0.5-2-0.5
		c-0.5,0-1.3,0.1-2.3,0.3v-1.3L886.8,1010.5z"/>
</g>
<text transform="matrix(1 0 0 1 1649.7212 955.6682)" style="font-family:'Vijaya'; font-size:85.569px;">La asistencia es obligatoria,</text>
<text transform="matrix(1 0 0 1 1789.4211 1058.3682)" style="font-family:'Vijaya'; font-size:85.569px;">el regalo opcional</text>
<g>
	<path class="st1" d="M256.9,1174.6v14.7h8.1c2.1,0,3.5-0.3,4.2-1c1-0.8,1.5-2.3,1.6-4.4h1v12.9h-1c-0.2-1.8-0.5-3-0.8-3.5
		c-0.3-0.7-0.9-1.2-1.6-1.5c-0.7-0.4-1.9-0.5-3.5-0.5h-8.1v12.2c0,1.7,0.1,2.7,0.2,3s0.4,0.6,0.8,0.8c0.4,0.2,1.1,0.3,2.1,0.3h6.3
		c2.1,0,3.6-0.1,4.6-0.4s1.9-0.9,2.8-1.7c1.1-1.1,2.3-2.8,3.5-5.1h1.1l-3.2,9.3h-28.6v-1h1.3c0.9,0,1.7-0.2,2.5-0.6
		c0.6-0.3,1-0.7,1.2-1.3c0.2-0.6,0.3-1.8,0.3-3.6v-24.1c0-2.3-0.2-3.8-0.7-4.4c-0.7-0.7-1.8-1.1-3.3-1.1h-1.3v-1H275l0.4,8.2h-1.1
		c-0.4-2-0.8-3.3-1.3-4s-1.2-1.3-2.1-1.7c-0.7-0.3-2-0.4-3.9-0.4h-10.1V1174.6z"/>
	<path class="st1" d="M305.1,1171.7v12.9h-1c-0.3-2.5-0.9-4.4-1.8-5.9s-2.1-2.6-3.6-3.5s-3.2-1.3-4.9-1.3c-1.9,0-3.4,0.6-4.7,1.7
		c-1.2,1.2-1.9,2.5-1.9,3.9c0,1.1,0.4,2.2,1.2,3.1c1.1,1.4,3.8,3.2,8.1,5.5c3.5,1.9,5.8,3.3,7.1,4.3c1.3,1,2.2,2.2,2.9,3.5
		c0.7,1.3,1,2.8,1,4.2c0,2.8-1.1,5.2-3.3,7.3s-5,3.1-8.4,3.1c-1.1,0-2.1-0.1-3.1-0.2c-0.6-0.1-1.7-0.4-3.5-1s-2.9-0.9-3.4-0.9
		s-0.8,0.1-1.1,0.4c-0.3,0.3-0.5,0.8-0.6,1.7h-1v-12.7h1c0.5,2.7,1.1,4.6,1.9,6s2,2.4,3.7,3.3s3.5,1.3,5.4,1.3
		c2.3,0,4.1-0.6,5.4-1.8s2-2.6,2-4.3c0-0.9-0.2-1.8-0.7-2.8c-0.5-0.9-1.3-1.8-2.3-2.6c-0.7-0.5-2.6-1.7-5.8-3.5
		c-3.2-1.8-5.4-3.2-6.8-4.3c-1.3-1.1-2.4-2.2-3.1-3.5s-1-2.7-1-4.2c0-2.7,1-5,3.1-6.9c2-1.9,4.6-2.9,7.8-2.9c2,0,4.1,0.5,6.3,1.5
		c1,0.5,1.7,0.7,2.2,0.7s0.8-0.1,1.1-0.4c0.3-0.3,0.5-0.9,0.7-1.7L305.1,1171.7L305.1,1171.7z"/>
	<path class="st1" d="M317.1,1176.2l9-4.4h0.9v31.3c0,2.1,0.1,3.3,0.3,3.9c0.2,0.5,0.5,0.9,1.1,1.2s1.7,0.4,3.3,0.5v1h-13.9v-1
		c1.7,0,2.9-0.2,3.4-0.4c0.5-0.3,0.9-0.6,1.1-1.1c0.2-0.4,0.3-1.8,0.3-4v-20.1c0-2.7-0.1-4.4-0.3-5.2c-0.1-0.6-0.4-1-0.7-1.3
		s-0.7-0.4-1.2-0.4c-0.7,0-1.6,0.3-2.8,0.8L317.1,1176.2z"/>
	<path class="st1" d="M341.4,1179.7c1-2.5,2.4-4.4,4-5.8s3.6-2,6-2c3,0,5.2,1,6.8,2.9c1.2,1.5,1.8,3,1.8,4.6c0,2.7-1.7,5.5-5.1,8.4
		c2.3,0.9,4,2.2,5.2,3.8c1.2,1.7,1.8,3.6,1.8,5.9c0,3.2-1,6-3.1,8.3c-2.7,3.1-6.5,4.6-11.6,4.6c-2.5,0-4.2-0.3-5.1-0.9
		s-1.4-1.3-1.4-2c0-0.5,0.2-1,0.6-1.4s0.9-0.6,1.5-0.6c0.5,0,0.9,0.1,1.4,0.2c0.3,0.1,1,0.4,2.1,1s1.9,0.9,2.3,1
		c0.7,0.2,1.4,0.3,2.2,0.3c1.9,0,3.5-0.7,4.8-2.2s2.1-3.1,2.1-5.1c0-1.4-0.3-2.8-1-4.2c-0.5-1-1-1.8-1.6-2.3c-0.8-0.7-1.8-1.4-3.2-2
		c-1.4-0.6-2.8-0.9-4.2-0.9h-0.9v-0.8c1.5-0.2,2.9-0.7,4.4-1.6s2.5-1.9,3.2-3.1s1-2.5,1-3.9c0-1.9-0.6-3.4-1.8-4.6
		c-1.2-1.2-2.6-1.8-4.4-1.8c-2.8,0-5.2,1.5-7.1,4.6L341.4,1179.7z"/>
	<path class="st1" d="M406.3,1202.6l-2.6,7.1h-21.9v-1c6.5-5.9,11-10.7,13.6-14.4c2.6-3.7,3.9-7.1,3.9-10.2c0-2.4-0.7-4.3-2.2-5.8
		c-1.4-1.5-3.2-2.3-5.2-2.3c-1.8,0-3.5,0.5-4.9,1.6s-2.5,2.6-3.2,4.7h-1c0.5-3.4,1.6-6,3.5-7.8s4.2-2.7,7.1-2.7c3,0,5.5,1,7.5,2.9
		s3,4.2,3,6.8c0,1.9-0.4,3.8-1.3,5.6c-1.3,3-3.5,6.1-6.6,9.4c-4.5,5-7.4,8-8.5,9h9.7c2,0,3.4-0.1,4.1-0.2c0.8-0.1,1.5-0.4,2.1-0.9
		s1.2-1.1,1.7-1.9h1.2V1202.6z"/>
	<path class="st1" d="M415.2,1176.2l9-4.4h0.9v31.3c0,2.1,0.1,3.3,0.3,3.9c0.2,0.5,0.5,0.9,1.1,1.2s1.7,0.4,3.3,0.5v1h-13.9v-1
		c1.7,0,2.9-0.2,3.4-0.4c0.5-0.3,0.9-0.6,1.1-1.1c0.2-0.4,0.3-1.8,0.3-4v-20.1c0-2.7-0.1-4.4-0.3-5.2c-0.1-0.6-0.4-1-0.7-1.3
		s-0.7-0.4-1.2-0.4c-0.7,0-1.6,0.3-2.8,0.8L415.2,1176.2z"/>
	<path class="st1" d="M438.6,1191.4c0-4.2,0.6-7.9,1.9-10.9s3-5.3,5.1-6.8c1.6-1.2,3.3-1.8,5.1-1.8c2.9,0,5.4,1.5,7.7,4.4
		c2.8,3.6,4.2,8.5,4.2,14.6c0,4.3-0.6,8-1.9,11c-1.2,3-2.8,5.2-4.8,6.5c-1.9,1.4-3.8,2-5.6,2c-3.5,0-6.5-2.1-8.8-6.3
		C439.6,1200.6,438.6,1196.4,438.6,1191.4z M444,1192.1c0,5.1,0.6,9.3,1.9,12.5c1,2.7,2.6,4.1,4.7,4.1c1,0,2-0.4,3.1-1.3
		s1.9-2.4,2.4-4.5c0.8-3.2,1.3-7.6,1.3-13.3c0-4.2-0.4-7.7-1.3-10.6c-0.7-2.1-1.5-3.6-2.5-4.5c-0.7-0.6-1.6-0.9-2.7-0.9
		c-1.2,0-2.4,0.6-3.3,1.7c-1.3,1.5-2.2,3.9-2.7,7.2C444.2,1185.7,444,1188.9,444,1192.1z"/>
	<path class="st1" d="M466.7,1191.4c0-4.2,0.6-7.9,1.9-10.9s3-5.3,5.1-6.8c1.6-1.2,3.3-1.8,5.1-1.8c2.9,0,5.4,1.5,7.7,4.4
		c2.8,3.6,4.2,8.5,4.2,14.6c0,4.3-0.6,8-1.9,11c-1.2,3-2.8,5.2-4.8,6.5c-1.9,1.4-3.8,2-5.6,2c-3.5,0-6.5-2.1-8.8-6.3
		C467.6,1200.6,466.7,1196.4,466.7,1191.4z M472,1192.1c0,5.1,0.6,9.3,1.9,12.5c1,2.7,2.6,4.1,4.7,4.1c1,0,2-0.4,3.1-1.3
		s1.9-2.4,2.4-4.5c0.8-3.2,1.3-7.6,1.3-13.3c0-4.2-0.4-7.7-1.3-10.6c-0.7-2.1-1.5-3.6-2.5-4.5c-0.7-0.6-1.6-0.9-2.7-0.9
		c-1.2,0-2.4,0.6-3.3,1.7c-1.3,1.5-2.2,3.9-2.7,7.2C472.2,1185.7,472,1188.9,472,1192.1z"/>
	<path class="st1" d="M509.5,1179.7c1-2.5,2.4-4.4,4-5.8c1.6-1.4,3.6-2,6-2c3,0,5.2,1,6.8,2.9c1.2,1.5,1.8,3,1.8,4.6
		c0,2.7-1.7,5.5-5.1,8.4c2.3,0.9,4,2.2,5.2,3.8c1.2,1.7,1.8,3.6,1.8,5.9c0,3.2-1,6-3.1,8.3c-2.7,3.1-6.5,4.6-11.6,4.6
		c-2.5,0-4.2-0.3-5.1-0.9s-1.4-1.3-1.4-2c0-0.5,0.2-1,0.6-1.4s0.9-0.6,1.5-0.6c0.5,0,0.9,0.1,1.4,0.2c0.3,0.1,1,0.4,2.1,1
		s1.9,0.9,2.3,1c0.7,0.2,1.4,0.3,2.2,0.3c1.9,0,3.5-0.7,4.8-2.2s2.1-3.1,2.1-5.1c0-1.4-0.3-2.8-1-4.2c-0.5-1-1-1.8-1.6-2.3
		c-0.8-0.7-1.8-1.4-3.2-2s-2.8-0.9-4.2-0.9h-0.9v-0.8c1.5-0.2,2.9-0.7,4.4-1.6s2.5-1.9,3.2-3.1s1-2.5,1-3.9c0-1.9-0.6-3.4-1.8-4.6
		s-2.6-1.8-4.4-1.8c-2.8,0-5.2,1.5-7.1,4.6L509.5,1179.7z"/>
	<path class="st1" d="M560.3,1202.6l-2.6,7.1h-21.9v-1c6.5-5.9,11-10.7,13.6-14.4c2.6-3.7,3.9-7.1,3.9-10.2c0-2.4-0.7-4.3-2.2-5.8
		c-1.4-1.5-3.2-2.3-5.2-2.3c-1.8,0-3.5,0.5-4.9,1.6s-2.5,2.6-3.2,4.7h-1c0.5-3.4,1.6-6,3.5-7.8s4.2-2.7,7.1-2.7c3,0,5.5,1,7.5,2.9
		s3,4.2,3,6.8c0,1.9-0.4,3.8-1.3,5.6c-1.3,3-3.5,6.1-6.6,9.4c-4.5,5-7.4,8-8.5,9h9.7c2,0,3.4-0.1,4.1-0.2c0.8-0.1,1.5-0.4,2.1-0.9
		s1.2-1.1,1.7-1.9h1.2V1202.6z"/>
	<path class="st1" d="M568.3,1172.6h19.9v1.1l-12.4,36.9h-3.1l11.1-33.4h-10.2c-2.1,0-3.5,0.2-4.4,0.7c-1.5,0.8-2.7,2.1-3.7,3.9
		l-0.8-0.3L568.3,1172.6z"/>
	<path class="st1" d="M601.4,1191c-2.9-2.4-4.8-4.3-5.7-5.8c-0.8-1.5-1.3-3-1.3-4.5c0-2.4,0.9-4.5,2.8-6.2c1.9-1.7,4.3-2.6,7.4-2.6
		c3,0,5.4,0.8,7.2,2.4s2.7,3.5,2.7,5.6c0,1.4-0.5,2.8-1.5,4.2c-1,1.4-3,3.1-6.1,5.1c3.2,2.5,5.3,4.5,6.4,5.9
		c1.4,1.9,2.1,3.8,2.1,5.9c0,2.6-1,4.8-3,6.7c-2,1.8-4.6,2.8-7.8,2.8c-3.5,0-6.3-1.1-8.2-3.3c-1.6-1.8-2.3-3.7-2.3-5.8
		c0-1.6,0.5-3.3,1.6-4.9C596.8,1194.8,598.7,1193,601.4,1191z M602.7,1192.1c-1.5,1.3-2.6,2.7-3.4,4.2c-0.7,1.5-1.1,3.1-1.1,4.9
		c0,2.4,0.6,4.2,1.9,5.7s2.9,2.1,4.9,2.1s3.6-0.6,4.7-1.7c1.2-1.1,1.8-2.5,1.8-4c0-1.3-0.4-2.5-1.1-3.5
		C609.3,1197.7,606.7,1195.2,602.7,1192.1z M605.7,1188.1c2.2-2,3.6-3.5,4.1-4.7c0.6-1.1,0.9-2.4,0.9-3.9c0-1.9-0.5-3.4-1.6-4.5
		s-2.5-1.6-4.4-1.6s-3.4,0.5-4.5,1.6c-1.2,1.1-1.8,2.3-1.8,3.8c0,1,0.2,1.9,0.7,2.9s1.2,1.9,2.1,2.7L605.7,1188.1z"/>
	<path class="st1" d="M657.8,1171.8v1c-2.4,0.2-4.4,0.7-5.9,1.4c-1.5,0.7-3,1.8-4.5,3.3s-2.7,3.1-3.7,4.9s-1.8,4-2.4,6.5
		c2.6-1.8,5.3-2.7,7.9-2.7c2.5,0,4.7,1,6.6,3.1c1.9,2,2.8,4.7,2.8,7.9c0,3.1-0.9,5.9-2.8,8.5c-2.3,3.1-5.3,4.7-9,4.7
		c-2.5,0-4.7-0.8-6.5-2.5c-3.5-3.3-5.2-7.5-5.2-12.7c0-3.3,0.7-6.5,2-9.5s3.2-5.6,5.7-8c2.5-2.3,4.8-3.9,7.1-4.7
		c2.3-0.8,4.4-1.2,6.3-1.2L657.8,1171.8L657.8,1171.8z M640.8,1191c-0.3,2.5-0.5,4.5-0.5,6c0,1.7,0.3,3.6,1,5.7
		c0.6,2.1,1.6,3.7,2.9,4.9c0.9,0.9,2.1,1.3,3.4,1.3c1.6,0,3-0.7,4.2-2.2s1.9-3.6,1.9-6.4c0-3.1-0.6-5.8-1.9-8.1
		c-1.2-2.3-3-3.4-5.3-3.4c-0.7,0-1.4,0.1-2.2,0.4C643.5,1189.4,642.4,1190,640.8,1191z"/>
	<path class="st1" d="M667.3,1176.2l9-4.4h0.9v31.3c0,2.1,0.1,3.3,0.3,3.9c0.2,0.5,0.5,0.9,1.1,1.2s1.7,0.4,3.3,0.5v1H668v-1
		c1.7,0,2.9-0.2,3.4-0.4c0.5-0.3,0.9-0.6,1.1-1.1c0.2-0.4,0.3-1.8,0.3-4v-20.1c0-2.7-0.1-4.4-0.3-5.2c-0.1-0.6-0.4-1-0.7-1.3
		s-0.7-0.4-1.2-0.4c-0.7,0-1.6,0.3-2.8,0.8L667.3,1176.2z"/>
	<path class="st1" d="M714.4,1202.6l-2.6,7.1h-21.9v-1c6.5-5.9,11-10.7,13.6-14.4c2.6-3.7,3.9-7.1,3.9-10.2c0-2.4-0.7-4.3-2.2-5.8
		c-1.4-1.5-3.2-2.3-5.2-2.3c-1.8,0-3.5,0.5-4.9,1.6s-2.5,2.6-3.2,4.7h-1c0.5-3.4,1.6-6,3.5-7.8s4.2-2.7,7.1-2.7c3,0,5.5,1,7.5,2.9
		s3,4.2,3,6.8c0,1.9-0.4,3.8-1.3,5.6c-1.3,3-3.5,6.1-6.6,9.4c-4.5,5-7.4,8-8.5,9h9.7c2,0,3.4-0.1,4.1-0.2c0.8-0.1,1.5-0.4,2.1-0.9
		s1.2-1.1,1.7-1.9h1.2V1202.6z"/>
	<path class="st1" d="M742.4,1202.6l-2.6,7.1h-21.9v-1c6.5-5.9,11-10.7,13.6-14.4c2.6-3.7,3.9-7.1,3.9-10.2c0-2.4-0.7-4.3-2.2-5.8
		c-1.4-1.5-3.2-2.3-5.2-2.3c-1.8,0-3.5,0.5-4.9,1.6s-2.5,2.6-3.2,4.7h-1c0.5-3.4,1.6-6,3.5-7.8s4.2-2.7,7.1-2.7c3,0,5.5,1,7.5,2.9
		s3,4.2,3,6.8c0,1.9-0.4,3.8-1.3,5.6c-1.3,3-3.5,6.1-6.6,9.4c-4.5,5-7.4,8-8.5,9h9.7c2,0,3.4-0.1,4.1-0.2c0.8-0.1,1.5-0.4,2.1-0.9
		s1.2-1.1,1.7-1.9h1.2V1202.6z"/>
	<path class="st1" d="M760.8,1191.4c0-4.2,0.6-7.9,1.9-10.9s3-5.3,5.1-6.8c1.6-1.2,3.3-1.8,5.1-1.8c2.9,0,5.4,1.5,7.7,4.4
		c2.8,3.6,4.2,8.5,4.2,14.6c0,4.3-0.6,8-1.9,11c-1.2,3-2.8,5.2-4.8,6.5c-1.9,1.4-3.8,2-5.6,2c-3.5,0-6.5-2.1-8.8-6.3
		C761.8,1200.6,760.8,1196.4,760.8,1191.4z M766.1,1192.1c0,5.1,0.6,9.3,1.9,12.5c1,2.7,2.6,4.1,4.7,4.1c1,0,2-0.4,3.1-1.3
		s1.9-2.4,2.4-4.5c0.8-3.2,1.3-7.6,1.3-13.3c0-4.2-0.4-7.7-1.3-10.6c-0.7-2.1-1.5-3.6-2.5-4.5c-0.7-0.6-1.6-0.9-2.7-0.9
		c-1.2,0-2.4,0.6-3.3,1.7c-1.3,1.5-2.2,3.9-2.7,7.2C766.4,1185.7,766.1,1188.9,766.1,1192.1z"/>
	<path class="st1" d="M788.8,1191.4c0-4.2,0.6-7.9,1.9-10.9s3-5.3,5.1-6.8c1.6-1.2,3.3-1.8,5.1-1.8c2.9,0,5.4,1.5,7.7,4.4
		c2.8,3.6,4.2,8.5,4.2,14.6c0,4.3-0.6,8-1.9,11c-1.2,3-2.8,5.2-4.8,6.5c-1.9,1.4-3.8,2-5.6,2c-3.5,0-6.5-2.1-8.8-6.3
		C789.8,1200.6,788.8,1196.4,788.8,1191.4z M794.1,1192.1c0,5.1,0.6,9.3,1.9,12.5c1,2.7,2.6,4.1,4.7,4.1c1,0,2-0.4,3.1-1.3
		s1.9-2.4,2.4-4.5c0.8-3.2,1.3-7.6,1.3-13.3c0-4.2-0.4-7.7-1.3-10.6c-0.7-2.1-1.5-3.6-2.5-4.5c-0.7-0.6-1.6-0.9-2.7-0.9
		c-1.2,0-2.4,0.6-3.3,1.7c-1.3,1.5-2.2,3.9-2.7,7.2C794.4,1185.7,794.1,1188.9,794.1,1192.1z"/>
	<path class="st1" d="M840.5,1202.6l-2.6,7.1H816v-1c6.5-5.9,11-10.7,13.6-14.4c2.6-3.7,3.9-7.1,3.9-10.2c0-2.4-0.7-4.3-2.2-5.8
		c-1.4-1.5-3.2-2.3-5.2-2.3c-1.8,0-3.5,0.5-4.9,1.6s-2.5,2.6-3.2,4.7h-1c0.5-3.4,1.6-6,3.5-7.8s4.2-2.7,7.1-2.7c3,0,5.5,1,7.5,2.9
		s3,4.2,3,6.8c0,1.9-0.4,3.8-1.3,5.6c-1.3,3-3.5,6.1-6.6,9.4c-4.5,5-7.4,8-8.5,9h9.7c2,0,3.4-0.1,4.1-0.2c0.8-0.1,1.5-0.4,2.1-0.9
		s1.2-1.1,1.7-1.9h1.2V1202.6z"/>
	<path class="st1" d="M849.4,1176.2l9-4.4h0.9v31.3c0,2.1,0.1,3.3,0.3,3.9c0.2,0.5,0.5,0.9,1.1,1.2s1.7,0.4,3.3,0.5v1h-14v-1
		c1.7,0,2.9-0.2,3.4-0.4c0.5-0.3,0.9-0.6,1.1-1.1c0.2-0.4,0.3-1.8,0.3-4v-20.1c0-2.7-0.1-4.4-0.3-5.2c-0.1-0.6-0.4-1-0.7-1.3
		s-0.7-0.4-1.2-0.4c-0.7,0-1.6,0.3-2.8,0.8L849.4,1176.2z"/>
	<path class="st1" d="M895.6,1191c-2.9-2.4-4.8-4.3-5.7-5.8c-0.8-1.5-1.3-3-1.3-4.5c0-2.4,0.9-4.5,2.8-6.2c1.9-1.7,4.3-2.6,7.4-2.6
		c3,0,5.4,0.8,7.2,2.4s2.7,3.5,2.7,5.6c0,1.4-0.5,2.8-1.5,4.2c-1,1.4-3,3.1-6.1,5.1c3.2,2.5,5.3,4.5,6.4,5.9
		c1.4,1.9,2.1,3.8,2.1,5.9c0,2.6-1,4.8-3,6.7c-2,1.8-4.6,2.8-7.8,2.8c-3.5,0-6.3-1.1-8.2-3.3c-1.6-1.8-2.3-3.7-2.3-5.8
		c0-1.6,0.5-3.3,1.6-4.9C891,1194.8,892.9,1193,895.6,1191z M896.8,1192.1c-1.5,1.3-2.6,2.7-3.4,4.2c-0.7,1.5-1.1,3.1-1.1,4.9
		c0,2.4,0.6,4.2,1.9,5.7s2.9,2.1,4.9,2.1s3.6-0.6,4.7-1.7c1.2-1.1,1.8-2.5,1.8-4c0-1.3-0.4-2.5-1.1-3.5
		C903.4,1197.7,900.8,1195.2,896.8,1192.1z M899.9,1188.1c2.2-2,3.6-3.5,4.1-4.7c0.6-1.1,0.9-2.4,0.9-3.9c0-1.9-0.5-3.4-1.6-4.5
		s-2.5-1.6-4.4-1.6s-3.4,0.5-4.5,1.6c-1.2,1.1-1.8,2.3-1.8,3.8c0,1,0.2,1.9,0.7,2.9s1.2,1.9,2.1,2.7L899.9,1188.1z"/>
	<path class="st1" d="M914.9,1191.4c0-4.2,0.6-7.9,1.9-10.9s3-5.3,5.1-6.8c1.6-1.2,3.3-1.8,5.1-1.8c2.9,0,5.4,1.5,7.7,4.4
		c2.8,3.6,4.2,8.5,4.2,14.6c0,4.3-0.6,8-1.9,11c-1.2,3-2.8,5.2-4.8,6.5c-1.9,1.4-3.8,2-5.6,2c-3.5,0-6.5-2.1-8.8-6.3
		C915.9,1200.6,914.9,1196.4,914.9,1191.4z M920.2,1192.1c0,5.1,0.6,9.3,1.9,12.5c1,2.7,2.6,4.1,4.7,4.1c1,0,2-0.4,3.1-1.3
		s1.9-2.4,2.4-4.5c0.8-3.2,1.3-7.6,1.3-13.3c0-4.2-0.4-7.7-1.3-10.6c-0.7-2.1-1.5-3.6-2.5-4.5c-0.7-0.6-1.6-0.9-2.7-0.9
		c-1.2,0-2.4,0.6-3.3,1.7c-1.3,1.5-2.2,3.9-2.7,7.2C920.4,1185.7,920.2,1188.9,920.2,1192.1z"/>
	<path class="st1" d="M966.5,1202.6l-2.6,7.1H942v-1c6.5-5.9,11-10.7,13.6-14.4c2.6-3.7,3.9-7.1,3.9-10.2c0-2.4-0.7-4.3-2.2-5.8
		c-1.4-1.5-3.2-2.3-5.2-2.3c-1.8,0-3.5,0.5-4.9,1.6s-2.5,2.6-3.2,4.7h-1c0.5-3.4,1.6-6,3.5-7.8s4.2-2.7,7.1-2.7c3,0,5.5,1,7.5,2.9
		s3,4.2,3,6.8c0,1.9-0.4,3.8-1.3,5.6c-1.3,3-3.5,6.1-6.6,9.4c-4.5,5-7.4,8-8.5,9h9.7c2,0,3.4-0.1,4.1-0.2c0.8-0.1,1.5-0.4,2.1-0.9
		s1.2-1.1,1.7-1.9h1.2V1202.6z"/>
	<path class="st1" d="M971.7,1179.7c1-2.5,2.4-4.4,4-5.8s3.6-2,6-2c3,0,5.2,1,6.8,2.9c1.2,1.5,1.8,3,1.8,4.6c0,2.7-1.7,5.5-5.1,8.4
		c2.3,0.9,4,2.2,5.2,3.8c1.2,1.7,1.8,3.6,1.8,5.9c0,3.2-1,6-3.1,8.3c-2.7,3.1-6.5,4.6-11.6,4.6c-2.5,0-4.2-0.3-5.1-0.9
		c-0.9-0.6-1.4-1.3-1.4-2c0-0.5,0.2-1,0.6-1.4c0.4-0.4,0.9-0.6,1.5-0.6c0.5,0,0.9,0.1,1.4,0.2c0.3,0.1,1,0.4,2.1,1s1.9,0.9,2.3,1
		c0.7,0.2,1.4,0.3,2.2,0.3c1.9,0,3.5-0.7,4.8-2.2s2.1-3.1,2.1-5.1c0-1.4-0.3-2.8-1-4.2c-0.5-1-1-1.8-1.6-2.3c-0.8-0.7-1.8-1.4-3.2-2
		s-2.8-0.9-4.2-0.9h-0.9v-0.8c1.5-0.2,2.9-0.7,4.4-1.6s2.5-1.9,3.2-3.1s1-2.5,1-3.9c0-1.9-0.6-3.4-1.8-4.6s-2.6-1.8-4.4-1.8
		c-2.8,0-5.2,1.5-7.1,4.6L971.7,1179.7z"/>
</g>
<g>
	<path class="st1" d="M890.5,1053c0.8,0,1.5,0.3,2,0.8c0.6,0.5,0.8,1.2,0.8,2c0,0.8-0.3,1.5-0.8,2c-0.6,0.6-1.2,0.8-2,0.8
		c-0.8,0-1.5-0.3-2-0.8c-0.5-0.6-0.8-1.2-0.8-2c0-0.8,0.3-1.5,0.8-2C889,1053.3,889.7,1053,890.5,1053z"/>
</g>
</svg>
